<?xml version="1.0" encoding="utf-8"?>
<!-- Generator: Adobe Illustrator 27.6.1, SVG Export Plug-In . SVG Version: 6.00 Build 0)  -->
<svg version="1.1" xmlns="http://www.w3.org/2000/svg" xmlns:xlink="http://www.w3.org/1999/xlink" x="0px" y="0px"
	 viewBox="0 0 744 542" style="enable-background:new 0 0 744 542;" xml:space="preserve">
<style type="text/css">
	.st0{fill:#FFFFFF;}
	.st1{clip-path:url(#SVGID_00000091700258139473912420000006765073509954021785_);}
	.st2{clip-path:url(#SVGID_00000086687756805221351850000000329594727441257880_);fill:#1D263B;}
	.st3{clip-path:url(#SVGID_00000086687756805221351850000000329594727441257880_);}
	
		.st4{clip-path:url(#SVGID_00000125570880275294338700000005262111459105836716_);fill:none;stroke:#E5E5E5;stroke-linecap:round;stroke-linejoin:round;}
	
		.st5{clip-path:url(#SVGID_00000125570880275294338700000005262111459105836716_);fill:none;stroke:#DFDFDF;stroke-linecap:round;stroke-linejoin:round;}
	
		.st6{clip-path:url(#SVGID_00000125570880275294338700000005262111459105836716_);fill:none;stroke:#DADADA;stroke-linecap:round;stroke-linejoin:round;}
	
		.st7{clip-path:url(#SVGID_00000125570880275294338700000005262111459105836716_);fill:none;stroke:#D4D4D4;stroke-linecap:round;stroke-linejoin:round;}
	
		.st8{clip-path:url(#SVGID_00000125570880275294338700000005262111459105836716_);fill:none;stroke:#CFCFCF;stroke-linecap:round;stroke-linejoin:round;}
	
		.st9{clip-path:url(#SVGID_00000125570880275294338700000005262111459105836716_);fill:none;stroke:#C9C9C9;stroke-linecap:round;stroke-linejoin:round;}
	
		.st10{clip-path:url(#SVGID_00000125570880275294338700000005262111459105836716_);fill:none;stroke:#C4C4C4;stroke-linecap:round;stroke-linejoin:round;}
	
		.st11{clip-path:url(#SVGID_00000125570880275294338700000005262111459105836716_);fill:none;stroke:#BFBFBF;stroke-linecap:round;stroke-linejoin:round;}
	
		.st12{clip-path:url(#SVGID_00000125570880275294338700000005262111459105836716_);fill:none;stroke:#B9B9B9;stroke-linecap:round;stroke-linejoin:round;}
	
		.st13{clip-path:url(#SVGID_00000125570880275294338700000005262111459105836716_);fill:none;stroke:#B4B4B4;stroke-linecap:round;stroke-linejoin:round;}
	
		.st14{clip-path:url(#SVGID_00000125570880275294338700000005262111459105836716_);fill:none;stroke:#AFAFAF;stroke-linecap:round;stroke-linejoin:round;}
	
		.st15{clip-path:url(#SVGID_00000125570880275294338700000005262111459105836716_);fill:none;stroke:#AAAAAA;stroke-linecap:round;stroke-linejoin:round;}
	
		.st16{clip-path:url(#SVGID_00000125570880275294338700000005262111459105836716_);fill:none;stroke:#FA8C00;stroke-width:4;stroke-linecap:round;stroke-linejoin:round;}
	
		.st17{clip-path:url(#SVGID_00000125570880275294338700000005262111459105836716_);fill:none;stroke:#A4A4A4;stroke-linecap:round;stroke-linejoin:round;}
	
		.st18{clip-path:url(#SVGID_00000125570880275294338700000005262111459105836716_);fill:none;stroke:#9F9F9F;stroke-linecap:round;stroke-linejoin:round;}
	
		.st19{clip-path:url(#SVGID_00000125570880275294338700000005262111459105836716_);fill:none;stroke:#9A9A9A;stroke-linecap:round;stroke-linejoin:round;}
	
		.st20{clip-path:url(#SVGID_00000125570880275294338700000005262111459105836716_);fill:none;stroke:#959595;stroke-linecap:round;stroke-linejoin:round;}
	
		.st21{clip-path:url(#SVGID_00000125570880275294338700000005262111459105836716_);fill:none;stroke:#18A1CD;stroke-width:4;stroke-linecap:round;stroke-linejoin:round;}
	
		.st22{clip-path:url(#SVGID_00000125570880275294338700000005262111459105836716_);fill:none;stroke:#909090;stroke-linecap:round;stroke-linejoin:round;}
	
		.st23{clip-path:url(#SVGID_00000125570880275294338700000005262111459105836716_);fill:none;stroke:#8B8B8B;stroke-linecap:round;stroke-linejoin:round;}
	
		.st24{clip-path:url(#SVGID_00000125570880275294338700000005262111459105836716_);fill:none;stroke:#868686;stroke-linecap:round;stroke-linejoin:round;}
	
		.st25{clip-path:url(#SVGID_00000125570880275294338700000005262111459105836716_);fill:none;stroke:#818181;stroke-linecap:round;stroke-linejoin:round;}
	
		.st26{clip-path:url(#SVGID_00000125570880275294338700000005262111459105836716_);fill:none;stroke:#7C7C7C;stroke-linecap:round;stroke-linejoin:round;}
	
		.st27{clip-path:url(#SVGID_00000125570880275294338700000005262111459105836716_);fill:none;stroke:#777777;stroke-linecap:round;stroke-linejoin:round;}
	
		.st28{clip-path:url(#SVGID_00000125570880275294338700000005262111459105836716_);fill:none;stroke:#727272;stroke-linecap:round;stroke-linejoin:round;}
	
		.st29{clip-path:url(#SVGID_00000125570880275294338700000005262111459105836716_);fill:none;stroke:#6E6E6E;stroke-linecap:round;stroke-linejoin:round;}
	
		.st30{clip-path:url(#SVGID_00000125570880275294338700000005262111459105836716_);fill:none;stroke:#696969;stroke-linecap:round;stroke-linejoin:round;}
	
		.st31{clip-path:url(#SVGID_00000125570880275294338700000005262111459105836716_);fill:none;stroke:#646464;stroke-linecap:round;stroke-linejoin:round;}
	
		.st32{clip-path:url(#SVGID_00000125570880275294338700000005262111459105836716_);fill:none;stroke:#5F5F5F;stroke-linecap:round;stroke-linejoin:round;}
	
		.st33{clip-path:url(#SVGID_00000125570880275294338700000005262111459105836716_);fill:none;stroke:#5B5B5B;stroke-linecap:round;stroke-linejoin:round;}
	
		.st34{clip-path:url(#SVGID_00000125570880275294338700000005262111459105836716_);fill:none;stroke:#565656;stroke-linecap:round;stroke-linejoin:round;}
	
		.st35{clip-path:url(#SVGID_00000125570880275294338700000005262111459105836716_);fill:none;stroke:#515151;stroke-linecap:round;stroke-linejoin:round;}
	
		.st36{clip-path:url(#SVGID_00000125570880275294338700000005262111459105836716_);fill:none;stroke:#4D4D4D;stroke-linecap:round;stroke-linejoin:round;}
	
		.st37{clip-path:url(#SVGID_00000125570880275294338700000005262111459105836716_);fill:none;stroke:#484848;stroke-linecap:round;stroke-linejoin:round;}
	.st38{clip-path:url(#SVGID_00000125570880275294338700000005262111459105836716_);enable-background:new    ;}
	.st39{fill:#747474;}
	.st40{font-family:'ArialMT';}
	.st41{font-size:12px;}
	.st42{fill:#A2A2A2;}
	
		.st43{clip-path:url(#SVGID_00000125570880275294338700000005262111459105836716_);fill:none;stroke:#181818;stroke-linecap:square;}
	.st44{clip-path:url(#SVGID_00000086687756805221351850000000329594727441257880_);fill:none;stroke:#181818;}
	.st45{clip-path:url(#SVGID_00000086687756805221351850000000329594727441257880_);enable-background:new    ;}
	.st46{font-family:'Arial-BoldMT';}
	.st47{font-size:14px;}
	.st48{fill:none;stroke:#FFFFFF;stroke-width:4;stroke-linecap:round;stroke-linejoin:round;}
	.st49{fill:#181818;}
	.st50{fill:#888888;}
	.st51{font-size:11px;}
</style>
<g id="exportSvg">
	<rect class="st0" width="744" height="542"/>
	<g>
		<defs>
			<rect id="SVGID_1_" width="744" height="542"/>
		</defs>
		<clipPath id="SVGID_00000136413389337955199960000010968633823330396093_">
			<use xlink:href="#SVGID_1_"  style="overflow:visible;"/>
		</clipPath>
		<g style="clip-path:url(#SVGID_00000136413389337955199960000010968633823330396093_);">
			<defs>
				<rect id="SVGID_00000092444594228975769140000014172459816924059802_" width="744" height="542"/>
			</defs>
			<clipPath id="SVGID_00000114073324782562750180000005018778221205085831_">
				<use xlink:href="#SVGID_00000092444594228975769140000014172459816924059802_"  style="overflow:visible;"/>
			</clipPath>
			
				<rect style="clip-path:url(#SVGID_00000114073324782562750180000005018778221205085831_);fill:#1D263B;" width="775.6" height="542"/>
			<g style="clip-path:url(#SVGID_00000114073324782562750180000005018778221205085831_);">
				<defs>
					<rect id="SVGID_00000049214255101306183260000012847680266093917375_" x="-6.9" y="80.8" width="744" height="430"/>
				</defs>
				<clipPath id="SVGID_00000060031347051041407000000009463994534781942668_">
					<use xlink:href="#SVGID_00000049214255101306183260000012847680266093917375_"  style="overflow:visible;"/>
				</clipPath>
				
					<path id="ARGENTINA" style="clip-path:url(#SVGID_00000060031347051041407000000009463994534781942668_);fill:none;stroke:#E5E5E5;stroke-linecap:round;stroke-linejoin:round;" d="
					M29.4,321.6c0,0,42.2-26,63.3-36.8c21.1-10.8,42.2-16.5,63.3-28.1c21.1-11.5,42.2-26.9,63.3-41.2c21.1-14.3,42.2-30.9,63.3-44.6
					s42.2-28.9,63.3-38c21.1-9.1,42.2-15.7,63.3-16.7c21.1-1,42.2,1.1,63.3,10.7c21.1,9.6,42.2,30.5,63.3,46.9s42.2,34.5,63.3,51.5
					c21.1,17,42.2,35.4,63.3,50.5s63.3,40.1,63.3,40.1"/>
				
					<path id="COLOMBIA" style="clip-path:url(#SVGID_00000060031347051041407000000009463994534781942668_);fill:none;stroke:#DFDFDF;stroke-linecap:round;stroke-linejoin:round;" d="
					M29.4,132.2c0,0,42.2,1.1,63.3,3.9s42.2,6.1,63.3,12.9s42.2,19.4,63.3,28.1s42.2,16.8,63.3,24.3s42.2,16.7,63.3,21
					c21.1,4.3,42.2,4.5,63.3,4.6c21.1,0.1,42.2,2,63.3-3.9s42.2-21.6,63.3-31.4c21.1-9.9,42.2-21.6,63.3-27.8
					c21.1-6.2,42.2-6,63.3-9.5c21.1-3.5,63.3-11.3,63.3-11.3"/>
				
					<path id="GUYANA" style="clip-path:url(#SVGID_00000060031347051041407000000009463994534781942668_);fill:none;stroke:#DADADA;stroke-linecap:round;stroke-linejoin:round;" d="
					M29.4,210.1c0,0,42.2-0.1,63.3,0c21.1,0.1,42.2,4.5,63.3,0.5c21.1-4,42.2-15,63.3-24.4c21.1-9.4,42.2-23.5,63.3-31.9
					c21.1-8.4,42.2-11.3,63.3-18.3c21.1-7,42.2-17.9,63.3-23.7c21.1-5.8,42.2-12.8,63.3-11s42.2,12.1,63.3,21.5
					c21.1,9.4,42.2,26.2,63.3,35c21.1,8.8,42.2,9.6,63.3,17.6c21.1,7.9,63.3,30.1,63.3,30.1"/>
				
					<path id="ISRAEL" style="clip-path:url(#SVGID_00000060031347051041407000000009463994534781942668_);fill:none;stroke:#D4D4D4;stroke-linecap:round;stroke-linejoin:round;" d="
					M29.4,328.5c0,0,42.2,7.5,63.3,8.9s42.2,4.3,63.3-0.3c21.1-4.7,42.2-19.9,63.3-27.6s42.2-10.6,63.3-18.5s42.2-22.8,63.3-28.9
					c21.1-6.1,42.2-6.2,63.3-7.5c21.1-1.4,42.2-6,63.3-0.7s42.2,24.9,63.3,32.7c21.1,7.8,42.2,7.2,63.3,13.9
					c21.1,6.7,42.2,21.1,63.3,26.4s63.3,5.1,63.3,5.1"/>
				
					<path id="NETHERLANDS" style="clip-path:url(#SVGID_00000060031347051041407000000009463994534781942668_);fill:none;stroke:#CFCFCF;stroke-linecap:round;stroke-linejoin:round;" d="
					M29.4,471.8c0,0,42.2-5.9,63.3-18.3s42.2-35.2,63.3-55.7s42.2-46.1,63.3-67.6s42.2-42.7,63.3-61.4s42.2-38.4,63.3-50.9
					c21.1-12.5,42.2-23.7,63.3-24.2c21.1-0.5,42.2,10.9,63.3,21.1s42.2,20.5,63.3,39.9s42.2,51.7,63.3,76.7
					c21.1,25,42.2,46.7,63.3,73.2c21.1,26.6,63.3,86.3,63.3,86.3"/>
				
					<path id="SWITZERLAND" style="clip-path:url(#SVGID_00000060031347051041407000000009463994534781942668_);fill:none;stroke:#C9C9C9;stroke-linecap:round;stroke-linejoin:round;" d="
					M29.4,281.3c0,0,42.2,2.6,63.3,3.4s42.2,6,63.3,1.6s42.2-20.6,63.3-28.1c21.1-7.5,42.2-6.2,63.3-17.1s42.2-41.7,63.3-48.1
					c21.1-6.4,42.2,12.5,63.3,9.8c21.1-2.7,42.2-27.3,63.3-26s42.2,23.6,63.3,33.9c21.1,10.3,42.2,19.7,63.3,28.1
					c21.1,8.4,42.2,14.1,63.3,22.3c21.1,8.2,63.3,27.1,63.3,27.1"/>
				
					<path id="ZAMBIA" style="clip-path:url(#SVGID_00000060031347051041407000000009463994534781942668_);fill:none;stroke:#C4C4C4;stroke-linecap:round;stroke-linejoin:round;" d="
					M29.4,307.9c0,0,42.2,4.6,63.3-0.3c21.1-4.9,42.2-20.3,63.3-28.9c21.1-8.6,42.2-10.5,63.3-22.9c21.1-12.5,42.2-37.3,63.3-51.8
					c21.1-14.4,42.2-26.9,63.3-34.8c21.1-8,42.2-6,63.3-12.9c21.1-6.9,42.2-29.1,63.3-28.4c21.1,0.7,42.2,18.2,63.3,32.4
					s42.2,37.5,63.3,52.7c21.1,15.2,42.2,23.1,63.3,38.6s63.3,54.4,63.3,54.4"/>
				
					<path id="BAHAMAS" style="clip-path:url(#SVGID_00000060031347051041407000000009463994534781942668_);fill:none;stroke:#BFBFBF;stroke-linecap:round;stroke-linejoin:round;" d="
					M29.4,281.3c0,0,42.2,2.6,63.3,3.4s42.2,6,63.3,1.6s42.2-20.6,63.3-28.1c21.1-7.5,42.2-6.2,63.3-17.1s42.2-41.7,63.3-48.1
					c21.1-6.4,42.2,12.5,63.3,9.8c21.1-2.7,42.2-27.3,63.3-26s42.2,23.6,63.3,33.9c21.1,10.3,42.2,19.7,63.3,28.1
					c21.1,8.4,42.2,14.1,63.3,22.3c21.1,8.2,63.3,27.1,63.3,27.1"/>
				
					<path id="EGYPT" style="clip-path:url(#SVGID_00000060031347051041407000000009463994534781942668_);fill:none;stroke:#B9B9B9;stroke-linecap:round;stroke-linejoin:round;" d="
					M29.4,307.9c0,0,42.2,4.6,63.3-0.3c21.1-4.9,42.2-20.3,63.3-28.9c21.1-8.6,42.2-10.5,63.3-22.9c21.1-12.5,42.2-37.3,63.3-51.8
					c21.1-14.4,42.2-26.9,63.3-34.8c21.1-8,42.2-6,63.3-12.9c21.1-6.9,42.2-29.1,63.3-28.4c21.1,0.7,42.2,18.2,63.3,32.4
					s42.2,37.5,63.3,52.7c21.1,15.2,42.2,23.1,63.3,38.6s63.3,54.4,63.3,54.4"/>
				
					<path id="HUNGARY" style="clip-path:url(#SVGID_00000060031347051041407000000009463994534781942668_);fill:none;stroke:#B4B4B4;stroke-linecap:round;stroke-linejoin:round;" d="
					M29.4,350.2c0,0,42.2,7.9,63.3,6.9c21.1-1,42.2-6.1,63.3-12.7s42.2-17.2,63.3-26.7c21.1-9.5,42.2-14.1,63.3-30.2
					c21.1-16.2,42.2-57.3,63.3-66.9c21.1-9.6,42.2,8.4,63.3,9.5c21.1,1.1,42.2-7.7,63.3-3.1s42.2,19.6,63.3,30.8
					s42.2,26.7,63.3,36.2c21.1,9.6,42.2,13.5,63.3,21.2s63.3,25.3,63.3,25.3"/>
				
					<path id="LUXEMBOURG" style="clip-path:url(#SVGID_00000060031347051041407000000009463994534781942668_);fill:none;stroke:#AFAFAF;stroke-linecap:round;stroke-linejoin:round;" d="
					M29.4,292.4c0,0,42.2-10.1,63.3-12.7c21.1-2.5,42.2,4.8,63.3-2.6c21.1-7.4,42.2-33.1,63.3-41.8s42.2-2.3,63.3-10.4
					c21.1-8.1,42.2-30.5,63.3-38c21.1-7.5,42.2-2.7,63.3-7c21.1-4.3,42.2-22,63.3-18.7s42.2,24.9,63.3,38s42.2,29.4,63.3,40.9
					c21.1,11.5,42.2,18.5,63.3,27.9c21.1,9.4,63.3,28.6,63.3,28.6"/>
				
					<path id="SIERRA_LEONE" style="clip-path:url(#SVGID_00000060031347051041407000000009463994534781942668_);fill:none;stroke:#AAAAAA;stroke-linecap:round;stroke-linejoin:round;" d="
					M29.4,350.2c0,0,42.2,7.9,63.3,6.9c21.1-1,42.2-6.1,63.3-12.7s42.2-17.2,63.3-26.7c21.1-9.5,42.2-14.1,63.3-30.2
					c21.1-16.2,42.2-57.3,63.3-66.9c21.1-9.6,42.2,8.4,63.3,9.5c21.1,1.1,42.2-7.7,63.3-3.1s42.2,19.6,63.3,30.8
					s42.2,26.7,63.3,36.2c21.1,9.6,42.2,13.5,63.3,21.2s63.3,25.3,63.3,25.3"/>
				
					<path id="IRAN_x2C__ISLAMIC_REPUBLIC_OF" style="clip-path:url(#SVGID_00000060031347051041407000000009463994534781942668_);fill:none;stroke:#FA8C00;stroke-width:4;stroke-linecap:round;stroke-linejoin:round;" d="
					M29.4,281.3c0,0,42.2,2.6,63.3,3.4s42.2,6,63.3,1.6s42.2-20.6,63.3-28.1c21.1-7.5,42.2-6.2,63.3-17.1s42.2-41.7,63.3-48.1
					c21.1-6.4,42.2,12.5,63.3,9.8c21.1-2.7,42.2-27.3,63.3-26s42.2,23.6,63.3,33.9c21.1,10.3,42.2,19.7,63.3,28.1
					c21.1,8.4,42.2,14.1,63.3,22.3c21.1,8.2,63.3,27.1,63.3,27.1"/>
				
					<path id="UNITED_STATES_OF_AMERICA" style="clip-path:url(#SVGID_00000060031347051041407000000009463994534781942668_);fill:none;stroke:#A4A4A4;stroke-linecap:round;stroke-linejoin:round;" d="
					M29.4,114.3c0,0,42.2,1,63.3,0.9c21.1-0.1,42.2-2.2,63.3-1.5c21.1,0.8,42.2,3.8,63.3,6.1c21.1,2.3,42.2,6.2,63.3,7.7
					s42.2,0.9,63.3,1.5c21.1,0.6,42.2,3.4,63.3,2.3c21.1-1.1,42.2-5.8,63.3-8.9c21.1-3.1,42.2-7.6,63.3-9.7
					c21.1-2.2,42.2-3.4,63.3-3.3c21.1,0.1,42.2,3.1,63.3,3.9s63.3,1.1,63.3,1.1"/>
				
					<path id="AUSTRALIA" style="clip-path:url(#SVGID_00000060031347051041407000000009463994534781942668_);fill:none;stroke:#9F9F9F;stroke-linecap:round;stroke-linejoin:round;" d="
					M29.4,350.2c0,0,42.2,7.9,63.3,6.9c21.1-1,42.2-6.1,63.3-12.7s42.2-17.2,63.3-26.7c21.1-9.5,42.2-14.1,63.3-30.2
					c21.1-16.2,42.2-57.3,63.3-66.9c21.1-9.6,42.2,8.4,63.3,9.5c21.1,1.1,42.2-7.7,63.3-3.1s42.2,19.6,63.3,30.8
					s42.2,26.7,63.3,36.2c21.1,9.6,42.2,13.5,63.3,21.2s63.3,25.3,63.3,25.3"/>
				
					<path id="COLOMBIA__x28_SAN_ANDRES_AND_PROVIDENCIA_ISLANDS_x29_" style="clip-path:url(#SVGID_00000060031347051041407000000009463994534781942668_);fill:none;stroke:#9A9A9A;stroke-linecap:round;stroke-linejoin:round;" d="
					M29.4,114.3c0,0,42.2,1,63.3,0.9c21.1-0.1,42.2-2.2,63.3-1.5c21.1,0.8,42.2,3.8,63.3,6.1c21.1,2.3,42.2,6.2,63.3,7.7
					s42.2,0.9,63.3,1.5c21.1,0.6,42.2,3.4,63.3,2.3c21.1-1.1,42.2-5.8,63.3-8.9c21.1-3.1,42.2-7.6,63.3-9.7
					c21.1-2.2,42.2-3.4,63.3-3.3c21.1,0.1,42.2,3.1,63.3,3.9s63.3,1.1,63.3,1.1"/>
				
					<path id="HONDURAS" style="clip-path:url(#SVGID_00000060031347051041407000000009463994534781942668_);fill:none;stroke:#959595;stroke-linecap:round;stroke-linejoin:round;" d="
					M29.4,334.6c0,0,42.2,1.4,63.3-6.8c21.1-8.2,42.2-30.3,63.3-42.2s42.2-16.3,63.3-29.4c21.1-13.1,42.2-34.3,63.3-49
					s42.2-29.1,63.3-39.3c21.1-10.2,42.2-19.2,63.3-21.9c21.1-2.7,42.2-1.8,63.3,5.5c21.1,7.3,42.2,23.4,63.3,38.6
					s42.2,37.1,63.3,52.5c21.1,15.4,42.2,26.5,63.3,40s63.3,40.6,63.3,40.6"/>
				
					<path id="QATAR" style="clip-path:url(#SVGID_00000060031347051041407000000009463994534781942668_);fill:none;stroke:#18A1CD;stroke-width:4;stroke-linecap:round;stroke-linejoin:round;" d="
					M29.4,334.6c0,0,42.2,1.4,63.3-6.8c21.1-8.2,42.2-30.3,63.3-42.2s42.2-16.3,63.3-29.4c21.1-13.1,42.2-34.3,63.3-49
					s42.2-29.1,63.3-39.3c21.1-10.2,42.2-19.2,63.3-21.9c21.1-2.7,42.2-1.8,63.3,5.5c21.1,7.3,42.2,23.4,63.3,38.6
					s42.2,37.1,63.3,52.5c21.1,15.4,42.2,26.5,63.3,40s63.3,40.6,63.3,40.6"/>
				
					<path id="JORDAN" style="clip-path:url(#SVGID_00000060031347051041407000000009463994534781942668_);fill:none;stroke:#909090;stroke-linecap:round;stroke-linejoin:round;" d="
					M29.4,132.2c0,0,42.2,1.1,63.3,3.9s42.2,6.1,63.3,12.9s42.2,19.4,63.3,28.1s42.2,16.8,63.3,24.3s42.2,16.7,63.3,21
					c21.1,4.3,42.2,4.5,63.3,4.6c21.1,0.1,42.2,2,63.3-3.9s42.2-21.6,63.3-31.4c21.1-9.9,42.2-21.6,63.3-27.8
					c21.1-6.2,42.2-6,63.3-9.5c21.1-3.5,63.3-11.3,63.3-11.3"/>
				
					<path id="PHILIPPINES" style="clip-path:url(#SVGID_00000060031347051041407000000009463994534781942668_);fill:none;stroke:#8B8B8B;stroke-linecap:round;stroke-linejoin:round;" d="
					M29.4,210.1c0,0,42.2-0.1,63.3,0c21.1,0.1,42.2,4.5,63.3,0.5c21.1-4,42.2-15,63.3-24.4c21.1-9.4,42.2-23.5,63.3-31.9
					c21.1-8.4,42.2-11.3,63.3-18.3c21.1-7,42.2-17.9,63.3-23.7c21.1-5.8,42.2-12.8,63.3-11s42.2,12.1,63.3,21.5
					c21.1,9.4,42.2,26.2,63.3,35c21.1,8.8,42.2,9.6,63.3,17.6c21.1,7.9,63.3,30.1,63.3,30.1"/>
				
					<path id="THAILAND" style="clip-path:url(#SVGID_00000060031347051041407000000009463994534781942668_);fill:none;stroke:#868686;stroke-linecap:round;stroke-linejoin:round;" d="
					M29.4,328.5c0,0,42.2,7.5,63.3,8.9s42.2,4.3,63.3-0.3c21.1-4.7,42.2-19.9,63.3-27.6s42.2-10.6,63.3-18.5s42.2-22.8,63.3-28.9
					c21.1-6.1,42.2-6.2,63.3-7.5c21.1-1.4,42.2-6,63.3-0.7s42.2,24.9,63.3,32.7c21.1,7.8,42.2,7.2,63.3,13.9
					c21.1,6.7,42.2,21.1,63.3,26.4s63.3,5.1,63.3,5.1"/>
				
					<path id="DENMARK" style="clip-path:url(#SVGID_00000060031347051041407000000009463994534781942668_);fill:none;stroke:#818181;stroke-linecap:round;stroke-linejoin:round;" d="
					M29.4,471.8c0,0,42.2-5.9,63.3-18.3s42.2-35.2,63.3-55.7s42.2-46.1,63.3-67.6s42.2-42.7,63.3-61.4s42.2-38.4,63.3-50.9
					c21.1-12.5,42.2-23.7,63.3-24.2c21.1-0.5,42.2,10.9,63.3,21.1s42.2,20.5,63.3,39.9s42.2,51.7,63.3,76.7
					c21.1,25,42.2,46.7,63.3,73.2c21.1,26.6,63.3,86.3,63.3,86.3"/>
				
					<path id="CANADA" style="clip-path:url(#SVGID_00000060031347051041407000000009463994534781942668_);fill:none;stroke:#7C7C7C;stroke-linecap:round;stroke-linejoin:round;" d="
					M29.4,328.5c0,0,42.2,7.5,63.3,8.9s42.2,4.3,63.3-0.3c21.1-4.7,42.2-19.9,63.3-27.6s42.2-10.6,63.3-18.5s42.2-22.8,63.3-28.9
					c21.1-6.1,42.2-6.2,63.3-7.5c21.1-1.4,42.2-6,63.3-0.7s42.2,24.9,63.3,32.7c21.1,7.8,42.2,7.2,63.3,13.9
					c21.1,6.7,42.2,21.1,63.3,26.4s63.3,5.1,63.3,5.1"/>
				
					<path id="GREECE" style="clip-path:url(#SVGID_00000060031347051041407000000009463994534781942668_);fill:none;stroke:#777777;stroke-linecap:round;stroke-linejoin:round;" d="
					M29.4,471.8c0,0,42.2-5.9,63.3-18.3s42.2-35.2,63.3-55.7s42.2-46.1,63.3-67.6s42.2-42.7,63.3-61.4s42.2-38.4,63.3-50.9
					c21.1-12.5,42.2-23.7,63.3-24.2c21.1-0.5,42.2,10.9,63.3,21.1s42.2,20.5,63.3,39.9s42.2,51.7,63.3,76.7
					c21.1,25,42.2,46.7,63.3,73.2c21.1,26.6,63.3,86.3,63.3,86.3"/>
				
					<path id="ICELAND" style="clip-path:url(#SVGID_00000060031347051041407000000009463994534781942668_);fill:none;stroke:#727272;stroke-linecap:round;stroke-linejoin:round;" d="
					M29.4,211.1c0,0,42.2,6.3,63.3,7.5s42.2-4.1,63.3-0.3c21.1,3.8,42.2,15.6,63.3,23.2c21.1,7.6,42.2,16.1,63.3,22.5
					s42.2,11.4,63.3,15.9c21.1,4.5,42.2,11.1,63.3,11.1c21.1,0,42.2-6.6,63.3-11.3c21.1-4.7,42.2-11.8,63.3-17
					c21.1-5.1,42.2-8.7,63.3-13.9c21.1-5.2,42.2-13.1,63.3-17.4s63.3-8.6,63.3-8.6"/>
				
					<path id="MALDIVES" style="clip-path:url(#SVGID_00000060031347051041407000000009463994534781942668_);fill:none;stroke:#6E6E6E;stroke-linecap:round;stroke-linejoin:round;" d="
					M29.4,307.9c0,0,42.2,4.6,63.3-0.3c21.1-4.9,42.2-20.3,63.3-28.9c21.1-8.6,42.2-10.5,63.3-22.9c21.1-12.5,42.2-37.3,63.3-51.8
					c21.1-14.4,42.2-26.9,63.3-34.8c21.1-8,42.2-6,63.3-12.9c21.1-6.9,42.2-29.1,63.3-28.4c21.1,0.7,42.2,18.2,63.3,32.4
					s42.2,37.5,63.3,52.7c21.1,15.2,42.2,23.1,63.3,38.6s63.3,54.4,63.3,54.4"/>
				
					<path id="SRI_LANKA" style="clip-path:url(#SVGID_00000060031347051041407000000009463994534781942668_);fill:none;stroke:#696969;stroke-linecap:round;stroke-linejoin:round;" d="
					M29.4,211.1c0,0,42.2,6.3,63.3,7.5s42.2-4.1,63.3-0.3c21.1,3.8,42.2,15.6,63.3,23.2c21.1,7.6,42.2,16.1,63.3,22.5
					s42.2,11.4,63.3,15.9c21.1,4.5,42.2,11.1,63.3,11.1c21.1,0,42.2-6.6,63.3-11.3c21.1-4.7,42.2-11.8,63.3-17
					c21.1-5.1,42.2-8.7,63.3-13.9c21.1-5.2,42.2-13.1,63.3-17.4s63.3-8.6,63.3-8.6"/>
				
					<path id="UNITED_STATES_OF_AMERICA__x28_PACIFIC_ISLANDS_x29_" style="clip-path:url(#SVGID_00000060031347051041407000000009463994534781942668_);fill:none;stroke:#646464;stroke-linecap:round;stroke-linejoin:round;" d="
					M29.4,292.4c0,0,42.2-10.1,63.3-12.7c21.1-2.5,42.2,4.8,63.3-2.6c21.1-7.4,42.2-33.1,63.3-41.8s42.2-2.3,63.3-10.4
					c21.1-8.1,42.2-30.5,63.3-38c21.1-7.5,42.2-2.7,63.3-7c21.1-4.3,42.2-22,63.3-18.7s42.2,24.9,63.3,38s42.2,29.4,63.3,40.9
					c21.1,11.5,42.2,18.5,63.3,27.9c21.1,9.4,63.3,28.6,63.3,28.6"/>
				
					<path id="AUSTRIA" style="clip-path:url(#SVGID_00000060031347051041407000000009463994534781942668_);fill:none;stroke:#5F5F5F;stroke-linecap:round;stroke-linejoin:round;" d="
					M29.4,211.1c0,0,42.2,6.3,63.3,7.5s42.2-4.1,63.3-0.3c21.1,3.8,42.2,15.6,63.3,23.2c21.1,7.6,42.2,16.1,63.3,22.5
					s42.2,11.4,63.3,15.9c21.1,4.5,42.2,11.1,63.3,11.1c21.1,0,42.2-6.6,63.3-11.3c21.1-4.7,42.2-11.8,63.3-17
					c21.1-5.1,42.2-8.7,63.3-13.9c21.1-5.2,42.2-13.1,63.3-17.4s63.3-8.6,63.3-8.6"/>
				
					<path id="CZECH_REPUBLIC" style="clip-path:url(#SVGID_00000060031347051041407000000009463994534781942668_);fill:none;stroke:#5B5B5B;stroke-linecap:round;stroke-linejoin:round;" d="
					M29.4,292.4c0,0,42.2-10.1,63.3-12.7c21.1-2.5,42.2,4.8,63.3-2.6c21.1-7.4,42.2-33.1,63.3-41.8s42.2-2.3,63.3-10.4
					c21.1-8.1,42.2-30.5,63.3-38c21.1-7.5,42.2-2.7,63.3-7c21.1-4.3,42.2-22,63.3-18.7s42.2,24.9,63.3,38s42.2,29.4,63.3,40.9
					c21.1,11.5,42.2,18.5,63.3,27.9c21.1,9.4,63.3,28.6,63.3,28.6"/>
				
					<path id="HONG_KONG" style="clip-path:url(#SVGID_00000060031347051041407000000009463994534781942668_);fill:none;stroke:#565656;stroke-linecap:round;stroke-linejoin:round;" d="
					M29.4,321.6c0,0,42.2-26,63.3-36.8c21.1-10.8,42.2-16.5,63.3-28.1c21.1-11.5,42.2-26.9,63.3-41.2c21.1-14.3,42.2-30.9,63.3-44.6
					s42.2-28.9,63.3-38c21.1-9.1,42.2-15.7,63.3-16.7c21.1-1,42.2,1.1,63.3,10.7c21.1,9.6,42.2,30.5,63.3,46.9s42.2,34.5,63.3,51.5
					c21.1,17,42.2,35.4,63.3,50.5s63.3,40.1,63.3,40.1"/>
				
					<path id="LAO_PEOPLE_x27_S_DEMOCRATIC_REPUBLIC" style="clip-path:url(#SVGID_00000060031347051041407000000009463994534781942668_);fill:none;stroke:#515151;stroke-linecap:round;stroke-linejoin:round;" d="
					M29.4,114.3c0,0,42.2,1,63.3,0.9c21.1-0.1,42.2-2.2,63.3-1.5c21.1,0.8,42.2,3.8,63.3,6.1c21.1,2.3,42.2,6.2,63.3,7.7
					s42.2,0.9,63.3,1.5c21.1,0.6,42.2,3.4,63.3,2.3c21.1-1.1,42.2-5.8,63.3-8.9c21.1-3.1,42.2-7.6,63.3-9.7
					c21.1-2.2,42.2-3.4,63.3-3.3c21.1,0.1,42.2,3.1,63.3,3.9s63.3,1.1,63.3,1.1"/>
				
					<path id="ROMANIA" style="clip-path:url(#SVGID_00000060031347051041407000000009463994534781942668_);fill:none;stroke:#4D4D4D;stroke-linecap:round;stroke-linejoin:round;" d="
					M29.4,321.6c0,0,42.2-26,63.3-36.8c21.1-10.8,42.2-16.5,63.3-28.1c21.1-11.5,42.2-26.9,63.3-41.2c21.1-14.3,42.2-30.9,63.3-44.6
					s42.2-28.9,63.3-38c21.1-9.1,42.2-15.7,63.3-16.7c21.1-1,42.2,1.1,63.3,10.7c21.1,9.6,42.2,30.5,63.3,46.9s42.2,34.5,63.3,51.5
					c21.1,17,42.2,35.4,63.3,50.5s63.3,40.1,63.3,40.1"/>
				
					<path id="TURKMENISTAN" style="clip-path:url(#SVGID_00000060031347051041407000000009463994534781942668_);fill:none;stroke:#484848;stroke-linecap:round;stroke-linejoin:round;" d="
					M29.4,132.2c0,0,42.2,1.1,63.3,3.9s42.2,6.1,63.3,12.9s42.2,19.4,63.3,28.1s42.2,16.8,63.3,24.3s42.2,16.7,63.3,21
					c21.1,4.3,42.2,4.5,63.3,4.6c21.1,0.1,42.2,2,63.3-3.9s42.2-21.6,63.3-31.4c21.1-9.9,42.2-21.6,63.3-27.8
					c21.1-6.2,42.2-6,63.3-9.5c21.1-3.5,63.3-11.3,63.3-11.3"/>
				<g style="clip-path:url(#SVGID_00000060031347051041407000000009463994534781942668_);enable-background:new    ;">
					<text transform="matrix(1 0 0 1 21.3868 507.8145)" class="st39 st40 st41">jan</text>
				</g>
				<g style="clip-path:url(#SVGID_00000060031347051041407000000009463994534781942668_);enable-background:new    ;">
					<text transform="matrix(1 0 0 1 84.3199 507.8145)" class="st39 st40 st41">feb</text>
				</g>
				<g style="clip-path:url(#SVGID_00000060031347051041407000000009463994534781942668_);enable-background:new    ;">
					<text transform="matrix(1 0 0 1 145.5949 507.8145)" class="st39 st40 st41">mar</text>
				</g>
				<g style="clip-path:url(#SVGID_00000060031347051041407000000009463994534781942668_);enable-background:new    ;">
					<text transform="matrix(1 0 0 1 210.5232 507.8145)" class="st39 st40 st41">apr</text>
				</g>
				<g style="clip-path:url(#SVGID_00000060031347051041407000000009463994534781942668_);enable-background:new    ;">
					<text transform="matrix(1 0 0 1 271.1272 507.8145)" class="st39 st40 st41">may</text>
				</g>
				<g style="clip-path:url(#SVGID_00000060031347051041407000000009463994534781942668_);enable-background:new    ;">
					<text transform="matrix(1 0 0 1 337.7225 507.8145)" class="st39 st40 st41">jun</text>
				</g>
				<g style="clip-path:url(#SVGID_00000060031347051041407000000009463994534781942668_);enable-background:new    ;">
					<text transform="matrix(1 0 0 1 402.9935 507.8145)" class="st39 st40 st41">jul</text>
				</g>
				<g style="clip-path:url(#SVGID_00000060031347051041407000000009463994534781942668_);enable-background:new    ;">
					<text transform="matrix(1 0 0 1 462.2528 507.8145)" class="st39 st40 st41">aug</text>
				</g>
				<g style="clip-path:url(#SVGID_00000060031347051041407000000009463994534781942668_);enable-background:new    ;">
					<text transform="matrix(1 0 0 1 525.8569 507.8145)" class="st39 st40 st41">sep</text>
				</g>
				<g style="clip-path:url(#SVGID_00000060031347051041407000000009463994534781942668_);enable-background:new    ;">
					<text transform="matrix(1 0 0 1 590.7939 507.8145)" class="st39 st40 st41">oct</text>
				</g>
				<g style="clip-path:url(#SVGID_00000060031347051041407000000009463994534781942668_);enable-background:new    ;">
					<text transform="matrix(1 0 0 1 652.3911 507.8145)" class="st39 st40 st41">nov</text>
				</g>
				<g style="clip-path:url(#SVGID_00000060031347051041407000000009463994534781942668_);enable-background:new    ;">
					<text transform="matrix(1 0 0 1 715.6583 507.8145)" class="st39 st40 st41">dec</text>
				</g>
				<g style="clip-path:url(#SVGID_00000060031347051041407000000009463994534781942668_);enable-background:new    ;">
					<text transform="matrix(1 0 0 1 -5.6899 480.5854)" class="st42 st40 st41">−20</text>
				</g>
				<g style="clip-path:url(#SVGID_00000060031347051041407000000009463994534781942668_);enable-background:new    ;">
					<text transform="matrix(1 0 0 1 -5.6899 441.7083)" class="st42 st40 st41">−15</text>
				</g>
				<g style="clip-path:url(#SVGID_00000060031347051041407000000009463994534781942668_);enable-background:new    ;">
					<text transform="matrix(1 0 0 1 -5.6899 402.8312)" class="st42 st40 st41">−10</text>
				</g>
				<g style="clip-path:url(#SVGID_00000060031347051041407000000009463994534781942668_);enable-background:new    ;">
					<text transform="matrix(1 0 0 1 0.984 363.9541)" class="st42 st40 st41">−5</text>
				</g>
				<g style="clip-path:url(#SVGID_00000060031347051041407000000009463994534781942668_);enable-background:new    ;">
					<text transform="matrix(1 0 0 1 7.9918 325.077)" class="st42 st40 st41">0</text>
				</g>
				<g style="clip-path:url(#SVGID_00000060031347051041407000000009463994534781942668_);enable-background:new    ;">
					<text transform="matrix(1 0 0 1 7.9918 286.2)" class="st42 st40 st41">5</text>
				</g>
				<g style="clip-path:url(#SVGID_00000060031347051041407000000009463994534781942668_);enable-background:new    ;">
					<text transform="matrix(1 0 0 1 1.318 247.3228)" class="st42 st40 st41">10</text>
				</g>
				<g style="clip-path:url(#SVGID_00000060031347051041407000000009463994534781942668_);enable-background:new    ;">
					<text transform="matrix(1 0 0 1 1.318 208.4457)" class="st42 st40 st41">15</text>
				</g>
				<g style="clip-path:url(#SVGID_00000060031347051041407000000009463994534781942668_);enable-background:new    ;">
					<text transform="matrix(1 0 0 1 1.318 169.5687)" class="st42 st40 st41">20</text>
				</g>
				<g style="clip-path:url(#SVGID_00000060031347051041407000000009463994534781942668_);enable-background:new    ;">
					<text transform="matrix(1 0 0 1 1.318 130.6916)" class="st42 st40 st41">25</text>
				</g>
				<g style="clip-path:url(#SVGID_00000060031347051041407000000009463994534781942668_);enable-background:new    ;">
					<text transform="matrix(1 0 0 1 1.318 91.8145)" class="st42 st40 st41">30</text>
				</g>
				
					<line style="clip-path:url(#SVGID_00000060031347051041407000000009463994534781942668_);fill:none;stroke:#181818;stroke-linecap:square;" x1="735.1" y1="321.1" x2="19.7" y2="321.1"/>
			</g>
			<path style="clip-path:url(#SVGID_00000114073324782562750180000005018778221205085831_);fill:none;stroke:#181818;" d="M233,199
				c10.1,8.7,22.3,12.9,36.6,12.3"/>
			<path style="clip-path:url(#SVGID_00000114073324782562750180000005018778221205085831_);fill:none;stroke:#181818;" d="
				M265.1,207.4l4.6,4l-4.9,3.5"/>
			<g style="clip-path:url(#SVGID_00000114073324782562750180000005018778221205085831_);enable-background:new    ;">
				<text transform="matrix(1 0 0 1 179.5938 192)" class="st46 st47">United States</text>
			</g>
			<g style="clip-path:url(#SVGID_00000114073324782562750180000005018778221205085831_);enable-background:new    ;">
				<text transform="matrix(1 0 0 1 179.5938 192)" class="st48 st46 st47">United States</text>
			</g>
			<g style="clip-path:url(#SVGID_00000114073324782562750180000005018778221205085831_);enable-background:new    ;">
				<text transform="matrix(1 0 0 1 179.5938 192)" class="st46 st47">United States</text>
			</g>
			<g style="clip-path:url(#SVGID_00000114073324782562750180000005018778221205085831_);enable-background:new    ;">
				<text transform="matrix(1 0 0 1 179.5938 192)" class="st49 st46 st47">United States</text>
			</g>
			<path style="clip-path:url(#SVGID_00000114073324782562750180000005018778221205085831_);fill:none;stroke:#181818;" d="
				M361.8,236c-5.9-12.3-15.7-20.8-29.4-25.5"/>
			<path style="clip-path:url(#SVGID_00000114073324782562750180000005018778221205085831_);fill:none;stroke:#181818;" d="
				M335.2,215.8l-2.8-5.3l5.9-1.5"/>
			<g style="clip-path:url(#SVGID_00000114073324782562750180000005018778221205085831_);enable-background:new    ;">
				<text transform="matrix(1 0 0 1 337.5938 254)" class="st46 st47">Denmark</text>
			</g>
			<g style="clip-path:url(#SVGID_00000114073324782562750180000005018778221205085831_);enable-background:new    ;">
				<text transform="matrix(1 0 0 1 337.5938 254)" class="st48 st46 st47">Denmark</text>
			</g>
			<g style="clip-path:url(#SVGID_00000114073324782562750180000005018778221205085831_);enable-background:new    ;">
				<text transform="matrix(1 0 0 1 337.5938 254)" class="st46 st47">Denmark</text>
			</g>
			<g style="clip-path:url(#SVGID_00000114073324782562750180000005018778221205085831_);enable-background:new    ;">
				<text transform="matrix(1 0 0 1 337.5938 254)" class="st49 st46 st47">Denmark</text>
			</g>
			<g style="clip-path:url(#SVGID_00000114073324782562750180000005018778221205085831_);">
				<defs>
					<rect id="SVGID_00000026874273512570074340000018114639660285517979_" y="79" width="744" height="430"/>
				</defs>
				<clipPath id="SVGID_00000018931822805943485370000010542142808256878520_">
					<use xlink:href="#SVGID_00000026874273512570074340000018114639660285517979_"  style="overflow:visible;"/>
				</clipPath>
			</g>
			<g style="clip-path:url(#SVGID_00000114073324782562750180000005018778221205085831_);enable-background:new    ;">
				<text transform="matrix(1 0 0 1 34.853 540)" class="st50 st40 st51">:</text>
			</g>
			<g style="clip-path:url(#SVGID_00000114073324782562750180000005018778221205085831_);enable-background:new    ;">
				<text transform="matrix(1 0 0 1 125.8994 540)" class="st50 st40 st51">•</text>
			</g>
			<g style="clip-path:url(#SVGID_00000114073324782562750180000005018778221205085831_);">
			</g>
			<g style="clip-path:url(#SVGID_00000114073324782562750180000005018778221205085831_);">
				<g>
					<path class="st0" d="M22.6,12.8h4.8c4.8,0,6.8,2.3,6.8,6.8c0,4.8-1.8,7.4-7.1,7.4h-4.5V12.8z M25.7,25.2h1.4c3,0,4-1.7,4-5.6
						c0-3.4-1-5-4-5h-1.5V25.2z"/>
					<path class="st0" d="M39.1,22.1c0,1.6,0.3,3.3,2.4,3.3c1.9,0,2.1-1.2,2.2-1.6h2.9c0,0.3-0.4,3.4-5.1,3.4
						c-4.6,0-5.3-2.9-5.3-5.6c0-3.4,1.7-5.5,5.4-5.5c4.1,0,5.2,2.3,5.2,5.1c0,0.3,0,0.8,0,1H39.1z M43.7,20.5c0-1.3-0.3-2.7-2.2-2.7
						c-2.2,0-2.3,1.9-2.3,2.7H43.7z"/>
					<path class="st0" d="M49.1,19.6c0-2.2,0-2.8,0-3.4H52c0,0.3,0.1,0.7,0.1,1.2c0.5-0.7,1.4-1.4,3.3-1.4c2.3,0,3.8,1,3.8,3.3V27
						h-3v-7.2c0-1.2-0.4-1.9-1.9-1.9c-1.5,0-2.2,0.7-2.2,2.5V27h-3V19.6z"/>
					<path class="st0" d="M62.4,19.4c0-2.1,0-2.8,0-3.2h2.8c0.1,0.2,0.1,0.8,0.1,1.2c0.6-0.9,1.7-1.4,3.3-1.4c1.6,0,2.6,0.5,3,1.5
						c0.6-0.8,1.6-1.5,3.6-1.5c2,0,3.7,0.7,3.7,3.2V27h-2.9v-7.4c0-0.9-0.4-1.7-1.7-1.7c-1.5,0-2.1,0.9-2.1,2.3V27h-3v-7.4
						c0-1.1-0.5-1.7-1.7-1.7c-1.5,0-2.1,0.9-2.1,2.4V27h-3V19.4z"/>
					<path class="st0" d="M91.3,24.8c0,0.6,0.1,1.8,0.1,2.2h-2.7c-0.1-0.2-0.1-0.7-0.1-1.1c-0.6,0.8-1.6,1.3-3.4,1.3
						c-2.8,0-3.9-1.6-3.9-3.2c0-2.1,2-3.5,5.8-3.5c0.6,0,1,0,1.3,0v-1.3c0-0.7-0.1-1.5-1.8-1.5c-1.7,0-1.8,0.8-1.9,1.5h-2.8
						c0.1-1.6,1.1-3.2,4.9-3.2c3.1,0,4.6,1,4.6,3.1V24.8z M88.5,22.1c-0.4,0-0.7,0-1.2,0c-2.2,0-3,0.7-3,1.7c0,0.8,0.5,1.6,1.9,1.6
						c1.9,0,2.3-1,2.3-2.8V22.1z"/>
					<path class="st0" d="M94.5,19.9c0-1.8,0-2.9,0-3.7h2.8c0,0.2,0.1,0.7,0.1,1.8c0.6-1.2,1.9-2,3.9-2v2.4c-2.5,0-3.8,0.7-3.8,2.8
						V27h-3V19.9z"/>
					<path class="st0" d="M106.2,21c1-1.3,2.7-3.3,4-4.8h3.3c-1.2,1.4-2.5,2.6-3.8,4l4,6.8h-3.4l-2.7-5c-0.4,0.4-1.1,1.2-1.5,1.6V27
						h-3V12.1h3V21z"/>
					<path class="st0" d="M123.4,12.1v5.3c0.5-0.8,1.5-1.3,3.4-1.3c2.3,0,3.7,1.1,3.7,3.3V27h-3v-7.2c0-1.1-0.3-1.9-1.9-1.9
						c-1.7,0-2.2,1-2.2,2.5V27h-3V12.1H123.4z"/>
					<path class="st0" d="M143,24.8c0,0.6,0.1,1.8,0.1,2.2h-2.7c-0.1-0.2-0.1-0.7-0.1-1.1c-0.6,0.8-1.6,1.3-3.4,1.3
						c-2.8,0-3.9-1.6-3.9-3.2c0-2.1,2-3.5,5.8-3.5c0.6,0,1,0,1.3,0v-1.3c0-0.7-0.1-1.5-1.8-1.5c-1.7,0-1.8,0.8-1.9,1.5h-2.8
						c0.1-1.6,1.1-3.2,4.9-3.2c3.1,0,4.6,1,4.6,3.1V24.8z M140.1,22.1c-0.4,0-0.7,0-1.2,0c-2.2,0-3,0.7-3,1.7c0,0.8,0.5,1.6,1.9,1.6
						c1.9,0,2.3-1,2.3-2.8V22.1z"/>
					<path class="st0" d="M148.1,23.8c0,0.9,0.7,1.7,2.1,1.7c1.3,0,1.9-0.5,1.9-1.3c0-0.9-0.6-1.3-2.4-1.8c-3.3-0.9-4.2-1.8-4.2-3.3
						c0-1.5,1.2-3,4.6-3c3.7,0,4.6,1.8,4.6,3.3h-2.9c0-0.4-0.1-1.6-1.8-1.6c-1.1,0-1.6,0.5-1.6,1.2c0,0.7,0.5,1.1,2.4,1.6
						c3,0.8,4.2,1.7,4.2,3.4c0,2.1-1.8,3.3-5,3.3c-3.4,0-4.9-1.5-4.9-3.4H148.1z"/>
					<path class="st0" d="M174,22.9c-0.1,0.8-0.5,4.3-5.7,4.3c-5.4,0-6-3.7-6-7.4c0-4.4,1.7-7.3,6.2-7.3c5,0,5.3,3.2,5.4,4.3h-3
						c0-0.5-0.1-2.4-2.5-2.4c-2.5,0-3,2.3-3,5.4c0,2.8,0.4,5.5,2.9,5.5c2.3,0,2.5-1.8,2.6-2.4H174z"/>
					<path class="st0" d="M186.4,21.5c0,3.9-1.9,5.7-5.4,5.7c-3.5,0-5.4-1.7-5.4-5.7c0-3.8,2.1-5.5,5.5-5.5
						C184.5,16,186.4,17.9,186.4,21.5z M178.6,21.5c0,2.5,0.7,3.8,2.4,3.8c1.7,0,2.3-1.3,2.3-3.8c0-2.5-0.7-3.7-2.4-3.7
						C179.4,17.9,178.6,19,178.6,21.5z"/>
					<path class="st0" d="M188.9,27V12.1h3V27H188.9z"/>
					<path class="st0" d="M205,12.1v12c0,1.2,0,2.3,0,2.9h-2.9c0-0.3-0.1-0.9-0.1-1.2c-0.4,0.8-1.3,1.4-3.3,1.4
						c-3.1,0-4.4-2-4.4-5.7c0-3.4,1.6-5.5,4.9-5.5c1.7,0,2.5,0.5,2.8,0.9v-4.9H205z M197.4,21.5c0,2.7,0.7,3.8,2.3,3.8
						c1.9,0,2.4-1.1,2.4-3.9c0-2.7-0.4-3.6-2.3-3.6C198.3,17.9,197.4,18.8,197.4,21.5z"/>
					<path class="st0" d="M210.4,22.1c0,1.6,0.3,3.3,2.4,3.3c1.9,0,2.1-1.2,2.2-1.6h2.9c0,0.3-0.4,3.4-5.1,3.4
						c-4.6,0-5.3-2.9-5.3-5.6c0-3.4,1.7-5.5,5.4-5.5c4.1,0,5.2,2.3,5.2,5.1c0,0.3,0,0.8,0,1H210.4z M215,20.5c0-1.3-0.3-2.7-2.2-2.7
						c-2.2,0-2.3,1.9-2.3,2.7H215z"/>
					<path class="st0" d="M220.4,19.9c0-1.8,0-2.9,0-3.7h2.8c0,0.2,0.1,0.7,0.1,1.8c0.6-1.2,1.9-2,3.9-2v2.4c-2.5,0-3.8,0.7-3.8,2.8
						V27h-3V19.9z"/>
					<path class="st0" d="M236.5,23.1c0.2,1.3,0.9,2.4,2.8,2.4c1.8,0,2.6-0.8,2.6-2.1c0-1.3-0.8-2-3.3-2.9c-3.2-1.1-4.5-2.1-4.5-4.2
						c0-2.2,1.9-3.7,5.3-3.7c4.2,0,5.2,2.1,5.3,3.9h-3c-0.1-0.8-0.4-2.1-2.4-2.1c-1.5,0-2.2,0.8-2.2,1.8c0,1.1,0.7,1.7,3,2.5
						c3.5,1.2,4.9,2.3,4.9,4.6c0,2.2-1.8,4-5.8,4c-4.3,0-5.6-2-5.7-4.1H236.5z"/>
					<path class="st0" d="M257.4,23.9c0,1.5,0,2.6,0,3.1h-2.8c-0.1-0.3-0.1-0.8-0.1-1.3c-0.6,1-1.7,1.5-3.4,1.5
						c-2,0-3.7-0.7-3.7-3.2v-7.8h3v7.3c0,1.2,0.4,1.8,1.8,1.8c1.4,0,2.2-0.6,2.2-2.5v-6.6h3V23.9z"/>
					<path class="st0" d="M260.5,19.4c0-2.1,0-2.8,0-3.2h2.8c0.1,0.2,0.1,0.8,0.1,1.2c0.6-0.9,1.7-1.4,3.3-1.4c1.6,0,2.6,0.5,3,1.5
						c0.6-0.8,1.6-1.5,3.6-1.5c2,0,3.7,0.7,3.7,3.2V27h-2.9v-7.4c0-0.9-0.4-1.7-1.7-1.7c-1.5,0-2.1,0.9-2.1,2.3V27h-3v-7.4
						c0-1.1-0.5-1.7-1.7-1.7c-1.5,0-2.1,0.9-2.1,2.4V27h-3V19.4z"/>
					<path class="st0" d="M280.2,19.4c0-2.1,0-2.8,0-3.2h2.8c0.1,0.2,0.1,0.8,0.1,1.2c0.6-0.9,1.7-1.4,3.3-1.4c1.6,0,2.6,0.5,3,1.5
						C290,16.7,291,16,293,16c2,0,3.7,0.7,3.7,3.2V27h-2.9v-7.4c0-0.9-0.4-1.7-1.7-1.7c-1.5,0-2.1,0.9-2.1,2.3V27h-3v-7.4
						c0-1.1-0.5-1.7-1.7-1.7c-1.5,0-2.1,0.9-2.1,2.4V27h-3V19.4z"/>
					<path class="st0" d="M302.1,22.1c0,1.6,0.3,3.3,2.4,3.3c1.9,0,2.1-1.2,2.2-1.6h2.9c0,0.3-0.4,3.4-5.1,3.4
						c-4.6,0-5.3-2.9-5.3-5.6c0-3.4,1.7-5.5,5.4-5.5c4.1,0,5.2,2.3,5.2,5.1c0,0.3,0,0.8,0,1H302.1z M306.7,20.5
						c0-1.3-0.3-2.7-2.2-2.7c-2.2,0-2.3,1.9-2.3,2.7H306.7z"/>
					<path class="st0" d="M312.1,19.9c0-1.8,0-2.9,0-3.7h2.8c0,0.2,0.1,0.7,0.1,1.8c0.6-1.2,1.9-2,3.9-2v2.4c-2.5,0-3.8,0.7-3.8,2.8
						V27h-3V19.9z"/>
					<path class="st0" d="M322.7,23.8c0,0.9,0.7,1.7,2.1,1.7c1.3,0,1.9-0.5,1.9-1.3c0-0.9-0.6-1.3-2.4-1.8c-3.3-0.9-4.2-1.8-4.2-3.3
						c0-1.5,1.2-3,4.6-3c3.7,0,4.6,1.8,4.6,3.3h-2.9c0-0.4-0.1-1.6-1.8-1.6c-1.1,0-1.6,0.5-1.6,1.2c0,0.7,0.5,1.1,2.4,1.6
						c3,0.8,4.2,1.7,4.2,3.4c0,2.1-1.8,3.3-5,3.3c-3.4,0-4.9-1.5-4.9-3.4H322.7z"/>
					<path class="st0" d="M337.5,12.1h3v5.3c0.5-0.7,1.5-1.4,3.3-1.4c3,0,4.3,1.9,4.3,5.3c0,3.4-1.2,5.9-4.7,5.9
						c-1.9,0-2.6-0.7-3-1.3c0,0.3,0,0.8-0.1,1.1h-2.8c0-0.7,0-1.8,0-3V12.1z M345.1,21.4c0-2.3-0.6-3.5-2.3-3.5
						c-1.9,0-2.5,1.1-2.5,3.8c0,2.5,0.5,3.7,2.3,3.7C344.4,25.3,345.1,24.1,345.1,21.4z"/>
					<path class="st0" d="M360.5,23.9c0,1.5,0,2.6,0,3.1h-2.8c-0.1-0.3-0.1-0.8-0.1-1.3c-0.6,1-1.7,1.5-3.4,1.5
						c-2,0-3.7-0.7-3.7-3.2v-7.8h3v7.3c0,1.2,0.4,1.8,1.8,1.8c1.4,0,2.2-0.6,2.2-2.5v-6.6h3V23.9z"/>
					<path class="st0" d="M362,16.2h2v-2.8h3v2.8h2.4V18h-2.4v6.3c0,0.7,0.2,1.1,1.3,1.1c0.3,0,0.6,0,0.9,0v1.6
						c-0.6,0.2-1.4,0.2-2,0.2c-2.1,0-3.2-0.6-3.2-2.5V18h-2V16.2z"/>
					<path class="st0" d="M376.7,12.8h3v5.8h5.2v-5.8h3V27h-3v-6.5h-5.2V27h-3V12.8z"/>
					<path class="st0" d="M401.5,21.5c0,3.9-1.9,5.7-5.4,5.7c-3.5,0-5.4-1.7-5.4-5.7c0-3.8,2.1-5.5,5.5-5.5
						C399.6,16,401.5,17.9,401.5,21.5z M393.7,21.5c0,2.5,0.7,3.8,2.4,3.8c1.7,0,2.3-1.3,2.3-3.8c0-2.5-0.7-3.7-2.4-3.7
						C394.5,17.9,393.7,19,393.7,21.5z"/>
					<path class="st0" d="M402.3,16.2h2v-2.8h3v2.8h2.4V18h-2.4v6.3c0,0.7,0.2,1.1,1.3,1.1c0.3,0,0.6,0,0.9,0v1.6
						c-0.6,0.2-1.4,0.2-2,0.2c-2.1,0-3.2-0.6-3.2-2.5V18h-2V16.2z"/>
					<path class="st0" d="M409.8,16.2h2v-2.8h3v2.8h2.4V18h-2.4v6.3c0,0.7,0.2,1.1,1.3,1.1c0.3,0,0.6,0,0.9,0v1.6
						c-0.6,0.2-1.4,0.2-2,0.2c-2.1,0-3.2-0.6-3.2-2.5V18h-2V16.2z"/>
					<path class="st0" d="M421.3,22.1c0,1.6,0.3,3.3,2.4,3.3c1.9,0,2.1-1.2,2.2-1.6h2.9c0,0.3-0.4,3.4-5.1,3.4
						c-4.6,0-5.3-2.9-5.3-5.6c0-3.4,1.7-5.5,5.4-5.5c4.1,0,5.2,2.3,5.2,5.1c0,0.3,0,0.8,0,1H421.3z M425.9,20.5
						c0-1.3-0.3-2.7-2.2-2.7c-2.2,0-2.3,1.9-2.3,2.7H425.9z"/>
					<path class="st0" d="M431.3,19.9c0-1.8,0-2.9,0-3.7h2.8c0,0.2,0.1,0.7,0.1,1.8c0.6-1.2,1.9-2,3.9-2v2.4c-2.5,0-3.8,0.7-3.8,2.8
						V27h-3V19.9z"/>
					<path class="st0" d="M447.9,27l-3.8-14.2h3.2c0.9,3.9,1.9,8.7,2.2,11.1h0c0.5-2.5,2.1-8,2.9-11.1h2.7c0.8,3,2.4,8.6,2.8,11h0.1
						c0.4-2.8,1.8-8.1,2.4-11h3l-4,14.2h-3c-0.8-3.1-2.2-8.1-2.7-10.6h0c-0.5,2.6-2,7.7-2.8,10.6H447.9z"/>
					<path class="st0" d="M465.5,16.2h3V27h-3V16.2z M465.5,12.1h3v2.4h-3V12.1z"/>
					<path class="st0" d="M471.7,19.6c0-2.2,0-2.8,0-3.4h2.9c0,0.3,0.1,0.7,0.1,1.2c0.5-0.7,1.4-1.4,3.3-1.4c2.3,0,3.8,1,3.8,3.3V27
						h-3v-7.2c0-1.2-0.4-1.9-1.9-1.9c-1.5,0-2.2,0.7-2.2,2.5V27h-3V19.6z"/>
					<path class="st0" d="M483.2,16.2h2v-2.8h3v2.8h2.4V18h-2.4v6.3c0,0.7,0.2,1.1,1.3,1.1c0.3,0,0.6,0,0.9,0v1.6
						c-0.6,0.2-1.4,0.2-2,0.2c-2.1,0-3.2-0.6-3.2-2.5V18h-2V16.2z"/>
					<path class="st0" d="M494.7,22.1c0,1.6,0.3,3.3,2.4,3.3c1.9,0,2.1-1.2,2.2-1.6h2.9c0,0.3-0.4,3.4-5.1,3.4
						c-4.6,0-5.3-2.9-5.3-5.6c0-3.4,1.7-5.5,5.4-5.5c4.1,0,5.2,2.3,5.2,5.1c0,0.3,0,0.8,0,1H494.7z M499.3,20.5
						c0-1.3-0.3-2.7-2.2-2.7c-2.2,0-2.3,1.9-2.3,2.7H499.3z"/>
					<path class="st0" d="M504.7,19.9c0-1.8,0-2.9,0-3.7h2.8c0,0.2,0.1,0.7,0.1,1.8c0.6-1.2,1.9-2,3.9-2v2.4c-2.5,0-3.8,0.7-3.8,2.8
						V27h-3V19.9z"/>
					<path class="st0" d="M515.3,23.8c0,0.9,0.7,1.7,2.1,1.7c1.3,0,1.9-0.5,1.9-1.3c0-0.9-0.6-1.3-2.4-1.8c-3.3-0.9-4.2-1.8-4.2-3.3
						c0-1.5,1.2-3,4.6-3c3.7,0,4.6,1.8,4.6,3.3h-2.9c0-0.4-0.1-1.6-1.8-1.6c-1.1,0-1.6,0.5-1.6,1.2c0,0.7,0.5,1.1,2.4,1.6
						c3,0.8,4.2,1.7,4.2,3.4c0,2.1-1.8,3.3-5,3.3c-3.4,0-4.9-1.5-4.9-3.4H515.3z"/>
					<path class="st0" d="M541.2,22.9c-0.1,0.8-0.5,4.3-5.7,4.3c-5.4,0-6-3.7-6-7.4c0-4.4,1.7-7.3,6.2-7.3c5,0,5.3,3.2,5.4,4.3h-3
						c0-0.5-0.1-2.4-2.5-2.4c-2.5,0-3,2.3-3,5.4c0,2.8,0.4,5.5,2.9,5.5c2.3,0,2.5-1.8,2.6-2.4H541.2z"/>
					<path class="st0" d="M553.6,21.5c0,3.9-1.9,5.7-5.4,5.7c-3.5,0-5.4-1.7-5.4-5.7c0-3.8,2.1-5.5,5.5-5.5
						C551.7,16,553.6,17.9,553.6,21.5z M545.8,21.5c0,2.5,0.7,3.8,2.4,3.8c1.7,0,2.3-1.3,2.3-3.8c0-2.5-0.7-3.7-2.4-3.7
						C546.6,17.9,545.8,19,545.8,21.5z"/>
					<path class="st0" d="M556.1,19.4c0-2.1,0-2.8,0-3.2h2.8c0.1,0.2,0.1,0.8,0.1,1.2c0.6-0.9,1.7-1.4,3.3-1.4c1.6,0,2.6,0.5,3,1.5
						c0.6-0.8,1.6-1.5,3.6-1.5c2,0,3.7,0.7,3.7,3.2V27h-2.9v-7.4c0-0.9-0.4-1.7-1.7-1.7c-1.5,0-2.1,0.9-2.1,2.3V27h-3v-7.4
						c0-1.1-0.5-1.7-1.7-1.7c-1.5,0-2.1,0.9-2.1,2.4V27h-3V19.4z"/>
					<path class="st0" d="M578.7,26.1v4.8h-3V19.3c0-1.5,0-2.5,0-3.1h2.9c0,0.2,0.1,0.8,0.1,1.3c0.5-0.8,1.4-1.5,3.4-1.5
						c2.8,0,4.3,1.8,4.3,5.4c0,4.1-1.9,5.8-4.8,5.8C580,27.2,579.1,26.7,578.7,26.1z M583.3,21.5c0-2.6-0.8-3.6-2.4-3.6
						c-1.9,0-2.3,1.3-2.3,3.6c0,2.5,0.2,3.9,2.3,3.9C582.5,25.3,583.3,24,583.3,21.5z"/>
					<path class="st0" d="M598.1,24.8c0,0.6,0.1,1.8,0.1,2.2h-2.7c-0.1-0.2-0.1-0.7-0.1-1.1c-0.6,0.8-1.6,1.3-3.4,1.3
						c-2.8,0-3.9-1.6-3.9-3.2c0-2.1,2-3.5,5.8-3.5c0.6,0,1,0,1.3,0v-1.3c0-0.7-0.1-1.5-1.8-1.5c-1.7,0-1.8,0.8-1.9,1.5h-2.8
						c0.1-1.6,1.1-3.2,4.9-3.2c3.1,0,4.6,1,4.6,3.1V24.8z M595.3,22.1c-0.4,0-0.7,0-1.2,0c-2.2,0-3,0.7-3,1.7c0,0.8,0.5,1.6,1.9,1.6
						c1.9,0,2.3-1,2.3-2.8V22.1z"/>
					<path class="st0" d="M601.4,19.9c0-1.8,0-2.9,0-3.7h2.8c0,0.2,0.1,0.7,0.1,1.8c0.6-1.2,1.9-2,3.9-2v2.4c-2.5,0-3.8,0.7-3.8,2.8
						V27h-3V19.9z"/>
					<path class="st0" d="M612.3,22.1c0,1.6,0.3,3.3,2.4,3.3c1.9,0,2.1-1.2,2.2-1.6h2.9c0,0.3-0.4,3.4-5.1,3.4
						c-4.6,0-5.3-2.9-5.3-5.6c0-3.4,1.7-5.5,5.4-5.5c4.1,0,5.2,2.3,5.2,5.1c0,0.3,0,0.8,0,1H612.3z M616.9,20.5
						c0-1.3-0.3-2.7-2.2-2.7c-2.2,0-2.3,1.9-2.3,2.7H616.9z"/>
					<path class="st0" d="M632.2,12.1v12c0,1.2,0,2.3,0,2.9h-2.9c0-0.3-0.1-0.9-0.1-1.2c-0.4,0.8-1.3,1.4-3.3,1.4
						c-3.1,0-4.4-2-4.4-5.7c0-3.4,1.6-5.5,4.9-5.5c1.7,0,2.5,0.5,2.8,0.9v-4.9H632.2z M624.6,21.5c0,2.7,0.7,3.8,2.3,3.8
						c1.9,0,2.4-1.1,2.4-3.9c0-2.7-0.4-3.6-2.3-3.6C625.6,17.9,624.6,18.8,624.6,21.5z"/>
					<path class="st0" d="M639.1,16.2h2v-2.8h3v2.8h2.4V18H644v6.3c0,0.7,0.2,1.1,1.3,1.1c0.3,0,0.6,0,0.9,0v1.6
						c-0.6,0.2-1.4,0.2-2,0.2c-2.1,0-3.2-0.6-3.2-2.5V18h-2V16.2z"/>
					<path class="st0" d="M658.3,21.5c0,3.9-1.9,5.7-5.4,5.7c-3.5,0-5.4-1.7-5.4-5.7c0-3.8,2.1-5.5,5.5-5.5
						C656.5,16,658.3,17.9,658.3,21.5z M650.6,21.5c0,2.5,0.7,3.8,2.4,3.8c1.7,0,2.3-1.3,2.3-3.8c0-2.5-0.7-3.7-2.4-3.7
						C651.3,17.9,650.6,19,650.6,21.5z"/>
					<path class="st0" d="M664.5,16.2h2v-2.8h3v2.8h2.4V18h-2.4v6.3c0,0.7,0.2,1.1,1.3,1.1c0.3,0,0.6,0,0.9,0v1.6
						c-0.6,0.2-1.4,0.2-2,0.2c-2.1,0-3.2-0.6-3.2-2.5V18h-2V16.2z"/>
					<path class="st0" d="M676.7,12.1v5.3c0.5-0.8,1.5-1.3,3.4-1.3c2.3,0,3.7,1.1,3.7,3.3V27h-3v-7.2c0-1.1-0.3-1.9-1.9-1.9
						c-1.7,0-2.2,1-2.2,2.5V27h-3V12.1H676.7z"/>
					<path class="st0" d="M689.3,22.1c0,1.6,0.3,3.3,2.4,3.3c1.9,0,2.1-1.2,2.2-1.6h2.9c0,0.3-0.4,3.4-5.1,3.4
						c-4.6,0-5.3-2.9-5.3-5.6c0-3.4,1.7-5.5,5.4-5.5c4.1,0,5.2,2.3,5.2,5.1c0,0.3,0,0.8,0,1H689.3z M693.9,20.5
						c0-1.3-0.3-2.7-2.2-2.7c-2.2,0-2.3,1.9-2.3,2.7H693.9z"/>
					<path class="st0" d="M707.7,12.8v9.9c0,1.3,0.5,2.7,2.8,2.7c2.2,0,2.7-1.2,2.7-2.7v-9.9h3v9.9c0,2.6-1.3,4.6-5.8,4.6
						c-4.4,0-5.7-1.9-5.7-4.5v-9.9H707.7z"/>
					<path class="st0" d="M721.5,23.1c0.2,1.3,0.9,2.4,2.8,2.4c1.8,0,2.6-0.8,2.6-2.1c0-1.3-0.8-2-3.3-2.9c-3.2-1.1-4.5-2.1-4.5-4.2
						c0-2.2,1.9-3.7,5.3-3.7c4.2,0,5.2,2.1,5.3,3.9h-3c-0.1-0.8-0.4-2.1-2.4-2.1c-1.5,0-2.2,0.8-2.2,1.8c0,1.1,0.7,1.7,3,2.5
						c3.5,1.2,4.9,2.3,4.9,4.6c0,2.2-1.8,4-5.8,4c-4.3,0-5.6-2-5.7-4.1H721.5z"/>
				</g>
			</g>
			<g style="clip-path:url(#SVGID_00000114073324782562750180000005018778221205085831_);">
				<g>
					<path class="st0" d="M23.7,40.8h3c3,0,4.3,2,4.3,5.8c0,4.1-1.2,6.4-4.4,6.4h-2.8V40.8z M25.6,51.4h0.9c1.9,0,2.5-1.5,2.5-4.8
						c0-3-0.6-4.3-2.5-4.3h-0.9V51.4z"/>
					<path class="st0" d="M34.1,48.8c0,1.4,0.2,2.8,1.5,2.8c1.2,0,1.3-1.1,1.4-1.4h1.8c0,0.3-0.3,2.9-3.2,2.9
						c-2.9,0-3.3-2.5-3.3-4.8c0-2.9,1.1-4.7,3.4-4.7c2.6,0,3.2,2,3.2,4.4c0,0.3,0,0.7,0,0.8H34.1z M37,47.5c0-1.1-0.2-2.3-1.4-2.3
						c-1.4,0-1.5,1.7-1.5,2.3H37z"/>
					<path class="st0" d="M40.3,46.6c0-1.9,0-2.4,0-2.9h1.8c0,0.2,0.1,0.6,0.1,1c0.3-0.6,0.9-1.2,2.1-1.2c1.5,0,2.4,0.9,2.4,2.8V53
						h-1.9v-6.2c0-1-0.2-1.6-1.2-1.6c-1,0-1.4,0.6-1.4,2.2V53h-1.9V46.6z"/>
					<path class="st0" d="M48.7,46.5c0-1.8,0-2.4,0-2.8h1.8c0,0.2,0.1,0.7,0.1,1c0.4-0.7,1.1-1.2,2-1.2c1,0,1.6,0.4,1.9,1.3
						c0.4-0.7,1-1.3,2.3-1.3c1.3,0,2.3,0.6,2.3,2.7V53h-1.8v-6.4c0-0.8-0.3-1.4-1.1-1.4c-1,0-1.3,0.8-1.3,2V53h-1.9v-6.3
						c0-0.9-0.3-1.5-1.1-1.5c-0.9,0-1.3,0.7-1.3,2V53h-1.9V46.5z"/>
					<path class="st0" d="M66.8,51.1c0,0.5,0,1.5,0.1,1.9h-1.7c0-0.2-0.1-0.6-0.1-0.9c-0.3,0.6-1,1.1-2.1,1.1
						c-1.8,0-2.4-1.4-2.4-2.7c0-1.8,1.2-3,3.6-3c0.4,0,0.6,0,0.8,0v-1.1c0-0.6-0.1-1.3-1.1-1.3c-1,0-1.1,0.7-1.2,1.3h-1.8
						c0-1.3,0.7-2.8,3-2.8c1.9,0,2.9,0.9,2.9,2.6V51.1z M65,48.8c-0.2,0-0.4,0-0.8,0c-1.4,0-1.9,0.6-1.9,1.5c0,0.7,0.3,1.3,1.2,1.3
						c1.2,0,1.5-0.9,1.5-2.4V48.8z"/>
					<path class="st0" d="M68.8,46.9c0-1.5,0-2.5,0-3.1h1.8c0,0.2,0,0.6,0,1.6c0.4-1.1,1.2-1.7,2.4-1.7v2.1c-1.5,0-2.4,0.6-2.4,2.4
						v5h-1.9V46.9z"/>
					<path class="st0" d="M76.1,47.8c0.6-1.1,1.7-2.8,2.5-4.1h2.1c-0.8,1.2-1.5,2.3-2.4,3.4l2.5,5.8h-2.1l-1.7-4.3
						c-0.3,0.3-0.7,1-1,1.4v3h-1.9V40.2h1.9V47.8z"/>
					<path class="st0" d="M85.1,43.8h1.9V53h-1.9V43.8z M85.1,40.2h1.9v2h-1.9V40.2z"/>
					<path class="st0" d="M90.1,50.3c0,0.8,0.4,1.5,1.3,1.5c0.8,0,1.2-0.5,1.2-1.1c0-0.8-0.4-1.1-1.5-1.6c-2.1-0.8-2.6-1.5-2.6-2.8
						c0-1.3,0.8-2.6,2.9-2.6c2.3,0,2.9,1.6,2.9,2.8h-1.8c0-0.4-0.1-1.4-1.2-1.4c-0.7,0-1,0.4-1,1c0,0.6,0.3,0.9,1.5,1.4
						c1.9,0.7,2.7,1.4,2.7,3c0,1.8-1.1,2.8-3.1,2.8c-2.1,0-3.1-1.3-3.1-2.9H90.1z"/>
					<path class="st0" d="M105.7,48.3c0,3.3-1.2,4.9-3.4,4.9c-2.2,0-3.4-1.5-3.4-4.8c0-3.3,1.3-4.7,3.5-4.7
						C104.6,43.6,105.7,45.2,105.7,48.3z M100.8,48.3c0,2.2,0.4,3.3,1.5,3.3c1,0,1.5-1.1,1.5-3.3c0-2.2-0.4-3.2-1.5-3.2
						C101.3,45.2,100.8,46.2,100.8,48.3z"/>
					<path class="st0" d="M107.3,46.6c0-1.9,0-2.4,0-2.9h1.8c0,0.2,0.1,0.6,0.1,1c0.3-0.6,0.9-1.2,2.1-1.2c1.5,0,2.4,0.9,2.4,2.8V53
						h-1.9v-6.2c0-1-0.2-1.6-1.2-1.6c-1,0-1.4,0.6-1.4,2.2V53h-1.9V46.6z"/>
					<path class="st0" d="M124.8,51.1c0,0.5,0,1.5,0.1,1.9h-1.7c0-0.2-0.1-0.6-0.1-0.9c-0.3,0.6-1,1.1-2.1,1.1
						c-1.8,0-2.4-1.4-2.4-2.7c0-1.8,1.2-3,3.6-3c0.4,0,0.6,0,0.8,0v-1.1c0-0.6-0.1-1.3-1.1-1.3c-1,0-1.1,0.7-1.2,1.3h-1.8
						c0-1.3,0.7-2.8,3-2.8c1.9,0,2.9,0.9,2.9,2.6V51.1z M123,48.8c-0.2,0-0.4,0-0.8,0c-1.4,0-1.9,0.6-1.9,1.5c0,0.7,0.3,1.3,1.2,1.3
						c1.2,0,1.5-0.9,1.5-2.4V48.8z"/>
					<path class="st0" d="M127.9,43.8c0.6,2.8,1.4,5.9,1.6,7.3h0c0.2-1.3,1.1-4.9,1.7-7.3h1.9l-2.6,9.3h-2l-2.5-9.3H127.9z"/>
					<path class="st0" d="M135.6,48.8c0,1.4,0.2,2.8,1.5,2.8c1.2,0,1.3-1.1,1.4-1.4h1.8c0,0.3-0.3,2.9-3.2,2.9
						c-2.9,0-3.3-2.5-3.3-4.8c0-2.9,1.1-4.7,3.4-4.7c2.6,0,3.2,2,3.2,4.4c0,0.3,0,0.7,0,0.8H135.6z M138.4,47.5
						c0-1.1-0.2-2.3-1.4-2.3c-1.4,0-1.5,1.7-1.5,2.3H138.4z"/>
					<path class="st0" d="M141.8,46.9c0-1.5,0-2.5,0-3.1h1.8c0,0.2,0,0.6,0,1.6c0.4-1.1,1.2-1.7,2.4-1.7v2.1c-1.5,0-2.4,0.6-2.4,2.4
						v5h-1.9V46.9z"/>
					<path class="st0" d="M153.1,51.1c0,0.5,0,1.5,0.1,1.9h-1.7c0-0.2-0.1-0.6-0.1-0.9c-0.3,0.6-1,1.1-2.1,1.1
						c-1.8,0-2.4-1.4-2.4-2.7c0-1.8,1.2-3,3.6-3c0.4,0,0.6,0,0.8,0v-1.1c0-0.6-0.1-1.3-1.1-1.3c-1,0-1.1,0.7-1.2,1.3h-1.8
						c0-1.3,0.7-2.8,3-2.8c1.9,0,2.9,0.9,2.9,2.6V51.1z M151.3,48.8c-0.2,0-0.4,0-0.8,0c-1.4,0-1.9,0.6-1.9,1.5
						c0,0.7,0.3,1.3,1.2,1.3c1.2,0,1.5-0.9,1.5-2.4V48.8z"/>
					<path class="st0" d="M161.3,52.3c0,2.6-0.7,4.2-3.5,4.2c-2.6,0-3.1-1.6-3.1-2.6h1.9c0,0.4,0.2,1.1,1.4,1.1c1.3,0,1.5-1,1.5-2.7
						v-0.6c-0.3,0.8-1.1,1.2-2,1.2c-1.9,0-2.8-1.7-2.8-4.5c0-3.2,1.2-4.9,3-4.9c1.2,0,1.7,0.6,1.8,1.1c0-0.3,0-0.7,0.1-0.9h1.8
						c0,0.5,0,1.5,0,2.7V52.3z M156.6,48.4c0,2,0.5,2.9,1.5,2.9c1.2,0,1.5-1.2,1.5-3.2c0-1.8-0.2-3-1.4-3
						C157.1,45.2,156.6,46.2,156.6,48.4z"/>
					<path class="st0" d="M164.8,48.8c0,1.4,0.2,2.8,1.5,2.8c1.2,0,1.3-1.1,1.4-1.4h1.8c0,0.3-0.3,2.9-3.2,2.9
						c-2.9,0-3.3-2.5-3.3-4.8c0-2.9,1.1-4.7,3.4-4.7c2.6,0,3.2,2,3.2,4.4c0,0.3,0,0.7,0,0.8H164.8z M167.7,47.5
						c0-1.1-0.2-2.3-1.4-2.3c-1.4,0-1.5,1.7-1.5,2.3H167.7z"/>
					<path class="st0" d="M173.8,53v-0.1c0-1.8,0.9-3.3,2.7-5.3c1.4-1.6,1.8-2.1,1.8-3.3c0-0.9-0.2-1.7-1.2-1.7
						c-1,0-1.3,0.8-1.4,2.1h-1.8c0-1.8,0.8-3.6,3.2-3.6c2.2,0,3.1,1.4,3.1,3.3c0,1.5-0.4,2.3-2,3.9c-1.2,1.3-2,2.4-2.3,3.2h4.5
						l-0.3,1.6H173.8z"/>
					<path class="st0" d="M191.3,40.2v10.3c0,1,0,2,0,2.5h-1.8c0-0.2-0.1-0.8-0.1-1.1c-0.3,0.7-0.8,1.2-2.1,1.2
						c-1.9,0-2.7-1.7-2.7-4.9c0-2.9,1-4.7,3.1-4.7c1.1,0,1.5,0.4,1.7,0.8v-4.2H191.3z M186.6,48.3c0,2.3,0.5,3.3,1.4,3.3
						c1.2,0,1.5-1,1.5-3.3c0-2.3-0.2-3.1-1.4-3.1C187.2,45.2,186.6,46,186.6,48.3z"/>
					<path class="st0" d="M194.7,48.8c0,1.4,0.2,2.8,1.5,2.8c1.2,0,1.3-1.1,1.4-1.4h1.8c0,0.3-0.3,2.9-3.2,2.9
						c-2.9,0-3.3-2.5-3.3-4.8c0-2.9,1.1-4.7,3.4-4.7c2.6,0,3.2,2,3.2,4.4c0,0.3,0,0.7,0,0.8H194.7z M197.6,47.5
						c0-1.1-0.2-2.3-1.4-2.3c-1.4,0-1.5,1.7-1.5,2.3H197.6z"/>
					<path class="st0" d="M207.2,52.3c0,2.6-0.7,4.2-3.5,4.2c-2.6,0-3.1-1.6-3.1-2.6h1.9c0,0.4,0.2,1.1,1.4,1.1c1.3,0,1.5-1,1.5-2.7
						v-0.6c-0.3,0.8-1.1,1.2-2,1.2c-1.9,0-2.8-1.7-2.8-4.5c0-3.2,1.2-4.9,3-4.9c1.2,0,1.7,0.6,1.8,1.1c0-0.3,0-0.7,0.1-0.9h1.8
						c0,0.5,0,1.5,0,2.7V52.3z M202.5,48.4c0,2,0.5,2.9,1.5,2.9c1.2,0,1.5-1.2,1.5-3.2c0-1.8-0.2-3-1.4-3
						C203,45.2,202.5,46.2,202.5,48.4z"/>
					<path class="st0" d="M209.2,46.9c0-1.5,0-2.5,0-3.1h1.8c0,0.2,0,0.6,0,1.6c0.4-1.1,1.2-1.7,2.4-1.7v2.1c-1.5,0-2.4,0.6-2.4,2.4
						v5h-1.9V46.9z"/>
					<path class="st0" d="M216.1,48.8c0,1.4,0.2,2.8,1.5,2.8c1.2,0,1.3-1.1,1.4-1.4h1.8c0,0.3-0.3,2.9-3.2,2.9
						c-2.9,0-3.3-2.5-3.3-4.8c0-2.9,1.1-4.7,3.4-4.7c2.6,0,3.2,2,3.2,4.4c0,0.3,0,0.7,0,0.8H216.1z M219,47.5c0-1.1-0.2-2.3-1.4-2.3
						c-1.4,0-1.5,1.7-1.5,2.3H219z"/>
					<path class="st0" d="M223.8,48.8c0,1.4,0.2,2.8,1.5,2.8c1.2,0,1.3-1.1,1.4-1.4h1.8c0,0.3-0.3,2.9-3.2,2.9
						c-2.9,0-3.3-2.5-3.3-4.8c0-2.9,1.1-4.7,3.4-4.7c2.6,0,3.2,2,3.2,4.4c0,0.3,0,0.7,0,0.8H223.8z M226.7,47.5
						c0-1.1-0.2-2.3-1.4-2.3c-1.4,0-1.5,1.7-1.5,2.3H226.7z"/>
					<path class="st0" d="M231.3,50.3c0,0.8,0.4,1.5,1.3,1.5c0.8,0,1.2-0.5,1.2-1.1c0-0.8-0.4-1.1-1.5-1.6c-2.1-0.8-2.6-1.5-2.6-2.8
						c0-1.3,0.8-2.6,2.9-2.6c2.3,0,2.9,1.6,2.9,2.8h-1.8c0-0.4-0.1-1.4-1.2-1.4c-0.7,0-1,0.4-1,1c0,0.6,0.3,0.9,1.5,1.4
						c1.9,0.7,2.7,1.4,2.7,3c0,1.8-1.1,2.8-3.1,2.8c-2.1,0-3.1-1.3-3.1-2.9H231.3z"/>
					<path class="st0" d="M246.5,50c0,0.7-0.2,3.2-3.2,3.2c-2.6,0-3.2-2.1-3.2-4.9c0-2.5,0.8-4.7,3.3-4.7c2.9,0,3,2.6,3,3.1h-1.9
						c0-0.4-0.1-1.5-1.2-1.5c-1.1,0-1.4,1.2-1.4,3.2c0,2.1,0.4,3.3,1.4,3.3c1.1,0,1.2-1.1,1.3-1.6H246.5z"/>
					<path class="st0" d="M249.3,48.8c0,1.4,0.2,2.8,1.5,2.8c1.2,0,1.3-1.1,1.4-1.4h1.8c0,0.3-0.3,2.9-3.2,2.9
						c-2.9,0-3.3-2.5-3.3-4.8c0-2.9,1.1-4.7,3.4-4.7c2.6,0,3.2,2,3.2,4.4c0,0.3,0,0.7,0,0.8H249.3z M252.2,47.5
						c0-1.1-0.2-2.3-1.4-2.3c-1.4,0-1.5,1.7-1.5,2.3H252.2z"/>
					<path class="st0" d="M255.5,53V40.2h1.9V53H255.5z"/>
					<path class="st0" d="M265.3,50c0,0.7-0.2,3.2-3.2,3.2c-2.6,0-3.2-2.1-3.2-4.9c0-2.5,0.8-4.7,3.3-4.7c2.9,0,3,2.6,3,3.1h-1.9
						c0-0.4-0.1-1.5-1.2-1.5c-1.1,0-1.4,1.2-1.4,3.2c0,2.1,0.4,3.3,1.4,3.3c1.1,0,1.2-1.1,1.3-1.6H265.3z"/>
					<path class="st0" d="M266.7,43.8h1.9V53h-1.9V43.8z M266.8,40.2h1.9v2h-1.9V40.2z"/>
					<path class="st0" d="M276.9,48.3c0,3.3-1.2,4.9-3.4,4.9c-2.2,0-3.4-1.5-3.4-4.8c0-3.3,1.3-4.7,3.5-4.7
						C275.8,43.6,276.9,45.2,276.9,48.3z M272.1,48.3c0,2.2,0.4,3.3,1.5,3.3c1,0,1.5-1.1,1.5-3.3c0-2.2-0.4-3.2-1.5-3.2
						C272.5,45.2,272.1,46.2,272.1,48.3z"/>
					<path class="st0" d="M284.7,50.4c0,1.3,0,2.2,0,2.7H283c0-0.3-0.1-0.7-0.1-1.1c-0.4,0.9-1.1,1.2-2.1,1.2
						c-1.2,0-2.3-0.6-2.3-2.8v-6.6h1.9V50c0,1,0.2,1.6,1.1,1.6c0.9,0,1.4-0.5,1.4-2.1v-5.7h1.9V50.4z"/>
					<path class="st0" d="M287.9,50.3c0,0.8,0.4,1.5,1.3,1.5c0.8,0,1.2-0.5,1.2-1.1c0-0.8-0.4-1.1-1.5-1.6c-2.1-0.8-2.6-1.5-2.6-2.8
						c0-1.3,0.8-2.6,2.9-2.6c2.3,0,2.9,1.6,2.9,2.8h-1.8c0-0.4-0.1-1.4-1.2-1.4c-0.7,0-1,0.4-1,1c0,0.6,0.3,0.9,1.5,1.4
						c1.9,0.7,2.7,1.4,2.7,3c0,1.8-1.1,2.8-3.1,2.8c-2.1,0-3.1-1.3-3.1-2.9H287.9z"/>
					<path class="st0" d="M299,40.2v4.5c0.3-0.6,1-1.1,2.1-1.1c1.5,0,2.3,0.9,2.3,2.9V53h-1.9v-6.2c0-1-0.2-1.6-1.2-1.6
						c-1.1,0-1.4,0.8-1.4,2.2V53h-1.9V40.2H299z"/>
					<path class="st0" d="M311.8,48.3c0,3.3-1.2,4.9-3.4,4.9c-2.2,0-3.4-1.5-3.4-4.8c0-3.3,1.3-4.7,3.5-4.7
						C310.6,43.6,311.8,45.2,311.8,48.3z M306.9,48.3c0,2.2,0.4,3.3,1.5,3.3c1,0,1.5-1.1,1.5-3.3c0-2.2-0.4-3.2-1.5-3.2
						C307.4,45.2,306.9,46.2,306.9,48.3z"/>
					<path class="st0" d="M312.3,43.8h1.2v-2.4h1.9v2.4h1.5v1.5h-1.5v5.4c0,0.6,0.1,0.9,0.8,0.9c0.2,0,0.4,0,0.6,0V53
						c-0.4,0.2-0.9,0.2-1.2,0.2c-1.3,0-2-0.5-2-2.1v-5.7h-1.2V43.8z"/>
					<path class="st0" d="M317,43.8h1.2v-2.4h1.9v2.4h1.5v1.5h-1.5v5.4c0,0.6,0.1,0.9,0.8,0.9c0.2,0,0.4,0,0.6,0V53
						c-0.4,0.2-0.9,0.2-1.2,0.2c-1.3,0-2-0.5-2-2.1v-5.7H317V43.8z"/>
					<path class="st0" d="M324.2,48.8c0,1.4,0.2,2.8,1.5,2.8c1.2,0,1.3-1.1,1.4-1.4h1.8c0,0.3-0.3,2.9-3.2,2.9
						c-2.9,0-3.3-2.5-3.3-4.8c0-2.9,1.1-4.7,3.4-4.7c2.6,0,3.2,2,3.2,4.4c0,0.3,0,0.7,0,0.8H324.2z M327.1,47.5
						c0-1.1-0.2-2.3-1.4-2.3c-1.4,0-1.5,1.7-1.5,2.3H327.1z"/>
					<path class="st0" d="M330.5,46.9c0-1.5,0-2.5,0-3.1h1.8c0,0.2,0,0.6,0,1.6c0.4-1.1,1.2-1.7,2.4-1.7v2.1c-1.5,0-2.4,0.6-2.4,2.4
						v5h-1.9V46.9z"/>
					<path class="st0" d="M338.2,43.8h1.2v-2.4h1.9v2.4h1.5v1.5h-1.5v5.4c0,0.6,0.1,0.9,0.8,0.9c0.2,0,0.4,0,0.6,0V53
						c-0.4,0.2-0.9,0.2-1.2,0.2c-1.3,0-2-0.5-2-2.1v-5.7h-1.2V43.8z"/>
					<path class="st0" d="M345.9,40.2v4.5c0.3-0.6,1-1.1,2.1-1.1c1.5,0,2.3,0.9,2.3,2.9V53h-1.9v-6.2c0-1-0.2-1.6-1.2-1.6
						c-1.1,0-1.4,0.8-1.4,2.2V53H344V40.2H345.9z"/>
					<path class="st0" d="M358.1,51.1c0,0.5,0,1.5,0.1,1.9h-1.7c0-0.2-0.1-0.6-0.1-0.9c-0.3,0.6-1,1.1-2.1,1.1
						c-1.8,0-2.4-1.4-2.4-2.7c0-1.8,1.2-3,3.6-3c0.4,0,0.6,0,0.8,0v-1.1c0-0.6-0.1-1.3-1.1-1.3c-1,0-1.1,0.7-1.2,1.3h-1.8
						c0-1.3,0.7-2.8,3-2.8c1.9,0,2.9,0.9,2.9,2.6V51.1z M356.3,48.8c-0.2,0-0.4,0-0.8,0c-1.4,0-1.9,0.6-1.9,1.5
						c0,0.7,0.3,1.3,1.2,1.3c1.2,0,1.5-0.9,1.5-2.4V48.8z"/>
					<path class="st0" d="M360.1,46.6c0-1.9,0-2.4,0-2.9h1.8c0,0.2,0.1,0.6,0.1,1c0.3-0.6,0.9-1.2,2.1-1.2c1.5,0,2.4,0.9,2.4,2.8V53
						h-1.9v-6.2c0-1-0.2-1.6-1.2-1.6c-1,0-1.4,0.6-1.4,2.2V53h-1.9V46.6z"/>
					<path class="st0" d="M370.8,43.8h1.2v-2.4h1.9v2.4h1.5v1.5h-1.5v5.4c0,0.6,0.1,0.9,0.8,0.9c0.2,0,0.4,0,0.6,0V53
						c-0.4,0.2-0.9,0.2-1.2,0.2c-1.3,0-2-0.5-2-2.1v-5.7h-1.2V43.8z"/>
					<path class="st0" d="M378.4,40.2v4.5c0.3-0.6,1-1.1,2.1-1.1c1.5,0,2.3,0.9,2.3,2.9V53H381v-6.2c0-1-0.2-1.6-1.2-1.6
						c-1.1,0-1.4,0.8-1.4,2.2V53h-1.9V40.2H378.4z"/>
					<path class="st0" d="M386.3,48.8c0,1.4,0.2,2.8,1.5,2.8c1.2,0,1.3-1.1,1.4-1.4h1.8c0,0.3-0.3,2.9-3.2,2.9
						c-2.9,0-3.3-2.5-3.3-4.8c0-2.9,1.1-4.7,3.4-4.7c2.6,0,3.2,2,3.2,4.4c0,0.3,0,0.7,0,0.8H386.3z M389.2,47.5
						c0-1.1-0.2-2.3-1.4-2.3c-1.4,0-1.5,1.7-1.5,2.3H389.2z"/>
					<path class="st0" d="M397.8,40.8v8.4c0,1.1,0.3,2.4,1.7,2.4c1.4,0,1.7-1,1.7-2.3v-8.5h1.9v8.5c0,2.2-0.8,3.9-3.7,3.9
						c-2.8,0-3.6-1.6-3.6-3.9v-8.5H397.8z"/>
					<path class="st0" d="M404.8,53v-2.7h1.9V53H404.8z"/>
					<path class="st0" d="M409.7,49.7c0.1,1.1,0.6,2,1.8,2c1.1,0,1.6-0.7,1.6-1.8c0-1.1-0.5-1.7-2.1-2.5c-2-1-2.9-1.8-2.9-3.6
						c0-1.9,1.2-3.2,3.3-3.2c2.6,0,3.3,1.8,3.3,3.3h-1.9c-0.1-0.7-0.2-1.8-1.5-1.8c-1,0-1.4,0.6-1.4,1.5c0,1,0.4,1.4,1.9,2.1
						c2.2,1,3.1,2,3.1,4c0,1.9-1.2,3.4-3.6,3.4c-2.7,0-3.5-1.7-3.6-3.5H409.7z"/>
					<path class="st0" d="M426.1,40.2v10.3c0,1,0,2,0,2.5h-1.8c0-0.2-0.1-0.8-0.1-1.1c-0.3,0.7-0.8,1.2-2.1,1.2
						c-1.9,0-2.7-1.7-2.7-4.9c0-2.9,1-4.7,3.1-4.7c1.1,0,1.5,0.4,1.7,0.8v-4.2H426.1z M421.3,48.3c0,2.3,0.5,3.3,1.4,3.3
						c1.2,0,1.5-1,1.5-3.3c0-2.3-0.2-3.1-1.4-3.1C421.9,45.2,421.3,46,421.3,48.3z"/>
					<path class="st0" d="M434.3,50.4c0,1.3,0,2.2,0,2.7h-1.8c0-0.3-0.1-0.7-0.1-1.1c-0.4,0.9-1.1,1.2-2.1,1.2
						c-1.2,0-2.3-0.6-2.3-2.8v-6.6h1.9V50c0,1,0.2,1.6,1.1,1.6c0.9,0,1.4-0.5,1.4-2.1v-5.7h1.9V50.4z"/>
					<path class="st0" d="M436.3,53v-6.1c0-1.5,0-2.5,0-3.1h1.8c0,0.2,0,0.6,0,1.6c0.4-1.1,1.2-1.7,2.4-1.7v2.1
						c-1.5,0-2.4,0.6-2.4,2.4v5H436.3L436.3,53z"/>
					<path class="st0" d="M441.7,43.8h1.9V53h-1.9V43.8z M441.7,40.2h1.9v2h-1.9V40.2z"/>
					<path class="st0" d="M445.6,46.6c0-1.9,0-2.4,0-2.9h1.8c0,0.2,0.1,0.6,0.1,1c0.3-0.6,0.9-1.2,2.1-1.2c1.5,0,2.4,0.9,2.4,2.8V53
						H450v-6.2c0-1-0.2-1.6-1.2-1.6c-1,0-1.4,0.6-1.4,2.2V53h-1.9V46.6z"/>
					<path class="st0" d="M460.1,52.3c0,2.6-0.7,4.2-3.5,4.2c-2.6,0-3.1-1.6-3.1-2.6h1.9c0,0.4,0.2,1.1,1.4,1.1c1.3,0,1.5-1,1.5-2.7
						v-0.6c-0.3,0.8-1.1,1.2-2,1.2c-1.9,0-2.8-1.7-2.8-4.5c0-3.2,1.2-4.9,3-4.9c1.2,0,1.7,0.6,1.8,1.1c0-0.3,0-0.7,0.1-0.9h1.8
						c0,0.5,0,1.5,0,2.7V52.3z M455.4,48.4c0,2,0.5,2.9,1.5,2.9c1.2,0,1.5-1.2,1.5-3.2c0-1.8-0.2-3-1.4-3
						C455.9,45.2,455.4,46.2,455.4,48.4z"/>
					<path class="st0" d="M464.5,43.8h1.2v-2.4h1.9v2.4h1.5v1.5h-1.5v5.4c0,0.6,0.1,0.9,0.8,0.9c0.2,0,0.4,0,0.6,0V53
						c-0.4,0.2-0.9,0.2-1.2,0.2c-1.3,0-2-0.5-2-2.1v-5.7h-1.2V43.8z"/>
					<path class="st0" d="M472.1,40.2v4.5c0.3-0.6,1-1.1,2.1-1.1c1.5,0,2.3,0.9,2.3,2.9V53h-1.9v-6.2c0-1-0.2-1.6-1.2-1.6
						c-1.1,0-1.4,0.8-1.4,2.2V53h-1.9V40.2H472.1z"/>
					<path class="st0" d="M480,48.8c0,1.4,0.2,2.8,1.5,2.8c1.2,0,1.3-1.1,1.4-1.4h1.8c0,0.3-0.3,2.9-3.2,2.9c-2.9,0-3.3-2.5-3.3-4.8
						c0-2.9,1.1-4.7,3.4-4.7c2.6,0,3.2,2,3.2,4.4c0,0.3,0,0.7,0,0.8H480z M482.8,47.5c0-1.1-0.2-2.3-1.4-2.3c-1.4,0-1.5,1.7-1.5,2.3
						H482.8z"/>
					<path class="st0" d="M490.8,43.8c0.7,4.2,1.1,6,1.2,7.2h0c0.2-1.2,0.5-2.6,1.5-7.2h1.7c0.8,3.9,1.3,6.1,1.4,7.2h0
						c0.1-1,0.4-2.4,1.3-7.2h1.9l-2.3,9.3h-1.9c-0.6-2.9-1.1-5.3-1.3-6.7h0c-0.2,1.3-0.8,3.8-1.4,6.7h-2l-2.1-9.3H490.8z"/>
					<path class="st0" d="M500.9,43.8h1.9V53h-1.9V43.8z M500.9,40.2h1.9v2h-1.9V40.2z"/>
					<path class="st0" d="M504.8,46.6c0-1.9,0-2.4,0-2.9h1.8c0,0.2,0.1,0.6,0.1,1c0.3-0.6,0.9-1.2,2.1-1.2c1.5,0,2.4,0.9,2.4,2.8V53
						h-1.9v-6.2c0-1-0.2-1.6-1.2-1.6c-1,0-1.4,0.6-1.4,2.2V53h-1.9V46.6z"/>
					<path class="st0" d="M512,43.8h1.2v-2.4h1.9v2.4h1.5v1.5h-1.5v5.4c0,0.6,0.1,0.9,0.8,0.9c0.2,0,0.4,0,0.6,0V53
						c-0.4,0.2-0.9,0.2-1.2,0.2c-1.3,0-2-0.5-2-2.1v-5.7H512V43.8z"/>
					<path class="st0" d="M519.2,48.8c0,1.4,0.2,2.8,1.5,2.8c1.2,0,1.3-1.1,1.4-1.4h1.8c0,0.3-0.3,2.9-3.2,2.9
						c-2.9,0-3.3-2.5-3.3-4.8c0-2.9,1.1-4.7,3.4-4.7c2.6,0,3.2,2,3.2,4.4c0,0.3,0,0.7,0,0.8H519.2z M522.1,47.5
						c0-1.1-0.2-2.3-1.4-2.3c-1.4,0-1.5,1.7-1.5,2.3H522.1z"/>
					<path class="st0" d="M525.5,46.9c0-1.5,0-2.5,0-3.1h1.8c0,0.2,0,0.6,0,1.6c0.4-1.1,1.2-1.7,2.4-1.7v2.1c-1.5,0-2.4,0.6-2.4,2.4
						v5h-1.9V46.9z"/>
					<path class="st0" d="M23.6,61.8h1.9v4.6c0.3-0.6,0.9-1.2,2.1-1.2c1.9,0,2.7,1.6,2.7,4.5c0,2.9-0.7,5-3,5
						c-1.2,0-1.6-0.6-1.9-1.1c0,0.2,0,0.7,0,1h-1.8c0-0.6,0-1.6,0-2.6V61.8z M28.4,69.8c0-2-0.4-3-1.4-3c-1.2,0-1.6,0.9-1.6,3.2
						c0,2.2,0.3,3.2,1.5,3.2C28,73.2,28.4,72.1,28.4,69.8z"/>
					<path class="st0" d="M38,72c0,1.3,0,2.2,0,2.7h-1.8c0-0.3-0.1-0.7-0.1-1.1c-0.4,0.9-1.1,1.2-2.1,1.2c-1.2,0-2.3-0.6-2.3-2.8
						v-6.6h1.9v6.2c0,1,0.2,1.6,1.1,1.6c0.9,0,1.4-0.5,1.4-2.1v-5.7H38V72z"/>
					<path class="st0" d="M39,65.4h1.2V63h1.9v2.4h1.5v1.5h-1.5v5.4c0,0.6,0.1,0.9,0.8,0.9c0.2,0,0.4,0,0.6,0v1.4
						c-0.4,0.2-0.9,0.2-1.2,0.2c-1.3,0-2-0.5-2-2.1v-5.7H39V65.4z"/>
					<path class="st0" d="M47.8,65.8c0-1.4,0.7-3.2,3.1-3.2c2.1,0,3,1.2,3,3c0,1.5-0.6,2.2-1.4,2.5v0c1,0.3,1.8,1.1,1.8,2.9
						c0,2-0.8,3.7-3.4,3.7c-2.2,0-3.2-1.4-3.2-3.2h1.8c0,0.8,0.4,1.7,1.5,1.7c1.2,0,1.5-0.9,1.5-2.2c0-1.5-0.6-2.1-1.9-2.1h-0.5
						v-1.5h0.5c1.1,0,1.6-0.4,1.6-1.7c0-1-0.2-1.6-1.2-1.6c-1.1,0-1.2,1.1-1.3,1.7H47.8z"/>
					<path class="st0" d="M55.4,74.6V72h1.9v2.7H55.4z"/>
					<path class="st0" d="M58.3,74.6v-0.1c0-1.8,0.9-3.3,2.7-5.3c1.4-1.6,1.8-2.1,1.8-3.3c0-0.9-0.2-1.7-1.2-1.7
						c-1,0-1.3,0.8-1.4,2.1h-1.8c0-1.8,0.8-3.6,3.2-3.6c2.2,0,3.1,1.4,3.1,3.3c0,1.5-0.4,2.3-2,3.9c-1.2,1.3-2,2.4-2.3,3.2H65
						l-0.3,1.6H58.3z"/>
					<path class="st0" d="M75.8,61.8v10.3c0,1,0,2,0,2.5h-1.8c0-0.2-0.1-0.8-0.1-1.1c-0.3,0.7-0.8,1.2-2.1,1.2
						c-1.9,0-2.7-1.7-2.7-4.9c0-2.9,1-4.7,3.1-4.7c1.1,0,1.5,0.4,1.7,0.8v-4.2H75.8z M71.1,69.9c0,2.3,0.5,3.3,1.4,3.3
						c1.2,0,1.5-1,1.5-3.3c0-2.3-0.2-3.1-1.4-3.1C71.7,66.8,71.1,67.6,71.1,69.9z"/>
					<path class="st0" d="M79.2,70.4c0,1.4,0.2,2.8,1.5,2.8c1.2,0,1.3-1.1,1.4-1.4h1.8c0,0.3-0.3,2.9-3.2,2.9
						c-2.9,0-3.3-2.5-3.3-4.8c0-2.9,1.1-4.7,3.4-4.7c2.6,0,3.2,2,3.2,4.4c0,0.3,0,0.7,0,0.8H79.2z M82.1,69.1c0-1.1-0.2-2.3-1.4-2.3
						c-1.4,0-1.5,1.7-1.5,2.3H82.1z"/>
					<path class="st0" d="M91.7,73.9c0,2.6-0.7,4.2-3.5,4.2c-2.6,0-3.1-1.6-3.1-2.6H87c0,0.4,0.2,1.1,1.4,1.1c1.3,0,1.5-1,1.5-2.7
						v-0.6c-0.3,0.8-1.1,1.2-2,1.2c-1.9,0-2.8-1.7-2.8-4.5c0-3.2,1.2-4.9,3-4.9c1.2,0,1.7,0.6,1.8,1.1c0-0.3,0-0.7,0.1-0.9h1.8
						c0,0.5,0,1.5,0,2.7V73.9z M87,70c0,2,0.5,2.9,1.5,2.9c1.2,0,1.5-1.2,1.5-3.2c0-1.8-0.2-3-1.4-3C87.5,66.8,87,67.8,87,70z"/>
					<path class="st0" d="M93.7,68.5c0-1.5,0-2.5,0-3.1h1.8c0,0.2,0,0.6,0,1.6c0.4-1.1,1.2-1.7,2.4-1.7v2.1c-1.5,0-2.4,0.6-2.4,2.4
						v5h-1.9V68.5z"/>
					<path class="st0" d="M100.6,70.4c0,1.4,0.2,2.8,1.5,2.8c1.2,0,1.3-1.1,1.4-1.4h1.8c0,0.3-0.3,2.9-3.2,2.9
						c-2.9,0-3.3-2.5-3.3-4.8c0-2.9,1.1-4.7,3.4-4.7c2.6,0,3.2,2,3.2,4.4c0,0.3,0,0.7,0,0.8H100.6z M103.5,69.1
						c0-1.1-0.2-2.3-1.4-2.3c-1.4,0-1.5,1.7-1.5,2.3H103.5z"/>
					<path class="st0" d="M108.3,70.4c0,1.4,0.2,2.8,1.5,2.8c1.2,0,1.3-1.1,1.4-1.4h1.8c0,0.3-0.3,2.9-3.2,2.9
						c-2.9,0-3.3-2.5-3.3-4.8c0-2.9,1.1-4.7,3.4-4.7c2.6,0,3.2,2,3.2,4.4c0,0.3,0,0.7,0,0.8H108.3z M111.2,69.1
						c0-1.1-0.2-2.3-1.4-2.3c-1.4,0-1.5,1.7-1.5,2.3H111.2z"/>
					<path class="st0" d="M115.8,71.9c0,0.8,0.4,1.5,1.3,1.5c0.8,0,1.2-0.5,1.2-1.1c0-0.8-0.4-1.1-1.5-1.6c-2.1-0.8-2.6-1.5-2.6-2.8
						c0-1.3,0.8-2.6,2.9-2.6c2.3,0,2.9,1.6,2.9,2.8h-1.8c0-0.4-0.1-1.4-1.2-1.4c-0.7,0-1,0.4-1,1c0,0.6,0.3,0.9,1.5,1.4
						c1.9,0.7,2.7,1.4,2.7,3c0,1.8-1.1,2.8-3.1,2.8c-2.1,0-3.1-1.3-3.1-2.9H115.8z"/>
					<path class="st0" d="M130.9,71.6c0,0.7-0.2,3.2-3.2,3.2c-2.6,0-3.2-2.1-3.2-4.9c0-2.5,0.8-4.7,3.3-4.7c2.9,0,3,2.6,3,3.1h-1.9
						c0-0.4-0.1-1.5-1.2-1.5c-1.1,0-1.4,1.2-1.4,3.2c0,2.1,0.4,3.3,1.4,3.3c1.1,0,1.2-1.1,1.3-1.6H130.9z"/>
					<path class="st0" d="M138.7,69.9c0,3.3-1.2,4.9-3.4,4.9c-2.2,0-3.4-1.5-3.4-4.8c0-3.3,1.3-4.7,3.5-4.7
						C137.5,65.2,138.7,66.8,138.7,69.9z M133.8,69.9c0,2.2,0.4,3.3,1.5,3.3c1,0,1.5-1.1,1.5-3.3c0-2.2-0.4-3.2-1.5-3.2
						C134.3,66.8,133.8,67.8,133.8,69.9z"/>
					<path class="st0" d="M140.2,74.6V61.8h1.9v12.8H140.2z"/>
					<path class="st0" d="M150.3,61.8v10.3c0,1,0,2,0,2.5h-1.8c0-0.2-0.1-0.8-0.1-1.1c-0.3,0.7-0.8,1.2-2.1,1.2
						c-1.9,0-2.7-1.7-2.7-4.9c0-2.9,1-4.7,3.1-4.7c1.1,0,1.5,0.4,1.7,0.8v-4.2H150.3z M145.6,69.9c0,2.3,0.5,3.3,1.4,3.3
						c1.2,0,1.5-1,1.5-3.3c0-2.3-0.2-3.1-1.4-3.1C146.1,66.8,145.6,67.6,145.6,69.9z"/>
					<path class="st0" d="M153.7,70.4c0,1.4,0.2,2.8,1.5,2.8c1.2,0,1.3-1.1,1.4-1.4h1.8c0,0.3-0.3,2.9-3.2,2.9
						c-2.9,0-3.3-2.5-3.3-4.8c0-2.9,1.1-4.7,3.4-4.7c2.6,0,3.2,2,3.2,4.4c0,0.3,0,0.7,0,0.8H153.7z M156.6,69.1
						c0-1.1-0.2-2.3-1.4-2.3c-1.4,0-1.5,1.7-1.5,2.3H156.6z"/>
					<path class="st0" d="M160,68.5c0-1.5,0-2.5,0-3.1h1.8c0,0.2,0,0.6,0,1.6c0.4-1.1,1.2-1.7,2.4-1.7v2.1c-1.5,0-2.4,0.6-2.4,2.4v5
						H160V68.5z"/>
					<path class="st0" d="M175,61.8v10.3c0,1,0,2,0,2.5h-1.8c0-0.2-0.1-0.8-0.1-1.1c-0.3,0.7-0.8,1.2-2.1,1.2
						c-1.9,0-2.7-1.7-2.7-4.9c0-2.9,1-4.7,3.1-4.7c1.1,0,1.5,0.4,1.7,0.8v-4.2H175z M170.2,69.9c0,2.3,0.5,3.3,1.4,3.3
						c1.2,0,1.5-1,1.5-3.3c0-2.3-0.2-3.1-1.4-3.1C170.8,66.8,170.2,67.6,170.2,69.9z"/>
					<path class="st0" d="M183.2,72c0,1.3,0,2.2,0,2.7h-1.8c0-0.3-0.1-0.7-0.1-1.1c-0.4,0.9-1.1,1.2-2.1,1.2c-1.2,0-2.3-0.6-2.3-2.8
						v-6.6h1.9v6.2c0,1,0.2,1.6,1.1,1.6c0.9,0,1.4-0.5,1.4-2.1v-5.7h1.9V72z"/>
					<path class="st0" d="M185.2,68.5c0-1.5,0-2.5,0-3.1h1.8c0,0.2,0,0.6,0,1.6c0.4-1.1,1.2-1.7,2.4-1.7v2.1c-1.5,0-2.4,0.6-2.4,2.4
						v5h-1.9V68.5z"/>
					<path class="st0" d="M190.6,65.4h1.9v9.3h-1.9V65.4z M190.6,61.8h1.9v2h-1.9V61.8z"/>
					<path class="st0" d="M194.5,68.2c0-1.9,0-2.4,0-2.9h1.8c0,0.2,0.1,0.6,0.1,1c0.3-0.6,0.9-1.2,2.1-1.2c1.5,0,2.4,0.9,2.4,2.8
						v6.6h-1.9v-6.2c0-1-0.2-1.6-1.2-1.6c-1,0-1.4,0.6-1.4,2.2v5.7h-1.9V68.2z"/>
					<path class="st0" d="M209,73.9c0,2.6-0.7,4.2-3.5,4.2c-2.6,0-3.1-1.6-3.1-2.6h1.9c0,0.4,0.2,1.1,1.4,1.1c1.3,0,1.5-1,1.5-2.7
						v-0.6c-0.3,0.8-1.1,1.2-2,1.2c-1.9,0-2.8-1.7-2.8-4.5c0-3.2,1.2-4.9,3-4.9c1.2,0,1.7,0.6,1.8,1.1c0-0.3,0-0.7,0.1-0.9h1.8
						c0,0.5,0,1.5,0,2.7V73.9z M204.3,70c0,2,0.5,2.9,1.5,2.9c1.2,0,1.5-1.2,1.5-3.2c0-1.8-0.2-3-1.4-3
						C204.8,66.8,204.3,67.8,204.3,70z"/>
					<path class="st0" d="M213.4,65.4h1.2V63h1.9v2.4h1.5v1.5h-1.5v5.4c0,0.6,0.1,0.9,0.8,0.9c0.2,0,0.4,0,0.6,0v1.4
						c-0.4,0.2-0.9,0.2-1.2,0.2c-1.3,0-2-0.5-2-2.1v-5.7h-1.2V65.4z"/>
					<path class="st0" d="M221,61.8v4.5c0.3-0.6,1-1.1,2.1-1.1c1.5,0,2.3,0.9,2.3,2.9v6.6h-1.9v-6.2c0-1-0.2-1.6-1.2-1.6
						c-1.1,0-1.4,0.8-1.4,2.2v5.6h-1.9V61.8H221z"/>
					<path class="st0" d="M228.9,70.4c0,1.4,0.2,2.8,1.5,2.8c1.2,0,1.3-1.1,1.4-1.4h1.8c0,0.3-0.3,2.9-3.2,2.9
						c-2.9,0-3.3-2.5-3.3-4.8c0-2.9,1.1-4.7,3.4-4.7c2.6,0,3.2,2,3.2,4.4c0,0.3,0,0.7,0,0.8H228.9z M231.7,69.1
						c0-1.1-0.2-2.3-1.4-2.3c-1.4,0-1.5,1.7-1.5,2.3H231.7z"/>
					<path class="st0" d="M239.7,71.9c0,0.8,0.4,1.5,1.3,1.5c0.8,0,1.2-0.5,1.2-1.1c0-0.8-0.4-1.1-1.5-1.6c-2.1-0.8-2.6-1.5-2.6-2.8
						c0-1.3,0.8-2.6,2.9-2.6c2.3,0,2.9,1.6,2.9,2.8h-1.8c0-0.4-0.1-1.4-1.2-1.4c-0.7,0-1,0.4-1,1c0,0.6,0.3,0.9,1.5,1.4
						c1.9,0.7,2.7,1.4,2.7,3c0,1.8-1.1,2.8-3.1,2.8c-2.1,0-3.1-1.3-3.1-2.9H239.7z"/>
					<path class="st0" d="M251.8,72c0,1.3,0,2.2,0,2.7H250c0-0.3-0.1-0.7-0.1-1.1c-0.4,0.9-1.1,1.2-2.1,1.2c-1.2,0-2.3-0.6-2.3-2.8
						v-6.6h1.9v6.2c0,1,0.2,1.6,1.1,1.6c0.9,0,1.4-0.5,1.4-2.1v-5.7h1.9V72z"/>
					<path class="st0" d="M253.8,68.1c0-1.8,0-2.4,0-2.8h1.8c0,0.2,0.1,0.7,0.1,1c0.4-0.7,1.1-1.2,2-1.2c1,0,1.6,0.4,1.9,1.3
						c0.4-0.7,1-1.3,2.3-1.3c1.3,0,2.3,0.6,2.3,2.7v6.7h-1.8v-6.4c0-0.8-0.3-1.4-1.1-1.4c-1,0-1.3,0.8-1.3,2v5.8h-1.9v-6.3
						c0-0.9-0.3-1.5-1.1-1.5c-0.9,0-1.3,0.7-1.3,2v5.8h-1.9V68.1z"/>
					<path class="st0" d="M266.1,68.1c0-1.8,0-2.4,0-2.8h1.8c0,0.2,0.1,0.7,0.1,1c0.4-0.7,1.1-1.2,2-1.2c1,0,1.6,0.4,1.9,1.3
						c0.4-0.7,1-1.3,2.3-1.3c1.3,0,2.3,0.6,2.3,2.7v6.7h-1.8v-6.4c0-0.8-0.3-1.4-1.1-1.4c-1,0-1.3,0.8-1.3,2v5.8h-1.9v-6.3
						c0-0.9-0.3-1.5-1.1-1.5c-0.9,0-1.3,0.7-1.3,2v5.8h-1.9V68.1z"/>
					<path class="st0" d="M279.9,70.4c0,1.4,0.2,2.8,1.5,2.8c1.2,0,1.3-1.1,1.4-1.4h1.8c0,0.3-0.3,2.9-3.2,2.9
						c-2.9,0-3.3-2.5-3.3-4.8c0-2.9,1.1-4.7,3.4-4.7c2.6,0,3.2,2,3.2,4.4c0,0.3,0,0.7,0,0.8H279.9z M282.8,69.1
						c0-1.1-0.2-2.3-1.4-2.3c-1.4,0-1.5,1.7-1.5,2.3H282.8z"/>
					<path class="st0" d="M286.1,68.5c0-1.5,0-2.5,0-3.1h1.8c0,0.2,0,0.6,0,1.6c0.4-1.1,1.2-1.7,2.4-1.7v2.1c-1.5,0-2.4,0.6-2.4,2.4
						v5h-1.9V68.5z"/>
					<path class="st0" d="M291.2,74.6V72h1.9v2.7H291.2z"/>
				</g>
			</g>
			<g style="clip-path:url(#SVGID_00000114073324782562750180000005018778221205085831_);">
				<g>
				</g>
			</g>
		</g>
	</g>
</g>
<g id="ai2html-settings">
	<rect x="-450" style="fill:none;" width="400" height="418"/>
	<text id="ai2html-settings_00000075137201309177920320000009635136195592748708_" transform="matrix(1 0 0 1 -450 10.6499)"><tspan x="0" y="0" style="font-family:'MyriadPro-Regular'; font-size:15px;">ai2html-settings</tspan><tspan x="0" y="19" style="font-family:'MyriadPro-Regular'; font-size:15px;">settings_version: 0.106.0</tspan><tspan x="0" y="38" style="font-family:'MyriadPro-Regular'; font-size:15px;">image_format: auto</tspan><tspan x="0" y="57" style="font-family:'MyriadPro-Regular'; font-size:15px;">responsiveness: fixed</tspan><tspan x="0" y="76" style="font-family:'MyriadPro-Regular'; font-size:15px;">output: one-file</tspan><tspan x="0" y="95" style="font-family:'MyriadPro-Regular'; font-size:15px;">html_output_path: /ai2html-output/</tspan><tspan x="0" y="114" style="font-family:'MyriadPro-Regular'; font-size:15px;">html_output_extension: .html</tspan><tspan x="0" y="133" style="font-family:'MyriadPro-Regular'; font-size:15px;">image_output_path: </tspan><tspan x="0" y="152" style="font-family:'MyriadPro-Regular'; font-size:15px;">local_preview_template: </tspan><tspan x="0" y="171" style="font-family:'MyriadPro-Regular'; font-size:15px;">png_number_of_colors: 128</tspan><tspan x="0" y="190" style="font-family:'MyriadPro-Regular'; font-size:15px;">jpg_quality: 60</tspan><tspan x="0" y="209" style="font-family:'MyriadPro-Regular'; font-size:15px;">headline: </tspan><tspan x="0" y="228" style="font-family:'MyriadPro-Regular'; font-size:15px;">leadin: </tspan><tspan x="0" y="247" style="font-family:'MyriadPro-Regular'; font-size:15px;">notes: </tspan><tspan x="0" y="266" style="font-family:'MyriadPro-Regular'; font-size:15px;">sources: </tspan><tspan x="0" y="285" style="font-family:'MyriadPro-Regular'; font-size:15px;">credit: </tspan></text>
</g>
</svg>
