<?xml version="1.0" encoding="utf-8"?>
<!-- Generator: Adobe Illustrator 27.6.1, SVG Export Plug-In . SVG Version: 6.00 Build 0)  -->
<svg version="1.1" xmlns="http://www.w3.org/2000/svg" xmlns:xlink="http://www.w3.org/1999/xlink" x="0px" y="0px"
	 viewBox="0 0 693 521" style="enable-background:new 0 0 693 521;" xml:space="preserve">
<style type="text/css">
	.st0{fill:#FFFFFF;}
	.st1{fill:#1D263B;}
	.st2{clip-path:url(#SVGID_00000108300994362264907240000015481075730077791899_);}
	.st3{clip-path:url(#SVGID_00000120554568887819119520000000280551133818356371_);enable-background:new    ;}
	.st4{font-family:'Arial-BoldMT';}
	.st5{font-size:22px;}
	.st6{font-size:14px;}
	.st7{clip-path:url(#SVGID_00000120554568887819119520000000280551133818356371_);}
	
		.st8{clip-path:url(#SVGID_00000183235580017017915910000017467020905176609690_);fill:none;stroke:#C4C4C4;stroke-linecap:round;stroke-linejoin:round;}
	
		.st9{clip-path:url(#SVGID_00000183235580017017915910000017467020905176609690_);fill:none;stroke:#FA8C00;stroke-width:4;stroke-linecap:round;stroke-linejoin:round;}
	
		.st10{clip-path:url(#SVGID_00000183235580017017915910000017467020905176609690_);fill:none;stroke:#18A1CD;stroke-width:4;stroke-linecap:round;stroke-linejoin:round;}
	.st11{clip-path:url(#SVGID_00000183235580017017915910000017467020905176609690_);enable-background:new    ;}
	.st12{fill:#747474;}
	.st13{font-family:'ArialMT';}
	.st14{font-size:12px;}
	.st15{fill:#A2A2A2;}
	
		.st16{clip-path:url(#SVGID_00000183235580017017915910000017467020905176609690_);fill:none;stroke:#181818;stroke-linecap:square;}
	.st17{clip-path:url(#SVGID_00000120554568887819119520000000280551133818356371_);fill:none;stroke:#181818;}
	.st18{fill:none;stroke:#FFFFFF;stroke-width:4;stroke-linecap:round;stroke-linejoin:round;}
	.st19{fill:#181818;}
</style>
<g id="exportSvg">
	<rect x="1.1" y="18" class="st0" width="784" height="521"/>
	<rect x="-14" y="-14.7" class="st1" width="761.4" height="561"/>
	<g>
		<defs>
			<rect id="SVGID_1_" x="6.5" y="22.6" width="682.5" height="521"/>
		</defs>
		<clipPath id="SVGID_00000039823975223229940860000000045970265365980554_">
			<use xlink:href="#SVGID_1_"  style="overflow:visible;"/>
		</clipPath>
		<g style="clip-path:url(#SVGID_00000039823975223229940860000000045970265365980554_);">
			<defs>
				<rect id="SVGID_00000016789803120535990350000012728681025537785743_" x="6.5" y="22.6" width="682.5" height="521"/>
			</defs>
			<clipPath id="SVGID_00000137835121609114972530000010095440667751582129_">
				<use xlink:href="#SVGID_00000016789803120535990350000012728681025537785743_"  style="overflow:visible;"/>
			</clipPath>
			<g style="clip-path:url(#SVGID_00000137835121609114972530000010095440667751582129_);enable-background:new    ;">
				<text transform="matrix(0.9849 0 0 1 6.4922 44.6021)" class="st0 st4 st5">Danes Stay Dry Throughout the Year</text>
			</g>
			<g style="clip-path:url(#SVGID_00000137835121609114972530000010095440667751582129_);enable-background:new    ;">
				<text transform="matrix(0.9849 0 0 1 6.4922 71.6021)" class="st0 st4 st6">Rainfall is essential to every country&apos;s ecosystem. But some countries get more or less of it than others. For</text>
			</g>
			<g style="clip-path:url(#SVGID_00000137835121609114972530000010095440667751582129_);enable-background:new    ;">
				<text transform="matrix(0.9849 0 0 1 6.4922 88.6021)" class="st0 st4 st6">instance, the United States gets on average 7.6 cm daily rainfall whereas Denmark gets just around 4.2 cm.</text>
			</g>
			<g style="clip-path:url(#SVGID_00000137835121609114972530000010095440667751582129_);">
				<defs>
					<rect id="SVGID_00000169539764000959091090000009915284207152634286_" x="6.5" y="101.6" width="682.5" height="409"/>
				</defs>
				<clipPath id="SVGID_00000070827994784214339920000007072048954907982225_">
					<use xlink:href="#SVGID_00000169539764000959091090000009915284207152634286_"  style="overflow:visible;"/>
				</clipPath>
				
					<path id="BRAZIL" style="clip-path:url(#SVGID_00000070827994784214339920000007072048954907982225_);fill:none;stroke:#C4C4C4;stroke-linecap:round;stroke-linejoin:round;" d="
					M35.5,300.2c19.5-2.8,38.9-5.6,58.4-5.6s38.9,1.8,58.4,5.4c19.5,3.6,38.9,8.9,58.4,23.2s38.9,47.7,58.4,62.9
					c19.5,15.2,38.9,21.2,58.4,28c19.5,6.8,38.9,8.3,58.4,12.8c19.5,4.4,38.9,13.8,58.4,13.8c19.5,0,38.9-7.2,58.4-15.7
					c19.5-8.5,38.9-24.1,58.4-35.4c19.5-11.3,38.9-20.2,58.4-32.4c19.5-12.3,38.9-26.7,58.4-41.2"/>
				
					<path id="CHINA" style="clip-path:url(#SVGID_00000070827994784214339920000007072048954907982225_);fill:none;stroke:#C4C4C4;stroke-linecap:round;stroke-linejoin:round;" d="
					M35.5,474.1c19.5-4.3,38.9-8.7,58.4-12.1s38.9-2.7,58.4-8.2s38.9-20.4,58.4-28.8s38.9-13.2,58.4-21.8
					c19.5-8.6,38.9-24,58.4-29.9c19.5-5.9,38.9-8.8,58.4-8.8s38.9,1.9,58.4,5.7c19.5,3.8,38.9,22.9,58.4,34.7
					c19.5,11.8,38.9,26.3,58.4,35.9s38.9,15.7,58.4,21.6c19.5,5.9,38.9,9.7,58.4,13.6"/>
				
					<path id="EGYPT" style="clip-path:url(#SVGID_00000070827994784214339920000007072048954907982225_);fill:none;stroke:#C4C4C4;stroke-linecap:round;stroke-linejoin:round;" d="
					M35.5,482.2c19.5,1,38.9,2,58.4,2.8s38.9,1.2,58.4,1.8s38.9,1.3,58.4,1.8c19.5,0.5,38.9,1,58.4,1.3c19.5,0.3,38.9,0.4,58.4,0.4
					c19.5,0.1,38.9,0.1,58.4,0.1s38.9,0,58.4,0c19.5,0,38.9-0.1,58.4-0.2c19.5-0.1,38.9-2,58.4-2.7c19.5-0.7,38.9-0.7,58.4-1.5
					c19.5-0.8,38.9-1.9,58.4-3.1"/>
				
					<path id="INDIA" style="clip-path:url(#SVGID_00000070827994784214339920000007072048954907982225_);fill:none;stroke:#C4C4C4;stroke-linecap:round;stroke-linejoin:round;" d="
					M35.5,476.7c19.5-2.1,38.9-4.2,58.4-5.4c19.5-1.2,38.9-0.7,58.4-2c19.5-1.3,38.9-15.9,58.4-26.1s38.9-11.7,58.4-35
					c19.5-23.4,38.9-117.7,58.4-154.1c19.5-36.4,38.9-64.2,58.4-64.2s38.9,16.5,58.4,37.5c19.5,21,38.9,60,58.4,88.4
					c19.5,28.4,38.9,62.2,58.4,81.9c19.5,19.7,38.9,25.2,58.4,36.1c19.5,10.9,38.9,20.1,58.4,29.4"/>
				
					<path id="JAPAN" style="clip-path:url(#SVGID_00000070827994784214339920000007072048954907982225_);fill:none;stroke:#C4C4C4;stroke-linecap:round;stroke-linejoin:round;" d="
					M35.5,396.7c19.5-1.2,38.9-2.3,58.4-5.5c19.5-3.2,38.9-4.8,58.4-13.8s38.9-39.5,58.4-39.9c19.5-0.5,38.9-0.2,58.4-0.7
					c19.5-0.5,38.9-70.6,58.4-70.6c19.5,0,38.9,16.5,58.4,24.7s38.9,24.2,58.4,24.2c19.5,0,38.9-33,58.4-33
					c19.5,0,38.9,52.9,58.4,68c19.5,15.1,38.9,14.2,58.4,22.8c19.5,8.5,38.9,18.5,58.4,28.5"/>
				
					<path id="MEXICO" style="clip-path:url(#SVGID_00000070827994784214339920000007072048954907982225_);fill:none;stroke:#C4C4C4;stroke-linecap:round;stroke-linejoin:round;" d="
					M35.5,473c19.5,2.6,38.9,5.2,58.4,6.1s38.9,1.4,58.4,1.4s38.9-1.6,58.4-4.8s38.9-8.4,58.4-25.1c19.5-16.7,38.9-122.7,58.4-133.1
					c19.5-10.4,38.9-12,58.4-15.6s38.9-2.2,58.4-6.5c19.5-4.3,38.9-20.6,58.4-20.6c19.5,0,38.9,102.8,58.4,134s38.9,47.1,58.4,53
					c19.5,5.9,38.9,7.4,58.4,8.8"/>
				
					<path id="IRAN_x2C__ISLAMIC_REPUBLIC_OF" style="clip-path:url(#SVGID_00000070827994784214339920000007072048954907982225_);fill:none;stroke:#C4C4C4;stroke-linecap:round;stroke-linejoin:round;" d="
					M35.5,436c19.5,1.9,38.9,3.8,58.4,5.2c19.5,1.4,38.9,1.2,58.4,3.2s38.9,4.5,58.4,8.7s38.9,11.6,58.4,16.4
					c19.5,4.8,38.9,11.8,58.4,12.7c19.5,0.9,38.9,1.3,58.4,1.3s38.9-3.6,58.4-6.3c19.5-2.7,38.9-4.6,58.4-10.1
					c19.5-5.5,38.9-23,58.4-23s38.9,1.6,58.4,1.6c19.5,0,38.9-4.3,58.4-8.6"/>
				
					<path id="GERMANY" style="clip-path:url(#SVGID_00000070827994784214339920000007072048954907982225_);fill:none;stroke:#C4C4C4;stroke-linecap:round;stroke-linejoin:round;" d="
					M35.5,427.4c19.5,2.8,38.9,5.5,58.4,5.5s38.9-0.7,58.4-2s38.9-8.1,58.4-11s38.9-2.5,58.4-6.4c19.5-3.8,38.9-16.7,58.4-16.7
					c19.5,0,38.9,5.8,58.4,7.6s38.9,1,58.4,2.9c19.5,2,38.9,11,58.4,15.3c19.5,4.3,38.9,10.6,58.4,10.6s38.9-13.3,58.4-13.7
					c19.5-0.3,38.9-0.4,58.4-0.5"/>
				
					<path id="QATAR" style="clip-path:url(#SVGID_00000070827994784214339920000007072048954907982225_);fill:none;stroke:#C4C4C4;stroke-linecap:round;stroke-linejoin:round;" d="
					M35.5,477.2c19.5-2.9,38.9-5.8,58.4-5.8s38.9,1.3,58.4,2.9s38.9,4.5,58.4,6.6s38.9,4.5,58.4,6.1c19.5,1.6,38.9,3.7,58.4,3.7
					c19.5,0,38.9,0,58.4,0s38.9,0,58.4,0c19.5,0,38.9,0,58.4,0c19.5,0,38.9-0.5,58.4-1.1s38.9-0.8,58.4-2.3
					c19.5-1.6,38.9-5.2,58.4-8.8"/>
				
					<path id="BELIZE" style="clip-path:url(#SVGID_00000070827994784214339920000007072048954907982225_);fill:none;stroke:#C4C4C4;stroke-linecap:round;stroke-linejoin:round;" d="
					M35.5,365.6c19.5,11.2,38.9,22.3,58.4,33.3s38.9,32.6,58.4,32.6s38.9-0.6,58.4-1.7c19.5-1.2,38.9-17.1,58.4-51.3
					c19.5-34.2,38.9-270.9,58.4-270.9c19.5,0,38.9,11.6,58.4,24.5s38.9,52.7,58.4,52.7c19.5,0,38.9-28.6,58.4-28.6
					c19.5,0,38.9,59,58.4,83.8c19.5,24.9,38.9,55.2,58.4,65.4c19.5,10.2,38.9,12.8,58.4,15.3"/>
				
					<path id="DENMARK" style="clip-path:url(#SVGID_00000070827994784214339920000007072048954907982225_);fill:none;stroke:#FA8C00;stroke-width:4;stroke-linecap:round;stroke-linejoin:round;" d="
					M35.5,455.1c19.5,3.7,38.9,7.4,58.4,7.4s38.9-5.6,58.4-7.4c19.5-1.9,38.9-3,58.4-3.8c19.5-0.8,38.9-0.4,58.4-1.3
					c19.5-0.8,38.9-11.8,58.4-11.8c19.5,0,38.9,1.7,58.4,1.7s38.9,0,58.4,0c19.5,0,38.9-12.2,58.4-12.2c19.5,0,38.9,12.2,58.4,12.2
					s38.9-1.7,58.4-1.7c19.5,0,38.9,3.4,58.4,6.8"/>
				
					<path id="UNITED_STATES_OF_AMERICA" style="clip-path:url(#SVGID_00000070827994784214339920000007072048954907982225_);fill:none;stroke:#18A1CD;stroke-width:4;stroke-linecap:round;stroke-linejoin:round;" d="
					M35.5,429.4c19.5-1,38.9-2,58.4-4.8c19.5-2.8,38.9-8.6,58.4-11.9c19.5-3.3,38.9-5.5,58.4-7.9s38.9-4.6,58.4-6
					c19.5-1.4,38.9-2.1,58.4-2.1c19.5,0,38.9,2.5,58.4,3.7s38.9,3.5,58.4,3.5c19.5,0,38.9-0.4,58.4-0.4c19.5,0,38.9,18.2,58.4,18.2
					s38.9-6,58.4-6c19.5,0,38.9,2.1,58.4,4.3"/>
				<g style="clip-path:url(#SVGID_00000070827994784214339920000007072048954907982225_);enable-background:new    ;">
					<text transform="matrix(0.9849 0 0 1 27.6094 507.6016)" class="st12 st13 st14">jan</text>
				</g>
				<g style="clip-path:url(#SVGID_00000070827994784214339920000007072048954907982225_);enable-background:new    ;">
					<text transform="matrix(0.9849 0 0 1 85.6416 507.6016)" class="st12 st13 st14">feb</text>
				</g>
				<g style="clip-path:url(#SVGID_00000070827994784214339920000007072048954907982225_);enable-background:new    ;">
					<text transform="matrix(0.9849 0 0 1 142.0405 507.6016)" class="st12 st13 st14">mar</text>
				</g>
				<g style="clip-path:url(#SVGID_00000070827994784214339920000007072048954907982225_);enable-background:new    ;">
					<text transform="matrix(0.9849 0 0 1 202.0381 507.6016)" class="st12 st13 st14">apr</text>
				</g>
				<g style="clip-path:url(#SVGID_00000070827994784214339920000007072048954907982225_);enable-background:new    ;">
					<text transform="matrix(0.9849 0 0 1 257.7759 507.6016)" class="st12 st13 st14">may</text>
				</g>
				<g style="clip-path:url(#SVGID_00000070827994784214339920000007072048954907982225_);enable-background:new    ;">
					<text transform="matrix(0.9849 0 0 1 319.415 507.6016)" class="st12 st13 st14">jun</text>
				</g>
				<g style="clip-path:url(#SVGID_00000070827994784214339920000007072048954907982225_);enable-background:new    ;">
					<text transform="matrix(0.9849 0 0 1 379.75 507.6016)" class="st12 st13 st14">jul</text>
				</g>
				<g style="clip-path:url(#SVGID_00000070827994784214339920000007072048954907982225_);enable-background:new    ;">
					<text transform="matrix(0.9849 0 0 1 434.1641 507.6016)" class="st12 st13 st14">aug</text>
				</g>
				<g style="clip-path:url(#SVGID_00000070827994784214339920000007072048954907982225_);enable-background:new    ;">
					<text transform="matrix(0.9849 0 0 1 492.8555 507.6016)" class="st12 st13 st14">sep</text>
				</g>
				<g style="clip-path:url(#SVGID_00000070827994784214339920000007072048954907982225_);enable-background:new    ;">
					<text transform="matrix(0.9849 0 0 1 552.8613 507.6016)" class="st12 st13 st14">oct</text>
				</g>
				<g style="clip-path:url(#SVGID_00000070827994784214339920000007072048954907982225_);enable-background:new    ;">
					<text transform="matrix(0.9849 0 0 1 609.5781 507.6016)" class="st12 st13 st14">nov</text>
				</g>
				<g style="clip-path:url(#SVGID_00000070827994784214339920000007072048954907982225_);enable-background:new    ;">
					<text transform="matrix(0.9849 0 0 1 667.9395 507.6016)" class="st12 st13 st14">dec</text>
				</g>
				<g style="clip-path:url(#SVGID_00000070827994784214339920000007072048954907982225_);enable-background:new    ;">
					<text transform="matrix(0.9849 0 0 1 14.4346 494.6016)" class="st15 st13 st14">0</text>
				</g>
				<g style="clip-path:url(#SVGID_00000070827994784214339920000007072048954907982225_);enable-background:new    ;">
					<text transform="matrix(0.9849 0 0 1 14.4346 463.125)" class="st15 st13 st14">1</text>
				</g>
				<g style="clip-path:url(#SVGID_00000070827994784214339920000007072048954907982225_);enable-background:new    ;">
					<text transform="matrix(0.9849 0 0 1 14.4346 431.6465)" class="st15 st13 st14">2</text>
				</g>
				<g style="clip-path:url(#SVGID_00000070827994784214339920000007072048954907982225_);enable-background:new    ;">
					<text transform="matrix(0.9849 0 0 1 14.4346 400.168)" class="st15 st13 st14">3</text>
				</g>
				<g style="clip-path:url(#SVGID_00000070827994784214339920000007072048954907982225_);enable-background:new    ;">
					<text transform="matrix(0.9849 0 0 1 14.4346 368.6914)" class="st15 st13 st14">4</text>
				</g>
				<g style="clip-path:url(#SVGID_00000070827994784214339920000007072048954907982225_);enable-background:new    ;">
					<text transform="matrix(0.9849 0 0 1 14.4346 337.2129)" class="st15 st13 st14">5</text>
				</g>
				<g style="clip-path:url(#SVGID_00000070827994784214339920000007072048954907982225_);enable-background:new    ;">
					<text transform="matrix(0.9849 0 0 1 14.4346 305.7363)" class="st15 st13 st14">6</text>
				</g>
				<g style="clip-path:url(#SVGID_00000070827994784214339920000007072048954907982225_);enable-background:new    ;">
					<text transform="matrix(0.9849 0 0 1 14.4346 274.2578)" class="st15 st13 st14">7</text>
				</g>
				<g style="clip-path:url(#SVGID_00000070827994784214339920000007072048954907982225_);enable-background:new    ;">
					<text transform="matrix(0.9849 0 0 1 14.4346 242.7803)" class="st15 st13 st14">8</text>
				</g>
				<g style="clip-path:url(#SVGID_00000070827994784214339920000007072048954907982225_);enable-background:new    ;">
					<text transform="matrix(0.9849 0 0 1 14.4346 211.3022)" class="st15 st13 st14">9</text>
				</g>
				<g style="clip-path:url(#SVGID_00000070827994784214339920000007072048954907982225_);enable-background:new    ;">
					<text transform="matrix(0.9849 0 0 1 7.8618 179.8247)" class="st15 st13 st14">10</text>
				</g>
				<g style="clip-path:url(#SVGID_00000070827994784214339920000007072048954907982225_);enable-background:new    ;">
					<text transform="matrix(0.9849 0 0 1 8.7388 148.3472)" class="st15 st13 st14">11</text>
				</g>
				<g style="clip-path:url(#SVGID_00000070827994784214339920000007072048954907982225_);enable-background:new    ;">
					<text transform="matrix(0.9849 0 0 1 7.8618 116.8691)" class="st15 st13 st14">12</text>
				</g>
				
					<line style="clip-path:url(#SVGID_00000070827994784214339920000007072048954907982225_);fill:none;stroke:#181818;stroke-linecap:square;" x1="687" y1="490.6" x2="25.9" y2="490.6"/>
			</g>
			<path style="clip-path:url(#SVGID_00000137835121609114972530000010095440667751582129_);fill:none;stroke:#181818;" d="
				M375.6,462.5c-15-1.2-28.9-7.4-41.7-18.6"/>
			<path style="clip-path:url(#SVGID_00000137835121609114972530000010095440667751582129_);fill:none;stroke:#181818;" d="
				M335.3,449.8l-1.4-5.9l6-0.1"/>
			<g style="clip-path:url(#SVGID_00000137835121609114972530000010095440667751582129_);enable-background:new    ;">
				<text transform="matrix(0.9849 0 0 1 379.4922 463.6016)" class="st4 st6">Denmark</text>
			</g>
			<g style="clip-path:url(#SVGID_00000137835121609114972530000010095440667751582129_);enable-background:new    ;">
				<text transform="matrix(0.9849 0 0 1 379.4922 463.6016)" class="st18 st4 st6">Denmark</text>
			</g>
			<g style="clip-path:url(#SVGID_00000137835121609114972530000010095440667751582129_);enable-background:new    ;">
				<text transform="matrix(0.9849 0 0 1 379.4922 463.6016)" class="st4 st6">Denmark</text>
			</g>
			<g style="clip-path:url(#SVGID_00000137835121609114972530000010095440667751582129_);enable-background:new    ;">
				<text transform="matrix(0.9849 0 0 1 379.4922 463.6016)" class="st19 st4 st6">Denmark</text>
			</g>
			<path style="clip-path:url(#SVGID_00000137835121609114972530000010095440667751582129_);fill:none;stroke:#181818;" d="
				M171.2,374.6c8.8,13.4,21.4,21.5,38,24.3"/>
			<path style="clip-path:url(#SVGID_00000137835121609114972530000010095440667751582129_);fill:none;stroke:#181818;" d="
				M205.6,394.2l3.7,4.8l-5.4,2.5"/>
			<g style="clip-path:url(#SVGID_00000137835121609114972530000010095440667751582129_);enable-background:new    ;">
				<text transform="matrix(0.9849 0 0 1 109.6406 367.6016)" class="st4 st6">The United States</text>
			</g>
			<g style="clip-path:url(#SVGID_00000137835121609114972530000010095440667751582129_);enable-background:new    ;">
				<text transform="matrix(0.9849 0 0 1 109.6406 367.6016)" class="st18 st4 st6">The United States</text>
			</g>
			<g style="clip-path:url(#SVGID_00000137835121609114972530000010095440667751582129_);enable-background:new    ;">
				<text transform="matrix(0.9849 0 0 1 109.6406 367.6016)" class="st4 st6">The United States</text>
			</g>
			<g style="clip-path:url(#SVGID_00000137835121609114972530000010095440667751582129_);enable-background:new    ;">
				<text transform="matrix(0.9849 0 0 1 109.6406 367.6016)" class="st19 st4 st6">The United States</text>
			</g>
			<g style="clip-path:url(#SVGID_00000137835121609114972530000010095440667751582129_);">
				<defs>
					<rect id="SVGID_00000015348889490428856940000001069874057829051544_" x="6.5" y="101.6" width="682.5" height="409"/>
				</defs>
				<clipPath id="SVGID_00000119103499305862599500000012891904018078195876_">
					<use xlink:href="#SVGID_00000015348889490428856940000001069874057829051544_"  style="overflow:visible;"/>
				</clipPath>
			</g>
			<g style="clip-path:url(#SVGID_00000137835121609114972530000010095440667751582129_);enable-background:new    ;">
				<text transform="matrix(0.9849 0 0 1 6.4922 541.6016)" class="st13" style="fill:#888888; font-size:11px;">Created with</text>
			</g>
			<g style="clip-path:url(#SVGID_00000137835121609114972530000010095440667751582129_);enable-background:new    ;">
				<text transform="matrix(0.9849 0 0 1 70.0015 541.6016)" class="st13" style="fill:#888888; font-size:11px;">Datawrapper</text>
			</g>
		</g>
	</g>
</g>
<g id="ai2html-settings">
	<rect x="-450" style="fill:none;" width="400" height="418"/>
	<text id="ai2html-settings_00000176738074115174740890000013636517159940232353_" transform="matrix(1 0 0 1 -450 10.6499)"><tspan x="0" y="0" style="font-family:'MyriadPro-Regular'; font-size:15px;">ai2html-settings</tspan><tspan x="0" y="19" style="font-family:'MyriadPro-Regular'; font-size:15px;">settings_version: 0.106.0</tspan><tspan x="0" y="38" style="font-family:'MyriadPro-Regular'; font-size:15px;">image_format: auto</tspan><tspan x="0" y="57" style="font-family:'MyriadPro-Regular'; font-size:15px;">responsiveness: fixed</tspan><tspan x="0" y="76" style="font-family:'MyriadPro-Regular'; font-size:15px;">output: one-file</tspan><tspan x="0" y="95" style="font-family:'MyriadPro-Regular'; font-size:15px;">html_output_path: /ai2html-output/</tspan><tspan x="0" y="114" style="font-family:'MyriadPro-Regular'; font-size:15px;">html_output_extension: .html</tspan><tspan x="0" y="133" style="font-family:'MyriadPro-Regular'; font-size:15px;">image_output_path: </tspan><tspan x="0" y="152" style="font-family:'MyriadPro-Regular'; font-size:15px;">local_preview_template: </tspan><tspan x="0" y="171" style="font-family:'MyriadPro-Regular'; font-size:15px;">png_number_of_colors: 128</tspan><tspan x="0" y="190" style="font-family:'MyriadPro-Regular'; font-size:15px;">jpg_quality: 60</tspan><tspan x="0" y="209" style="font-family:'MyriadPro-Regular'; font-size:15px;">headline: </tspan><tspan x="0" y="228" style="font-family:'MyriadPro-Regular'; font-size:15px;">leadin: </tspan><tspan x="0" y="247" style="font-family:'MyriadPro-Regular'; font-size:15px;">notes: </tspan><tspan x="0" y="266" style="font-family:'MyriadPro-Regular'; font-size:15px;">sources: </tspan><tspan x="0" y="285" style="font-family:'MyriadPro-Regular'; font-size:15px;">credit: </tspan></text>
</g>
</svg>
