<?xml version="1.0" encoding="utf-8"?>
<!-- Generator: Adobe Illustrator 27.6.1, SVG Export Plug-In . SVG Version: 6.00 Build 0)  -->
<svg version="1.1" xmlns="http://www.w3.org/2000/svg" xmlns:xlink="http://www.w3.org/1999/xlink" x="0px" y="0px"
	 viewBox="0 0 693 521" style="enable-background:new 0 0 693 521;" xml:space="preserve">
<style type="text/css">
	.st0{fill:#FFFFFF;}
	.st1{fill:#1D263B;}
	.st2{clip-path:url(#SVGID_00000101789768477407928440000008302759696812040336_);}
	.st3{clip-path:url(#SVGID_00000035496569116884944190000003158878498811686566_);enable-background:new    ;}
	.st4{font-family:'Arial-BoldMT';}
	.st5{font-size:22px;}
	.st6{font-size:14px;}
	.st7{clip-path:url(#SVGID_00000035496569116884944190000003158878498811686566_);}
	
		.st8{clip-path:url(#SVGID_00000176731183321118370480000017516160084227689914_);fill:none;stroke:#C4C4C4;stroke-linecap:round;stroke-linejoin:round;}
	
		.st9{clip-path:url(#SVGID_00000176731183321118370480000017516160084227689914_);fill:none;stroke:#FA8C00;stroke-width:4;stroke-linecap:round;stroke-linejoin:round;}
	
		.st10{clip-path:url(#SVGID_00000176731183321118370480000017516160084227689914_);fill:none;stroke:#18A1CD;stroke-width:4;stroke-linecap:round;stroke-linejoin:round;}
	.st11{clip-path:url(#SVGID_00000176731183321118370480000017516160084227689914_);enable-background:new    ;}
	.st12{fill:#747474;}
	.st13{font-family:'ArialMT';}
	.st14{font-size:12px;}
	.st15{fill:#A2A2A2;}
	
		.st16{clip-path:url(#SVGID_00000176731183321118370480000017516160084227689914_);fill:none;stroke:#181818;stroke-linecap:square;}
	.st17{fill:none;stroke:#FFFFFF;stroke-width:4;stroke-linecap:round;stroke-linejoin:round;}
</style>
<g id="exportSvg">
	<rect x="1.1" y="18" class="st0" width="784" height="521"/>
	<rect x="-14" y="-14.7" class="st1" width="761.4" height="561"/>
	<g>
		<defs>
			<rect id="SVGID_1_" x="6.5" y="5.3" width="682.5" height="521"/>
		</defs>
		<clipPath id="SVGID_00000078764255611714563610000012760913581620999814_">
			<use xlink:href="#SVGID_1_"  style="overflow:visible;"/>
		</clipPath>
		<g style="clip-path:url(#SVGID_00000078764255611714563610000012760913581620999814_);">
			<defs>
				<rect id="SVGID_00000003068194563862816560000010109808914449445054_" x="6.5" y="5.3" width="682.5" height="521"/>
			</defs>
			<clipPath id="SVGID_00000113327650744977072490000003174913425991253891_">
				<use xlink:href="#SVGID_00000003068194563862816560000010109808914449445054_"  style="overflow:visible;"/>
			</clipPath>
			<g style="clip-path:url(#SVGID_00000113327650744977072490000003174913425991253891_);enable-background:new    ;">
				<text transform="matrix(0.9849 0 0 1 7.5298 23.5759)" class="st0 st4 st5">Danes Stay Dry Throughout the Year</text>
			</g>
			<g style="clip-path:url(#SVGID_00000113327650744977072490000003174913425991253891_);enable-background:new    ;">
				<text transform="matrix(0.9849 0 0 1 7.0337 47.0083)"><tspan x="0" y="0" class="st0 st4 st6">Rainfall is essential to every country&apos;s ecosystem. But some countries get more or less of it than others. </tspan><tspan x="0" y="16.8" class="st0 st4 st6">For instance, the United States gets on average 7.6 cm daily rainfall whereas Denmark gets just </tspan><tspan x="0" y="33.6" class="st0 st4 st6">around 4.2 cm.</tspan></text>
			</g>
			<g style="clip-path:url(#SVGID_00000113327650744977072490000003174913425991253891_);enable-background:new    ;">
			</g>
			<g style="clip-path:url(#SVGID_00000113327650744977072490000003174913425991253891_);">
				<defs>
					<rect id="SVGID_00000043431746697050984080000006359263532615865013_" x="6.5" y="84.3" width="682.5" height="409"/>
				</defs>
				<clipPath id="SVGID_00000058548863085701623800000008431975131634028946_">
					<use xlink:href="#SVGID_00000043431746697050984080000006359263532615865013_"  style="overflow:visible;"/>
				</clipPath>
				
					<path id="BRAZIL" style="clip-path:url(#SVGID_00000058548863085701623800000008431975131634028946_);fill:none;stroke:#C4C4C4;stroke-linecap:round;stroke-linejoin:round;" d="
					M35.5,282.9c19.5-2.8,38.9-5.6,58.4-5.6s38.9,1.8,58.4,5.4c19.5,3.6,38.9,8.9,58.4,23.2s38.9,47.7,58.4,62.9
					c19.5,15.2,38.9,21.2,58.4,28c19.5,6.8,38.9,8.3,58.4,12.8c19.5,4.4,38.9,13.8,58.4,13.8c19.5,0,38.9-7.2,58.4-15.7
					c19.5-8.5,38.9-24.1,58.4-35.4c19.5-11.3,38.9-20.2,58.4-32.4c19.5-12.3,38.9-26.7,58.4-41.2"/>
				
					<path id="CHINA" style="clip-path:url(#SVGID_00000058548863085701623800000008431975131634028946_);fill:none;stroke:#C4C4C4;stroke-linecap:round;stroke-linejoin:round;" d="
					M35.5,456.8c19.5-4.3,38.9-8.7,58.4-12.1s38.9-2.7,58.4-8.2s38.9-20.4,58.4-28.8s38.9-13.2,58.4-21.8
					c19.5-8.6,38.9-24,58.4-29.9c19.5-5.9,38.9-8.8,58.4-8.8s38.9,1.9,58.4,5.7c19.5,3.8,38.9,22.9,58.4,34.7
					c19.5,11.8,38.9,26.3,58.4,35.9s38.9,15.7,58.4,21.6c19.5,5.9,38.9,9.7,58.4,13.6"/>
				
					<path id="EGYPT" style="clip-path:url(#SVGID_00000058548863085701623800000008431975131634028946_);fill:none;stroke:#C4C4C4;stroke-linecap:round;stroke-linejoin:round;" d="
					M35.5,464.9c19.5,1,38.9,2,58.4,2.8s38.9,1.2,58.4,1.8s38.9,1.3,58.4,1.8c19.5,0.5,38.9,1,58.4,1.3c19.5,0.3,38.9,0.4,58.4,0.4
					c19.5,0.1,38.9,0.1,58.4,0.1s38.9,0,58.4,0c19.5,0,38.9-0.1,58.4-0.2c19.5-0.1,38.9-2,58.4-2.7c19.5-0.7,38.9-0.7,58.4-1.5
					c19.5-0.8,38.9-1.9,58.4-3.1"/>
				
					<path id="INDIA" style="clip-path:url(#SVGID_00000058548863085701623800000008431975131634028946_);fill:none;stroke:#C4C4C4;stroke-linecap:round;stroke-linejoin:round;" d="
					M35.5,459.3c19.5-2.1,38.9-4.2,58.4-5.4c19.5-1.2,38.9-0.7,58.4-2c19.5-1.3,38.9-15.9,58.4-26.1s38.9-11.7,58.4-35
					c19.5-23.4,38.9-117.7,58.4-154.1c19.5-36.4,38.9-64.2,58.4-64.2S424.6,189,444,210c19.5,21,38.9,60,58.4,88.4
					c19.5,28.4,38.9,62.2,58.4,81.9c19.5,19.7,38.9,25.2,58.4,36.1c19.5,10.9,38.9,20.1,58.4,29.4"/>
				
					<path id="JAPAN" style="clip-path:url(#SVGID_00000058548863085701623800000008431975131634028946_);fill:none;stroke:#C4C4C4;stroke-linecap:round;stroke-linejoin:round;" d="
					M35.5,379.4c19.5-1.2,38.9-2.3,58.4-5.5c19.5-3.2,38.9-4.8,58.4-13.8s38.9-39.5,58.4-39.9c19.5-0.5,38.9-0.2,58.4-0.7
					c19.5-0.5,38.9-70.6,58.4-70.6c19.5,0,38.9,16.5,58.4,24.7s38.9,24.2,58.4,24.2c19.5,0,38.9-33,58.4-33
					c19.5,0,38.9,52.9,58.4,68c19.5,15.1,38.9,14.2,58.4,22.8c19.5,8.5,38.9,18.5,58.4,28.5"/>
				
					<path id="MEXICO" style="clip-path:url(#SVGID_00000058548863085701623800000008431975131634028946_);fill:none;stroke:#C4C4C4;stroke-linecap:round;stroke-linejoin:round;" d="
					M35.5,455.7c19.5,2.6,38.9,5.2,58.4,6.1s38.9,1.4,58.4,1.4s38.9-1.6,58.4-4.8s38.9-8.4,58.4-25.1
					c19.5-16.7,38.9-122.7,58.4-133.1c19.5-10.4,38.9-12,58.4-15.6s38.9-2.2,58.4-6.5c19.5-4.3,38.9-20.6,58.4-20.6
					c19.5,0,38.9,102.8,58.4,134s38.9,47.1,58.4,53c19.5,5.9,38.9,7.4,58.4,8.8"/>
				
					<path id="IRAN_x2C__ISLAMIC_REPUBLIC_OF" style="clip-path:url(#SVGID_00000058548863085701623800000008431975131634028946_);fill:none;stroke:#C4C4C4;stroke-linecap:round;stroke-linejoin:round;" d="
					M35.5,418.7c19.5,1.9,38.9,3.8,58.4,5.2c19.5,1.4,38.9,1.2,58.4,3.2s38.9,4.5,58.4,8.7s38.9,11.6,58.4,16.4
					c19.5,4.8,38.9,11.8,58.4,12.7c19.5,0.9,38.9,1.3,58.4,1.3s38.9-3.6,58.4-6.3c19.5-2.7,38.9-4.6,58.4-10.1
					c19.5-5.5,38.9-23,58.4-23s38.9,1.6,58.4,1.6c19.5,0,38.9-4.3,58.4-8.6"/>
				
					<path id="GERMANY" style="clip-path:url(#SVGID_00000058548863085701623800000008431975131634028946_);fill:none;stroke:#C4C4C4;stroke-linecap:round;stroke-linejoin:round;" d="
					M35.5,410.1c19.5,2.8,38.9,5.5,58.4,5.5s38.9-0.7,58.4-2s38.9-8.1,58.4-11s38.9-2.5,58.4-6.4c19.5-3.8,38.9-16.7,58.4-16.7
					c19.5,0,38.9,5.8,58.4,7.6s38.9,1,58.4,2.9c19.5,2,38.9,11,58.4,15.3c19.5,4.3,38.9,10.6,58.4,10.6s38.9-13.3,58.4-13.7
					c19.5-0.3,38.9-0.4,58.4-0.5"/>
				
					<path id="QATAR" style="clip-path:url(#SVGID_00000058548863085701623800000008431975131634028946_);fill:none;stroke:#C4C4C4;stroke-linecap:round;stroke-linejoin:round;" d="
					M35.5,459.9c19.5-2.9,38.9-5.8,58.4-5.8s38.9,1.3,58.4,2.9s38.9,4.5,58.4,6.6s38.9,4.5,58.4,6.1c19.5,1.6,38.9,3.7,58.4,3.7
					c19.5,0,38.9,0,58.4,0s38.9,0,58.4,0c19.5,0,38.9,0,58.4,0c19.5,0,38.9-0.5,58.4-1.1s38.9-0.8,58.4-2.3
					c19.5-1.6,38.9-5.2,58.4-8.8"/>
				
					<path id="BELIZE" style="clip-path:url(#SVGID_00000058548863085701623800000008431975131634028946_);fill:none;stroke:#C4C4C4;stroke-linecap:round;stroke-linejoin:round;" d="
					M35.5,348.3c19.5,11.2,38.9,22.3,58.4,33.3s38.9,32.6,58.4,32.6s38.9-0.6,58.4-1.7c19.5-1.2,38.9-17.1,58.4-51.3
					c19.5-34.2,38.9-270.9,58.4-270.9c19.5,0,38.9,11.6,58.4,24.5s38.9,52.7,58.4,52.7c19.5,0,38.9-28.6,58.4-28.6
					c19.5,0,38.9,59,58.4,83.8s38.9,55.2,58.4,65.4c19.5,10.2,38.9,12.8,58.4,15.3"/>
				
					<path id="DENMARK" style="clip-path:url(#SVGID_00000058548863085701623800000008431975131634028946_);fill:none;stroke:#FA8C00;stroke-width:4;stroke-linecap:round;stroke-linejoin:round;" d="
					M35.5,437.7c19.5,3.7,38.9,7.4,58.4,7.4s38.9-5.6,58.4-7.4c19.5-1.9,38.9-3,58.4-3.8c19.5-0.8,38.9-0.4,58.4-1.3
					c19.5-0.8,38.9-11.8,58.4-11.8c19.5,0,38.9,1.7,58.4,1.7s38.9,0,58.4,0c19.5,0,38.9-12.2,58.4-12.2c19.5,0,38.9,12.2,58.4,12.2
					s38.9-1.7,58.4-1.7c19.5,0,38.9,3.4,58.4,6.8"/>
				
					<path id="UNITED_STATES_OF_AMERICA" style="clip-path:url(#SVGID_00000058548863085701623800000008431975131634028946_);fill:none;stroke:#18A1CD;stroke-width:4;stroke-linecap:round;stroke-linejoin:round;" d="
					M35.5,412c19.5-1,38.9-2,58.4-4.8c19.5-2.8,38.9-8.6,58.4-11.9c19.5-3.3,38.9-5.5,58.4-7.9s38.9-4.6,58.4-6
					c19.5-1.4,38.9-2.1,58.4-2.1c19.5,0,38.9,2.5,58.4,3.7s38.9,3.5,58.4,3.5c19.5,0,38.9-0.4,58.4-0.4c19.5,0,38.9,18.2,58.4,18.2
					s38.9-6,58.4-6c19.5,0,38.9,2.1,58.4,4.3"/>
				<g style="clip-path:url(#SVGID_00000058548863085701623800000008431975131634028946_);enable-background:new    ;">
					<text transform="matrix(0.9849 0 0 1 27.6094 490.2739)" class="st12 st13 st14">jan</text>
				</g>
				<g style="clip-path:url(#SVGID_00000058548863085701623800000008431975131634028946_);enable-background:new    ;">
					<text transform="matrix(0.9849 0 0 1 85.6416 490.2739)" class="st12 st13 st14">feb</text>
				</g>
				<g style="clip-path:url(#SVGID_00000058548863085701623800000008431975131634028946_);enable-background:new    ;">
					<text transform="matrix(0.9849 0 0 1 142.0405 490.2739)" class="st12 st13 st14">mar</text>
				</g>
				<g style="clip-path:url(#SVGID_00000058548863085701623800000008431975131634028946_);enable-background:new    ;">
					<text transform="matrix(0.9849 0 0 1 202.0381 490.2739)" class="st12 st13 st14">apr</text>
				</g>
				<g style="clip-path:url(#SVGID_00000058548863085701623800000008431975131634028946_);enable-background:new    ;">
					<text transform="matrix(0.9849 0 0 1 257.7759 490.2739)" class="st12 st13 st14">may</text>
				</g>
				<g style="clip-path:url(#SVGID_00000058548863085701623800000008431975131634028946_);enable-background:new    ;">
					<text transform="matrix(0.9849 0 0 1 319.415 490.2739)" class="st12 st13 st14">jun</text>
				</g>
				<g style="clip-path:url(#SVGID_00000058548863085701623800000008431975131634028946_);enable-background:new    ;">
					<text transform="matrix(0.9849 0 0 1 379.75 490.2739)" class="st12 st13 st14">jul</text>
				</g>
				<g style="clip-path:url(#SVGID_00000058548863085701623800000008431975131634028946_);enable-background:new    ;">
					<text transform="matrix(0.9849 0 0 1 434.1641 490.2739)" class="st12 st13 st14">aug</text>
				</g>
				<g style="clip-path:url(#SVGID_00000058548863085701623800000008431975131634028946_);enable-background:new    ;">
					<text transform="matrix(0.9849 0 0 1 492.8555 490.2739)" class="st12 st13 st14">sep</text>
				</g>
				<g style="clip-path:url(#SVGID_00000058548863085701623800000008431975131634028946_);enable-background:new    ;">
					<text transform="matrix(0.9849 0 0 1 552.8613 490.2739)" class="st12 st13 st14">oct</text>
				</g>
				<g style="clip-path:url(#SVGID_00000058548863085701623800000008431975131634028946_);enable-background:new    ;">
					<text transform="matrix(0.9849 0 0 1 609.5781 490.2739)" class="st12 st13 st14">nov</text>
				</g>
				<g style="clip-path:url(#SVGID_00000058548863085701623800000008431975131634028946_);enable-background:new    ;">
					<text transform="matrix(0.9849 0 0 1 667.9395 490.2739)" class="st12 st13 st14">dec</text>
				</g>
				<g style="clip-path:url(#SVGID_00000058548863085701623800000008431975131634028946_);enable-background:new    ;">
					<text transform="matrix(0.9849 0 0 1 14.4346 477.2739)" class="st15 st13 st14">0</text>
				</g>
				<g style="clip-path:url(#SVGID_00000058548863085701623800000008431975131634028946_);enable-background:new    ;">
					<text transform="matrix(0.9849 0 0 1 14.4346 445.7974)" class="st15 st13 st14">1</text>
				</g>
				<g style="clip-path:url(#SVGID_00000058548863085701623800000008431975131634028946_);enable-background:new    ;">
					<text transform="matrix(0.9849 0 0 1 14.4346 414.3188)" class="st15 st13 st14">2</text>
				</g>
				<g style="clip-path:url(#SVGID_00000058548863085701623800000008431975131634028946_);enable-background:new    ;">
					<text transform="matrix(0.9849 0 0 1 14.4346 382.8403)" class="st15 st13 st14">3</text>
				</g>
				<g style="clip-path:url(#SVGID_00000058548863085701623800000008431975131634028946_);enable-background:new    ;">
					<text transform="matrix(0.9849 0 0 1 14.4346 351.3638)" class="st15 st13 st14">4</text>
				</g>
				<g style="clip-path:url(#SVGID_00000058548863085701623800000008431975131634028946_);enable-background:new    ;">
					<text transform="matrix(0.9849 0 0 1 14.4346 319.8853)" class="st15 st13 st14">5</text>
				</g>
				<g style="clip-path:url(#SVGID_00000058548863085701623800000008431975131634028946_);enable-background:new    ;">
					<text transform="matrix(0.9849 0 0 1 14.4346 288.4087)" class="st15 st13 st14">6</text>
				</g>
				<g style="clip-path:url(#SVGID_00000058548863085701623800000008431975131634028946_);enable-background:new    ;">
					<text transform="matrix(0.9849 0 0 1 14.4346 256.9302)" class="st15 st13 st14">7</text>
				</g>
				<g style="clip-path:url(#SVGID_00000058548863085701623800000008431975131634028946_);enable-background:new    ;">
					<text transform="matrix(0.9849 0 0 1 14.4346 225.4526)" class="st15 st13 st14">8</text>
				</g>
				<g style="clip-path:url(#SVGID_00000058548863085701623800000008431975131634028946_);enable-background:new    ;">
					<text transform="matrix(0.9849 0 0 1 14.4346 193.9746)" class="st15 st13 st14">9</text>
				</g>
				<g style="clip-path:url(#SVGID_00000058548863085701623800000008431975131634028946_);enable-background:new    ;">
					<text transform="matrix(0.9849 0 0 1 7.8618 162.4971)" class="st15 st13 st14">10</text>
				</g>
				<g style="clip-path:url(#SVGID_00000058548863085701623800000008431975131634028946_);enable-background:new    ;">
					<text transform="matrix(0.9849 0 0 1 8.7388 131.0195)" class="st15 st13 st14">11</text>
				</g>
				<g style="clip-path:url(#SVGID_00000058548863085701623800000008431975131634028946_);enable-background:new    ;">
					<text transform="matrix(0.9849 0 0 1 7.8618 99.5415)" class="st15 st13 st14">12</text>
				</g>
				
					<line style="clip-path:url(#SVGID_00000058548863085701623800000008431975131634028946_);fill:none;stroke:#181818;stroke-linecap:square;" x1="687" y1="473.3" x2="25.9" y2="473.3"/>
			</g>
			<g style="clip-path:url(#SVGID_00000113327650744977072490000003174913425991253891_);enable-background:new    ;">
				<text transform="matrix(0.9849 0 0 1 319.8794 440.9487)" class="st17 st4 st6">Denmark</text>
			</g>
			<g style="clip-path:url(#SVGID_00000113327650744977072490000003174913425991253891_);enable-background:new    ;">
				<text transform="matrix(0.9849 0 0 1 318.8726 440.949)" class="st4 st6">Denmark</text>
			</g>
			<g style="clip-path:url(#SVGID_00000113327650744977072490000003174913425991253891_);enable-background:new    ;">
				<text transform="matrix(0.9849 0 0 1 119.6919 379.7532)" class="st17 st4 st6">The United States</text>
			</g>
			<g style="clip-path:url(#SVGID_00000113327650744977072490000003174913425991253891_);enable-background:new    ;">
				<text transform="matrix(0.9849 0 0 1 119.3887 379.5715)" class="st4 st6">The United States</text>
			</g>
			<g style="clip-path:url(#SVGID_00000113327650744977072490000003174913425991253891_);">
				<defs>
					<rect id="SVGID_00000082326832597444015620000017225121234834054528_" x="6.5" y="84.3" width="682.5" height="409"/>
				</defs>
				<clipPath id="SVGID_00000019645030068942477440000002785134535771264129_">
					<use xlink:href="#SVGID_00000082326832597444015620000017225121234834054528_"  style="overflow:visible;"/>
				</clipPath>
			</g>
			<g style="clip-path:url(#SVGID_00000113327650744977072490000003174913425991253891_);enable-background:new    ;">
			</g>
			<g style="clip-path:url(#SVGID_00000113327650744977072490000003174913425991253891_);enable-background:new    ;">
			</g>
		</g>
	</g>
</g>
<g id="ai2html-settings">
	<rect x="-450" style="fill:none;" width="400" height="418"/>
	<text id="ai2html-settings_00000176738074115174740890000013636517159940232353_" transform="matrix(1 0 0 1 -450 10.6499)"><tspan x="0" y="0" style="font-family:'MyriadPro-Regular'; font-size:15px;">ai2html-settings</tspan><tspan x="0" y="19" style="font-family:'MyriadPro-Regular'; font-size:15px;">settings_version: 0.106.0</tspan><tspan x="0" y="38" style="font-family:'MyriadPro-Regular'; font-size:15px;">image_format: auto</tspan><tspan x="0" y="57" style="font-family:'MyriadPro-Regular'; font-size:15px;">responsiveness: fixed</tspan><tspan x="0" y="76" style="font-family:'MyriadPro-Regular'; font-size:15px;">output: one-file</tspan><tspan x="0" y="95" style="font-family:'MyriadPro-Regular'; font-size:15px;">html_output_path: /ai2html-output/</tspan><tspan x="0" y="114" style="font-family:'MyriadPro-Regular'; font-size:15px;">html_output_extension: .html</tspan><tspan x="0" y="133" style="font-family:'MyriadPro-Regular'; font-size:15px;">image_output_path: </tspan><tspan x="0" y="152" style="font-family:'MyriadPro-Regular'; font-size:15px;">local_preview_template: </tspan><tspan x="0" y="171" style="font-family:'MyriadPro-Regular'; font-size:15px;">png_number_of_colors: 128</tspan><tspan x="0" y="190" style="font-family:'MyriadPro-Regular'; font-size:15px;">jpg_quality: 60</tspan><tspan x="0" y="209" style="font-family:'MyriadPro-Regular'; font-size:15px;">headline: </tspan><tspan x="0" y="228" style="font-family:'MyriadPro-Regular'; font-size:15px;">leadin: </tspan><tspan x="0" y="247" style="font-family:'MyriadPro-Regular'; font-size:15px;">notes: </tspan><tspan x="0" y="266" style="font-family:'MyriadPro-Regular'; font-size:15px;">sources: </tspan><tspan x="0" y="285" style="font-family:'MyriadPro-Regular'; font-size:15px;">credit: </tspan></text>
</g>
</svg>
