<?xml version="1.0" encoding="utf-8"?>
<!-- Generator: Adobe Illustrator 27.6.1, SVG Export Plug-In . SVG Version: 6.00 Build 0)  -->
<svg version="1.1" xmlns="http://www.w3.org/2000/svg" xmlns:xlink="http://www.w3.org/1999/xlink" x="0px" y="0px"
	 viewBox="0 0 761 562" style="enable-background:new 0 0 761 562;" xml:space="preserve">
<style type="text/css">
	.st0{fill:#FFFFFF;}
	.st1{clip-path:url(#SVGID_00000062152806142808929710000014860722214938021006_);}
	.st2{clip-path:url(#SVGID_00000157300891228970607110000002118982339735408566_);fill:#1D263B;}
	.st3{clip-path:url(#SVGID_00000157300891228970607110000002118982339735408566_);enable-background:new    ;}
	.st4{font-family:'Arial-BoldMT';}
	.st5{font-size:22px;}
	.st6{font-size:14px;}
	.st7{clip-path:url(#SVGID_00000157300891228970607110000002118982339735408566_);}
	
		.st8{clip-path:url(#SVGID_00000146458909144160826460000015572541388322710936_);fill:none;stroke:#C4C4C4;stroke-linecap:round;stroke-linejoin:round;}
	
		.st9{clip-path:url(#SVGID_00000146458909144160826460000015572541388322710936_);fill:none;stroke:#FA8C00;stroke-width:4;stroke-linecap:round;stroke-linejoin:round;}
	
		.st10{clip-path:url(#SVGID_00000146458909144160826460000015572541388322710936_);fill:none;stroke:#18A1CD;stroke-width:4;stroke-linecap:round;stroke-linejoin:round;}
	.st11{clip-path:url(#SVGID_00000146458909144160826460000015572541388322710936_);enable-background:new    ;}
	.st12{fill:#A6A6A6;}
	.st13{font-family:'ArialMT';}
	.st14{font-size:12px;}
	
		.st15{clip-path:url(#SVGID_00000146458909144160826460000015572541388322710936_);fill:none;stroke:#181818;stroke-linecap:square;}
	.st16{fill:none;stroke:#FFFFFF;stroke-width:4;stroke-linecap:round;stroke-linejoin:round;}
	.st17{fill:#181818;}
	.st18{fill:#545454;}
	.st19{font-size:11px;}
</style>
<g id="exportSvg">
	<rect class="st0" width="761" height="562"/>
	<g>
		<defs>
			<rect id="SVGID_1_" width="761" height="562"/>
		</defs>
		<clipPath id="SVGID_00000125569777747863181660000000739517491543091874_">
			<use xlink:href="#SVGID_1_"  style="overflow:visible;"/>
		</clipPath>
		<g style="clip-path:url(#SVGID_00000125569777747863181660000000739517491543091874_);">
			<defs>
				<rect id="SVGID_00000049221104503730118640000000587526997696879758_" width="761" height="562"/>
			</defs>
			<clipPath id="SVGID_00000080169512390373346710000011851066246362382519_">
				<use xlink:href="#SVGID_00000049221104503730118640000000587526997696879758_"  style="overflow:visible;"/>
			</clipPath>
			
				<rect style="clip-path:url(#SVGID_00000080169512390373346710000011851066246362382519_);fill:#1D263B;" width="761" height="562"/>
			<g style="clip-path:url(#SVGID_00000080169512390373346710000011851066246362382519_);enable-background:new    ;">
				<text transform="matrix(1 0 0 1 30.1009 26.6201)" class="st0 st4 st5">Danes Endure Long, Dark Winters</text>
			</g>
			<g style="clip-path:url(#SVGID_00000080169512390373346710000011851066246362382519_);enable-background:new    ;">
				<text transform="matrix(1 0 0 1 29.8911 51.9395)"><tspan x="0" y="0" class="st0 st4 st6">Average number of daily sunshine each month by country. Denmark gets as much as 3 hours less sun than</tspan><tspan x="0" y="16.8" class="st0 st4 st6">the United States during the winter </tspan></text>
			</g>
			<g style="clip-path:url(#SVGID_00000080169512390373346710000011851066246362382519_);">
				<defs>
					<rect id="SVGID_00000010299526083225663880000014859326125051556738_" y="79" width="761" height="450"/>
				</defs>
				<clipPath id="SVGID_00000154420744767836389480000014285837327112356287_">
					<use xlink:href="#SVGID_00000010299526083225663880000014859326125051556738_"  style="overflow:visible;"/>
				</clipPath>
				
					<path id="AFGHANISTAN_x2C__ISLAMIC_STATE_OF" style="clip-path:url(#SVGID_00000154420744767836389480000014285837327112356287_);fill:none;stroke:#C4C4C4;stroke-linecap:round;stroke-linejoin:round;" d="
					M29.5,128.5c21.8,12.7,43.6,25.3,65.4,32.8c21.8,7.5,43.6,4.1,65.4,12.4s43.6,43.8,65.4,59.8s43.6,19.4,65.4,36.2
					s43.6,61.8,65.4,64.7c21.8,2.8,43.6,4.3,65.4,4.3c21.8,0,43.6-4.9,65.4-11c21.8-6.1,43.6-15.2,65.4-25.4
					c21.8-10.2,43.6-19.1,65.4-35.8s43.6-41.3,65.4-64.2c21.8-22.9,43.6-48,65.4-73.1"/>
				
					<path id="ARGENTINA" style="clip-path:url(#SVGID_00000154420744767836389480000014285837327112356287_);fill:none;stroke:#C4C4C4;stroke-linecap:round;stroke-linejoin:round;" d="
					M29.5,338.2c21.8-9.8,43.6-19.6,65.4-26.9c21.8-7.3,43.6-8,65.4-17.1c21.8-9.1,43.6-25.2,65.4-37.4s43.6-34.6,65.4-36
					c21.8-1.4,43.6-0.7,65.4-2.1c21.8-1.4,43.6-10.3,65.4-10.3c21.8,0,43.6,4.2,65.4,12.5s43.6,35.2,65.4,47
					c21.8,11.8,43.6,14.1,65.4,24c21.8,9.9,43.6,25.4,65.4,35.3c21.8,10,43.6,17.2,65.4,24.4"/>
				
					<path id="ARMENIA" style="clip-path:url(#SVGID_00000154420744767836389480000014285837327112356287_);fill:none;stroke:#C4C4C4;stroke-linecap:round;stroke-linejoin:round;" d="
					M29.5,134.2c21.8,5.6,43.6,11.2,65.4,23.2s43.6,27.5,65.4,49s43.6,54.7,65.4,80.2s43.6,51.7,65.4,72.5s43.6,52,65.4,52
					c21.8,0,43.6-0.7,65.4-2.1c21.8-1.4,43.6-12.6,65.4-24.2c21.8-11.6,43.6-34.1,65.4-45.2c21.8-11,43.6-7.3,65.4-21
					s43.6-39,65.4-61.1c21.8-22.1,43.6-46.7,65.4-71.3"/>
				
					<path id="AUSTRALIA" style="clip-path:url(#SVGID_00000154420744767836389480000014285837327112356287_);fill:none;stroke:#C4C4C4;stroke-linecap:round;stroke-linejoin:round;" d="
					M29.5,282c21.8-4.9,43.6-9.8,65.4-14.6c21.8-4.8,43.6-9.6,65.4-14.2c21.8-4.6,43.6-10.1,65.4-13.5c21.8-3.4,43.6-5.5,65.4-6.7
					s43.6-1.8,65.4-1.8c21.8,0,43.6,1.7,65.4,4.3c21.8,2.6,43.6,6.2,65.4,11.3s43.6,14.3,65.4,18.9c21.8,4.6,43.6,2.9,65.4,8.8
					c21.8,5.8,43.6,27.5,65.4,28.1c21.8,0.6,43.6,0.7,65.4,0.9"/>
				
					<path id="AUSTRALIA__x28_ANTARCTIC_STATIONS_x29_" style="clip-path:url(#SVGID_00000154420744767836389480000014285837327112356287_);fill:none;stroke:#C4C4C4;stroke-linecap:round;stroke-linejoin:round;" d="
					M29.5,493.7c21.8-19.1,43.6-38.2,65.4-60.2s43.6-49.8,65.4-72.2s43.6-42.9,65.4-62.4s43.6-40.8,65.4-54.2s43.6-26.3,65.4-26.3
					c21.8,0,43.6,3.3,65.4,9.8c21.8,6.6,43.6,31.7,65.4,55.8c21.8,24.1,43.6,67.3,65.4,88.6c21.8,21.3,43.6,23,65.4,39.4
					s43.6,42.9,65.4,59.1c21.8,16.1,43.6,26.9,65.4,37.7"/>
				
					<path id="AUSTRIA" style="clip-path:url(#SVGID_00000154420744767836389480000014285837327112356287_);fill:none;stroke:#C4C4C4;stroke-linecap:round;stroke-linejoin:round;" d="
					M29.5,258.9c21.8,7.3,43.6,14.6,65.4,24.7c21.8,10.1,43.6,23.8,65.4,35.8c21.8,12,43.6,19.4,65.4,36.4
					c21.8,16.9,43.6,53,65.4,65.2c21.8,12.2,43.6,18.3,65.4,18.3c21.8,0,43.6-2.6,65.4-7.9c21.8-5.2,43.6-26.6,65.4-38.1
					s43.6-21.1,65.4-31.2c21.8-10.1,43.6-18.6,65.4-29.3s43.6-27.7,65.4-34.7c21.8-7,43.6-8.7,65.4-10.5"/>
				
					<path id="AZERBAIJAN" style="clip-path:url(#SVGID_00000154420744767836389480000014285837327112356287_);fill:none;stroke:#C4C4C4;stroke-linecap:round;stroke-linejoin:round;" d="
					M29.5,187.4c21.8,12.7,43.6,25.5,65.4,39.9s43.6,26.7,65.4,46.7s43.6,54.2,65.4,73.4s43.6,37.7,65.4,41.6s43.6,3.2,65.4,5.8
					c21.8,2.6,43.6,9.8,65.4,9.8c21.8,0,43.6-2.5,65.4-7.5s43.6-8.6,65.4-23c21.8-14.4,43.6-45.4,65.4-63.5s43.6-27.9,65.4-44.9
					c21.8-17,43.6-37.1,65.4-57.2"/>
				
					<path id="BAHAMAS" style="clip-path:url(#SVGID_00000154420744767836389480000014285837327112356287_);fill:none;stroke:#C4C4C4;stroke-linecap:round;stroke-linejoin:round;" d="
					M29.5,210.5c21.8,2.7,43.6,5.4,65.4,16.2c21.8,10.8,43.6,49.2,65.4,49.2s43.6-1.6,65.4-3.3c21.8-1.6,43.6-6.6,65.4-6.6
					s43.6,16.4,65.4,16.4c21.8,0,43.6-2.7,65.4-6.6c21.8-3.8,43.6-9.8,65.4-16.4c21.8-6.6,43.6-14.2,65.4-23
					c21.8-8.8,43.6-29.5,65.4-29.5s43.6,8.2,65.4,16.4c21.8,8.2,43.6,20.5,65.4,32.8"/>
				
					<path id="BAHRAIN" style="clip-path:url(#SVGID_00000154420744767836389480000014285837327112356287_);fill:none;stroke:#C4C4C4;stroke-linecap:round;stroke-linejoin:round;" d="
					M29.5,146.1c21.8,4.1,43.6,8.1,65.4,11.7s43.6,4.9,65.4,9.8c21.8,4.9,43.6,10.4,65.4,19.7s43.6,22.4,65.4,36.1
					c21.8,13.7,43.6,46,65.4,46c21.8,0,43.6,0,65.4,0c21.8,0,43.6-19.7,65.4-19.7s43.6,6.6,65.4,6.6c21.8,0,43.6-14.2,65.4-26.3
					c21.8-12,43.6-30.6,65.4-46c21.8-15.3,43.6-30.6,65.4-46"/>
				
					<path id="BELARUS" style="clip-path:url(#SVGID_00000154420744767836389480000014285837327112356287_);fill:none;stroke:#C4C4C4;stroke-linecap:round;stroke-linejoin:round;" d="
					M29.5,224c21.8,5.6,43.6,11.2,65.4,27.7s43.6,47.2,65.4,71.3s43.6,49.8,65.4,73.2c21.8,23.4,43.6,58.3,65.4,67.4
					s43.6,13.6,65.4,13.6c21.8,0,43.6-11.2,65.4-19.3c21.8-8.1,43.6-14.4,65.4-29.2c21.8-14.8,43.6-40.8,65.4-59.5
					c21.8-18.7,43.6-32.5,65.4-52.8s43.6-54.6,65.4-69c21.8-14.4,43.6-18,65.4-21.6"/>
				
					<path id="BELGIUM" style="clip-path:url(#SVGID_00000154420744767836389480000014285837327112356287_);fill:none;stroke:#C4C4C4;stroke-linecap:round;stroke-linejoin:round;" d="
					M29.5,305.7c21.8,1.7,43.6,3.5,65.4,10.5s43.6,23.3,65.4,35.3c21.8,11.9,43.6,21.9,65.4,36.4s43.6,38,65.4,50.5s43.6,24,65.4,24
					c21.8,0,43.6-1.6,65.4-4.8c21.8-3.2,43.6-29.2,65.4-39.4c21.8-10.2,43.6-10,65.4-21.7c21.8-11.7,43.6-33.9,65.4-48.6
					s43.6-38,65.4-39.5c21.8-1.5,43.6-1.8,65.4-2.2"/>
				
					<path id="BENIN" style="clip-path:url(#SVGID_00000154420744767836389480000014285837327112356287_);fill:none;stroke:#C4C4C4;stroke-linecap:round;stroke-linejoin:round;" d="
					M29.5,345.5c21.8,10.5,43.6,21,65.4,21s43.6-14.4,65.4-28.9s43.6-41.1,65.4-57.8c21.8-16.6,43.6-42,65.4-42s43.6,17.7,65.4,17.7
					c21.8,0,43.6,0,65.4,0c21.8,0,43.6-11.8,65.4-11.8s43.6,20.4,65.4,20.4c21.8,0,43.6-2.6,65.4-2.6s43.6,0,65.4,0
					c21.8,0,43.6,20.4,65.4,40.7"/>
				
					<path id="BOSNIA_AND_HERZEGOVINA" style="clip-path:url(#SVGID_00000154420744767836389480000014285837327112356287_);fill:none;stroke:#C4C4C4;stroke-linecap:round;stroke-linejoin:round;" d="
					M29.5,228.6c21.8,7.8,43.6,15.5,65.4,28.2c21.8,12.7,43.6,32.3,65.4,48.1c21.8,15.8,43.6,27.4,65.4,46.6s43.6,49.6,65.4,68.7
					s43.6,45.8,65.4,45.8c21.8,0,43.6-8.2,65.4-17.4c21.8-9.2,43.6-25.7,65.4-37.8s43.6-23.4,65.4-34.8c21.8-11.4,43.6-22,65.4-33.6
					c21.8-11.7,43.6-26.4,65.4-36.3c21.8-10,43.6-16.8,65.4-23.6"/>
				
					<path id="BRAZIL" style="clip-path:url(#SVGID_00000154420744767836389480000014285837327112356287_);fill:none;stroke:#C4C4C4;stroke-linecap:round;stroke-linejoin:round;" d="
					M29.5,280.3c21.8,0.6,43.6,1.1,65.4,3.4c21.8,2.3,43.6,19.2,65.4,19.2s43.6-0.5,65.4-0.5s43.6,0.2,65.4,0.6
					c21.8,0.4,43.6,14.4,65.4,14.4c21.8,0,43.6-3.3,65.4-4.4c21.8-1,43.6-1.8,65.4-1.8s43.6,7.5,65.4,7.5c21.8,0,43.6-2,65.4-4.5
					s43.6-8,65.4-10.5c21.8-2.4,43.6-3.3,65.4-4.1"/>
				
					<path id="BRUNEI_DARUSSALAM" style="clip-path:url(#SVGID_00000154420744767836389480000014285837327112356287_);fill:none;stroke:#C4C4C4;stroke-linecap:round;stroke-linejoin:round;" d="
					M29.5,266.1c21.8,3.9,43.6,7.9,65.4,12.1s43.6,13.1,65.4,13.1s43.6-0.1,65.4-0.4c21.8-0.3,43.6-6.2,65.4-6.2s43.6,0.3,65.4,0.9
					c21.8,0.6,43.6,15.9,65.4,15.9c21.8,0,43.6-11.3,65.4-16.4c21.8-5.1,43.6-8.1,65.4-14.3c21.8-6.3,43.6-23.3,65.4-23.3
					s43.6,6.3,65.4,11.6c21.8,5.3,43.6,12.7,65.4,20.1"/>
				
					<path id="BULGARIA" style="clip-path:url(#SVGID_00000154420744767836389480000014285837327112356287_);fill:none;stroke:#C4C4C4;stroke-linecap:round;stroke-linejoin:round;" d="
					M29.5,172.3c21.8,6.7,43.6,13.5,65.4,27s43.6,32.9,65.4,54.4s43.6,50.6,65.4,74.5c21.8,23.9,43.6,51.9,65.4,69.2
					c21.8,17.3,43.6,34.5,65.4,34.5c21.8,0,43.6-2.7,65.4-8c21.8-5.3,43.6-16.4,65.4-26.7s43.6-20,65.4-34.9
					c21.8-14.9,43.6-36.8,65.4-54.4c21.8-17.6,43.6-35.9,65.4-51.1c21.8-15.2,43.6-27.7,65.4-40.1"/>
				
					<path id="CAMEROON" style="clip-path:url(#SVGID_00000154420744767836389480000014285837327112356287_);fill:none;stroke:#C4C4C4;stroke-linecap:round;stroke-linejoin:round;" d="
					M29.5,369.8c21.8,7.2,43.6,14.4,65.4,14.4s43.6-16.1,65.4-27.2s43.6-24,65.4-39.4c21.8-15.4,43.6-48.6,65.4-53
					s43.6-6.5,65.4-6.5c21.8,0,43.6,5.2,65.4,5.2c21.8,0,43.6-1.7,65.4-1.7s43.6,24,65.4,26.1c21.8,2.1,43.6,2.5,65.4,3.1
					s43.6,0.3,65.4,0.9c21.8,0.6,43.6,16.6,65.4,32.6"/>
				
					<path id="CAPE_VERDE" style="clip-path:url(#SVGID_00000154420744767836389480000014285837327112356287_);fill:none;stroke:#C4C4C4;stroke-linecap:round;stroke-linejoin:round;" d="
					M29.5,439.2c21.8-2,43.6-4,65.4-6.7c21.8-2.7,43.6-3.2,65.4-9.7c21.8-6.4,43.6-49.6,65.4-49.6s43.6,8,65.4,24
					c21.8,16,43.6,79.8,65.4,79.8c21.8,0,43.6-6.3,65.4-16.7c21.8-10.5,43.6-46.1,65.4-46.1s43.6,47.5,65.4,47.5
					c21.8,0,43.6-52,65.4-52s43.6,56.7,65.4,56.7c21.8,0,43.6-1.3,65.4-2.5"/>
				
					<path id="CHAD" style="clip-path:url(#SVGID_00000154420744767836389480000014285837327112356287_);fill:none;stroke:#C4C4C4;stroke-linecap:round;stroke-linejoin:round;" d="
					M29.5,259.7c21.8,10,43.6,20.1,65.4,20.1s43.6-14.7,65.4-25.2c21.8-10.5,43.6-26.9,65.4-37.7s43.6-27.4,65.4-27.4
					s43.6,2.5,65.4,3.8c21.8,1.4,43.6,4.4,65.4,4.4c21.8,0,43.6-6.6,65.4-6.6s43.6,23.5,65.4,23.5c21.8,0,43.6-1.7,65.4-2.7
					c21.8-1,43.6-3.3,65.4-3.3c21.8,0,43.6,8.2,65.4,16.4"/>
				
					<path id="CHINA" style="clip-path:url(#SVGID_00000154420744767836389480000014285837327112356287_);fill:none;stroke:#C4C4C4;stroke-linecap:round;stroke-linejoin:round;" d="
					M29.5,248.9c21.8,2,43.6,4,65.4,9.6s43.6,17.6,65.4,23.9c21.8,6.3,43.6,8.1,65.4,13.8c21.8,5.7,43.6,14.3,65.4,20.2
					c21.8,6,43.6,15.3,65.4,15.5c21.8,0.2,43.6,0.4,65.4,0.4c21.8,0,43.6-4.9,65.4-9.1c21.8-4.2,43.6-10.2,65.4-16.1
					c21.8-5.9,43.6-12.2,65.4-19.5c21.8-7.3,43.6-23.1,65.4-24.3c21.8-1.2,43.6-1.5,65.4-1.8"/>
				
					<path id="COLOMBIA" style="clip-path:url(#SVGID_00000154420744767836389480000014285837327112356287_);fill:none;stroke:#C4C4C4;stroke-linecap:round;stroke-linejoin:round;" d="
					M29.5,321.7c21.8,1.6,43.6,3.1,65.4,5.3c21.8,2.2,43.6,5.4,65.4,7.9c21.8,2.4,43.6,6.8,65.4,6.8s43.6-7.9,65.4-12.7
					s43.6-11.1,65.4-16.3c21.8-5.2,43.6-15.1,65.4-15.1c21.8,0,43.6,9.4,65.4,15.6s43.6,14.7,65.4,21.4
					c21.8,6.7,43.6,18.9,65.4,18.9s43.6-3.8,65.4-4.3c21.8-0.4,43.6-0.5,65.4-0.7"/>
				
					<path id="COLOMBIA__x28_SAN_ANDRES_AND_PROVIDENCIA_ISLANDS_x29_" style="clip-path:url(#SVGID_00000154420744767836389480000014285837327112356287_);fill:none;stroke:#C4C4C4;stroke-linecap:round;stroke-linejoin:round;" d="
					M29.5,307c21.8-9.3,43.6-18.7,65.4-18.7s43.6,2.6,65.4,7.7s43.6,26.4,65.4,26.4s43.6-16.2,65.4-21.9s43.6-4.1,65.4-12.3
					c21.8-8.2,43.6-29.1,65.4-38.6c21.8-9.5,43.6-12.5,65.4-18.5c21.8-6.1,43.6-17.4,65.4-17.9c21.8-0.5,43.6-0.8,65.4-0.8
					S662,224,683.8,241c21.8,17,43.6,45.3,65.4,73.6"/>
				
					<path id="COSTA_RICA" style="clip-path:url(#SVGID_00000154420744767836389480000014285837327112356287_);fill:none;stroke:#C4C4C4;stroke-linecap:round;stroke-linejoin:round;" d="
					M29.5,349.6c21.8-4,43.6-8,65.4-8s43.6,0,65.4,0s43.6-3.6,65.4-6.6s43.6-3.6,65.4-10.9s43.6-26.4,65.4-37.2
					c21.8-10.8,43.6-20.6,65.4-27.4c21.8-6.7,43.6-13.1,65.4-13.1s43.6,0.4,65.4,1.1c21.8,0.7,43.6,6.6,65.4,17.5
					c21.8,10.9,43.6,33.1,65.4,47.7c21.8,14.6,43.6,27.2,65.4,39.8"/>
				
					<path id="CROATIA" style="clip-path:url(#SVGID_00000154420744767836389480000014285837327112356287_);fill:none;stroke:#C4C4C4;stroke-linecap:round;stroke-linejoin:round;" d="
					M29.5,174.5c21.8,11.1,43.6,22.1,65.4,38.5s43.6,39.9,65.4,59.8s43.6,38.4,65.4,59.6c21.8,21.2,43.6,54.1,65.4,67.4
					c21.8,13.3,43.6,19.9,65.4,19.9c21.8,0,43.6-2.4,65.4-7.3c21.8-4.9,43.6-23.6,65.4-34.3c21.8-10.7,43.6-17.6,65.4-30
					c21.8-12.4,43.6-28.6,65.4-44.3c21.8-15.7,43.6-36.4,65.4-49.8c21.8-13.4,43.6-21.9,65.4-30.5"/>
				
					<path id="CYPRUS" style="clip-path:url(#SVGID_00000154420744767836389480000014285837327112356287_);fill:none;stroke:#C4C4C4;stroke-linecap:round;stroke-linejoin:round;" d="
					M29.5,85c21.8,10.1,43.6,20.2,65.4,33.4s43.6,28.4,65.4,46c21.8,17.5,43.6,42.1,65.4,59.1s43.6,27.9,65.4,42.7
					c21.8,14.8,43.6,41.6,65.4,46c21.8,4.4,43.6,6.6,65.4,6.6c21.8,0,43.6-17.5,65.4-26.3s43.6-13.1,65.4-26.3
					c21.8-13.1,43.6-34.5,65.4-52.5s43.6-37.7,65.4-55.8c21.8-18.1,43.6-35.3,65.4-52.5"/>
				
					<path id="CZECH_REPUBLIC" style="clip-path:url(#SVGID_00000154420744767836389480000014285837327112356287_);fill:none;stroke:#C4C4C4;stroke-linecap:round;stroke-linejoin:round;" d="
					M29.5,269.8c21.8,5.2,43.6,10.4,65.4,22.4c21.8,12,43.6,33.8,65.4,49.3c21.8,15.5,43.6,25,65.4,43.8s43.6,60.1,65.4,69
					s43.6,13.4,65.4,13.4c21.8,0,43.6-2.3,65.4-6.8c21.8-4.6,43.6-19.5,65.4-32s43.6-27.6,65.4-43.1c21.8-15.5,43.6-33.9,65.4-49.7
					s43.6-38.4,65.4-44.9c21.8-6.5,43.6-8.1,65.4-9.8"/>
				
					<path id="DJIBOUTI" style="clip-path:url(#SVGID_00000154420744767836389480000014285837327112356287_);fill:none;stroke:#C4C4C4;stroke-linecap:round;stroke-linejoin:round;" d="
					M29.5,225.6c21.8-3.1,43.6-6.1,65.4-9.7c21.8-3.6,43.6-8.3,65.4-11.8c21.8-3.5,43.6-9.2,65.4-9.2s43.6,0.5,65.4,1.5
					s43.6,16,65.4,25.1c21.8,9.1,43.6,28.1,65.4,29.3c21.8,1.2,43.6,1.9,65.4,1.9s43.6-14.2,65.4-21.5c21.8-7.2,43.6-12.7,65.4-22
					c21.8-9.2,43.6-33.4,65.4-33.4c21.8,0,43.6,11.5,65.4,23"/>
				
					<path id="DOMINICA" style="clip-path:url(#SVGID_00000154420744767836389480000014285837327112356287_);fill:none;stroke:#C4C4C4;stroke-linecap:round;stroke-linejoin:round;" d="
					M29.5,256c21.8-0.8,43.6-1.6,65.4-1.6s43.6,22.4,65.4,22.4s43.6-0.2,65.4-0.2s43.6,14.9,65.4,20.2s43.6,11.6,65.4,11.6
					c21.8,0,43.6-4.2,65.4-10c21.8-5.8,43.6-20.9,65.4-24.6c21.8-3.7,43.6-1.8,65.4-5.5c21.8-3.7,43.6-27.3,65.4-27.3
					s43.6,7.3,65.4,10.4c21.8,3.1,43.6,5.8,65.4,8.4"/>
				
					<path id="DOMINICAN_REPUBLIC" style="clip-path:url(#SVGID_00000154420744767836389480000014285837327112356287_);fill:none;stroke:#C4C4C4;stroke-linecap:round;stroke-linejoin:round;" d="
					M29.5,226.3c21.8,1,43.6,1.9,65.4,5.8c21.8,3.8,43.6,19.1,65.4,24.8c21.8,5.7,43.6,9.5,65.4,9.5s43.6-3.3,65.4-3.3
					s43.6,17.3,65.4,17.3c21.8,0,43.6-12.1,65.4-18.3c21.8-6.2,43.6-14.3,65.4-18.9s43.6-8.9,65.4-8.9c21.8,0,43.6,1.2,65.4,3.6
					c21.8,2.4,43.6,16.7,65.4,16.7c21.8,0,43.6-7.2,65.4-14.4"/>
				
					<path id="EGYPT" style="clip-path:url(#SVGID_00000154420744767836389480000014285837327112356287_);fill:none;stroke:#C4C4C4;stroke-linecap:round;stroke-linejoin:round;" d="
					M29.5,112.4c21.8,6.4,43.6,12.8,65.4,23.6s43.6,29.8,65.4,41s43.6,14,65.4,26.4c21.8,12.4,43.6,36.5,65.4,47.8
					s43.6,20.1,65.4,20.1c21.8,0,43.6-1,65.4-2.9c21.8-1.9,43.6-22.9,65.4-30.5c21.8-7.7,43.6-8.2,65.4-15.5
					c21.8-7.3,43.6-18.1,65.4-28.1c21.8-10,43.6-19.4,65.4-32c21.8-12.7,43.6-28.3,65.4-43.9"/>
				
					<path id="ERITREA" style="clip-path:url(#SVGID_00000154420744767836389480000014285837327112356287_);fill:none;stroke:#C4C4C4;stroke-linecap:round;stroke-linejoin:round;" d="
					M29.5,342.8c21.8-0.2,43.6-0.4,65.4-1.2c21.8-0.8,43.6-45.4,65.4-65.7s43.6-47.1,65.4-55.8s43.6-13.1,65.4-13.1
					s43.6,3.3,65.4,3.3c21.8,0,43.6-9.8,65.4-9.8c21.8,0,43.6,1.1,65.4,3.3s43.6,10.9,65.4,13.1c21.8,2.2,43.6,1.1,65.4,3.3
					s43.6,8.2,65.4,16.4c21.8,8.2,43.6,20.5,65.4,32.8"/>
				
					<path id="ESTONIA" style="clip-path:url(#SVGID_00000154420744767836389480000014285837327112356287_);fill:none;stroke:#C4C4C4;stroke-linecap:round;stroke-linejoin:round;" d="
					M29.5,204c21.8,18.5,43.6,37,65.4,60.9s43.6,58.1,65.4,82.4s43.6,42.7,65.4,63.2s43.6,50.7,65.4,59.6s43.6,13.4,65.4,13.4
					c21.8,0,43.6-3.1,65.4-9.3c21.8-6.2,43.6-21.4,65.4-38.3c21.8-16.9,43.6-41.5,65.4-63.1c21.8-21.6,43.6-41.4,65.4-66.6
					c21.8-25.2,43.6-64,65.4-84.8c21.8-20.8,43.6-30.4,65.4-39.9"/>
				
					<path id="FIJI" style="clip-path:url(#SVGID_00000154420744767836389480000014285837327112356287_);fill:none;stroke:#C4C4C4;stroke-linecap:round;stroke-linejoin:round;" d="
					M29.5,324.2c21.8-2.5,43.6-5.1,65.4-5.1s43.6,8,65.4,8s43.6-5.5,65.4-9s43.6-5.9,65.4-11.6c21.8-5.6,43.6-22.1,65.4-22.1
					c21.8,0,43.6,18,65.4,22.4c21.8,4.4,43.6,2.8,65.4,6.6s43.6,16.1,65.4,16.1c21.8,0,43.6-2.7,65.4-3.1s43.6-0.6,65.4-0.6
					c21.8,0,43.6,1.3,65.4,2.7"/>
				
					<path id="FINLAND" style="clip-path:url(#SVGID_00000154420744767836389480000014285837327112356287_);fill:none;stroke:#C4C4C4;stroke-linecap:round;stroke-linejoin:round;" d="
					M29.5,216.6c21.8,24.5,43.6,49,65.4,75.3s43.6,59.9,65.4,83s43.6,38.9,65.4,55.9c21.8,17,43.6,36.2,65.4,45.9
					s43.6,14.5,65.4,14.5c21.8,0,43.6-4,65.4-12.1c21.8-8.1,43.6-31.1,65.4-49.3s43.6-39.5,65.4-59.6c21.8-20,43.6-37.7,65.4-60.6
					s43.6-59,65.4-76.8c21.8-17.8,43.6-23.8,65.4-29.8"/>
				
					<path id="FRANCE" style="clip-path:url(#SVGID_00000154420744767836389480000014285837327112356287_);fill:none;stroke:#C4C4C4;stroke-linecap:round;stroke-linejoin:round;" d="
					M29.5,197.6c21.8,13.8,43.6,27.6,65.4,42.4c21.8,14.9,43.6,28.9,65.4,46.8s43.6,42.6,65.4,61.1s43.6,38.2,65.4,50
					c21.8,11.8,43.6,20.8,65.4,20.8c21.8,0,43.6-1.3,65.4-4c21.8-2.7,43.6-21.8,65.4-34.3s43.6-26.9,65.4-40.5
					c21.8-13.6,43.6-29.4,65.4-41.1c21.8-11.7,43.6-18.4,65.4-29.3c21.8-10.9,43.6-23.5,65.4-36.1"/>
				
					<path id="FRANCE__x28_CARIBBEAN_ISLANDS_x2C__GUADELOUPE_x2C__MARTINIQUE_x29_" style="clip-path:url(#SVGID_00000154420744767836389480000014285837327112356287_);fill:none;stroke:#C4C4C4;stroke-linecap:round;stroke-linejoin:round;" d="
					M29.5,339.6c21.8,0.6,43.6,1.2,65.4,3.6s43.6,12.9,65.4,13.7s43.6,0.8,65.4,1.2s43.6,1,65.4,1s43.6-1.5,65.4-3.6
					c21.8-2.1,43.6-7.6,65.4-8.9c21.8-1.4,43.6-2,65.4-2s43.6,0.9,65.4,0.9c21.8,0,43.6-3.8,65.4-3.8s43.6,4.2,65.4,4.5
					c21.8,0.3,43.6,0.4,65.4,0.5"/>
				
					<path id="FRANCE__x28_FRENCH_DEPARTMENT_OF_GUYANA_x29_" style="clip-path:url(#SVGID_00000154420744767836389480000014285837327112356287_);fill:none;stroke:#C4C4C4;stroke-linecap:round;stroke-linejoin:round;" d="
					M29.5,282.6c21.8-8.2,43.6-16.4,65.4-23.6s43.6-19.7,65.4-19.7s43.6,0.1,65.4,0.4c21.8,0.3,43.6,15.4,65.4,30.8
					c21.8,15.5,43.6,45.9,65.4,62c21.8,16.1,43.6,34.7,65.4,34.7c21.8,0,43.6-10.5,65.4-10.5s43.6,1.7,65.4,1.7
					c21.8,0,43.6-11,65.4-11s43.6,15.4,65.4,15.4c21.8,0,43.6-12.4,65.4-24.7"/>
				
					<path id="FRANCE__x28_ISLANDS_IN_THE_INDIAN_OCEAN_x29_" style="clip-path:url(#SVGID_00000154420744767836389480000014285837327112356287_);fill:none;stroke:#C4C4C4;stroke-linecap:round;stroke-linejoin:round;" d="
					M29.5,406.1c21.8-5.6,43.6-11.2,65.4-16.8c21.8-5.6,43.6-10.7,65.4-16.6c21.8-5.8,43.6-11.4,65.4-18.4
					c21.8-6.9,43.6-17.6,65.4-23.2s43.6-8.1,65.4-10.7c21.8-2.6,43.6-4.8,65.4-4.8c21.8,0,43.6,7.6,65.4,15.1s43.6,20.1,65.4,29.4
					c21.8,9.3,43.6,19.2,65.4,26.2c21.8,7.1,43.6,11.2,65.4,16.1c21.8,4.9,43.6,9.2,65.4,13.4"/>
				
					<path id="FRENCH_POLYNESIA" style="clip-path:url(#SVGID_00000154420744767836389480000014285837327112356287_);fill:none;stroke:#C4C4C4;stroke-linecap:round;stroke-linejoin:round;" d="
					M29.5,287.6c21.8-3.7,43.6-7.4,65.4-10c21.8-2.6,43.6-5.6,65.4-5.6s43.6,2.7,65.4,4.4s43.6,3.2,65.4,6.1s43.6,11.6,65.4,11.6
					c21.8,0,43.6-28.4,65.4-29.7c21.8-1.4,43.6-2,65.4-2s43.6,8.7,65.4,9.6c21.8,0.9,43.6,0.4,65.4,1.3s43.6,12.4,65.4,17.4
					c21.8,5,43.6,8.8,65.4,12.6"/>
				
					<path id="GABON" style="clip-path:url(#SVGID_00000154420744767836389480000014285837327112356287_);fill:none;stroke:#C4C4C4;stroke-linecap:round;stroke-linejoin:round;" d="
					M29.5,406.1c21.8,10.8,43.6,21.7,65.4,21.7s43.6-9.1,65.4-15c21.8-5.9,43.6-14,65.4-20.6c21.8-6.5,43.6-14.8,65.4-18.7
					s43.6-3.1,65.4-5.9c21.8-2.8,43.6-5.8,65.4-11c21.8-5.2,43.6-20,65.4-20s43.6,9.7,65.4,9.7c21.8,0,43.6-4.9,65.4-4.9
					s43.6,10.8,65.4,18.8c21.8,8,43.6,18.5,65.4,29.1"/>
				
					<path id="GEORGIA" style="clip-path:url(#SVGID_00000154420744767836389480000014285837327112356287_);fill:none;stroke:#C4C4C4;stroke-linecap:round;stroke-linejoin:round;" d="
					M29.5,259c21.8,1.1,43.6,2.2,65.4,6.5c21.8,4.3,43.6,12.2,65.4,23.1c21.8,10.9,43.6,25,65.4,42.1c21.8,17.1,43.6,46.7,65.4,60.3
					s43.6,21.3,65.4,21.3c21.8,0,43.6-1.8,65.4-5.3c21.8-3.5,43.6-10.8,65.4-18.6c21.8-7.8,43.6-17.2,65.4-28
					c21.8-10.8,43.6-24.2,65.4-36.7s43.6-26.1,65.4-38.5c21.8-12.4,43.6-24.2,65.4-35.9"/>
				
					<path id="GERMANY" style="clip-path:url(#SVGID_00000154420744767836389480000014285837327112356287_);fill:none;stroke:#C4C4C4;stroke-linecap:round;stroke-linejoin:round;" d="
					M29.5,269.7c21.8,4.2,43.6,8.3,65.4,19.6c21.8,11.3,43.6,32.2,65.4,48.3c21.8,16.1,43.6,30.8,65.4,48.4
					c21.8,17.6,43.6,45.8,65.4,57s43.6,16.8,65.4,16.8c21.8,0,43.6-1.9,65.4-5.7c21.8-3.8,43.6-25,65.4-36.8
					c21.8-11.8,43.6-20,65.4-33.8c21.8-13.8,43.6-33.1,65.4-48.9s43.6-39.7,65.4-45.8c21.8-6.1,43.6-7.7,65.4-9.2"/>
				
					<path id="GREECE" style="clip-path:url(#SVGID_00000154420744767836389480000014285837327112356287_);fill:none;stroke:#C4C4C4;stroke-linecap:round;stroke-linejoin:round;" d="
					M29.5,116.6c21.8,9.9,43.6,19.8,65.4,36.6s43.6,39,65.4,64.1s43.6,64.1,65.4,86.6s43.6,35.2,65.4,48.4s43.6,30.7,65.4,30.7
					c21.8,0,43.6-0.6,65.4-1.8c21.8-1.2,43.6-11.5,65.4-19.6s43.6-13.4,65.4-28.9c21.8-15.6,43.6-43.6,65.4-64.6
					c21.8-21,43.6-43.6,65.4-61.2c21.8-17.7,43.6-31.3,65.4-44.9"/>
				
					<path id="GREENLAND" style="clip-path:url(#SVGID_00000154420744767836389480000014285837327112356287_);fill:none;stroke:#C4C4C4;stroke-linecap:round;stroke-linejoin:round;" d="
					M29.5,238.9c21.8,22.2,43.6,44.4,65.4,62.7c21.8,18.3,43.6,25.1,65.4,47.2s43.6,61.6,65.4,85.6s43.6,49.5,65.4,58.8
					c21.8,9.3,43.6,13.9,65.4,13.9c21.8,0,43.6-1,65.4-3c21.8-2,43.6-23.1,65.4-47.4s43.6-69.1,65.4-98.4
					c21.8-29.4,43.6-59.5,65.4-77.8s43.6-24.4,65.4-32.2c21.8-7.8,43.6-11.1,65.4-14.4"/>
				
					<path id="GUINEA" style="clip-path:url(#SVGID_00000154420744767836389480000014285837327112356287_);fill:none;stroke:#C4C4C4;stroke-linecap:round;stroke-linejoin:round;" d="
					M29.5,352.3c21.8,12.6,43.6,25.2,65.4,25.2s43.6-30.1,65.4-43.4c21.8-13.3,43.6-24.2,65.4-36.2s43.6-30.4,65.4-35.5
					s43.6-4.4,65.4-7.6c21.8-3.1,43.6-7.5,65.4-11.3c21.8-3.8,43.6-11.2,65.4-11.2s43.6,12,65.4,16.4c21.8,4.4,43.6,5.1,65.4,10.1
					c21.8,5,43.6,11.5,65.4,19.9c21.8,8.4,43.6,19.5,65.4,30.6"/>
				
					<path id="GUYANA" style="clip-path:url(#SVGID_00000154420744767836389480000014285837327112356287_);fill:none;stroke:#C4C4C4;stroke-linecap:round;stroke-linejoin:round;" d="
					M29.5,288.4c21.8-12.1,43.6-24.2,65.4-26.9s43.6-4,65.4-4s43.6,0.8,65.4,2.3c21.8,1.5,43.6,9.8,65.4,18.4
					c21.8,8.6,43.6,33.2,65.4,33.2c21.8,0,43.6-7.4,65.4-15.2c21.8-7.8,43.6-31.7,65.4-31.7s43.6,7.2,65.4,11.9
					c21.8,4.7,43.6,8.9,65.4,16.1s43.6,19.7,65.4,27.2c21.8,7.5,43.6,12.7,65.4,17.9"/>
				
					<path id="HONDURAS" style="clip-path:url(#SVGID_00000154420744767836389480000014285837327112356287_);fill:none;stroke:#C4C4C4;stroke-linecap:round;stroke-linejoin:round;" d="
					M29.5,276.4c21.8,0,43.6,0,65.4,0.1s43.6,25.6,65.4,25.6s43.6-16.6,65.4-22.7c21.8-6.1,43.6-9.4,65.4-14s43.6-9.2,65.4-13.9
					c21.8-4.7,43.6-8.4,65.4-14.5c21.8-6.1,43.6-20.3,65.4-21.9s43.6-2.4,65.4-2.4c21.8,0,43.6,21.2,65.4,30.7
					c21.8,9.5,43.6,17,65.4,26.4c21.8,9.4,43.6,19.6,65.4,29.8"/>
				
					<path id="HONG_KONG" style="clip-path:url(#SVGID_00000154420744767836389480000014285837327112356287_);fill:none;stroke:#C4C4C4;stroke-linecap:round;stroke-linejoin:round;" d="
					M29.5,256.1c21.8,12.3,43.6,24.7,65.4,33.7c21.8,9,43.6,20.4,65.4,20.4s43.6-7.7,65.4-7.7s43.6,5.5,65.4,7.9s43.6,2.1,65.4,6.4
					c21.8,4.3,43.6,17.9,65.4,30.8c21.8,12.9,43.6,38.5,65.4,46.8c21.8,8.3,43.6,12.5,65.4,12.5c21.8,0,43.6-6.9,65.4-17.1
					c21.8-10.1,43.6-34.8,65.4-43.7c21.8-8.9,43.6-11.2,65.4-13.4"/>
				
					<path id="HUNGARY" style="clip-path:url(#SVGID_00000154420744767836389480000014285837327112356287_);fill:none;stroke:#C4C4C4;stroke-linecap:round;stroke-linejoin:round;" d="
					M29.5,207.9c21.8,9,43.6,18.1,65.4,32.6s43.6,37.6,65.4,54.9c21.8,17.3,43.6,26.1,65.4,49s43.6,71.3,65.4,88
					s43.6,25.1,65.4,25.1c21.8,0,43.6-2.8,65.4-8.5c21.8-5.6,43.6-23.2,65.4-37.7s43.6-32.1,65.4-49c21.8-16.9,43.6-35.9,65.4-52.4
					s43.6-35.1,65.4-46.6c21.8-11.5,43.6-16.9,65.4-22.3"/>
				
					<path id="ICELAND" style="clip-path:url(#SVGID_00000154420744767836389480000014285837327112356287_);fill:none;stroke:#C4C4C4;stroke-linecap:round;stroke-linejoin:round;" d="
					M29.5,328.7c21.8,7.8,43.6,15.6,65.4,26.5c21.8,10.9,43.6,25.1,65.4,38.9c21.8,13.7,43.6,29.1,65.4,43.5
					c21.8,14.3,43.6,31.6,65.4,42.5c21.8,10.8,43.6,22.5,65.4,22.5c21.8,0,43.6-3.9,65.4-11.4c21.8-7.5,43.6-20.1,65.4-33.7
					s43.6-32,65.4-48c21.8-16,43.6-32.3,65.4-48c21.8-15.7,43.6-46.1,65.4-46.1c21.8,0,43.6,4.4,65.4,8.9"/>
				
					<path id="INDIA" style="clip-path:url(#SVGID_00000154420744767836389480000014285837327112356287_);fill:none;stroke:#C4C4C4;stroke-linecap:round;stroke-linejoin:round;" d="
					M29.5,365c21.8-0.5,43.6-1,65.4-3c21.8-2,43.6-28.9,65.4-44.7c21.8-15.8,43.6-43,65.4-49.9s43.6-7.4,65.4-10.3
					c21.8-2.8,43.6-3.1,65.4-6.7c21.8-3.6,43.6-9,65.4-14.8c21.8-5.8,43.6-20,65.4-20s43.6,14,65.4,14c21.8,0,43.6-11,65.4-11
					s43.6,4,65.4,11.9c21.8,7.9,43.6,50.8,65.4,93.7"/>
				
					<path id="IRAN_x2C__ISLAMIC_REPUBLIC_OF" style="clip-path:url(#SVGID_00000154420744767836389480000014285837327112356287_);fill:none;stroke:#C4C4C4;stroke-linecap:round;stroke-linejoin:round;" d="
					M29.5,167.5c21.8,8.3,43.6,16.6,65.4,23.3s43.6,6.9,65.4,16.9c21.8,10.1,43.6,29.4,65.4,43.4c21.8,14,43.6,27.5,65.4,40.6
					c21.8,13.1,43.6,36.3,65.4,37.8c21.8,1.5,43.6,2.2,65.4,2.2c21.8,0,43.6-19.1,65.4-21.4c21.8-2.3,43.6-1.1,65.4-3.4
					c21.8-2.3,43.6-15.8,65.4-30.3s43.6-38.4,65.4-56.8c21.8-18.4,43.6-36.1,65.4-53.7"/>
				
					<path id="ISRAEL" style="clip-path:url(#SVGID_00000154420744767836389480000014285837327112356287_);fill:none;stroke:#C4C4C4;stroke-linecap:round;stroke-linejoin:round;" d="
					M29.5,229.9c21.8,5.6,43.6,11.2,65.4,20.1c21.8,8.9,43.6,23.2,65.4,33.2s43.6,17.7,65.4,26.7c21.8,9.1,43.6,17.3,65.4,27.7
					s43.6,34.6,65.4,34.6c21.8,0,43.6-0.5,65.4-1.4c21.8-0.9,43.6-37.5,65.4-37.5s43.6,9.9,65.4,9.9c21.8,0,43.6-21.4,65.4-33.3
					s43.6-25.4,65.4-37.8c21.8-12.4,43.6-24.6,65.4-36.7"/>
				
					<path id="ITALY" style="clip-path:url(#SVGID_00000154420744767836389480000014285837327112356287_);fill:none;stroke:#C4C4C4;stroke-linecap:round;stroke-linejoin:round;" d="
					M29.5,179.1c21.8,10.9,43.6,21.9,65.4,37.5s43.6,38.2,65.4,56.3s43.6,35.3,65.4,52.5c21.8,17.2,43.6,38.7,65.4,50.7
					c21.8,12,43.6,21.4,65.4,21.4c21.8,0,43.6-3.8,65.4-9.4c21.8-5.6,43.6-16.1,65.4-24.2c21.8-8.1,43.6-14.4,65.4-24.3
					c21.8-9.9,43.6-22.3,65.4-35.2c21.8-13,43.6-29.7,65.4-42.7c21.8-12.9,43.6-23.9,65.4-35"/>
				
					<path id="IVORY_COAST" style="clip-path:url(#SVGID_00000154420744767836389480000014285837327112356287_);fill:none;stroke:#C4C4C4;stroke-linecap:round;stroke-linejoin:round;" d="
					M29.5,377.6c21.8,8.7,43.6,17.3,65.4,17.3s43.6-13.2,65.4-28.1c21.8-14.9,43.6-46.7,65.4-61.3c21.8-14.6,43.6-26.5,65.4-26.5
					s43.6,19,65.4,19c21.8,0,43.6-12.8,65.4-16.6c21.8-3.8,43.6-6.2,65.4-6.2s43.6,15.3,65.4,15.3c21.8,0,43.6-8.8,65.4-8.8
					s43.6,4.6,65.4,13.9c21.8,9.3,43.6,35.2,65.4,61.2"/>
				
					<path id="JAPAN" style="clip-path:url(#SVGID_00000154420744767836389480000014285837327112356287_);fill:none;stroke:#C4C4C4;stroke-linecap:round;stroke-linejoin:round;" d="
					M29.5,321.2c21.8-8.2,43.6-16.5,65.4-16.5s43.6,38,65.4,38.8s43.6,0.4,65.4,1.2s43.6,19.4,65.4,25.5
					c21.8,6.1,43.6,10.9,65.4,10.9c21.8,0,43.6-0.2,65.4-0.7c21.8-0.4,43.6-6.7,65.4-13.3s43.6-19.1,65.4-26.5
					c21.8-7.4,43.6-12.6,65.4-18s43.6-14.3,65.4-14.3c21.8,0,43.6,17.3,65.4,34.6"/>
				
					<path id="JORDAN" style="clip-path:url(#SVGID_00000154420744767836389480000014285837327112356287_);fill:none;stroke:#C4C4C4;stroke-linecap:round;stroke-linejoin:round;" d="
					M29.5,90.9c21.8,10.4,43.6,20.8,65.4,34s43.6,29.8,65.4,45.1s43.6,31.5,65.4,46.8s43.6,29.7,65.4,45.1s43.6,47.6,65.4,47.6
					c21.8,0,43.6,0,65.4,0c21.8,0,43.6-16.1,65.4-23.8c21.8-7.7,43.6-12.5,65.4-22.2c21.8-9.7,43.6-19.3,65.4-36.1
					s43.6-44.9,65.4-64.8c21.8-20,43.6-37.5,65.4-55"/>
				
					<path id="KAZAKSTAN__x28_ASIA_x29_" style="clip-path:url(#SVGID_00000154420744767836389480000014285837327112356287_);fill:none;stroke:#C4C4C4;stroke-linecap:round;stroke-linejoin:round;" d="
					M29.5,136.1c21.8,11.9,43.6,23.7,65.4,40s43.6,32.7,65.4,57.7s43.6,66.7,65.4,92.2c21.8,25.5,43.6,46.9,65.4,61.1
					s43.6,23.9,65.4,23.9c21.8,0,43.6-6.4,65.4-18.1c21.8-11.7,43.6-38.2,65.4-52.1c21.8-13.9,43.6-15.5,65.4-31.5
					c21.8-16,43.6-43.8,65.4-64.3s43.6-42.6,65.4-58.5c21.8-15.9,43.6-26.5,65.4-37.1"/>
				
					<path id="KAZAKSTAN__x28_EUROPE_x29_" style="clip-path:url(#SVGID_00000154420744767836389480000014285837327112356287_);fill:none;stroke:#C4C4C4;stroke-linecap:round;stroke-linejoin:round;" d="
					M29.5,160c21.8,17.6,43.6,35.2,65.4,53.6s43.6,33.4,65.4,56.9c21.8,23.5,43.6,56.8,65.4,83.9c21.8,27.2,43.6,60.6,65.4,79.1
					s43.6,32.1,65.4,32.1c21.8,0,43.6-6.4,65.4-19.1c21.8-12.7,43.6-42.7,65.4-58.3s43.6-17.1,65.4-34.9
					c21.8-17.8,43.6-43.3,65.4-71.9s43.6-98.2,65.4-99.6c21.8-1.4,43.6-1.8,65.4-2.2"/>
				
					<path id="KENYA" style="clip-path:url(#SVGID_00000154420744767836389480000014285837327112356287_);fill:none;stroke:#C4C4C4;stroke-linecap:round;stroke-linejoin:round;" d="
					M29.5,269.5c21.8-0.2,43.6-0.5,65.4-1.5s43.6-18.3,65.4-24.3S204,232,225.8,232s43.6,12.5,65.4,12.5s43.6-11.7,65.4-16.4
					c21.8-4.7,43.6-11.8,65.4-11.8c21.8,0,43.6,0.2,65.4,0.7c21.8,0.4,43.6,7.2,65.4,13.8c21.8,6.6,43.6,25.6,65.4,25.6
					s43.6-0.7,65.4-0.7c21.8,0,43.6,2.6,65.4,5.3"/>
				
					<path id="KOREA_x2C__REPUBLIC_OF" style="clip-path:url(#SVGID_00000154420744767836389480000014285837327112356287_);fill:none;stroke:#C4C4C4;stroke-linecap:round;stroke-linejoin:round;" d="
					M29.5,336.2c21.8-12.9,43.6-25.7,65.4-25.7s43.6,8.3,65.4,8.3S204,301,225.8,301s43.6,27.6,65.4,33.9s43.6,9.4,65.4,9.4
					c21.8,0,43.6-1.1,65.4-3.4c21.8-2.2,43.6-8,65.4-15s43.6-20.2,65.4-26.8c21.8-6.6,43.6-7.4,65.4-13
					c21.8-5.6,43.6-20.5,65.4-20.5c21.8,0,43.6,18.6,65.4,37.3"/>
				
					<path id="KUWAIT" style="clip-path:url(#SVGID_00000154420744767836389480000014285837327112356287_);fill:none;stroke:#C4C4C4;stroke-linecap:round;stroke-linejoin:round;" d="
					M29.5,173c21.8,6.3,43.6,12.7,65.4,16.7s43.6,2.5,65.4,7.4c21.8,4.9,43.6,32.4,65.4,44.9s43.6,19.8,65.4,30.2
					c21.8,10.4,43.6,32,65.4,32c21.8,0,43.6-1.6,65.4-4.9c21.8-3.2,43.6-51.1,65.4-51.1s43.6,30.4,65.4,30.4
					c21.8,0,43.6-10.8,65.4-20.5c21.8-9.7,43.6-23.9,65.4-37.7c21.8-13.7,43.6-29.2,65.4-44.6"/>
				
					<path id="KYRGYZ_REPUBLIC" style="clip-path:url(#SVGID_00000154420744767836389480000014285837327112356287_);fill:none;stroke:#C4C4C4;stroke-linecap:round;stroke-linejoin:round;" d="
					M29.5,152.3c21.8,5.6,43.6,11.2,65.4,21.6s43.6,21.5,65.4,40.8s43.6,53.4,65.4,75.1s43.6,39.4,65.4,55.1s43.6,39.2,65.4,39.2
					c21.8,0,43.6-13.2,65.4-19.1c21.8-5.8,43.6-10.8,65.4-16c21.8-5.2,43.6-5.1,65.4-15.2c21.8-10.1,43.6-30.2,65.4-45.8
					s43.6-29.7,65.4-47.4c21.8-17.7,43.6-38.2,65.4-58.7"/>
				
					<path id="LAO_PEOPLE_x27_S_DEMOCRATIC_REPUBLIC" style="clip-path:url(#SVGID_00000154420744767836389480000014285837327112356287_);fill:none;stroke:#C4C4C4;stroke-linecap:round;stroke-linejoin:round;" d="
					M29.5,355.9c21.8,5.3,43.6,10.6,65.4,10.6s43.6-17.9,65.4-31.5c21.8-13.6,43.6-44.4,65.4-50.3s43.6-5.7,65.4-8.9
					c21.8-3.2,43.6-6.6,65.4-10.3c21.8-3.7,43.6-8.8,65.4-11.6c21.8-2.9,43.6-5.5,65.4-5.5s43.6,10,65.4,13.7
					c21.8,3.7,43.6,3.7,65.4,8.3c21.8,4.5,43.6,6.3,65.4,19c21.8,12.7,43.6,38.9,65.4,65.2"/>
				
					<path id="LATVIA" style="clip-path:url(#SVGID_00000154420744767836389480000014285837327112356287_);fill:none;stroke:#C4C4C4;stroke-linecap:round;stroke-linejoin:round;" d="
					M29.5,224.2c21.8,11.6,43.6,23.3,65.4,42.8s43.6,50.3,65.4,74.3c21.8,24,43.6,48.4,65.4,69.7c21.8,21.3,43.6,48.6,65.4,58.3
					c21.8,9.7,43.6,14.5,65.4,14.5c21.8,0,43.6-3,65.4-9c21.8-6,43.6-22,65.4-38.2s43.6-39,65.4-59.2c21.8-20.2,43.6-38.4,65.4-61.8
					s43.6-60.9,65.4-78.7c21.8-17.9,43.6-23.2,65.4-28.5"/>
				
					<path id="LITHUANIA" style="clip-path:url(#SVGID_00000154420744767836389480000014285837327112356287_);fill:none;stroke:#C4C4C4;stroke-linecap:round;stroke-linejoin:round;" d="
					M29.5,232.7c21.8,4.1,43.6,8.3,65.4,24.8c21.8,16.5,43.6,53.8,65.4,78.3c21.8,24.6,43.6,47.4,65.4,69.1s43.6,52.5,65.4,61.4
					s43.6,13.3,65.4,13.3c21.8,0,43.6-3.2,65.4-9.5c21.8-6.4,43.6-24.7,65.4-39.9s43.6-32.9,65.4-51.4
					c21.8-18.5,43.6-36.6,65.4-59.9c21.8-23.3,43.6-66.5,65.4-79.6c21.8-13.1,43.6-16.4,65.4-19.7"/>
				
					<path id="LUXEMBOURG" style="clip-path:url(#SVGID_00000154420744767836389480000014285837327112356287_);fill:none;stroke:#C4C4C4;stroke-linecap:round;stroke-linejoin:round;" d="
					M29.5,254.2c21.8,10.4,43.6,20.7,65.4,34.3c21.8,13.5,43.6,29.5,65.4,47s43.6,39.4,65.4,58.2c21.8,18.8,43.6,44.3,65.4,54.6
					s43.6,15.4,65.4,15.4c21.8,0,43.6-0.4,65.4-1.2c21.8-0.8,43.6-35.7,65.4-48.7c21.8-13,43.6-15.3,65.4-29.3
					c21.8-14.1,43.6-39.4,65.4-55s43.6-31.5,65.4-39c21.8-7.5,43.6-9.4,65.4-11.2"/>
				
					<path id="MADAGASCAR" style="clip-path:url(#SVGID_00000154420744767836389480000014285837327112356287_);fill:none;stroke:#C4C4C4;stroke-linecap:round;stroke-linejoin:round;" d="
					M29.5,249c21.8-3.2,43.6-6.4,65.4-10.7c21.8-4.3,43.6-11.5,65.4-15.1c21.8-3.5,43.6-6,65.4-6s43.6,2.9,65.4,8.6
					c21.8,5.7,43.6,27,65.4,33.8c21.8,6.9,43.6,9,65.4,10.3c21.8,1.3,43.6,2,65.4,2s43.6-1.5,65.4-4.4c21.8-2.9,43.6-17.2,65.4-20.3
					s43.6-4.7,65.4-4.7c21.8,0,43.6,6.7,65.4,13.4"/>
				
					<path id="MALAWI" style="clip-path:url(#SVGID_00000154420744767836389480000014285837327112356287_);fill:none;stroke:#C4C4C4;stroke-linecap:round;stroke-linejoin:round;" d="
					M29.5,236.1c21.8-7.9,43.6-15.7,65.4-22.3s43.6-17.1,65.4-17.1s43.6,0.8,65.4,2.4c21.8,1.6,43.6,23.2,65.4,41.4
					s43.6,57.6,65.4,67.8c21.8,10.2,43.6,15.3,65.4,15.3c21.8,0,43.6-2,65.4-5.9c21.8-3.9,43.6-12.3,65.4-20.6
					c21.8-8.2,43.6-19.7,65.4-28.9c21.8-9.2,43.6-26.5,65.4-26.5c21.8,0,43.6,0.1,65.4,0.2"/>
				
					<path id="MALAYSIA" style="clip-path:url(#SVGID_00000154420744767836389480000014285837327112356287_);fill:none;stroke:#C4C4C4;stroke-linecap:round;stroke-linejoin:round;" d="
					M29.5,265.2c21.8,12.5,43.6,24.9,65.4,33.3s43.6,14.4,65.4,17.2c21.8,2.8,43.6,2.2,65.4,4.1c21.8,1.9,43.6,5.2,65.4,7.5
					s43.6,6.3,65.4,6.3c21.8,0,43.6-5.6,65.4-12.4c21.8-6.7,43.6-22.3,65.4-28.1c21.8-5.8,43.6-4.9,65.4-8.7
					c21.8-3.7,43.6-13.8,65.4-13.8s43.6,3.2,65.4,6.7c21.8,3.5,43.6,8.8,65.4,14.1"/>
				
					<path id="MALDIVES" style="clip-path:url(#SVGID_00000154420744767836389480000014285837327112356287_);fill:none;stroke:#C4C4C4;stroke-linecap:round;stroke-linejoin:round;" d="
					M29.5,261.1c21.8,10.4,43.6,20.9,65.4,24c21.8,3.1,43.6,4.7,65.4,4.7s43.6-29.4,65.4-29.4s43.6,0.4,65.4,1.2
					s43.6,13.7,65.4,13.7c21.8,0,43.6-17.9,65.4-29.3c21.8-11.4,43.6-39.2,65.4-39.2s43.6,2.1,65.4,6.2c21.8,4.1,43.6,16.1,65.4,26
					s43.6,25.6,65.4,33.7c21.8,8.1,43.6,11.6,65.4,15"/>
				
					<path id="MALI" style="clip-path:url(#SVGID_00000154420744767836389480000014285837327112356287_);fill:none;stroke:#C4C4C4;stroke-linecap:round;stroke-linejoin:round;" d="
					M29.5,260.4c21.8,5.9,43.6,11.8,65.4,11.8s43.6-8.3,65.4-15.6c21.8-7.3,43.6-21.4,65.4-27.9c21.8-6.5,43.6-11,65.4-11
					s43.6,14.5,65.4,14.5c21.8,0,43.6-2,65.4-5.3c21.8-3.3,43.6-14.8,65.4-14.8s43.6,13,65.4,16.3c21.8,3.2,43.6,4.9,65.4,4.9
					s43.6-4.1,65.4-4.1c21.8,0,43.6,14.3,65.4,28.7"/>
				
					<path id="MAURITIUS" style="clip-path:url(#SVGID_00000154420744767836389480000014285837327112356287_);fill:none;stroke:#C4C4C4;stroke-linecap:round;stroke-linejoin:round;" d="
					M29.5,283.6c21.8-0.6,43.6-1.1,65.4-3.3s43.6-3.5,65.4-10.4c21.8-6.9,43.6-23.8,65.4-30.9c21.8-7.1,43.6-11.7,65.4-11.7
					s43.6,5.9,65.4,5.9c21.8,0,43.6-2.1,65.4-2.1c21.8,0,43.6,7.9,65.4,12.4c21.8,4.5,43.6,9.4,65.4,14.6
					c21.8,5.1,43.6,13,65.4,16.3c21.8,3.3,43.6,2.4,65.4,4.9c21.8,2.6,43.6,6.5,65.4,10.4"/>
				
					<path id="MEXICO" style="clip-path:url(#SVGID_00000154420744767836389480000014285837327112356287_);fill:none;stroke:#C4C4C4;stroke-linecap:round;stroke-linejoin:round;" d="
					M29.5,287.2c21.8-1.2,43.6-2.5,65.4-2.5s43.6,21.6,65.4,21.6S204,288,225.8,283c21.8-5,43.6-7.5,65.4-7.5s43.6,31.8,65.4,31.8
					c21.8,0,43.6-4.5,65.4-10.5c21.8-6,43.6-19.8,65.4-25.7s43.6-6.9,65.4-9.5c21.8-2.5,43.6-5.6,65.4-5.6s43.6,0.2,65.4,0.7
					c21.8,0.4,43.6,11.4,65.4,22.3"/>
				
					<path id="MOLDOVA_x2C__REPUBLIC_OF" style="clip-path:url(#SVGID_00000154420744767836389480000014285837327112356287_);fill:none;stroke:#C4C4C4;stroke-linecap:round;stroke-linejoin:round;" d="
					M29.5,181.8c21.8,2.5,43.6,4.9,65.4,14.8c21.8,9.9,43.6,42.9,65.4,65.1c21.8,22.2,43.6,40.8,65.4,68.3s43.6,83.1,65.4,96.9
					s43.6,20.6,65.4,20.6c21.8,0,43.6-12.6,65.4-18c21.8-5.4,43.6-5.5,65.4-14.4c21.8-8.8,43.6-20.1,65.4-38.6
					c21.8-18.5,43.6-49.5,65.4-72.3s43.6-46.8,65.4-64.3c21.8-17.5,43.6-29.1,65.4-40.7"/>
				
					<path id="MONGOLIA" style="clip-path:url(#SVGID_00000154420744767836389480000014285837327112356287_);fill:none;stroke:#C4C4C4;stroke-linecap:round;stroke-linejoin:round;" d="
					M29.5,194.2c21.8,5.7,43.6,11.4,65.4,16.5c21.8,5.1,43.6,6.7,65.4,14.1c21.8,7.4,43.6,16.2,65.4,30.2
					c21.8,14,43.6,40.7,65.4,53.7c21.8,13,43.6,24.5,65.4,24.5c21.8,0,43.6-14.3,65.4-24.9c21.8-10.6,43.6-26.4,65.4-38.8
					c21.8-12.3,43.6-27,65.4-35.3c21.8-8.2,43.6-6.6,65.4-14.2s43.6-27.9,65.4-31.3c21.8-3.3,43.6-4.2,65.4-5"/>
				
					<path id="MOROCCO" style="clip-path:url(#SVGID_00000154420744767836389480000014285837327112356287_);fill:none;stroke:#C4C4C4;stroke-linecap:round;stroke-linejoin:round;" d="
					M29.5,155c21.8,9.5,43.6,19.1,65.4,30.4c21.8,11.4,43.6,26.2,65.4,37.7s43.6,20.1,65.4,31.6s43.6,30.7,65.4,37.7
					c21.8,7,43.6,10.5,65.4,10.5c21.8,0,43.6-1.6,65.4-4.8c21.8-3.2,43.6-10.6,65.4-18.6c21.8-8,43.6-20.5,65.4-29.4
					c21.8-9,43.6-15.5,65.4-24.3s43.6-20.6,65.4-28.4c21.8-7.8,43.6-13.1,65.4-18.5"/>
				
					<path id="NETHERLANDS" style="clip-path:url(#SVGID_00000154420744767836389480000014285837327112356287_);fill:none;stroke:#C4C4C4;stroke-linecap:round;stroke-linejoin:round;" d="
					M29.5,299.9c21.8,1.8,43.6,3.6,65.4,10.9c21.8,7.3,43.6,33.9,65.4,49c21.8,15.1,43.6,26.9,65.4,41.7
					c21.8,14.8,43.6,36,65.4,47.1c21.8,11.1,43.6,19.4,65.4,19.4c21.8,0,43.6-1.9,65.4-5.8c21.8-3.9,43.6-25.8,65.4-36.9
					s43.6-15.6,65.4-29.6c21.8-14,43.6-38,65.4-54.5c21.8-16.5,43.6-43.5,65.4-44.8c21.8-1.3,43.6-1.6,65.4-1.9"/>
				
					<path id="NETHERLANDS_ANTILLES_AND_ARUBA" style="clip-path:url(#SVGID_00000154420744767836389480000014285837327112356287_);fill:none;stroke:#C4C4C4;stroke-linecap:round;stroke-linejoin:round;" d="
					M29.5,214.7c21.8,0.4,43.6,0.9,65.4,2.6s43.6,20.2,65.4,26.4s43.6,8.2,65.4,10.7c21.8,2.5,43.6,4.1,65.4,4.1s43.6-0.8,65.4-2.5
					c21.8-1.7,43.6-13.6,65.4-18c21.8-4.4,43.6-6.8,65.4-8.5s43.6-2.6,65.4-2.6c21.8,0,43.6,4.6,65.4,8.1
					c21.8,3.5,43.6,13.1,65.4,13.1c21.8,0,43.6-5.4,65.4-10.9"/>
				
					<path id="NEW_CALEDONIA" style="clip-path:url(#SVGID_00000154420744767836389480000014285837327112356287_);fill:none;stroke:#C4C4C4;stroke-linecap:round;stroke-linejoin:round;" d="
					M29.5,304.2c21.8-5.5,43.6-11,65.4-16.7s43.6-11.7,65.4-17.5c21.8-5.8,43.6-16.7,65.4-17.3s43.6-0.8,65.4-0.8s43.6,0.4,65.4,1.3
					c21.8,0.9,43.6,21.7,65.4,24.4c21.8,2.7,43.6,1.4,65.4,4.1s43.6,18.9,65.4,18.9c21.8,0,43.6-10.2,65.4-10.2s43.6,21.9,65.4,28.5
					c21.8,6.6,43.6,8.8,65.4,11"/>
				
					<path id="NICARAGUA" style="clip-path:url(#SVGID_00000154420744767836389480000014285837327112356287_);fill:none;stroke:#C4C4C4;stroke-linecap:round;stroke-linejoin:round;" d="
					M29.5,328.1c21.8-5.9,43.6-11.8,65.4-11.8s43.6,8.5,65.4,8.5s43.6-13.4,65.4-19.2c21.8-5.8,43.6-10.8,65.4-15.6
					c21.8-4.9,43.6-8.8,65.4-13.5c21.8-4.7,43.6-8.9,65.4-14.8c21.8-5.9,43.6-18.1,65.4-20.4s43.6-3.4,65.4-3.4
					c21.8,0,43.6,12.2,65.4,21.9c21.8,9.7,43.6,22.5,65.4,36.1c21.8,13.6,43.6,29.6,65.4,45.6"/>
				
					<path id="NIGER" style="clip-path:url(#SVGID_00000154420744767836389480000014285837327112356287_);fill:none;stroke:#C4C4C4;stroke-linecap:round;stroke-linejoin:round;" d="
					M29.5,359.6c21.8,6.3,43.6,12.6,65.4,12.6s43.6-6.9,65.4-10.6s43.6-8.8,65.4-11.4s43.6-4.6,65.4-4.6s43.6,6.9,65.4,7
					c21.8,0.1,43.6,0.1,65.4,0.1c21.8,0,43.6-4.8,65.4-4.8s43.6,10.6,65.4,10.6c21.8,0,43.6-0.1,65.4-0.2s43.6-8.2,65.4-8.2
					c21.8,0,43.6,1.4,65.4,2.8"/>
				
					<path id="NIGERIA" style="clip-path:url(#SVGID_00000154420744767836389480000014285837327112356287_);fill:none;stroke:#C4C4C4;stroke-linecap:round;stroke-linejoin:round;" d="
					M29.5,340.1c21.8,6.5,43.6,13,65.4,13s43.6-11.5,65.4-23.3c21.8-11.8,43.6-34.1,65.4-47.6s43.6-33.5,65.4-33.5
					s43.6,2.6,65.4,7.2c21.8,4.7,43.6,20.7,65.4,20.7c21.8,0,43.6-10.2,65.4-10.2s43.6,21.7,65.4,21.7c21.8,0,43.6-0.1,65.4-0.3
					s43.6-5.3,65.4-5.3c21.8,0,43.6,11.2,65.4,22.3"/>
				
					<path id="NORWAY" style="clip-path:url(#SVGID_00000154420744767836389480000014285837327112356287_);fill:none;stroke:#C4C4C4;stroke-linecap:round;stroke-linejoin:round;" d="
					M29.5,318.8c21.8,6.8,43.6,13.5,65.4,28.4c21.8,14.8,43.6,43,65.4,60.7s43.6,32,65.4,45.2s43.6,26.4,65.4,34
					c21.8,7.7,43.6,11.9,65.4,11.9c21.8,0,43.6-1.7,65.4-5.1c21.8-3.4,43.6-19.7,65.4-34.9c21.8-15.2,43.6-37.6,65.4-56.6
					c21.8-19,43.6-41.3,65.4-57.4c21.8-16.1,43.6-30.4,65.4-39c21.8-8.6,43.6-10.7,65.4-12.9"/>
				
					<path id="OMAN" style="clip-path:url(#SVGID_00000154420744767836389480000014285837327112356287_);fill:none;stroke:#C4C4C4;stroke-linecap:round;stroke-linejoin:round;" d="
					M29.5,278.9c21.8,3.3,43.6,6.5,65.4,6.5s43.6-46.9,65.4-64.1s43.6-39,65.4-39s43.6,5.8,65.4,11.1c21.8,5.4,43.6,21.1,65.4,21.1
					c21.8,0,43.6-0.6,65.4-0.6c21.8,0,43.6,5.2,65.4,5.2s43.6-0.8,65.4-2.3c21.8-1.5,43.6-21.8,65.4-32.7
					c21.8-10.9,43.6-32.8,65.4-32.8c21.8,0,43.6,27.8,65.4,55.6"/>
				
					<path id="PAKISTAN" style="clip-path:url(#SVGID_00000154420744767836389480000014285837327112356287_);fill:none;stroke:#C4C4C4;stroke-linecap:round;stroke-linejoin:round;" d="
					M29.5,225.1c21.8,3.1,43.6,6.2,65.4,6.2s43.6-11.9,65.4-15.3s43.6-5.1,65.4-5.1s43.6,7.4,65.4,18s43.6,44.3,65.4,45.4
					c21.8,1.1,43.6,1.7,65.4,1.7c21.8,0,43.6-9.6,65.4-11s43.6-0.7,65.4-2c21.8-1.4,43.6-23.1,65.4-34.9s43.6-35.6,65.4-35.6
					c21.8,0,43.6,3.2,65.4,6.4"/>
				
					<path id="POLAND" style="clip-path:url(#SVGID_00000154420744767836389480000014285837327112356287_);fill:none;stroke:#C4C4C4;stroke-linecap:round;stroke-linejoin:round;" d="
					M29.5,284c21.8,2.7,43.6,5.4,65.4,16.2s43.6,43,65.4,59.3c21.8,16.3,43.6,22.5,65.4,38.7s43.6,51.2,65.4,58.8
					c21.8,7.5,43.6,11.3,65.4,11.3c21.8,0,43.6-4,65.4-10.3c21.8-6.3,43.6-16.9,65.4-27.4s43.6-22,65.4-35.7
					c21.8-13.7,43.6-29.5,65.4-46.5c21.8-17,43.6-50.1,65.4-55.3c21.8-5.2,43.6-6.5,65.4-7.8"/>
				
					<path id="PORTUGAL" style="clip-path:url(#SVGID_00000154420744767836389480000014285837327112356287_);fill:none;stroke:#C4C4C4;stroke-linecap:round;stroke-linejoin:round;" d="
					M29.5,162.1c21.8,3.7,43.6,7.3,65.4,22s43.6,53.6,65.4,75.4s43.6,39.3,65.4,55.4s43.6,30.9,65.4,41.1s43.6,20.5,65.4,20.5
					c21.8,0,43.6-0.9,65.4-2.8c21.8-1.9,43.6-9.5,65.4-18.7c21.8-9.2,43.6-25.5,65.4-36.3c21.8-10.8,43.6-15.4,65.4-28.2
					c21.8-12.9,43.6-37.1,65.4-48.9c21.8-11.8,43.6-17,65.4-22.1"/>
				
					<path id="PORTUGAL__x28_MADEIRA_x29_" style="clip-path:url(#SVGID_00000154420744767836389480000014285837327112356287_);fill:none;stroke:#C4C4C4;stroke-linecap:round;stroke-linejoin:round;" d="
					M29.5,259.5c21.8-2.3,43.6-4.7,65.4-4.7s43.6,25.4,65.4,35.3s43.6,15.8,65.4,24c21.8,8.2,43.6,17.5,65.4,25.2
					c21.8,7.8,43.6,21.4,65.4,21.4c21.8,0,43.6-0.4,65.4-1.1c21.8-0.7,43.6-19.5,65.4-26.5s43.6-11.9,65.4-15.8
					c21.8-3.9,43.6-3.8,65.4-7.5s43.6-14.8,65.4-14.8c21.8,0,43.6,18.3,65.4,36.6"/>
				
					<path id="QATAR" style="clip-path:url(#SVGID_00000154420744767836389480000014285837327112356287_);fill:none;stroke:#C4C4C4;stroke-linecap:round;stroke-linejoin:round;" d="
					M29.5,152.8c21.8,2.3,43.6,4.7,65.4,8.2s43.6,8.8,65.4,13.1c21.8,4.4,43.6,7.7,65.4,13.1c21.8,5.5,43.6,8.8,65.4,19.7
					s43.6,46,65.4,46c21.8,0,43.6-2.2,65.4-3.3c21.8-1.1,43.6-3.3,65.4-3.3s43.6,6.6,65.4,6.6c21.8,0,43.6-27.9,65.4-42.7
					c21.8-14.8,43.6-33.4,65.4-46c21.8-12.6,43.6-21.1,65.4-29.5"/>
				
					<path id="ROMANIA" style="clip-path:url(#SVGID_00000154420744767836389480000014285837327112356287_);fill:none;stroke:#C4C4C4;stroke-linecap:round;stroke-linejoin:round;" d="
					M29.5,206.5c21.8,3.7,43.6,7.4,65.4,19.4c21.8,12,43.6,35.8,65.4,52.8s43.6,26.9,65.4,49.3s43.6,67.8,65.4,85.5
					c21.8,17.8,43.6,26.7,65.4,26.7c21.8,0,43.6-5.5,65.4-11.4c21.8-5.9,43.6-12.6,65.4-23.9s43.6-29.9,65.4-44
					c21.8-14.1,43.6-24.6,65.4-40.8s43.6-42.8,65.4-56.5c21.8-13.7,43.6-19.6,65.4-25.6"/>
				
					<path id="RUSSIAN_FEDERATION__x28_ASIA_x29_" style="clip-path:url(#SVGID_00000154420744767836389480000014285837327112356287_);fill:none;stroke:#C4C4C4;stroke-linecap:round;stroke-linejoin:round;" d="
					M29.5,223.1c21.8,22.4,43.6,44.7,65.4,64.3s43.6,36.2,65.4,53.1c21.8,17,43.6,33.8,65.4,48.6c21.8,14.8,43.6,29,65.4,40.1
					c21.8,11.1,43.6,26.4,65.4,26.4c21.8,0,43.6-5.4,65.4-16.2c21.8-10.8,43.6-38.1,65.4-58.7c21.8-20.6,43.6-45.5,65.4-64.7
					c21.8-19.2,43.6-39.7,65.4-50.5c21.8-10.8,43.6-9.2,65.4-16.2c21.8-7,43.6-16.5,65.4-26"/>
				
					<path id="RUSSIAN_FEDERATION__x28_EUROPE_x29_" style="clip-path:url(#SVGID_00000154420744767836389480000014285837327112356287_);fill:none;stroke:#C4C4C4;stroke-linecap:round;stroke-linejoin:round;" d="
					M29.5,195.7c21.8,17.6,43.6,35.2,65.4,56.8s43.6,49,65.4,72.9c21.8,23.9,43.6,48.9,65.4,70.7s43.6,48.3,65.4,60
					c21.8,11.7,43.6,17.6,65.4,17.6c21.8,0,43.6-8.1,65.4-17c21.8-8.9,43.6-22.6,65.4-36.6s43.6-28.2,65.4-47.1
					c21.8-18.9,43.6-43.3,65.4-66.1s43.6-53.4,65.4-70.8c21.8-17.4,43.6-25.6,65.4-33.7"/>
				
					<path id="SENEGAL" style="clip-path:url(#SVGID_00000154420744767836389480000014285837327112356287_);fill:none;stroke:#C4C4C4;stroke-linecap:round;stroke-linejoin:round;" d="
					M29.5,258.4c21.8,10.4,43.6,20.9,65.4,20.9s43.6-6.6,65.4-13.1c21.8-6.6,43.6-20.4,65.4-26.3c21.8-5.9,43.6-9.1,65.4-9.1
					s43.6,29.5,65.4,29.5c21.8,0,43.6-14.8,65.4-21.9c21.8-7.1,43.6-15.5,65.4-20.4s43.6-6.1,65.4-9.1c21.8-3,43.6-8.7,65.4-8.7
					s43.6,3.2,65.4,9.5c21.8,6.3,43.6,19.8,65.4,33.2"/>
				
					<path id="SEYCHELLES" style="clip-path:url(#SVGID_00000154420744767836389480000014285837327112356287_);fill:none;stroke:#C4C4C4;stroke-linecap:round;stroke-linejoin:round;" d="
					M29.5,256.8c21.8,4,43.6,7.9,65.4,7.9s43.6-4.9,65.4-4.9s43.6,9.6,65.4,15.4s43.6,10.7,65.4,19.6s43.6,25,65.4,33.6
					c21.8,8.6,43.6,18.2,65.4,18.2c21.8,0,43.6-33.3,65.4-43.4s43.6-9.9,65.4-17.2c21.8-7.3,43.6-18.9,65.4-26.4
					c21.8-7.5,43.6-18.4,65.4-18.4c21.8,0,43.6,6.9,65.4,13.8"/>
				
					<path id="SIERRA_LEONE" style="clip-path:url(#SVGID_00000154420744767836389480000014285837327112356287_);fill:none;stroke:#C4C4C4;stroke-linecap:round;stroke-linejoin:round;" d="
					M29.5,396.5c21.8,10.8,43.6,21.7,65.4,21.7s43.6-25.7,65.4-41.6c21.8-15.9,43.6-41.6,65.4-53.6s43.6-18.6,65.4-18.6
					s43.6,10.4,65.4,10.4c21.8,0,43.6-23.3,65.4-30.6c21.8-7.3,43.6-13.1,65.4-13.1s43.6,6.5,65.4,10.9
					c21.8,4.5,43.6,10.2,65.4,15.9s43.6,9.9,65.4,18.1c21.8,8.2,43.6,19.7,65.4,31.2"/>
				
					<path id="SINGAPORE" style="clip-path:url(#SVGID_00000154420744767836389480000014285837327112356287_);fill:none;stroke:#C4C4C4;stroke-linecap:round;stroke-linejoin:round;" d="
					M29.5,303.4c21.8,4.3,43.6,8.6,65.4,14.4c21.8,5.8,43.6,15.9,65.4,20.3s43.6,2.2,65.4,6.6c21.8,4.4,43.6,22.2,65.4,22.5
					c21.8,0.3,43.6,0.4,65.4,0.4c21.8,0,43.6-29,65.4-41.2c21.8-12.2,43.6-32.2,65.4-32.2s43.6,6.6,65.4,10.7
					c21.8,4.1,43.6,14.1,65.4,14.1s43.6-0.1,65.4-0.4c21.8-0.3,43.6-2.2,65.4-4"/>
				
					<path id="SLOVAKIA" style="clip-path:url(#SVGID_00000154420744767836389480000014285837327112356287_);fill:none;stroke:#C4C4C4;stroke-linecap:round;stroke-linejoin:round;" d="
					M29.5,248.5c21.8,8.8,43.6,17.6,65.4,29.5c21.8,11.9,43.6,28.1,65.4,41.7s43.6,20.9,65.4,39.9s43.6,62.1,65.4,74.4
					c21.8,12.3,43.6,18.5,65.4,18.5c21.8,0,43.6-7.8,65.4-16c21.8-8.1,43.6-21.1,65.4-32.9c21.8-11.8,43.6-24.8,65.4-38
					c21.8-13.2,43.6-28.4,65.4-41.4s43.6-28.1,65.4-36.6c21.8-8.5,43.6-11.5,65.4-14.5"/>
				
					<path id="SLOVENIA" style="clip-path:url(#SVGID_00000154420744767836389480000014285837327112356287_);fill:none;stroke:#C4C4C4;stroke-linecap:round;stroke-linejoin:round;" d="
					M29.5,224.1c21.8,12.1,43.6,24.1,65.4,41.8c21.8,17.7,43.6,44.1,65.4,64.2c21.8,20.1,43.6,37,65.4,56.6
					c21.8,19.6,43.6,47.1,65.4,61c21.8,13.9,43.6,22.4,65.4,22.4c21.8,0,43.6-3.5,65.4-10.4c21.8-6.9,43.6-35.6,65.4-49.9
					c21.8-14.3,43.6-22.9,65.4-35.8c21.8-12.9,43.6-27.3,65.4-41.8c21.8-14.5,43.6-34.2,65.4-45c21.8-10.8,43.6-15.2,65.4-19.6"/>
				
					<path id="SOUTH_AFRICA" style="clip-path:url(#SVGID_00000154420744767836389480000014285837327112356287_);fill:none;stroke:#C4C4C4;stroke-linecap:round;stroke-linejoin:round;" d="
					M29.5,258.9c21.8-0.6,43.6-1.2,65.4-1.3s43.6,0,65.4-0.1c21.8-0.1,43.6-3.7,65.4-7.5c21.8-3.8,43.6-11,65.4-15.5
					s43.6-11.6,65.4-11.6c21.8,0,43.6,5.8,65.4,9.3c21.8,3.6,43.6,6.6,65.4,12c21.8,5.4,43.6,16.1,65.4,20.2
					c21.8,4.2,43.6,6.2,65.4,6.2s43.6-3.7,65.4-3.7c21.8,0,43.6,4.6,65.4,9.3"/>
				
					<path id="SPAIN" style="clip-path:url(#SVGID_00000154420744767836389480000014285837327112356287_);fill:none;stroke:#C4C4C4;stroke-linecap:round;stroke-linejoin:round;" d="
					M29.5,159.8c21.8,10,43.6,20,65.4,36.9s43.6,45.9,65.4,64.6s43.6,32.9,65.4,47.4c21.8,14.5,43.6,29.5,65.4,39.8
					s43.6,22.4,65.4,22.4c21.8,0,43.6-3.5,65.4-9.4c21.8-5.9,43.6-17.5,65.4-26c21.8-8.5,43.6-17,65.4-25.2
					c21.8-8.2,43.6-11.9,65.4-23.8s43.6-33.3,65.4-47.4c21.8-14,43.6-25.4,65.4-36.8"/>
				
					<path id="SPAIN__x28_CANARY_ISLANDS_x2C__CEUTA_AND_MELILLA_x29_" style="clip-path:url(#SVGID_00000154420744767836389480000014285837327112356287_);fill:none;stroke:#C4C4C4;stroke-linecap:round;stroke-linejoin:round;" d="
					M29.5,186.1c21.8,6.2,43.6,12.4,65.4,25.5s43.6,40.6,65.4,53c21.8,12.4,43.6,13.7,65.4,21.3s43.6,17.9,65.4,24.4
					c21.8,6.5,43.6,14.5,65.4,14.5c21.8,0,43.6-6,65.4-10.9c21.8-4.8,43.6-13.5,65.4-18.2s43.6-4.5,65.4-10.2
					c21.8-5.8,43.6-14.9,65.4-24.4c21.8-9.4,43.6-23.2,65.4-32.1c21.8-8.8,43.6-14.9,65.4-21"/>
				
					<path id="SRI_LANKA" style="clip-path:url(#SVGID_00000154420744767836389480000014285837327112356287_);fill:none;stroke:#C4C4C4;stroke-linecap:round;stroke-linejoin:round;" d="
					M29.5,288.5c21.8,2.4,43.6,4.8,65.4,7.1s43.6,6.6,65.4,6.6s43.6-2.7,65.4-6.6c21.8-3.8,43.6-16.4,65.4-16.4s43.6,0,65.4,0
					c21.8,0,43.6-23,65.4-32.8c21.8-9.8,43.6-24.1,65.4-26.3s43.6-3.3,65.4-3.3c21.8,0,43.6,23,65.4,36.1
					c21.8,13.1,43.6,42.7,65.4,42.7c21.8,0,43.6,0,65.4,0"/>
				
					<path id="SWEDEN" style="clip-path:url(#SVGID_00000154420744767836389480000014285837327112356287_);fill:none;stroke:#C4C4C4;stroke-linecap:round;stroke-linejoin:round;" d="
					M29.5,228.6c21.8,18.9,43.6,37.8,65.4,59.4c21.8,21.6,43.6,48.9,65.4,70.2c21.8,21.3,43.6,40.8,65.4,57.7
					c21.8,16.9,43.6,32.8,65.4,43.8s43.6,22.4,65.4,22.4c21.8,0,43.6-2.3,65.4-6.8c21.8-4.6,43.6-30.6,65.4-48s43.6-36.9,65.4-56.3
					c21.8-19.4,43.6-38.7,65.4-60c21.8-21.4,43.6-50.7,65.4-68.2c21.8-17.5,43.6-27.1,65.4-36.7"/>
				
					<path id="SWITZERLAND" style="clip-path:url(#SVGID_00000154420744767836389480000014285837327112356287_);fill:none;stroke:#C4C4C4;stroke-linecap:round;stroke-linejoin:round;" d="
					M29.5,266.7c21.8,9.5,43.6,18.9,65.4,27s43.6,10.3,65.4,21.4s43.6,29.8,65.4,45.7s43.6,39.8,65.4,49.5s43.6,14.5,65.4,14.5
					c21.8,0,43.6-0.6,65.4-1.9c21.8-1.3,43.6-23.5,65.4-33.9s43.6-20.5,65.4-28.7c21.8-8.2,43.6-15.1,65.4-20.4s43.6-5.2,65.4-11.4
					c21.8-6.2,43.6-15.9,65.4-25.6"/>
				
					<path id="SYRIAN_ARAB_REPUBLIC" style="clip-path:url(#SVGID_00000154420744767836389480000014285837327112356287_);fill:none;stroke:#C4C4C4;stroke-linecap:round;stroke-linejoin:round;" d="
					M29.5,101.2c21.8,10.4,43.6,20.9,65.4,33.2s43.6,23.8,65.4,40.8s43.6,42.1,65.4,61.3s43.6,34.8,65.4,53.6
					c21.8,18.8,43.6,57.8,65.4,59.5c21.8,1.7,43.6,2.6,65.4,2.6c21.8,0,43.6-24.4,65.4-36.5S531.1,292,553,280
					c21.8-12,43.6-19.5,65.4-36.5c21.8-17,43.6-45.3,65.4-65.7c21.8-20.3,43.6-38.2,65.4-56.2"/>
				
					<path id="TAJIKISTAN" style="clip-path:url(#SVGID_00000154420744767836389480000014285837327112356287_);fill:none;stroke:#C4C4C4;stroke-linecap:round;stroke-linejoin:round;" d="
					M29.5,123.8c21.8,7.9,43.6,15.8,65.4,27.2s43.6,21.6,65.4,41.7s43.6,56.2,65.4,79c21.8,22.8,43.6,39.2,65.4,57.7
					s43.6,53.4,65.4,53.4c21.8,0,43.6-0.4,65.4-1.1c21.8-0.7,43.6-8.4,65.4-14.8c21.8-6.4,43.6-10.9,65.4-23.3
					c21.8-12.5,43.6-29.4,65.4-51.5s43.6-55.6,65.4-80.9c21.8-25.3,43.6-48.3,65.4-71.2"/>
				
					<path id="THAILAND" style="clip-path:url(#SVGID_00000154420744767836389480000014285837327112356287_);fill:none;stroke:#C4C4C4;stroke-linecap:round;stroke-linejoin:round;" d="
					M29.5,315.3c21.8,10.2,43.6,20.4,65.4,20.4s43.6-2.4,65.4-7.3s43.6-30.9,65.4-42.8c21.8-11.8,43.6-20.2,65.4-28.2
					c21.8-8.1,43.6-13.8,65.4-20.3c21.8-6.5,43.6-13.6,65.4-18.5c21.8-4.9,43.6-10.8,65.4-10.8s43.6,26.8,65.4,26.8
					c21.8,0,43.6-0.7,65.4-0.7s43.6,22.8,65.4,37c21.8,14.2,43.6,31.2,65.4,48.1"/>
				
					<path id="THE_FORMER_YUGOSLAV_REPUBLIC_OF_MACEDONIA" style="clip-path:url(#SVGID_00000154420744767836389480000014285837327112356287_);fill:none;stroke:#C4C4C4;stroke-linecap:round;stroke-linejoin:round;" d="
					M29.5,171.7c21.8,6.8,43.6,13.7,65.4,27.9s43.6,36.8,65.4,57.5c21.8,20.7,43.6,45.3,65.4,66.9c21.8,21.6,43.6,45.8,65.4,62.6
					c21.8,16.8,43.6,38,65.4,38c21.8,0,43.6-0.6,65.4-1.8c21.8-1.2,43.6-23.4,65.4-35.2c21.8-11.8,43.6-22.6,65.4-35.5
					c21.8-12.9,43.6-27.3,65.4-42c21.8-14.7,43.6-31.3,65.4-46c21.8-14.7,43.6-28.3,65.4-41.9"/>
				
					<path id="TOGO" style="clip-path:url(#SVGID_00000154420744767836389480000014285837327112356287_);fill:none;stroke:#C4C4C4;stroke-linecap:round;stroke-linejoin:round;" d="
					M29.5,360.3c21.8,7.7,43.6,15.3,65.4,15.3s43.6-13.6,65.4-30.7c21.8-17.1,43.6-53,65.4-71.9s43.6-41.8,65.4-41.8
					s43.6,16.7,65.4,16.7c21.8,0,43.6-0.1,65.4-0.2c21.8-0.1,43.6-9.7,65.4-9.7s43.6,19.4,65.4,24.8c21.8,5.3,43.6,8,65.4,8
					s43.6-1.7,65.4-1.7c21.8,0,43.6,24,65.4,48.1"/>
				
					<path id="TRINIDAD_AND_TOBAGO" style="clip-path:url(#SVGID_00000154420744767836389480000014285837327112356287_);fill:none;stroke:#C4C4C4;stroke-linecap:round;stroke-linejoin:round;" d="
					M29.5,283.7c21.8,0,43.6,0.1,65.4,0.3c21.8,0.2,43.6,9.4,65.4,9.4s43.6-3.9,65.4-3.9s43.6,3.3,65.4,3.3s43.6-4.3,65.4-10.8
					c21.8-6.5,43.6-21,65.4-28.4c21.8-7.3,43.6-15.7,65.4-15.7s43.6,6.4,65.4,8.2c21.8,1.9,43.6,1,65.4,3.1
					c21.8,2,43.6,4.3,65.4,12.9c21.8,8.6,43.6,27.3,65.4,45.9"/>
				
					<path id="TUNISIA" style="clip-path:url(#SVGID_00000154420744767836389480000014285837327112356287_);fill:none;stroke:#C4C4C4;stroke-linecap:round;stroke-linejoin:round;" d="
					M29.5,110.7c21.8,11.5,43.6,23.1,65.4,40.1s43.6,44.2,65.4,61.9s43.6,32.2,65.4,44.6c21.8,12.3,43.6,20.4,65.4,29.5
					c21.8,9.1,43.6,25.3,65.4,25.3c21.8,0,43.6-0.2,65.4-0.5c21.8-0.3,43.6-19.9,65.4-27.2s43.6-8.7,65.4-16.9
					c21.8-8.2,43.6-19.7,65.4-32.4c21.8-12.7,43.6-30.9,65.4-43.6c21.8-12.7,43.6-22.5,65.4-32.4"/>
				
					<path id="TURKMENISTAN" style="clip-path:url(#SVGID_00000154420744767836389480000014285837327112356287_);fill:none;stroke:#C4C4C4;stroke-linecap:round;stroke-linejoin:round;" d="
					M29.5,111c21.8,8.1,43.6,16.2,65.4,27.7c21.8,11.4,43.6,22.1,65.4,40.9s43.6,49.7,65.4,71.6s43.6,39.6,65.4,59.9
					s43.6,61.6,65.4,61.6c21.8,0,43.6-1.8,65.4-5.3c21.8-3.6,43.6-18.8,65.4-26.6c21.8-7.8,43.6-7.9,65.4-20.2
					c21.8-12.3,43.6-31.6,65.4-53.3s43.6-52.6,65.4-76.8c21.8-24.2,43.6-46.3,65.4-68.4"/>
				
					<path id="UKRAINE" style="clip-path:url(#SVGID_00000154420744767836389480000014285837327112356287_);fill:none;stroke:#C4C4C4;stroke-linecap:round;stroke-linejoin:round;" d="
					M29.5,186.6c21.8,8,43.6,16.1,65.4,30s43.6,32.6,65.4,53.5c21.8,21,43.6,45.8,65.4,72.4c21.8,26.6,43.6,69.7,65.4,87.4
					c21.8,17.7,43.6,26.5,65.4,26.5c21.8,0,43.6-11.4,65.4-17.9c21.8-6.5,43.6-10,65.4-21.1s43.6-27.5,65.4-45.7
					c21.8-18.2,43.6-41.9,65.4-63.4c21.8-21.5,43.6-48.7,65.4-65.5c21.8-16.8,43.6-26.1,65.4-35.4"/>
				
					<path id="UNITED_ARAB_EMIRATES" style="clip-path:url(#SVGID_00000154420744767836389480000014285837327112356287_);fill:none;stroke:#C4C4C4;stroke-linecap:round;stroke-linejoin:round;" d="
					M29.5,158.2c21.8,8.1,43.6,16.3,65.4,16.3s43.6-1.2,65.4-1.2s43.6,8.2,65.4,12.3c21.8,4.1,43.6,4.1,65.4,12.3
					s43.6,47.6,65.4,47.6c21.8,0,43.6-0.6,65.4-1.8c21.8-1.2,43.6-5.4,65.4-5.4s43.6,0.4,65.4,0.4c21.8,0,43.6-31.1,65.4-47.3
					c21.8-16.2,43.6-47.7,65.4-49.9c21.8-2.2,43.6-2.7,65.4-3.3"/>
				
					<path id="UNITED_KINGDOM_OF_GREAT_BRITAIN__x26__NORTHERN_IRELAND" style="clip-path:url(#SVGID_00000154420744767836389480000014285837327112356287_);fill:none;stroke:#C4C4C4;stroke-linecap:round;stroke-linejoin:round;" d="
					M29.5,315.6c21.8,4.1,43.6,8.2,65.4,17.3c21.8,9.1,43.6,24.4,65.4,37.2s43.6,27.8,65.4,39.8c21.8,11.9,43.6,22.9,65.4,31.9
					s43.6,22,65.4,22c21.8,0,43.6-1.9,65.4-5.6c21.8-3.8,43.6-20.1,65.4-30.8s43.6-19.1,65.4-33.1c21.8-14,43.6-36.5,65.4-51
					c21.8-14.5,43.6-33.8,65.4-36.1c21.8-2.4,43.6-2.9,65.4-3.5"/>
				
					<path id="UNITED_STATES_OF_AMERICA__x28_PACIFIC_ISLANDS_x29_" style="clip-path:url(#SVGID_00000154420744767836389480000014285837327112356287_);fill:none;stroke:#C4C4C4;stroke-linecap:round;stroke-linejoin:round;" d="
					M29.5,266.4c21.8,5,43.6,10.1,65.4,10.9s43.6,0.4,65.4,1.2s43.6,22.1,65.4,28.7s43.6,10.1,65.4,11s43.6,1.4,65.4,1.4
					c21.8,0,43.6-13.7,65.4-19.9c21.8-6.2,43.6-12.1,65.4-17.4S531.1,268,553,268c21.8,0,43.6,7.5,65.4,7.5s43.6-3.8,65.4-3.8
					c21.8,0,43.6,0,65.4,0"/>
				
					<path id="URUGUAY" style="clip-path:url(#SVGID_00000154420744767836389480000014285837327112356287_);fill:none;stroke:#C4C4C4;stroke-linecap:round;stroke-linejoin:round;" d="
					M29.5,349.5c21.8-5.3,43.6-10.6,65.4-17.6c21.8-7,43.6-12.7,65.4-24.3c21.8-11.6,43.6-34.9,65.4-45.5
					c21.8-10.5,43.6-9,65.4-17.7s43.6-34.6,65.4-34.6c21.8,0,43.6,1.8,65.4,5.3c21.8,3.6,43.6,34.8,65.4,40s43.6,2.6,65.4,7.8
					c21.8,5.2,43.6,31.9,65.4,43.2s43.6,14.9,65.4,24.2c21.8,9.3,43.6,20.5,65.4,31.6"/>
				
					<path id="UZBEKISTAN" style="clip-path:url(#SVGID_00000154420744767836389480000014285837327112356287_);fill:none;stroke:#C4C4C4;stroke-linecap:round;stroke-linejoin:round;" d="
					M29.5,92.9c21.8,8.6,43.6,17.3,65.4,32s43.6,32.6,65.4,56.5s43.6,60.2,65.4,86.8c21.8,26.6,43.6,51,65.4,72.7
					s43.6,57.4,65.4,57.4c21.8,0,43.6-5.8,65.4-13.1c21.8-7.3,43.6-21.6,65.4-30.9c21.8-9.3,43.6-10.1,65.4-24.7
					c21.8-14.6,43.6-38.1,65.4-63s43.6-60.7,65.4-86.2c21.8-25.5,43.6-46,65.4-66.5"/>
				
					<path id="VENEZUELA" style="clip-path:url(#SVGID_00000154420744767836389480000014285837327112356287_);fill:none;stroke:#C4C4C4;stroke-linecap:round;stroke-linejoin:round;" d="
					M29.5,283.9c21.8-1.1,43.6-2.2,65.4-3.6s43.6-4.9,65.4-4.9s43.6,1.3,65.4,1.3s43.6-5.4,65.4-8.4c21.8-3,43.6-4.9,65.4-9.4
					c21.8-4.5,43.6-14.8,65.4-17.4c21.8-2.6,43.6-3.9,65.4-3.9s43.6,8.3,65.4,18.5c21.8,10.2,43.6,37.4,65.4,42.8
					c21.8,5.5,43.6,5.7,65.4,8.2c21.8,2.5,43.6,4.7,65.4,6.9"/>
				
					<path id="YUGOSLAVIA" style="clip-path:url(#SVGID_00000154420744767836389480000014285837327112356287_);fill:none;stroke:#C4C4C4;stroke-linecap:round;stroke-linejoin:round;" d="
					M29.5,167.3c21.8,9.3,43.6,18.7,65.4,34.4s43.6,41.3,65.4,59.8c21.8,18.5,43.6,29.7,65.4,51.1s43.6,59.4,65.4,77.2
					c21.8,17.7,43.6,29.3,65.4,29.3c21.8,0,43.6-6,65.4-11.8c21.8-5.8,43.6-12.4,65.4-23c21.8-10.7,43.6-27.8,65.4-40.9
					c21.8-13,43.6-23,65.4-37.4s43.6-35.1,65.4-49.1c21.8-14,43.6-24.5,65.4-34.9"/>
				
					<path id="ZAMBIA" style="clip-path:url(#SVGID_00000154420744767836389480000014285837327112356287_);fill:none;stroke:#C4C4C4;stroke-linecap:round;stroke-linejoin:round;" d="
					M29.5,185.7c21.8-0.4,43.6-0.7,65.4-0.7s43.6,6.3,65.4,14.3c21.8,8,43.6,20.3,65.4,33.9c21.8,13.6,43.6,31.2,65.4,47.7
					s43.6,49.5,65.4,50.9c21.8,1.5,43.6,2.2,65.4,2.2c21.8,0,43.6-3.8,65.4-10.4c21.8-6.5,43.6-15.2,65.4-28.8
					c21.8-13.6,43.6-38,65.4-52.7c21.8-14.6,43.6-34,65.4-35.1c21.8-1,43.6-1.3,65.4-1.6"/>
				
					<path id="ZIMBABWE" style="clip-path:url(#SVGID_00000154420744767836389480000014285837327112356287_);fill:none;stroke:#C4C4C4;stroke-linecap:round;stroke-linejoin:round;" d="
					M29.5,249.3c21.8-3.7,43.6-7.3,65.4-7.6s43.6-0.5,65.4-0.5s43.6,13.8,65.4,22.2c21.8,8.4,43.6,19.1,65.4,28.2
					s43.6,26.4,65.4,26.4c21.8,0,43.6-17.9,65.4-17.9c21.8,0,43.6,9.3,65.4,9.3s43.6-10.6,65.4-15.9c21.8-5.2,43.6-10.5,65.4-15.6
					s43.6-14.6,65.4-14.6c21.8,0,43.6,1.9,65.4,3.7"/>
				
					<path id="DENMARK" style="clip-path:url(#SVGID_00000154420744767836389480000014285837327112356287_);fill:none;stroke:#FA8C00;stroke-width:4;stroke-linecap:round;stroke-linejoin:round;" d="
					M29.5,258.3c21.8,4.6,43.6,9.3,65.4,25.2c21.8,15.9,43.6,49.2,65.4,70.2c21.8,20.9,43.6,39.7,65.4,55.4s43.6,28.2,65.4,38.8
					c21.8,10.7,43.6,25.2,65.4,25.2c21.8,0,43.6-1.3,65.4-4c21.8-2.7,43.6-25.1,65.4-38.1s43.6-20.9,65.4-39.8
					c21.8-18.9,43.6-50.9,65.4-73.5s43.6-62,65.4-62c21.8,0,43.6,2.8,65.4,5.6"/>
				
					<path id="UNITED_STATES_OF_AMERICA" style="clip-path:url(#SVGID_00000154420744767836389480000014285837327112356287_);fill:none;stroke:#18A1CD;stroke-width:4;stroke-linecap:round;stroke-linejoin:round;" d="
					M29.5,163.9c21.8,13.1,43.6,26.3,65.4,39.7c21.8,13.4,43.6,27.9,65.4,41c21.8,13,43.6,21.1,65.4,37.3
					c21.8,16.2,43.6,47.5,65.4,59.9s43.6,18.5,65.4,18.5c21.8,0,43.6-10.2,65.4-18.3c21.8-8.1,43.6-19.2,65.4-30.3
					s43.6-23.7,65.4-36.1c21.8-12.4,43.6-27.2,65.4-38.5c21.8-11.4,43.6-20.1,65.4-29.7c21.8-9.6,43.6-18.7,65.4-27.9"/>
				<g style="clip-path:url(#SVGID_00000154420744767836389480000014285837327112356287_);enable-background:new    ;">
					<text transform="matrix(1 0 0 1 23.4719 526)" class="st12 st13 st14">jul</text>
				</g>
				<g style="clip-path:url(#SVGID_00000154420744767836389480000014285837327112356287_);enable-background:new    ;">
					<text transform="matrix(1 0 0 1 84.8995 526)" class="st12 st13 st14">aug</text>
				</g>
				<g style="clip-path:url(#SVGID_00000154420744767836389480000014285837327112356287_);enable-background:new    ;">
					<text transform="matrix(1 0 0 1 150.6717 526)" class="st12 st13 st14">sep</text>
				</g>
				<g style="clip-path:url(#SVGID_00000154420744767836389480000014285837327112356287_);enable-background:new    ;">
					<text transform="matrix(1 0 0 1 217.7769 526)" class="st12 st13 st14">oct</text>
				</g>
				<g style="clip-path:url(#SVGID_00000154420744767836389480000014285837327112356287_);enable-background:new    ;">
					<text transform="matrix(1 0 0 1 281.5423 526)" class="st12 st13 st14">nov</text>
				</g>
				<g style="clip-path:url(#SVGID_00000154420744767836389480000014285837327112356287_);enable-background:new    ;">
					<text transform="matrix(1 0 0 1 346.9777 526)" class="st12 st13 st14">dec</text>
				</g>
				<g style="clip-path:url(#SVGID_00000154420744767836389480000014285837327112356287_);enable-background:new    ;">
					<text transform="matrix(1 0 0 1 414.08 526)" class="st12 st13 st14">jan</text>
				</g>
				<g style="clip-path:url(#SVGID_00000154420744767836389480000014285837327112356287_);enable-background:new    ;">
					<text transform="matrix(1 0 0 1 479.1813 526)" class="st12 st13 st14">feb</text>
				</g>
				<g style="clip-path:url(#SVGID_00000154420744767836389480000014285837327112356287_);enable-background:new    ;">
					<text transform="matrix(1 0 0 1 542.6245 526)" class="st12 st13 st14">mar</text>
				</g>
				<g style="clip-path:url(#SVGID_00000154420744767836389480000014285837327112356287_);enable-background:new    ;">
					<text transform="matrix(1 0 0 1 609.7209 526)" class="st12 st13 st14">apr</text>
				</g>
				<g style="clip-path:url(#SVGID_00000154420744767836389480000014285837327112356287_);enable-background:new    ;">
					<text transform="matrix(1 0 0 1 672.4931 526)" class="st12 st13 st14">may</text>
				</g>
				<g style="clip-path:url(#SVGID_00000154420744767836389480000014285837327112356287_);enable-background:new    ;">
					<text transform="matrix(1 0 0 1 741.2566 526)" class="st12 st13 st14">jun</text>
				</g>
				<g style="clip-path:url(#SVGID_00000154420744767836389480000014285837327112356287_);enable-background:new    ;">
					<text transform="matrix(1 0 0 1 8.0645 513)" class="st12 st13 st14">0</text>
				</g>
				<g style="clip-path:url(#SVGID_00000154420744767836389480000014285837327112356287_);enable-background:new    ;">
					<text transform="matrix(1 0 0 1 8.0645 480.1742)" class="st12 st13 st14">1</text>
				</g>
				<g style="clip-path:url(#SVGID_00000154420744767836389480000014285837327112356287_);enable-background:new    ;">
					<text transform="matrix(1 0 0 1 8.0645 447.3484)" class="st12 st13 st14">2</text>
				</g>
				<g style="clip-path:url(#SVGID_00000154420744767836389480000014285837327112356287_);enable-background:new    ;">
					<text transform="matrix(1 0 0 1 8.0645 414.5226)" class="st12 st13 st14">3</text>
				</g>
				<g style="clip-path:url(#SVGID_00000154420744767836389480000014285837327112356287_);enable-background:new    ;">
					<text transform="matrix(1 0 0 1 8.0645 381.6968)" class="st12 st13 st14">4</text>
				</g>
				<g style="clip-path:url(#SVGID_00000154420744767836389480000014285837327112356287_);enable-background:new    ;">
					<text transform="matrix(1 0 0 1 8.0645 348.871)" class="st12 st13 st14">5</text>
				</g>
				<g style="clip-path:url(#SVGID_00000154420744767836389480000014285837327112356287_);enable-background:new    ;">
					<text transform="matrix(1 0 0 1 8.0645 316.0452)" class="st12 st13 st14">6</text>
				</g>
				<g style="clip-path:url(#SVGID_00000154420744767836389480000014285837327112356287_);enable-background:new    ;">
					<text transform="matrix(1 0 0 1 8.0645 283.2194)" class="st12 st13 st14">7</text>
				</g>
				<g style="clip-path:url(#SVGID_00000154420744767836389480000014285837327112356287_);enable-background:new    ;">
					<text transform="matrix(1 0 0 1 8.0645 250.3936)" class="st12 st13 st14">8</text>
				</g>
				<g style="clip-path:url(#SVGID_00000154420744767836389480000014285837327112356287_);enable-background:new    ;">
					<text transform="matrix(1 0 0 1 8.0645 217.5677)" class="st12 st13 st14">9</text>
				</g>
				<g style="clip-path:url(#SVGID_00000154420744767836389480000014285837327112356287_);enable-background:new    ;">
					<text transform="matrix(1 0 0 1 1.3906 184.7419)" class="st12 st13 st14">10</text>
				</g>
				<g style="clip-path:url(#SVGID_00000154420744767836389480000014285837327112356287_);enable-background:new    ;">
					<text transform="matrix(1 0 0 1 2.2812 151.9161)" class="st12 st13 st14">11</text>
				</g>
				<g style="clip-path:url(#SVGID_00000154420744767836389480000014285837327112356287_);enable-background:new    ;">
					<text transform="matrix(1 0 0 1 1.3906 119.0903)" class="st12 st13 st14">12</text>
				</g>
				
					<line style="clip-path:url(#SVGID_00000154420744767836389480000014285837327112356287_);fill:none;stroke:#181818;stroke-linecap:square;" x1="759" y1="509" x2="19.7" y2="509"/>
			</g>
			<g style="clip-path:url(#SVGID_00000080169512390373346710000011851066246362382519_);enable-background:new    ;">
				<text transform="matrix(1 0 0 1 366.2174 319.0605)" class="st16 st4 st6">United States</text>
			</g>
			<g style="clip-path:url(#SVGID_00000080169512390373346710000011851066246362382519_);enable-background:new    ;">
				<text transform="matrix(1 0 0 1 366.2174 318.8789)" class="st17 st4 st6">United States</text>
			</g>
			<g style="clip-path:url(#SVGID_00000080169512390373346710000011851066246362382519_);enable-background:new    ;">
				<text transform="matrix(1 0 0 1 421.3979 426.6241)" class="st16 st4 st6">Denmark</text>
			</g>
			<g style="clip-path:url(#SVGID_00000080169512390373346710000011851066246362382519_);enable-background:new    ;">
				<text transform="matrix(1 0 0 1 420.858 426.4425)" class="st4 st6">Denmark</text>
			</g>
			<g style="clip-path:url(#SVGID_00000080169512390373346710000011851066246362382519_);">
				<defs>
					<rect id="SVGID_00000025442627237437081750000000600647176171330960_" y="79" width="761" height="450"/>
				</defs>
				<clipPath id="SVGID_00000143613155371915026390000006443022334752671125_">
					<use xlink:href="#SVGID_00000025442627237437081750000000600647176171330960_"  style="overflow:visible;"/>
				</clipPath>
			</g>
			<g style="clip-path:url(#SVGID_00000080169512390373346710000011851066246362382519_);enable-background:new    ;">
				<text transform="matrix(1 0 0 1 0 560)" class="st18 st13 st19">Source</text>
			</g>
			<g style="clip-path:url(#SVGID_00000080169512390373346710000011851066246362382519_);enable-background:new    ;">
				<text transform="matrix(1 0 0 1 34.853 560)" class="st18 st13 st19">:</text>
			</g>
			<g style="clip-path:url(#SVGID_00000080169512390373346710000011851066246362382519_);enable-background:new    ;">
				<text transform="matrix(1 0 0 1 40.6436 560)" class="st18 st13 st19">UN Climate Data</text>
			</g>
			<g style="clip-path:url(#SVGID_00000080169512390373346710000011851066246362382519_);enable-background:new    ;">
				<text transform="matrix(1 0 0 1 125.8994 560)" class="st18 st13 st19"></text>
			</g>
			<g style="clip-path:url(#SVGID_00000080169512390373346710000011851066246362382519_);enable-background:new    ;">
			</g>
			<g style="clip-path:url(#SVGID_00000080169512390373346710000011851066246362382519_);enable-background:new    ;">
			</g>
		</g>
	</g>
</g>
<g id="ai2html-settings">
	<rect x="-450" style="fill:none;" width="400" height="418"/>
	<text id="ai2html-settings_00000085209737267391905030000013019720069048540556_" transform="matrix(1 0 0 1 -450 10.6499)"><tspan x="0" y="0" style="font-family:'MyriadPro-Regular'; font-size:15px;">ai2html-settings</tspan><tspan x="0" y="19" style="font-family:'MyriadPro-Regular'; font-size:15px;">settings_version: 0.106.0</tspan><tspan x="0" y="38" style="font-family:'MyriadPro-Regular'; font-size:15px;">image_format: auto</tspan><tspan x="0" y="57" style="font-family:'MyriadPro-Regular'; font-size:15px;">responsiveness: fixed</tspan><tspan x="0" y="76" style="font-family:'MyriadPro-Regular'; font-size:15px;">output: one-file</tspan><tspan x="0" y="95" style="font-family:'MyriadPro-Regular'; font-size:15px;">html_output_path: /ai2html-output/</tspan><tspan x="0" y="114" style="font-family:'MyriadPro-Regular'; font-size:15px;">html_output_extension: .html</tspan><tspan x="0" y="133" style="font-family:'MyriadPro-Regular'; font-size:15px;">image_output_path: </tspan><tspan x="0" y="152" style="font-family:'MyriadPro-Regular'; font-size:15px;">local_preview_template: </tspan><tspan x="0" y="171" style="font-family:'MyriadPro-Regular'; font-size:15px;">png_number_of_colors: 128</tspan><tspan x="0" y="190" style="font-family:'MyriadPro-Regular'; font-size:15px;">jpg_quality: 60</tspan><tspan x="0" y="209" style="font-family:'MyriadPro-Regular'; font-size:15px;">headline: </tspan><tspan x="0" y="228" style="font-family:'MyriadPro-Regular'; font-size:15px;">leadin: </tspan><tspan x="0" y="247" style="font-family:'MyriadPro-Regular'; font-size:15px;">notes: </tspan><tspan x="0" y="266" style="font-family:'MyriadPro-Regular'; font-size:15px;">sources: </tspan><tspan x="0" y="285" style="font-family:'MyriadPro-Regular'; font-size:15px;">credit: </tspan></text>
</g>
</svg>
