<?xml version="1.0" encoding="utf-8"?>
<!-- Generator: Adobe Illustrator 27.6.1, SVG Export Plug-In . SVG Version: 6.00 Build 0)  -->
<svg version="1.1" xmlns="http://www.w3.org/2000/svg" xmlns:xlink="http://www.w3.org/1999/xlink" x="0px" y="0px"
	 viewBox="0 0 761 562" style="enable-background:new 0 0 761 562;" xml:space="preserve">
<style type="text/css">
	.st0{fill:#FFFFFF;}
	.st1{clip-path:url(#SVGID_00000135681682978942016190000000414600272885837966_);}
	.st2{clip-path:url(#SVGID_00000052789134877232948380000008695944228123012762_);fill:#1D263B;}
	.st3{clip-path:url(#SVGID_00000052789134877232948380000008695944228123012762_);enable-background:new    ;}
	.st4{font-family:'Arial-BoldMT';}
	.st5{font-size:22.6263px;}
	.st6{font-size:14.3986px;}
	.st7{clip-path:url(#SVGID_00000052789134877232948380000008695944228123012762_);}
	
		.st8{clip-path:url(#SVGID_00000025438104582472424410000008531707270148513180_);fill:none;stroke:#C4C4C4;stroke-linecap:round;stroke-linejoin:round;}
	
		.st9{clip-path:url(#SVGID_00000025438104582472424410000008531707270148513180_);fill:none;stroke:#FA8C00;stroke-width:4;stroke-linecap:round;stroke-linejoin:round;}
	
		.st10{clip-path:url(#SVGID_00000025438104582472424410000008531707270148513180_);fill:none;stroke:#18A1CD;stroke-width:4;stroke-linecap:round;stroke-linejoin:round;}
	.st11{clip-path:url(#SVGID_00000025438104582472424410000008531707270148513180_);enable-background:new    ;}
	.st12{fill:#333333;}
	.st13{font-family:'ArialMT';}
	.st14{font-size:12.3416px;}
	.st15{fill:#5A5A5A;}
	
		.st16{clip-path:url(#SVGID_00000025438104582472424410000008531707270148513180_);fill:none;stroke:#181818;stroke-linecap:square;}
	.st17{clip-path:url(#SVGID_00000052789134877232948380000008695944228123012762_);fill:none;stroke:#181818;}
	.st18{fill:none;stroke:#FFFFFF;stroke-width:4;stroke-linecap:round;stroke-linejoin:round;}
	.st19{fill:#181818;}
</style>
<g id="exportSvg">
	<rect class="st0" width="761" height="562"/>
	<g>
		<defs>
			<rect id="SVGID_1_" width="761" height="578"/>
		</defs>
		<clipPath id="SVGID_00000027582738813569493570000008512162476321860754_">
			<use xlink:href="#SVGID_1_"  style="overflow:visible;"/>
		</clipPath>
		<g style="clip-path:url(#SVGID_00000027582738813569493570000008512162476321860754_);">
			<defs>
				<rect id="SVGID_00000058580013839891745330000011775034087126356874_" width="761" height="578"/>
			</defs>
			<clipPath id="SVGID_00000111181242180137778930000001194452240646029201_">
				<use xlink:href="#SVGID_00000058580013839891745330000011775034087126356874_"  style="overflow:visible;"/>
			</clipPath>
			<path style="clip-path:url(#SVGID_00000111181242180137778930000001194452240646029201_);fill:#1D263B;" d="M-33.7,585.2h789.8
				c12.6,0,22.8-10.2,22.8-22.8V11.8c0-12.6-10.2-22.8-22.8-22.8H-33.7c-12.6,0-22.8,10.2-22.8,22.8v550.6
				C-56.5,575-46.3,585.2-33.7,585.2z"/>
			<g style="clip-path:url(#SVGID_00000111181242180137778930000001194452240646029201_);enable-background:new    ;">
				<text transform="matrix(0.9723 0 0 1 24.5269 27.3784)" class="st0 st4 st5">Danes Endure Long, Dark Winters</text>
			</g>
			<g style="clip-path:url(#SVGID_00000111181242180137778930000001194452240646029201_);enable-background:new    ;">
				<text transform="matrix(0.9723 0 0 1 22.9209 52.7285)"><tspan x="0" y="0" class="st0 st4 st6">Average number of daily sunshine each month by country. Denmark gets as much as 3 hours less of sun</tspan><tspan x="0" y="17.3" class="st0 st4 st6">than the United</tspan></text>
			</g>
			<g style="clip-path:url(#SVGID_00000111181242180137778930000001194452240646029201_);enable-background:new    ;">
				<text transform="matrix(0.9723 0 0 1 133.5244 70.0063)" class="st0 st4 st6">States during the winter</text>
			</g>
			<g style="clip-path:url(#SVGID_00000111181242180137778930000001194452240646029201_);">
				<defs>
					<rect id="SVGID_00000165924566133631322330000013581532904805672888_" y="81.2" width="761" height="462.8"/>
				</defs>
				<clipPath id="SVGID_00000017502960243465640880000007111087807937559688_">
					<use xlink:href="#SVGID_00000165924566133631322330000013581532904805672888_"  style="overflow:visible;"/>
				</clipPath>
				
					<path id="AFGHANISTAN_x2C__ISLAMIC_STATE_OF" style="clip-path:url(#SVGID_00000017502960243465640880000007111087807937559688_);fill:none;stroke:#C4C4C4;stroke-linecap:round;stroke-linejoin:round;" d="
					M29.5,132.1c21.8,13,43.6,26,65.4,33.8s43.6,4.2,65.4,12.7s43.6,45,65.4,61.5s43.6,20,65.4,37.3s43.6,63.6,65.4,66.5
					c21.8,2.9,43.6,4.4,65.4,4.4c21.8,0,43.6-5.1,65.4-11.3c21.8-6.2,43.6-15.7,65.4-26.1c21.8-10.5,43.6-19.7,65.4-36.8
					c21.8-17.1,43.6-42.5,65.4-66c21.8-23.5,43.6-49.4,65.4-75.2"/>
				
					<path id="ARGENTINA" style="clip-path:url(#SVGID_00000017502960243465640880000007111087807937559688_);fill:none;stroke:#C4C4C4;stroke-linecap:round;stroke-linejoin:round;" d="
					M29.5,347.8c21.8-10.1,43.6-20.1,65.4-27.7c21.8-7.5,43.6-8.2,65.4-17.6s43.6-25.9,65.4-38.5c21.8-12.6,43.6-35.6,65.4-37
					c21.8-1.4,43.6-0.7,65.4-2.2c21.8-1.4,43.6-10.5,65.4-10.5c21.8,0,43.6,4.3,65.4,12.8s43.6,36.2,65.4,48.4
					c21.8,12.2,43.6,14.5,65.4,24.7c21.8,10.2,43.6,26.1,65.4,36.3c21.8,10.2,43.6,17.7,65.4,25.1"/>
				
					<path id="ARMENIA" style="clip-path:url(#SVGID_00000017502960243465640880000007111087807937559688_);fill:none;stroke:#C4C4C4;stroke-linecap:round;stroke-linejoin:round;" d="
					M29.5,138.1c21.8,5.7,43.6,11.5,65.4,23.9c21.8,12.4,43.6,28.3,65.4,50.4s43.6,56.3,65.4,82.5s43.6,53.2,65.4,74.5
					c21.8,21.3,43.6,53.4,65.4,53.4c21.8,0,43.6-0.7,65.4-2.2c21.8-1.5,43.6-13,65.4-24.9c21.8-11.9,43.6-35.1,65.4-46.4
					c21.8-11.3,43.6-7.5,65.4-21.6c21.8-14.1,43.6-40.1,65.4-62.8c21.8-22.7,43.6-48,65.4-73.3"/>
				
					<path id="AUSTRALIA" style="clip-path:url(#SVGID_00000017502960243465640880000007111087807937559688_);fill:none;stroke:#C4C4C4;stroke-linecap:round;stroke-linejoin:round;" d="
					M29.5,290c21.8-5,43.6-10,65.4-15c21.8-4.9,43.6-9.9,65.4-14.6c21.8-4.7,43.6-10.4,65.4-13.8c21.8-3.5,43.6-5.7,65.4-6.9
					c21.8-1.2,43.6-1.8,65.4-1.8c21.8,0,43.6,1.7,65.4,4.4c21.8,2.7,43.6,6.4,65.4,11.6c21.8,5.2,43.6,14.7,65.4,19.5
					c21.8,4.7,43.6,3,65.4,9c21.8,6,43.6,28.3,65.4,28.9c21.8,0.6,43.6,0.8,65.4,0.9"/>
				
					<path id="AUSTRALIA__x28_ANTARCTIC_STATIONS_x29_" style="clip-path:url(#SVGID_00000017502960243465640880000007111087807937559688_);fill:none;stroke:#C4C4C4;stroke-linecap:round;stroke-linejoin:round;" d="
					M29.5,507.8c21.8-19.6,43.6-39.2,65.4-62s43.6-51.2,65.4-74.3c21.8-23.1,43.6-44.2,65.4-64.1c21.8-20,43.6-41.9,65.4-55.7
					s43.6-27,65.4-27c21.8,0,43.6,3.4,65.4,10.1c21.8,6.8,43.6,32.6,65.4,57.4c21.8,24.8,43.6,69.2,65.4,91.2
					c21.8,21.9,43.6,23.6,65.4,40.5c21.8,16.9,43.6,44.2,65.4,60.8c21.8,16.6,43.6,27.7,65.4,38.8"/>
				
					<path id="AUSTRIA" style="clip-path:url(#SVGID_00000017502960243465640880000007111087807937559688_);fill:none;stroke:#C4C4C4;stroke-linecap:round;stroke-linejoin:round;" d="
					M29.5,266.3c21.8,7.5,43.6,15,65.4,25.4c21.8,10.4,43.6,24.4,65.4,36.8s43.6,20,65.4,37.4c21.8,17.4,43.6,54.6,65.4,67.1
					c21.8,12.5,43.6,18.8,65.4,18.8c21.8,0,43.6-2.7,65.4-8.1c21.8-5.4,43.6-27.3,65.4-39.2s43.6-21.7,65.4-32
					c21.8-10.4,43.6-19.2,65.4-30.1c21.8-11,43.6-28.5,65.4-35.7c21.8-7.2,43.6-9,65.4-10.8"/>
				
					<path id="AZERBAIJAN" style="clip-path:url(#SVGID_00000017502960243465640880000007111087807937559688_);fill:none;stroke:#C4C4C4;stroke-linecap:round;stroke-linejoin:round;" d="
					M29.5,192.8c21.8,13.1,43.6,26.2,65.4,41.1c21.8,14.8,43.6,27.4,65.4,48c21.8,20.6,43.6,55.8,65.4,75.5
					c21.8,19.7,43.6,38.8,65.4,42.8c21.8,4,43.6,3.3,65.4,6c21.8,2.7,43.6,10,65.4,10c21.8,0,43.6-2.6,65.4-7.7
					c21.8-5.1,43.6-8.9,65.4-23.7c21.8-14.8,43.6-46.7,65.4-65.3c21.8-18.6,43.6-28.7,65.4-46.2c21.8-17.5,43.6-38.2,65.4-58.8"/>
				
					<path id="BAHAMAS" style="clip-path:url(#SVGID_00000017502960243465640880000007111087807937559688_);fill:none;stroke:#C4C4C4;stroke-linecap:round;stroke-linejoin:round;" d="
					M29.5,216.5c21.8,2.8,43.6,5.6,65.4,16.7c21.8,11.1,43.6,50.6,65.4,50.6s43.6-1.7,65.4-3.4s43.6-6.8,65.4-6.8
					s43.6,16.9,65.4,16.9c21.8,0,43.6-2.8,65.4-6.8c21.8-3.9,43.6-10.1,65.4-16.9s43.6-14.6,65.4-23.6c21.8-9,43.6-30.4,65.4-30.4
					s43.6,8.4,65.4,16.9c21.8,8.4,43.6,21.1,65.4,33.8"/>
				
					<path id="BAHRAIN" style="clip-path:url(#SVGID_00000017502960243465640880000007111087807937559688_);fill:none;stroke:#C4C4C4;stroke-linecap:round;stroke-linejoin:round;" d="
					M29.5,150.2c21.8,4.2,43.6,8.3,65.4,12s43.6,5.1,65.4,10.1c21.8,5.1,43.6,10.7,65.4,20.3s43.6,23.1,65.4,37.1
					c21.8,14.1,43.6,47.3,65.4,47.3c21.8,0,43.6,0,65.4,0c21.8,0,43.6-20.3,65.4-20.3s43.6,6.8,65.4,6.8c21.8,0,43.6-14.6,65.4-27
					c21.8-12.4,43.6-31.5,65.4-47.3c21.8-15.8,43.6-31.5,65.4-47.3"/>
				
					<path id="BELARUS" style="clip-path:url(#SVGID_00000017502960243465640880000007111087807937559688_);fill:none;stroke:#C4C4C4;stroke-linecap:round;stroke-linejoin:round;" d="
					M29.5,230.3c21.8,5.8,43.6,11.5,65.4,28.5c21.8,17,43.6,48.6,65.4,73.3c21.8,24.8,43.6,51.2,65.4,75.3s43.6,59.9,65.4,69.3
					c21.8,9.4,43.6,14,65.4,14c21.8,0,43.6-11.6,65.4-19.9c21.8-8.3,43.6-14.8,65.4-30c21.8-15.2,43.6-41.9,65.4-61.2
					c21.8-19.2,43.6-33.4,65.4-54.3s43.6-56.1,65.4-70.9c21.8-14.8,43.6-18.5,65.4-22.2"/>
				
					<path id="BELGIUM" style="clip-path:url(#SVGID_00000017502960243465640880000007111087807937559688_);fill:none;stroke:#C4C4C4;stroke-linecap:round;stroke-linejoin:round;" d="
					M29.5,314.4c21.8,1.8,43.6,3.6,65.4,10.8c21.8,7.2,43.6,24,65.4,36.3c21.8,12.3,43.6,22.6,65.4,37.5
					c21.8,14.9,43.6,39.1,65.4,51.9s43.6,24.7,65.4,24.7c21.8,0,43.6-1.6,65.4-4.9c21.8-3.3,43.6-30,65.4-40.5
					c21.8-10.5,43.6-10.3,65.4-22.3c21.8-12.1,43.6-34.9,65.4-50c21.8-15.1,43.6-39.1,65.4-40.6c21.8-1.5,43.6-1.9,65.4-2.3"/>
				
					<path id="BENIN" style="clip-path:url(#SVGID_00000017502960243465640880000007111087807937559688_);fill:none;stroke:#C4C4C4;stroke-linecap:round;stroke-linejoin:round;" d="
					M29.5,355.3C51.3,366.2,73.1,377,94.9,377s43.6-14.9,65.4-29.7s43.6-42.3,65.4-59.4s43.6-43.2,65.4-43.2s43.6,18.2,65.4,18.2
					c21.8,0,43.6,0,65.4,0c21.8,0,43.6-12.2,65.4-12.2s43.6,20.9,65.4,20.9c21.8,0,43.6-2.7,65.4-2.7s43.6,0,65.4,0
					c21.8,0,43.6,20.9,65.4,41.9"/>
				
					<path id="BOSNIA_AND_HERZEGOVINA" style="clip-path:url(#SVGID_00000017502960243465640880000007111087807937559688_);fill:none;stroke:#C4C4C4;stroke-linecap:round;stroke-linejoin:round;" d="
					M29.5,235.1c21.8,8,43.6,15.9,65.4,29s43.6,33.2,65.4,49.4s43.6,28.2,65.4,47.9s43.6,51.1,65.4,70.7s43.6,47.1,65.4,47.1
					c21.8,0,43.6-8.4,65.4-17.9c21.8-9.5,43.6-26.4,65.4-38.9s43.6-24,65.4-35.7c21.8-11.7,43.6-22.6,65.4-34.6
					c21.8-12,43.6-27.1,65.4-37.4c21.8-10.3,43.6-17.3,65.4-24.3"/>
				
					<path id="BRAZIL" style="clip-path:url(#SVGID_00000017502960243465640880000007111087807937559688_);fill:none;stroke:#C4C4C4;stroke-linecap:round;stroke-linejoin:round;" d="
					M29.5,288.2c21.8,0.6,43.6,1.2,65.4,3.5c21.8,2.4,43.6,19.8,65.4,19.8s43.6-0.5,65.4-0.5s43.6,0.2,65.4,0.7
					c21.8,0.4,43.6,14.8,65.4,14.8c21.8,0,43.6-3.4,65.4-4.5c21.8-1.1,43.6-1.8,65.4-1.8s43.6,7.8,65.4,7.8
					c21.8,0,43.6-2.1,65.4-4.6c21.8-2.6,43.6-8.3,65.4-10.8c21.8-2.5,43.6-3.4,65.4-4.2"/>
				
					<path id="BRUNEI_DARUSSALAM" style="clip-path:url(#SVGID_00000017502960243465640880000007111087807937559688_);fill:none;stroke:#C4C4C4;stroke-linecap:round;stroke-linejoin:round;" d="
					M29.5,273.7c21.8,4.1,43.6,8.1,65.4,12.4s43.6,13.5,65.4,13.5s43.6-0.1,65.4-0.4c21.8-0.3,43.6-6.4,65.4-6.4s43.6,0.3,65.4,0.9
					c21.8,0.6,43.6,16.3,65.4,16.3c21.8,0,43.6-11.6,65.4-16.8s43.6-8.3,65.4-14.7c21.8-6.4,43.6-23.9,65.4-23.9s43.6,6.5,65.4,11.9
					c21.8,5.4,43.6,13.1,65.4,20.7"/>
				
					<path id="BULGARIA" style="clip-path:url(#SVGID_00000017502960243465640880000007111087807937559688_);fill:none;stroke:#C4C4C4;stroke-linecap:round;stroke-linejoin:round;" d="
					M29.5,177.2c21.8,6.9,43.6,13.9,65.4,27.8s43.6,33.8,65.4,55.9s43.6,52,65.4,76.6c21.8,24.6,43.6,53.4,65.4,71.1
					c21.8,17.8,43.6,35.4,65.4,35.4c21.8,0,43.6-2.7,65.4-8.2c21.8-5.5,43.6-16.9,65.4-27.5c21.8-10.6,43.6-20.5,65.4-35.8
					c21.8-15.3,43.6-37.9,65.4-56s43.6-37,65.4-52.6c21.8-15.6,43.6-28.5,65.4-41.3"/>
				
					<path id="CAMEROON" style="clip-path:url(#SVGID_00000017502960243465640880000007111087807937559688_);fill:none;stroke:#C4C4C4;stroke-linecap:round;stroke-linejoin:round;" d="
					M29.5,380.3c21.8,7.4,43.6,14.8,65.4,14.8s43.6-16.6,65.4-28s43.6-24.7,65.4-40.6c21.8-15.8,43.6-50,65.4-54.5
					c21.8-4.5,43.6-6.7,65.4-6.7c21.8,0,43.6,5.4,65.4,5.4c21.8,0,43.6-1.7,65.4-1.7s43.6,24.7,65.4,26.8
					c21.8,2.2,43.6,2.6,65.4,3.2c21.8,0.6,43.6,0.3,65.4,0.9c21.8,0.6,43.6,17.1,65.4,33.5"/>
				
					<path id="CAPE_VERDE" style="clip-path:url(#SVGID_00000017502960243465640880000007111087807937559688_);fill:none;stroke:#C4C4C4;stroke-linecap:round;stroke-linejoin:round;" d="
					M29.5,451.7c21.8-2.1,43.6-4.1,65.4-6.9s43.6-3.3,65.4-9.9c21.8-6.6,43.6-51,65.4-51s43.6,8.2,65.4,24.7
					c21.8,16.5,43.6,82.1,65.4,82.1c21.8,0,43.6-6.4,65.4-17.2c21.8-10.8,43.6-47.4,65.4-47.4s43.6,48.9,65.4,48.9
					c21.8,0,43.6-53.5,65.4-53.5s43.6,58.3,65.4,58.3c21.8,0,43.6-1.3,65.4-2.6"/>
				
					<path id="CHAD" style="clip-path:url(#SVGID_00000017502960243465640880000007111087807937559688_);fill:none;stroke:#C4C4C4;stroke-linecap:round;stroke-linejoin:round;" d="
					M29.5,267.1c21.8,10.3,43.6,20.7,65.4,20.7s43.6-15.1,65.4-25.9c21.8-10.8,43.6-27.7,65.4-38.8s43.6-28.1,65.4-28.1
					s43.6,2.5,65.4,3.9c21.8,1.4,43.6,4.5,65.4,4.5c21.8,0,43.6-6.8,65.4-6.8s43.6,24.2,65.4,24.2c21.8,0,43.6-1.8,65.4-2.8
					s43.6-3.4,65.4-3.4c21.8,0,43.6,8.4,65.4,16.9"/>
				
					<path id="CHINA" style="clip-path:url(#SVGID_00000017502960243465640880000007111087807937559688_);fill:none;stroke:#C4C4C4;stroke-linecap:round;stroke-linejoin:round;" d="
					M29.5,256c21.8,2.1,43.6,4.1,65.4,9.9s43.6,18.1,65.4,24.6c21.8,6.5,43.6,8.3,65.4,14.2c21.8,5.8,43.6,14.7,65.4,20.8
					s43.6,15.7,65.4,15.9c21.8,0.3,43.6,0.4,65.4,0.4c21.8,0,43.6-5,65.4-9.3s43.6-10.5,65.4-16.6c21.8-6.1,43.6-12.6,65.4-20.1
					c21.8-7.5,43.6-23.7,65.4-25c21.8-1.2,43.6-1.5,65.4-1.8"/>
				
					<path id="COLOMBIA" style="clip-path:url(#SVGID_00000017502960243465640880000007111087807937559688_);fill:none;stroke:#C4C4C4;stroke-linecap:round;stroke-linejoin:round;" d="
					M29.5,330.9c21.8,1.6,43.6,3.2,65.4,5.5c21.8,2.3,43.6,5.6,65.4,8.1s43.6,7,65.4,7s43.6-8.1,65.4-13.1s43.6-11.4,65.4-16.8
					c21.8-5.4,43.6-15.6,65.4-15.6c21.8,0,43.6,9.7,65.4,16c21.8,6.3,43.6,15.1,65.4,22c21.8,6.9,43.6,19.4,65.4,19.4
					s43.6-4,65.4-4.4c21.8-0.5,43.6-0.6,65.4-0.7"/>
				
					<path id="COLOMBIA__x28_SAN_ANDRES_AND_PROVIDENCIA_ISLANDS_x29_" style="clip-path:url(#SVGID_00000017502960243465640880000007111087807937559688_);fill:none;stroke:#C4C4C4;stroke-linecap:round;stroke-linejoin:round;" d="
					M29.5,315.8c21.8-9.6,43.6-19.2,65.4-19.2s43.6,2.7,65.4,8s43.6,27.1,65.4,27.1s43.6-16.6,65.4-22.5s43.6-4.2,65.4-12.7
					c21.8-8.5,43.6-29.9,65.4-39.8c21.8-9.8,43.6-12.8,65.4-19.1c21.8-6.2,43.6-17.9,65.4-18.4c21.8-0.5,43.6-0.8,65.4-0.8
					s43.6,11.9,65.4,29.4c21.8,17.5,43.6,46.6,65.4,75.7"/>
				
					<path id="COSTA_RICA" style="clip-path:url(#SVGID_00000017502960243465640880000007111087807937559688_);fill:none;stroke:#C4C4C4;stroke-linecap:round;stroke-linejoin:round;" d="
					M29.5,359.5c21.8-4.1,43.6-8.2,65.4-8.2s43.6,0,65.4,0s43.6-3.8,65.4-6.8s43.6-3.8,65.4-11.3c21.8-7.5,43.6-27.2,65.4-38.3
					c21.8-11.1,43.6-21.2,65.4-28.1c21.8-6.9,43.6-13.5,65.4-13.5s43.6,0.4,65.4,1.1c21.8,0.7,43.6,6.8,65.4,18
					c21.8,11.2,43.6,34.1,65.4,49.1c21.8,15,43.6,28,65.4,41"/>
				
					<path id="CROATIA" style="clip-path:url(#SVGID_00000017502960243465640880000007111087807937559688_);fill:none;stroke:#C4C4C4;stroke-linecap:round;stroke-linejoin:round;" d="
					M29.5,179.5c21.8,11.4,43.6,22.7,65.4,39.6s43.6,41,65.4,61.5s43.6,39.5,65.4,61.3c21.8,21.8,43.6,55.7,65.4,69.3
					c21.8,13.6,43.6,20.5,65.4,20.5c21.8,0,43.6-2.5,65.4-7.5c21.8-5,43.6-24.2,65.4-35.2s43.6-18.1,65.4-30.9
					c21.8-12.7,43.6-29.4,65.4-45.6c21.8-16.1,43.6-37.5,65.4-51.2c21.8-13.8,43.6-22.6,65.4-31.4"/>
				
					<path id="CYPRUS" style="clip-path:url(#SVGID_00000017502960243465640880000007111087807937559688_);fill:none;stroke:#C4C4C4;stroke-linecap:round;stroke-linejoin:round;" d="
					M29.5,87.4c21.8,10.4,43.6,20.7,65.4,34.3s43.6,29.3,65.4,47.3s43.6,43.3,65.4,60.8s43.6,28.7,65.4,43.9
					c21.8,15.2,43.6,42.8,65.4,47.3c21.8,4.5,43.6,6.8,65.4,6.8c21.8,0,43.6-18,65.4-27c21.8-9,43.6-13.5,65.4-27
					c21.8-13.5,43.6-35.4,65.4-54s43.6-38.8,65.4-57.4c21.8-18.6,43.6-36.3,65.4-54"/>
				
					<path id="CZECH_REPUBLIC" style="clip-path:url(#SVGID_00000017502960243465640880000007111087807937559688_);fill:none;stroke:#C4C4C4;stroke-linecap:round;stroke-linejoin:round;" d="
					M29.5,277.5c21.8,5.4,43.6,10.7,65.4,23s43.6,34.8,65.4,50.7c21.8,16,43.6,25.7,65.4,45.1c21.8,19.3,43.6,61.8,65.4,71
					s43.6,13.7,65.4,13.7c21.8,0,43.6-2.3,65.4-7c21.8-4.7,43.6-20,65.4-32.9s43.6-28.4,65.4-44.3c21.8-15.9,43.6-34.9,65.4-51.1
					c21.8-16.2,43.6-39.5,65.4-46.2c21.8-6.7,43.6-8.4,65.4-10"/>
				
					<path id="DJIBOUTI" style="clip-path:url(#SVGID_00000017502960243465640880000007111087807937559688_);fill:none;stroke:#C4C4C4;stroke-linecap:round;stroke-linejoin:round;" d="
					M29.5,232c21.8-3.1,43.6-6.3,65.4-10s43.6-8.6,65.4-12.2c21.8-3.6,43.6-9.5,65.4-9.5s43.6,0.5,65.4,1.5
					c21.8,1,43.6,16.5,65.4,25.8c21.8,9.3,43.6,28.9,65.4,30.2c21.8,1.3,43.6,1.9,65.4,1.9s43.6-14.6,65.4-22.1
					c21.8-7.4,43.6-13.1,65.4-22.6c21.8-9.5,43.6-34.4,65.4-34.4c21.8,0,43.6,11.8,65.4,23.7"/>
				
					<path id="DOMINICA" style="clip-path:url(#SVGID_00000017502960243465640880000007111087807937559688_);fill:none;stroke:#C4C4C4;stroke-linecap:round;stroke-linejoin:round;" d="
					M29.5,263.3c21.8-0.8,43.6-1.6,65.4-1.6s43.6,23,65.4,23s43.6-0.2,65.4-0.2s43.6,15.3,65.4,20.7c21.8,5.4,43.6,11.9,65.4,11.9
					c21.8,0,43.6-4.3,65.4-10.2c21.8-5.9,43.6-21.5,65.4-25.3c21.8-3.8,43.6-1.9,65.4-5.7c21.8-3.8,43.6-28.1,65.4-28.1
					s43.6,7.5,65.4,10.7c21.8,3.2,43.6,5.9,65.4,8.6"/>
				
					<path id="DOMINICAN_REPUBLIC" style="clip-path:url(#SVGID_00000017502960243465640880000007111087807937559688_);fill:none;stroke:#C4C4C4;stroke-linecap:round;stroke-linejoin:round;" d="
					M29.5,232.8c21.8,1,43.6,2,65.4,5.9c21.8,3.9,43.6,19.6,65.4,25.5c21.8,5.9,43.6,9.7,65.4,9.7s43.6-3.4,65.4-3.4
					s43.6,17.8,65.4,17.8c21.8,0,43.6-12.4,65.4-18.8c21.8-6.4,43.6-14.7,65.4-19.4c21.8-4.8,43.6-9.2,65.4-9.2
					c21.8,0,43.6,1.2,65.4,3.7c21.8,2.4,43.6,17.1,65.4,17.1c21.8,0,43.6-7.4,65.4-14.9"/>
				
					<path id="EGYPT" style="clip-path:url(#SVGID_00000017502960243465640880000007111087807937559688_);fill:none;stroke:#C4C4C4;stroke-linecap:round;stroke-linejoin:round;" d="
					M29.5,115.6c21.8,6.6,43.6,13.2,65.4,24.2s43.6,30.7,65.4,42.2s43.6,14.4,65.4,27.1c21.8,12.7,43.6,37.6,65.4,49.2
					C313,270,334.8,279,356.7,279c21.8,0,43.6-1,65.4-3c21.8-2,43.6-23.5,65.4-31.4c21.8-7.9,43.6-8.4,65.4-15.9
					c21.8-7.5,43.6-18.6,65.4-28.9s43.6-19.9,65.4-32.9c21.8-13,43.6-29.1,65.4-45.2"/>
				
					<path id="ERITREA" style="clip-path:url(#SVGID_00000017502960243465640880000007111087807937559688_);fill:none;stroke:#C4C4C4;stroke-linecap:round;stroke-linejoin:round;" d="
					M29.5,352.6c21.8-0.2,43.6-0.4,65.4-1.2s43.6-46.7,65.4-67.5s43.6-48.4,65.4-57.4c21.8-9,43.6-13.5,65.4-13.5s43.6,3.4,65.4,3.4
					c21.8,0,43.6-10.1,65.4-10.1c21.8,0,43.6,1.1,65.4,3.4c21.8,2.3,43.6,11.3,65.4,13.5c21.8,2.3,43.6,1.1,65.4,3.4
					c21.8,2.3,43.6,8.4,65.4,16.9c21.8,8.4,43.6,21.1,65.4,33.8"/>
				
					<path id="ESTONIA" style="clip-path:url(#SVGID_00000017502960243465640880000007111087807937559688_);fill:none;stroke:#C4C4C4;stroke-linecap:round;stroke-linejoin:round;" d="
					M29.5,209.8c21.8,19,43.6,38.1,65.4,62.7s43.6,59.8,65.4,84.8c21.8,25,43.6,43.9,65.4,65s43.6,52.1,65.4,61.3
					s43.6,13.8,65.4,13.8c21.8,0,43.6-3.2,65.4-9.5c21.8-6.4,43.6-22,65.4-39.4c21.8-17.4,43.6-42.7,65.4-64.9
					c21.8-22.2,43.6-42.6,65.4-68.5s43.6-65.8,65.4-87.2c21.8-21.4,43.6-31.2,65.4-41.1"/>
				
					<path id="FIJI" style="clip-path:url(#SVGID_00000017502960243465640880000007111087807937559688_);fill:none;stroke:#C4C4C4;stroke-linecap:round;stroke-linejoin:round;" d="
					M29.5,333.5c21.8-2.6,43.6-5.2,65.4-5.2s43.6,8.2,65.4,8.2s43.6-5.7,65.4-9.2c21.8-3.5,43.6-6.1,65.4-11.9
					c21.8-5.8,43.6-22.7,65.4-22.7c21.8,0,43.6,18.6,65.4,23.1c21.8,4.5,43.6,2.9,65.4,6.8s43.6,16.6,65.4,16.6
					c21.8,0,43.6-2.8,65.4-3.2s43.6-0.6,65.4-0.6c21.8,0,43.6,1.4,65.4,2.7"/>
				
					<path id="FINLAND" style="clip-path:url(#SVGID_00000017502960243465640880000007111087807937559688_);fill:none;stroke:#C4C4C4;stroke-linecap:round;stroke-linejoin:round;" d="
					M29.5,222.7c21.8,25.2,43.6,50.3,65.4,77.5s43.6,61.6,65.4,85.4s43.6,40,65.4,57.5c21.8,17.4,43.6,37.3,65.4,47.2
					s43.6,14.9,65.4,14.9c21.8,0,43.6-4.1,65.4-12.4c21.8-8.3,43.6-32,65.4-50.7c21.8-18.7,43.6-40.7,65.4-61.2
					c21.8-20.6,43.6-38.8,65.4-62.3s43.6-60.7,65.4-79c21.8-18.3,43.6-24.4,65.4-30.6"/>
				
					<path id="FRANCE" style="clip-path:url(#SVGID_00000017502960243465640880000007111087807937559688_);fill:none;stroke:#C4C4C4;stroke-linecap:round;stroke-linejoin:round;" d="
					M29.5,203.2c21.8,14.2,43.6,28.3,65.4,43.6s43.6,29.7,65.4,48.2c21.8,18.5,43.6,43.8,65.4,62.8c21.8,19,43.6,39.3,65.4,51.5
					c21.8,12.1,43.6,21.4,65.4,21.4c21.8,0,43.6-1.4,65.4-4.1c21.8-2.7,43.6-22.5,65.4-35.3c21.8-12.8,43.6-27.6,65.4-41.6
					c21.8-14,43.6-30.2,65.4-42.3c21.8-12.1,43.6-18.9,65.4-30.1c21.8-11.2,43.6-24.2,65.4-37.1"/>
				
					<path id="FRANCE__x28_CARIBBEAN_ISLANDS_x2C__GUADELOUPE_x2C__MARTINIQUE_x29_" style="clip-path:url(#SVGID_00000017502960243465640880000007111087807937559688_);fill:none;stroke:#C4C4C4;stroke-linecap:round;stroke-linejoin:round;" d="
					M29.5,349.3c21.8,0.6,43.6,1.2,65.4,3.7c21.8,2.5,43.6,13.2,65.4,14.1s43.6,0.8,65.4,1.2c21.8,0.4,43.6,1.1,65.4,1.1
					s43.6-1.6,65.4-3.7c21.8-2.1,43.6-7.8,65.4-9.2c21.8-1.4,43.6-2.1,65.4-2.1s43.6,0.9,65.4,0.9c21.8,0,43.6-3.9,65.4-3.9
					s43.6,4.3,65.4,4.7c21.8,0.3,43.6,0.4,65.4,0.5"/>
				
					<path id="FRANCE__x28_FRENCH_DEPARTMENT_OF_GUYANA_x29_" style="clip-path:url(#SVGID_00000017502960243465640880000007111087807937559688_);fill:none;stroke:#C4C4C4;stroke-linecap:round;stroke-linejoin:round;" d="
					M29.5,290.7c21.8-8.4,43.6-16.9,65.4-24.3s43.6-20.2,65.4-20.2s43.6,0.2,65.4,0.5c21.8,0.3,43.6,15.8,65.4,31.7
					s43.6,47.2,65.4,63.8c21.8,16.6,43.6,35.7,65.4,35.7c21.8,0,43.6-10.8,65.4-10.8s43.6,1.8,65.4,1.8c21.8,0,43.6-11.3,65.4-11.3
					s43.6,15.8,65.4,15.8c21.8,0,43.6-12.7,65.4-25.5"/>
				
					<path id="FRANCE__x28_ISLANDS_IN_THE_INDIAN_OCEAN_x29_" style="clip-path:url(#SVGID_00000017502960243465640880000007111087807937559688_);fill:none;stroke:#C4C4C4;stroke-linecap:round;stroke-linejoin:round;" d="
					M29.5,417.7c21.8-5.8,43.6-11.6,65.4-17.3c21.8-5.7,43.6-11.1,65.4-17c21.8-6,43.6-11.8,65.4-18.9s43.6-18.1,65.4-23.9
					c21.8-5.8,43.6-8.3,65.4-11c21.8-2.6,43.6-4.9,65.4-4.9c21.8,0,43.6,7.9,65.4,15.5c21.8,7.6,43.6,20.7,65.4,30.3
					c21.8,9.5,43.6,19.7,65.4,27c21.8,7.3,43.6,11.5,65.4,16.6c21.8,5.1,43.6,9.4,65.4,13.8"/>
				
					<path id="FRENCH_POLYNESIA" style="clip-path:url(#SVGID_00000017502960243465640880000007111087807937559688_);fill:none;stroke:#C4C4C4;stroke-linecap:round;stroke-linejoin:round;" d="
					M29.5,295.7c21.8-3.8,43.6-7.6,65.4-10.3c21.8-2.7,43.6-5.8,65.4-5.8s43.6,2.8,65.4,4.6c21.8,1.8,43.6,3.3,65.4,6.3
					c21.8,3,43.6,11.9,65.4,11.9c21.8,0,43.6-29.2,65.4-30.6c21.8-1.4,43.6-2.1,65.4-2.1s43.6,9,65.4,9.9
					c21.8,0.9,43.6,0.4,65.4,1.3c21.8,0.9,43.6,12.8,65.4,17.9c21.8,5.2,43.6,9.1,65.4,13"/>
				
					<path id="GABON" style="clip-path:url(#SVGID_00000017502960243465640880000007111087807937559688_);fill:none;stroke:#C4C4C4;stroke-linecap:round;stroke-linejoin:round;" d="
					M29.5,417.7C51.3,428.9,73.1,440,94.9,440s43.6-9.3,65.4-15.4s43.6-14.4,65.4-21.1c21.8-6.7,43.6-15.2,65.4-19.3
					c21.8-4,43.6-3.2,65.4-6c21.8-2.9,43.6-6,65.4-11.3c21.8-5.3,43.6-20.6,65.4-20.6s43.6,10,65.4,10c21.8,0,43.6-5,65.4-5
					s43.6,11.1,65.4,19.3c21.8,8.2,43.6,19.1,65.4,29.9"/>
				
					<path id="GEORGIA" style="clip-path:url(#SVGID_00000017502960243465640880000007111087807937559688_);fill:none;stroke:#C4C4C4;stroke-linecap:round;stroke-linejoin:round;" d="
					M29.5,266.3c21.8,1.1,43.6,2.2,65.4,6.7c21.8,4.4,43.6,12.6,65.4,23.7s43.6,25.7,65.4,43.3s43.6,48,65.4,62
					c21.8,14,43.6,21.9,65.4,21.9c21.8,0,43.6-1.8,65.4-5.4c21.8-3.6,43.6-11.1,65.4-19.1c21.8-8,43.6-17.7,65.4-28.8
					c21.8-11.1,43.6-24.8,65.4-37.7c21.8-12.9,43.6-26.8,65.4-39.6c21.8-12.8,43.6-24.8,65.4-36.9"/>
				
					<path id="GERMANY" style="clip-path:url(#SVGID_00000017502960243465640880000007111087807937559688_);fill:none;stroke:#C4C4C4;stroke-linecap:round;stroke-linejoin:round;" d="
					M29.5,277.4c21.8,4.3,43.6,8.5,65.4,20.2s43.6,33.1,65.4,49.7S204,379,225.8,397s43.6,47.1,65.4,58.6s43.6,17.3,65.4,17.3
					c21.8,0,43.6-1.9,65.4-5.8c21.8-3.9,43.6-25.8,65.4-37.9s43.6-20.6,65.4-34.8c21.8-14.2,43.6-34.1,65.4-50.3
					s43.6-40.8,65.4-47.1c21.8-6.3,43.6-7.9,65.4-9.5"/>
				
					<path id="GREECE" style="clip-path:url(#SVGID_00000017502960243465640880000007111087807937559688_);fill:none;stroke:#C4C4C4;stroke-linecap:round;stroke-linejoin:round;" d="
					M29.5,119.9c21.8,10.2,43.6,20.4,65.4,37.6s43.6,40.1,65.4,65.9s43.6,65.9,65.4,89.1s43.6,36.2,65.4,49.8
					c21.8,13.6,43.6,31.6,65.4,31.6c21.8,0,43.6-0.6,65.4-1.9c21.8-1.2,43.6-11.8,65.4-20.2c21.8-8.3,43.6-13.7,65.4-29.8
					c21.8-16,43.6-44.8,65.4-66.4s43.6-44.8,65.4-63c21.8-18.2,43.6-32.2,65.4-46.2"/>
				
					<path id="GREENLAND" style="clip-path:url(#SVGID_00000017502960243465640880000007111087807937559688_);fill:none;stroke:#C4C4C4;stroke-linecap:round;stroke-linejoin:round;" d="
					M29.5,245.7c21.8,22.8,43.6,45.7,65.4,64.5s43.6,25.8,65.4,48.6c21.8,22.8,43.6,63.3,65.4,88.1s43.6,50.9,65.4,60.5
					c21.8,9.5,43.6,14.3,65.4,14.3c21.8,0,43.6-1,65.4-3.1c21.8-2.1,43.6-23.8,65.4-48.8c21.8-25,43.6-71,65.4-101.2
					c21.8-30.2,43.6-61.2,65.4-80s43.6-25.1,65.4-33.1c21.8-8,43.6-11.4,65.4-14.8"/>
				
					<path id="GUINEA" style="clip-path:url(#SVGID_00000017502960243465640880000007111087807937559688_);fill:none;stroke:#C4C4C4;stroke-linecap:round;stroke-linejoin:round;" d="
					M29.5,362.4c21.8,12.9,43.6,25.9,65.4,25.9s43.6-31,65.4-44.6c21.8-13.6,43.6-24.9,65.4-37.2c21.8-12.3,43.6-31.3,65.4-36.5
					c21.8-5.2,43.6-4.6,65.4-7.8c21.8-3.2,43.6-7.8,65.4-11.6c21.8-3.9,43.6-11.6,65.4-11.6s43.6,12.3,65.4,16.8
					c21.8,4.5,43.6,5.2,65.4,10.4c21.8,5.1,43.6,11.8,65.4,20.5c21.8,8.7,43.6,20.1,65.4,31.5"/>
				
					<path id="GUYANA" style="clip-path:url(#SVGID_00000017502960243465640880000007111087807937559688_);fill:none;stroke:#C4C4C4;stroke-linecap:round;stroke-linejoin:round;" d="
					M29.5,296.6c21.8-12.5,43.6-24.9,65.4-27.6c21.8-2.7,43.6-4.1,65.4-4.1s43.6,0.8,65.4,2.4c21.8,1.6,43.6,10.1,65.4,18.9
					s43.6,34.1,65.4,34.1c21.8,0,43.6-7.6,65.4-15.7c21.8-8,43.6-32.6,65.4-32.6s43.6,7.5,65.4,12.3c21.8,4.8,43.6,9.1,65.4,16.6
					s43.6,20.3,65.4,28c21.8,7.7,43.6,13.1,65.4,18.4"/>
				
					<path id="HONDURAS" style="clip-path:url(#SVGID_00000017502960243465640880000007111087807937559688_);fill:none;stroke:#C4C4C4;stroke-linecap:round;stroke-linejoin:round;" d="
					M29.5,284.3c21.8,0,43.6,0,65.4,0.1s43.6,26.3,65.4,26.3s43.6-17.1,65.4-23.4c21.8-6.3,43.6-9.6,65.4-14.4s43.6-9.4,65.4-14.3
					c21.8-4.9,43.6-8.6,65.4-14.9c21.8-6.2,43.6-20.9,65.4-22.6s43.6-2.5,65.4-2.5c21.8,0,43.6,21.8,65.4,31.6s43.6,17.5,65.4,27.1
					c21.8,9.6,43.6,20.2,65.4,30.7"/>
				
					<path id="HONG_KONG" style="clip-path:url(#SVGID_00000017502960243465640880000007111087807937559688_);fill:none;stroke:#C4C4C4;stroke-linecap:round;stroke-linejoin:round;" d="
					M29.5,263.4c21.8,12.7,43.6,25.4,65.4,34.6c21.8,9.3,43.6,21,65.4,21s43.6-7.9,65.4-7.9s43.6,5.7,65.4,8.1s43.6,2.2,65.4,6.6
					c21.8,4.4,43.6,18.4,65.4,31.7c21.8,13.3,43.6,39.6,65.4,48.2c21.8,8.5,43.6,12.8,65.4,12.8c21.8,0,43.6-7.1,65.4-17.6
					s43.6-35.7,65.4-44.9c21.8-9.2,43.6-11.5,65.4-13.8"/>
				
					<path id="HUNGARY" style="clip-path:url(#SVGID_00000017502960243465640880000007111087807937559688_);fill:none;stroke:#C4C4C4;stroke-linecap:round;stroke-linejoin:round;" d="
					M29.5,213.8c21.8,9.3,43.6,18.6,65.4,33.6c21.8,15,43.6,38.7,65.4,56.5c21.8,17.8,43.6,26.9,65.4,50.4s43.6,73.3,65.4,90.5
					s43.6,25.8,65.4,25.8c21.8,0,43.6-2.9,65.4-8.7c21.8-5.8,43.6-23.9,65.4-38.8c21.8-14.9,43.6-33,65.4-50.4
					c21.8-17.4,43.6-36.9,65.4-53.9c21.8-17,43.6-36.1,65.4-47.9c21.8-11.8,43.6-17.4,65.4-22.9"/>
				
					<path id="ICELAND" style="clip-path:url(#SVGID_00000017502960243465640880000007111087807937559688_);fill:none;stroke:#C4C4C4;stroke-linecap:round;stroke-linejoin:round;" d="
					M29.5,338c21.8,8,43.6,16.1,65.4,27.3s43.6,25.9,65.4,40s43.6,30,65.4,44.7c21.8,14.7,43.6,32.5,65.4,43.7
					c21.8,11.1,43.6,23.2,65.4,23.2c21.8,0,43.6-4,65.4-11.7c21.8-7.7,43.6-20.7,65.4-34.7c21.8-14,43.6-32.9,65.4-49.4
					c21.8-16.5,43.6-33.2,65.4-49.4s43.6-47.4,65.4-47.4c21.8,0,43.6,4.6,65.4,9.1"/>
				
					<path id="INDIA" style="clip-path:url(#SVGID_00000017502960243465640880000007111087807937559688_);fill:none;stroke:#C4C4C4;stroke-linecap:round;stroke-linejoin:round;" d="
					M29.5,375.4c21.8-0.5,43.6-1,65.4-3.1c21.8-2,43.6-29.8,65.4-46c21.8-16.2,43.6-44.3,65.4-51.3s43.6-7.6,65.4-10.5
					s43.6-3.2,65.4-6.9c21.8-3.7,43.6-9.3,65.4-15.2c21.8-6,43.6-20.5,65.4-20.5s43.6,14.4,65.4,14.4c21.8,0,43.6-11.4,65.4-11.4
					s43.6,4.1,65.4,12.2c21.8,8.1,43.6,52.3,65.4,96.4"/>
				
					<path id="IRAN_x2C__ISLAMIC_REPUBLIC_OF" style="clip-path:url(#SVGID_00000017502960243465640880000007111087807937559688_);fill:none;stroke:#C4C4C4;stroke-linecap:round;stroke-linejoin:round;" d="
					M29.5,172.3c21.8,8.5,43.6,17.1,65.4,24s43.6,7.1,65.4,17.4c21.8,10.3,43.6,30.3,65.4,44.7c21.8,14.4,43.6,28.3,65.4,41.7
					c21.8,13.4,43.6,37.3,65.4,38.8c21.8,1.5,43.6,2.3,65.4,2.3c21.8,0,43.6-19.6,65.4-22c21.8-2.4,43.6-1.2,65.4-3.5
					c21.8-2.4,43.6-16.3,65.4-31.2c21.8-14.9,43.6-39.5,65.4-58.4c21.8-19,43.6-37.1,65.4-55.3"/>
				
					<path id="ISRAEL" style="clip-path:url(#SVGID_00000017502960243465640880000007111087807937559688_);fill:none;stroke:#C4C4C4;stroke-linecap:round;stroke-linejoin:round;" d="
					M29.5,236.4c21.8,5.8,43.6,11.5,65.4,20.7s43.6,23.9,65.4,34.2s43.6,18.2,65.4,27.5c21.8,9.3,43.6,17.8,65.4,28.5
					s43.6,35.6,65.4,35.6c21.8,0,43.6-0.5,65.4-1.4c21.8-0.9,43.6-38.6,65.4-38.6s43.6,10.2,65.4,10.2c21.8,0,43.6-22,65.4-34.2
					s43.6-26.1,65.4-38.9c21.8-12.8,43.6-25.3,65.4-37.8"/>
				
					<path id="ITALY" style="clip-path:url(#SVGID_00000017502960243465640880000007111087807937559688_);fill:none;stroke:#C4C4C4;stroke-linecap:round;stroke-linejoin:round;" d="
					M29.5,184.2c21.8,11.2,43.6,22.5,65.4,38.6c21.8,16.1,43.6,39.2,65.4,57.9c21.8,18.6,43.6,36.3,65.4,54
					c21.8,17.7,43.6,39.8,65.4,52.1c21.8,12.4,43.6,22,65.4,22c21.8,0,43.6-3.9,65.4-9.6c21.8-5.8,43.6-16.6,65.4-24.9
					s43.6-14.8,65.4-25c21.8-10.2,43.6-22.9,65.4-36.2c21.8-13.4,43.6-30.6,65.4-43.9c21.8-13.3,43.6-24.6,65.4-35.9"/>
				
					<path id="IVORY_COAST" style="clip-path:url(#SVGID_00000017502960243465640880000007111087807937559688_);fill:none;stroke:#C4C4C4;stroke-linecap:round;stroke-linejoin:round;" d="
					M29.5,388.4c21.8,8.9,43.6,17.8,65.4,17.8s43.6-13.6,65.4-28.9c21.8-15.3,43.6-48,65.4-63.1c21.8-15,43.6-27.2,65.4-27.2
					s43.6,19.5,65.4,19.5c21.8,0,43.6-13.1,65.4-17c21.8-3.9,43.6-6.3,65.4-6.3s43.6,15.8,65.4,15.8c21.8,0,43.6-9.1,65.4-9.1
					s43.6,4.8,65.4,14.3c21.8,9.5,43.6,36.2,65.4,62.9"/>
				
					<path id="JAPAN" style="clip-path:url(#SVGID_00000017502960243465640880000007111087807937559688_);fill:none;stroke:#C4C4C4;stroke-linecap:round;stroke-linejoin:round;" d="
					M29.5,330.3c21.8-8.5,43.6-16.9,65.4-16.9s43.6,39,65.4,39.9s43.6,0.4,65.4,1.3c21.8,0.8,43.6,20,65.4,26.2
					c21.8,6.2,43.6,11.2,65.4,11.2c21.8,0,43.6-0.2,65.4-0.7c21.8-0.5,43.6-6.9,65.4-13.7s43.6-19.6,65.4-27.3
					c21.8-7.6,43.6-13,65.4-18.5s43.6-14.7,65.4-14.7c21.8,0,43.6,17.8,65.4,35.6"/>
				
					<path id="JORDAN" style="clip-path:url(#SVGID_00000017502960243465640880000007111087807937559688_);fill:none;stroke:#C4C4C4;stroke-linecap:round;stroke-linejoin:round;" d="
					M29.5,93.5c21.8,10.7,43.6,21.4,65.4,35c21.8,13.6,43.6,30.7,65.4,46.4s43.6,32.4,65.4,48.1s43.6,30.5,65.4,46.4
					s43.6,48.9,65.4,48.9c21.8,0,43.6,0,65.4,0c21.8,0,43.6-16.6,65.4-24.5c21.8-7.9,43.6-12.8,65.4-22.8
					c21.8-10,43.6-19.8,65.4-37.1s43.6-46.1,65.4-66.7c21.8-20.5,43.6-38.5,65.4-56.5"/>
				
					<path id="KAZAKSTAN__x28_ASIA_x29_" style="clip-path:url(#SVGID_00000017502960243465640880000007111087807937559688_);fill:none;stroke:#C4C4C4;stroke-linecap:round;stroke-linejoin:round;" d="
					M29.5,140c21.8,12.2,43.6,24.4,65.4,41.2s43.6,33.7,65.4,59.3s43.6,68.6,65.4,94.8s43.6,48.2,65.4,62.8s43.6,24.6,65.4,24.6
					c21.8,0,43.6-6.6,65.4-18.6c21.8-12,43.6-39.3,65.4-53.6c21.8-14.3,43.6-15.9,65.4-32.4c21.8-16.4,43.6-45,65.4-66.1
					c21.8-21,43.6-43.8,65.4-60.2c21.8-16.4,43.6-27.3,65.4-38.2"/>
				
					<path id="KAZAKSTAN__x28_EUROPE_x29_" style="clip-path:url(#SVGID_00000017502960243465640880000007111087807937559688_);fill:none;stroke:#C4C4C4;stroke-linecap:round;stroke-linejoin:round;" d="
					M29.5,164.5c21.8,18.1,43.6,36.2,65.4,55.1s43.6,34.4,65.4,58.5s43.6,58.4,65.4,86.3s43.6,62.3,65.4,81.4
					c21.8,19.1,43.6,33,65.4,33c21.8,0,43.6-6.5,65.4-19.6c21.8-13.1,43.6-44,65.4-59.9c21.8-16,43.6-17.6,65.4-35.9
					c21.8-18.3,43.6-44.6,65.4-74s43.6-101,65.4-102.4c21.8-1.5,43.6-1.8,65.4-2.2"/>
				
					<path id="KENYA" style="clip-path:url(#SVGID_00000017502960243465640880000007111087807937559688_);fill:none;stroke:#C4C4C4;stroke-linecap:round;stroke-linejoin:round;" d="
					M29.5,277.2c21.8-0.3,43.6-0.5,65.4-1.5c21.8-1,43.6-18.8,65.4-25c21.8-6.2,43.6-12.2,65.4-12.2s43.6,12.8,65.4,12.8
					s43.6-12,65.4-16.9c21.8-4.8,43.6-12.2,65.4-12.2c21.8,0,43.6,0.2,65.4,0.7c21.8,0.5,43.6,7.4,65.4,14.2
					c21.8,6.8,43.6,26.3,65.4,26.3s43.6-0.7,65.4-0.7c21.8,0,43.6,2.7,65.4,5.4"/>
				
					<path id="KOREA_x2C__REPUBLIC_OF" style="clip-path:url(#SVGID_00000017502960243465640880000007111087807937559688_);fill:none;stroke:#C4C4C4;stroke-linecap:round;stroke-linejoin:round;" d="
					M29.5,345.8c21.8-13.2,43.6-26.5,65.4-26.5s43.6,8.6,65.4,8.6s43.6-18.3,65.4-18.3s43.6,28.4,65.4,34.9s43.6,9.7,65.4,9.7
					c21.8,0,43.6-1.2,65.4-3.5c21.8-2.3,43.6-8.2,65.4-15.4s43.6-20.8,65.4-27.6c21.8-6.8,43.6-7.6,65.4-13.4s43.6-21.1,65.4-21.1
					c21.8,0,43.6,19.2,65.4,38.3"/>
				
					<path id="KUWAIT" style="clip-path:url(#SVGID_00000017502960243465640880000007111087807937559688_);fill:none;stroke:#C4C4C4;stroke-linecap:round;stroke-linejoin:round;" d="
					M29.5,177.9c21.8,6.5,43.6,13,65.4,17.1s43.6,2.5,65.4,7.6s43.6,33.3,65.4,46.2c21.8,12.9,43.6,20.4,65.4,31
					s43.6,32.9,65.4,32.9c21.8,0,43.6-1.7,65.4-5c21.8-3.3,43.6-52.5,65.4-52.5s43.6,31.3,65.4,31.3c21.8,0,43.6-11.1,65.4-21.1
					s43.6-24.6,65.4-38.7c21.8-14.1,43.6-30,65.4-45.9"/>
				
					<path id="KYRGYZ_REPUBLIC" style="clip-path:url(#SVGID_00000017502960243465640880000007111087807937559688_);fill:none;stroke:#C4C4C4;stroke-linecap:round;stroke-linejoin:round;" d="
					M29.5,156.6c21.8,5.7,43.6,11.5,65.4,22.2c21.8,10.7,43.6,22.1,65.4,42s43.6,55,65.4,77.3c21.8,22.3,43.6,40.5,65.4,56.6
					s43.6,40.3,65.4,40.3c21.8,0,43.6-13.6,65.4-19.6c21.8-6,43.6-11.1,65.4-16.5c21.8-5.4,43.6-5.2,65.4-15.7
					c21.8-10.4,43.6-31.1,65.4-47.1s43.6-30.6,65.4-48.8c21.8-18.2,43.6-39.3,65.4-60.4"/>
				
					<path id="LAO_PEOPLE_x27_S_DEMOCRATIC_REPUBLIC" style="clip-path:url(#SVGID_00000017502960243465640880000007111087807937559688_);fill:none;stroke:#C4C4C4;stroke-linecap:round;stroke-linejoin:round;" d="
					M29.5,366c21.8,5.4,43.6,10.9,65.4,10.9s43.6-18.4,65.4-32.4s43.6-45.6,65.4-51.8s43.6-5.9,65.4-9.2
					c21.8-3.3,43.6-6.8,65.4-10.6c21.8-3.8,43.6-9,65.4-12c21.8-2.9,43.6-5.6,65.4-5.6s43.6,10.3,65.4,14
					c21.8,3.8,43.6,3.8,65.4,8.5c21.8,4.7,43.6,6.5,65.4,19.6c21.8,13.1,43.6,40,65.4,67"/>
				
					<path id="LATVIA" style="clip-path:url(#SVGID_00000017502960243465640880000007111087807937559688_);fill:none;stroke:#C4C4C4;stroke-linecap:round;stroke-linejoin:round;" d="
					M29.5,230.6c21.8,12,43.6,24,65.4,44s43.6,51.7,65.4,76.4c21.8,24.7,43.6,49.8,65.4,71.7c21.8,21.9,43.6,50,65.4,59.9
					s43.6,14.9,65.4,14.9c21.8,0,43.6-3.1,65.4-9.3c21.8-6.2,43.6-22.6,65.4-39.3s43.6-40.1,65.4-60.9
					c21.8-20.7,43.6-39.5,65.4-63.6s43.6-62.6,65.4-81c21.8-18.4,43.6-23.8,65.4-29.3"/>
				
					<path id="LITHUANIA" style="clip-path:url(#SVGID_00000017502960243465640880000007111087807937559688_);fill:none;stroke:#C4C4C4;stroke-linecap:round;stroke-linejoin:round;" d="
					M29.5,239.3c21.8,4.3,43.6,8.5,65.4,25.5c21.8,17,43.6,55.3,65.4,80.6c21.8,25.3,43.6,48.7,65.4,71.1s43.6,54,65.4,63.1
					c21.8,9.1,43.6,13.7,65.4,13.7c21.8,0,43.6-3.3,65.4-9.8c21.8-6.5,43.6-25.4,65.4-41.1c21.8-15.7,43.6-33.8,65.4-52.9
					c21.8-19.1,43.6-37.7,65.4-61.6c21.8-23.9,43.6-68.4,65.4-81.9c21.8-13.5,43.6-16.8,65.4-20.2"/>
				
					<path id="LUXEMBOURG" style="clip-path:url(#SVGID_00000017502960243465640880000007111087807937559688_);fill:none;stroke:#C4C4C4;stroke-linecap:round;stroke-linejoin:round;" d="
					M29.5,261.4c21.8,10.7,43.6,21.3,65.4,35.2s43.6,30.3,65.4,48.4c21.8,18,43.6,40.5,65.4,59.9c21.8,19.3,43.6,45.6,65.4,56.1
					s43.6,15.8,65.4,15.8c21.8,0,43.6-0.4,65.4-1.2c21.8-0.8,43.6-36.7,65.4-50.1c21.8-13.4,43.6-15.7,65.4-30.2
					c21.8-14.5,43.6-40.5,65.4-56.6s43.6-32.4,65.4-40.1c21.8-7.7,43.6-9.6,65.4-11.5"/>
				
					<path id="MADAGASCAR" style="clip-path:url(#SVGID_00000017502960243465640880000007111087807937559688_);fill:none;stroke:#C4C4C4;stroke-linecap:round;stroke-linejoin:round;" d="
					M29.5,256c21.8-3.3,43.6-6.6,65.4-11c21.8-4.4,43.6-11.9,65.4-15.5c21.8-3.6,43.6-6.2,65.4-6.2s43.6,2.9,65.4,8.8
					c21.8,5.9,43.6,27.7,65.4,34.8c21.8,7,43.6,9.2,65.4,10.6c21.8,1.4,43.6,2,65.4,2s43.6-1.5,65.4-4.5c21.8-3,43.6-17.7,65.4-20.9
					s43.6-4.8,65.4-4.8c21.8,0,43.6,6.9,65.4,13.8"/>
				
					<path id="MALAWI" style="clip-path:url(#SVGID_00000017502960243465640880000007111087807937559688_);fill:none;stroke:#C4C4C4;stroke-linecap:round;stroke-linejoin:round;" d="
					M29.5,242.8c21.8-8.1,43.6-16.2,65.4-22.9s43.6-17.6,65.4-17.6s43.6,0.8,65.4,2.5c21.8,1.7,43.6,23.8,65.4,42.5
					s43.6,59.3,65.4,69.8c21.8,10.5,43.6,15.7,65.4,15.7c21.8,0,43.6-2,65.4-6.1c21.8-4.1,43.6-12.7,65.4-21.1
					c21.8-8.5,43.6-20.2,65.4-29.7c21.8-9.5,43.6-27.2,65.4-27.2c21.8,0,43.6,0.1,65.4,0.2"/>
				
					<path id="MALAYSIA" style="clip-path:url(#SVGID_00000017502960243465640880000007111087807937559688_);fill:none;stroke:#C4C4C4;stroke-linecap:round;stroke-linejoin:round;" d="
					M29.5,272.8c21.8,12.8,43.6,25.6,65.4,34.3s43.6,14.8,65.4,17.7s43.6,2.3,65.4,4.3s43.6,5.4,65.4,7.8
					c21.8,2.4,43.6,6.4,65.4,6.4c21.8,0,43.6-5.8,65.4-12.7c21.8-6.9,43.6-22.9,65.4-28.9s43.6-5.1,65.4-8.9
					c21.8-3.9,43.6-14.2,65.4-14.2s43.6,3.3,65.4,6.9c21.8,3.6,43.6,9,65.4,14.5"/>
				
					<path id="MALDIVES" style="clip-path:url(#SVGID_00000017502960243465640880000007111087807937559688_);fill:none;stroke:#C4C4C4;stroke-linecap:round;stroke-linejoin:round;" d="
					M29.5,268.5c21.8,10.7,43.6,21.5,65.4,24.7s43.6,4.8,65.4,4.8s43.6-30.2,65.4-30.2s43.6,0.4,65.4,1.3
					c21.8,0.8,43.6,14.1,65.4,14.1c21.8,0,43.6-18.4,65.4-30.2c21.8-11.7,43.6-40.3,65.4-40.3s43.6,2.1,65.4,6.3
					c21.8,4.2,43.6,16.5,65.4,26.8s43.6,26.3,65.4,34.7c21.8,8.3,43.6,11.9,65.4,15.4"/>
				
					<path id="MALI" style="clip-path:url(#SVGID_00000017502960243465640880000007111087807937559688_);fill:none;stroke:#C4C4C4;stroke-linecap:round;stroke-linejoin:round;" d="
					M29.5,267.8c21.8,6.1,43.6,12.2,65.4,12.2s43.6-8.6,65.4-16s43.6-22.1,65.4-28.7s43.6-11.3,65.4-11.3s43.6,14.9,65.4,14.9
					c21.8,0,43.6-2,65.4-5.5c21.8-3.4,43.6-15.2,65.4-15.2s43.6,13.4,65.4,16.7c21.8,3.3,43.6,5,65.4,5s43.6-4.2,65.4-4.2
					c21.8,0,43.6,14.7,65.4,29.5"/>
				
					<path id="MAURITIUS" style="clip-path:url(#SVGID_00000017502960243465640880000007111087807937559688_);fill:none;stroke:#C4C4C4;stroke-linecap:round;stroke-linejoin:round;" d="
					M29.5,291.7c21.8-0.6,43.6-1.1,65.4-3.4c21.8-2.3,43.6-3.6,65.4-10.7c21.8-7.1,43.6-24.5,65.4-31.8
					c21.8-7.3,43.6-12.1,65.4-12.1s43.6,6.1,65.4,6.1c21.8,0,43.6-2.2,65.4-2.2c21.8,0,43.6,8.1,65.4,12.8
					c21.8,4.6,43.6,9.7,65.4,15c21.8,5.3,43.6,13.3,65.4,16.7s43.6,2.4,65.4,5.1c21.8,2.6,43.6,6.7,65.4,10.7"/>
				
					<path id="MEXICO" style="clip-path:url(#SVGID_00000017502960243465640880000007111087807937559688_);fill:none;stroke:#C4C4C4;stroke-linecap:round;stroke-linejoin:round;" d="
					M29.5,295.4c21.8-1.3,43.6-2.6,65.4-2.6s43.6,22.2,65.4,22.2s43.6-18.9,65.4-24s43.6-7.7,65.4-7.7s43.6,32.7,65.4,32.7
					c21.8,0,43.6-4.6,65.4-10.8c21.8-6.2,43.6-20.4,65.4-26.4s43.6-7.1,65.4-9.7c21.8-2.6,43.6-5.8,65.4-5.8s43.6,0.2,65.4,0.7
					c21.8,0.5,43.6,11.7,65.4,22.9"/>
				
					<path id="MOLDOVA_x2C__REPUBLIC_OF" style="clip-path:url(#SVGID_00000017502960243465640880000007111087807937559688_);fill:none;stroke:#C4C4C4;stroke-linecap:round;stroke-linejoin:round;" d="
					M29.5,187c21.8,2.5,43.6,5.1,65.4,15.2c21.8,10.1,43.6,44.1,65.4,66.9s43.6,42,65.4,70.3s43.6,85.5,65.4,99.6
					s43.6,21.2,65.4,21.2c21.8,0,43.6-13,65.4-18.5c21.8-5.5,43.6-5.7,65.4-14.8c21.8-9.1,43.6-20.7,65.4-39.7
					c21.8-19,43.6-50.9,65.4-74.3c21.8-23.4,43.6-48.2,65.4-66.2c21.8-18,43.6-29.9,65.4-41.9"/>
				
					<path id="MONGOLIA" style="clip-path:url(#SVGID_00000017502960243465640880000007111087807937559688_);fill:none;stroke:#C4C4C4;stroke-linecap:round;stroke-linejoin:round;" d="
					M29.5,199.7c21.8,5.9,43.6,11.7,65.4,17c21.8,5.2,43.6,6.9,65.4,14.5c21.8,7.6,43.6,16.7,65.4,31.1
					c21.8,14.4,43.6,41.8,65.4,55.2c21.8,13.4,43.6,25.2,65.4,25.2c21.8,0,43.6-14.7,65.4-25.6c21.8-10.9,43.6-27.2,65.4-39.9
					s43.6-27.8,65.4-36.3c21.8-8.5,43.6-6.8,65.4-14.6s43.6-28.7,65.4-32.2c21.8-3.4,43.6-4.3,65.4-5.2"/>
				
					<path id="MOROCCO" style="clip-path:url(#SVGID_00000017502960243465640880000007111087807937559688_);fill:none;stroke:#C4C4C4;stroke-linecap:round;stroke-linejoin:round;" d="
					M29.5,159.4c21.8,9.8,43.6,19.6,65.4,31.3s43.6,26.9,65.4,38.8c21.8,11.9,43.6,20.6,65.4,32.5c21.8,11.9,43.6,31.6,65.4,38.8
					s43.6,10.8,65.4,10.8c21.8,0,43.6-1.6,65.4-4.9c21.8-3.3,43.6-10.9,65.4-19.1c21.8-8.2,43.6-21.1,65.4-30.3
					c21.8-9.2,43.6-16,65.4-25s43.6-21.2,65.4-29.2c21.8-8,43.6-13.5,65.4-19"/>
				
					<path id="NETHERLANDS" style="clip-path:url(#SVGID_00000017502960243465640880000007111087807937559688_);fill:none;stroke:#C4C4C4;stroke-linecap:round;stroke-linejoin:round;" d="
					M29.5,308.4c21.8,1.9,43.6,3.7,65.4,11.2s43.6,34.9,65.4,50.4c21.8,15.5,43.6,27.7,65.4,42.9s43.6,37,65.4,48.4
					c21.8,11.4,43.6,19.9,65.4,19.9c21.8,0,43.6-2,65.4-6c21.8-4,43.6-26.6,65.4-38s43.6-16,65.4-30.5c21.8-14.4,43.6-39,65.4-56.1
					c21.8-17,43.6-44.7,65.4-46c21.8-1.3,43.6-1.7,65.4-2"/>
				
					<path id="NETHERLANDS_ANTILLES_AND_ARUBA" style="clip-path:url(#SVGID_00000017502960243465640880000007111087807937559688_);fill:none;stroke:#C4C4C4;stroke-linecap:round;stroke-linejoin:round;" d="
					M29.5,220.8c21.8,0.4,43.6,0.9,65.4,2.7s43.6,20.8,65.4,27.1c21.8,6.4,43.6,8.4,65.4,11c21.8,2.5,43.6,4.2,65.4,4.2
					s43.6-0.9,65.4-2.6c21.8-1.7,43.6-14,65.4-18.5c21.8-4.5,43.6-7,65.4-8.8c21.8-1.8,43.6-2.7,65.4-2.7c21.8,0,43.6,4.7,65.4,8.3
					c21.8,3.6,43.6,13.4,65.4,13.4c21.8,0,43.6-5.6,65.4-11.2"/>
				
					<path id="NEW_CALEDONIA" style="clip-path:url(#SVGID_00000017502960243465640880000007111087807937559688_);fill:none;stroke:#C4C4C4;stroke-linecap:round;stroke-linejoin:round;" d="
					M29.5,312.8c21.8-5.6,43.6-11.3,65.4-17.2c21.8-5.9,43.6-12.1,65.4-18s43.6-17.2,65.4-17.7c21.8-0.5,43.6-0.8,65.4-0.8
					s43.6,0.4,65.4,1.3c21.8,0.9,43.6,22.3,65.4,25.1c21.8,2.8,43.6,1.4,65.4,4.2c21.8,2.8,43.6,19.4,65.4,19.4
					c21.8,0,43.6-10.5,65.4-10.5s43.6,22.5,65.4,29.3c21.8,6.8,43.6,9.1,65.4,11.4"/>
				
					<path id="NICARAGUA" style="clip-path:url(#SVGID_00000017502960243465640880000007111087807937559688_);fill:none;stroke:#C4C4C4;stroke-linecap:round;stroke-linejoin:round;" d="
					M29.5,337.4c21.8-6.1,43.6-12.1,65.4-12.1s43.6,8.8,65.4,8.8s43.6-13.8,65.4-19.8c21.8-6,43.6-11.1,65.4-16.1
					c21.8-5,43.6-9,65.4-13.9c21.8-4.8,43.6-9.2,65.4-15.2c21.8-6,43.6-18.7,65.4-21c21.8-2.3,43.6-3.5,65.4-3.5
					c21.8,0,43.6,12.6,65.4,22.5s43.6,23.2,65.4,37.2c21.8,14,43.6,30.5,65.4,46.9"/>
				
					<path id="NIGER" style="clip-path:url(#SVGID_00000017502960243465640880000007111087807937559688_);fill:none;stroke:#C4C4C4;stroke-linecap:round;stroke-linejoin:round;" d="
					M29.5,369.8c21.8,6.5,43.6,12.9,65.4,12.9s43.6-7.1,65.4-10.9c21.8-3.8,43.6-9,65.4-11.8s43.6-4.7,65.4-4.7s43.6,7.1,65.4,7.2
					c21.8,0.1,43.6,0.1,65.4,0.1c21.8,0,43.6-4.9,65.4-4.9s43.6,10.9,65.4,10.9c21.8,0,43.6-0.1,65.4-0.2
					c21.8-0.1,43.6-8.4,65.4-8.4c21.8,0,43.6,1.4,65.4,2.9"/>
				
					<path id="NIGERIA" style="clip-path:url(#SVGID_00000017502960243465640880000007111087807937559688_);fill:none;stroke:#C4C4C4;stroke-linecap:round;stroke-linejoin:round;" d="
					M29.5,349.8c21.8,6.7,43.6,13.4,65.4,13.4s43.6-11.8,65.4-24s43.6-35.1,65.4-49s43.6-34.4,65.4-34.4s43.6,2.6,65.4,7.4
					c21.8,4.8,43.6,21.3,65.4,21.3c21.8,0,43.6-10.5,65.4-10.5s43.6,22.3,65.4,22.3c21.8,0,43.6-0.1,65.4-0.3s43.6-5.4,65.4-5.4
					c21.8,0,43.6,11.5,65.4,23"/>
				
					<path id="NORWAY" style="clip-path:url(#SVGID_00000017502960243465640880000007111087807937559688_);fill:none;stroke:#C4C4C4;stroke-linecap:round;stroke-linejoin:round;" d="
					M29.5,327.9c21.8,7,43.6,13.9,65.4,29.2c21.8,15.3,43.6,44.3,65.4,62.4s43.6,32.9,65.4,46.5c21.8,13.6,43.6,27.1,65.4,35
					c21.8,7.9,43.6,12.3,65.4,12.3c21.8,0,43.6-1.7,65.4-5.2c21.8-3.5,43.6-20.2,65.4-35.9c21.8-15.7,43.6-38.7,65.4-58.2
					c21.8-19.5,43.6-42.5,65.4-59c21.8-16.5,43.6-31.2,65.4-40.1c21.8-8.8,43.6-11,65.4-13.3"/>
				
					<path id="OMAN" style="clip-path:url(#SVGID_00000017502960243465640880000007111087807937559688_);fill:none;stroke:#C4C4C4;stroke-linecap:round;stroke-linejoin:round;" d="
					M29.5,286.8c21.8,3.4,43.6,6.7,65.4,6.7s43.6-48.3,65.4-66s43.6-40.1,65.4-40.1s43.6,5.9,65.4,11.5
					c21.8,5.5,43.6,21.7,65.4,21.7c21.8,0,43.6-0.6,65.4-0.6c21.8,0,43.6,5.3,65.4,5.3s43.6-0.8,65.4-2.4
					c21.8-1.6,43.6-22.4,65.4-33.7c21.8-11.2,43.6-33.7,65.4-33.7c21.8,0,43.6,28.6,65.4,57.2"/>
				
					<path id="PAKISTAN" style="clip-path:url(#SVGID_00000017502960243465640880000007111087807937559688_);fill:none;stroke:#C4C4C4;stroke-linecap:round;stroke-linejoin:round;" d="
					M29.5,231.5c21.8,3.2,43.6,6.4,65.4,6.4s43.6-12.2,65.4-15.7s43.6-5.3,65.4-5.3s43.6,7.6,65.4,18.5s43.6,45.6,65.4,46.7
					c21.8,1.2,43.6,1.8,65.4,1.8c21.8,0,43.6-9.9,65.4-11.3c21.8-1.4,43.6-0.7,65.4-2.1c21.8-1.4,43.6-23.8,65.4-35.9
					c21.8-12.1,43.6-36.7,65.4-36.7c21.8,0,43.6,3.3,65.4,6.6"/>
				
					<path id="POLAND" style="clip-path:url(#SVGID_00000017502960243465640880000007111087807937559688_);fill:none;stroke:#C4C4C4;stroke-linecap:round;stroke-linejoin:round;" d="
					M29.5,292.1c21.8,2.8,43.6,5.5,65.4,16.6s43.6,44.2,65.4,61s43.6,23.1,65.4,39.8c21.8,16.7,43.6,52.7,65.4,60.5
					c21.8,7.8,43.6,11.6,65.4,11.6c21.8,0,43.6-4.1,65.4-10.6c21.8-6.5,43.6-17.3,65.4-28.2c21.8-10.8,43.6-22.7,65.4-36.7
					c21.8-14.1,43.6-30.4,65.4-47.8c21.8-17.4,43.6-51.5,65.4-56.9c21.8-5.4,43.6-6.7,65.4-8.1"/>
				
					<path id="PORTUGAL" style="clip-path:url(#SVGID_00000017502960243465640880000007111087807937559688_);fill:none;stroke:#C4C4C4;stroke-linecap:round;stroke-linejoin:round;" d="
					M29.5,166.8c21.8,3.8,43.6,7.6,65.4,22.7c21.8,15.1,43.6,55.1,65.4,77.6s43.6,40.5,65.4,57c21.8,16.6,43.6,31.7,65.4,42.3
					c21.8,10.6,43.6,21.1,65.4,21.1c21.8,0,43.6-1,65.4-2.9c21.8-1.9,43.6-9.8,65.4-19.2c21.8-9.4,43.6-26.3,65.4-37.3
					c21.8-11.1,43.6-15.8,65.4-29c21.8-13.2,43.6-38.1,65.4-50.3c21.8-12.2,43.6-17.5,65.4-22.8"/>
				
					<path id="PORTUGAL__x28_MADEIRA_x29_" style="clip-path:url(#SVGID_00000017502960243465640880000007111087807937559688_);fill:none;stroke:#C4C4C4;stroke-linecap:round;stroke-linejoin:round;" d="
					M29.5,266.9c21.8-2.4,43.6-4.8,65.4-4.8s43.6,26.1,65.4,36.3s43.6,16.2,65.4,24.7s43.6,18,65.4,26s43.6,22,65.4,22
					c21.8,0,43.6-0.4,65.4-1.1c21.8-0.7,43.6-20,65.4-27.3s43.6-12.3,65.4-16.3c21.8-4,43.6-3.9,65.4-7.7s43.6-15.2,65.4-15.2
					c21.8,0,43.6,18.8,65.4,37.7"/>
				
					<path id="QATAR" style="clip-path:url(#SVGID_00000017502960243465640880000007111087807937559688_);fill:none;stroke:#C4C4C4;stroke-linecap:round;stroke-linejoin:round;" d="
					M29.5,157.2c21.8,2.4,43.6,4.8,65.4,8.4c21.8,3.7,43.6,9,65.4,13.5c21.8,4.5,43.6,7.9,65.4,13.5s43.6,9,65.4,20.3
					s43.6,47.3,65.4,47.3c21.8,0,43.6-2.3,65.4-3.4c21.8-1.1,43.6-3.4,65.4-3.4s43.6,6.8,65.4,6.8c21.8,0,43.6-28.7,65.4-43.9
					s43.6-34.3,65.4-47.3c21.8-12.9,43.6-21.7,65.4-30.4"/>
				
					<path id="ROMANIA" style="clip-path:url(#SVGID_00000017502960243465640880000007111087807937559688_);fill:none;stroke:#C4C4C4;stroke-linecap:round;stroke-linejoin:round;" d="
					M29.5,212.3c21.8,3.8,43.6,7.6,65.4,19.9c21.8,12.4,43.6,36.8,65.4,54.3c21.8,17.5,43.6,27.6,65.4,50.7s43.6,69.7,65.4,88
					c21.8,18.3,43.6,27.5,65.4,27.5c21.8,0,43.6-5.7,65.4-11.7c21.8-6.1,43.6-12.9,65.4-24.6c21.8-11.6,43.6-30.7,65.4-45.3
					c21.8-14.5,43.6-25.3,65.4-42c21.8-16.7,43.6-44,65.4-58.1c21.8-14.1,43.6-20.2,65.4-26.3"/>
				
					<path id="RUSSIAN_FEDERATION__x28_ASIA_x29_" style="clip-path:url(#SVGID_00000017502960243465640880000007111087807937559688_);fill:none;stroke:#C4C4C4;stroke-linecap:round;stroke-linejoin:round;" d="
					M29.5,229.5c21.8,23,43.6,46,65.4,66.1c21.8,20.1,43.6,37.2,65.4,54.7c21.8,17.4,43.6,34.8,65.4,50
					c21.8,15.2,43.6,29.8,65.4,41.2c21.8,11.4,43.6,27.2,65.4,27.2c21.8,0,43.6-5.6,65.4-16.7c21.8-11.1,43.6-39.2,65.4-60.4
					s43.6-46.8,65.4-66.6c21.8-19.8,43.6-40.8,65.4-52c21.8-11.1,43.6-9.5,65.4-16.7c21.8-7.2,43.6-17,65.4-26.7"/>
				
					<path id="RUSSIAN_FEDERATION__x28_EUROPE_x29_" style="clip-path:url(#SVGID_00000017502960243465640880000007111087807937559688_);fill:none;stroke:#C4C4C4;stroke-linecap:round;stroke-linejoin:round;" d="
					M29.5,201.2c21.8,18.1,43.6,36.2,65.4,58.4c21.8,22.2,43.6,50.4,65.4,75s43.6,50.3,65.4,72.7s43.6,49.6,65.4,61.7
					c21.8,12,43.6,18.1,65.4,18.1c21.8,0,43.6-8.3,65.4-17.5c21.8-9.2,43.6-23.3,65.4-37.6c21.8-14.3,43.6-29,65.4-48.4
					c21.8-19.4,43.6-44.5,65.4-68s43.6-54.9,65.4-72.8c21.8-17.9,43.6-26.3,65.4-34.7"/>
				
					<path id="SENEGAL" style="clip-path:url(#SVGID_00000017502960243465640880000007111087807937559688_);fill:none;stroke:#C4C4C4;stroke-linecap:round;stroke-linejoin:round;" d="
					M29.5,265.7c21.8,10.7,43.6,21.4,65.4,21.4s43.6-6.8,65.4-13.5s43.6-20.9,65.4-27c21.8-6.1,43.6-9.4,65.4-9.4
					s43.6,30.4,65.4,30.4c21.8,0,43.6-15.3,65.4-22.5c21.8-7.3,43.6-15.9,65.4-21s43.6-6.3,65.4-9.4c21.8-3.1,43.6-9,65.4-9
					s43.6,3.2,65.4,9.7c21.8,6.5,43.6,20.3,65.4,34.1"/>
				
					<path id="SEYCHELLES" style="clip-path:url(#SVGID_00000017502960243465640880000007111087807937559688_);fill:none;stroke:#C4C4C4;stroke-linecap:round;stroke-linejoin:round;" d="
					M29.5,264.1c21.8,4.1,43.6,8.1,65.4,8.1s43.6-5,65.4-5s43.6,9.9,65.4,15.9s43.6,11,65.4,20.1s43.6,25.7,65.4,34.5
					c21.8,8.9,43.6,18.7,65.4,18.7c21.8,0,43.6-34.3,65.4-44.7c21.8-10.4,43.6-10.2,65.4-17.6c21.8-7.5,43.6-19.4,65.4-27.1
					s43.6-19,65.4-19c21.8,0,43.6,7.1,65.4,14.2"/>
				
					<path id="SIERRA_LEONE" style="clip-path:url(#SVGID_00000017502960243465640880000007111087807937559688_);fill:none;stroke:#C4C4C4;stroke-linecap:round;stroke-linejoin:round;" d="
					M29.5,407.8c21.8,11.2,43.6,22.3,65.4,22.3s43.6-26.4,65.4-42.8c21.8-16.3,43.6-42.8,65.4-55.1c21.8-12.4,43.6-19.1,65.4-19.1
					s43.6,10.7,65.4,10.7c21.8,0,43.6-24,65.4-31.5c21.8-7.5,43.6-13.5,65.4-13.5s43.6,6.7,65.4,11.2c21.8,4.6,43.6,10.5,65.4,16.3
					s43.6,10.1,65.4,18.6c21.8,8.4,43.6,20.3,65.4,32.1"/>
				
					<path id="SINGAPORE" style="clip-path:url(#SVGID_00000017502960243465640880000007111087807937559688_);fill:none;stroke:#C4C4C4;stroke-linecap:round;stroke-linejoin:round;" d="
					M29.5,312c21.8,4.4,43.6,8.8,65.4,14.8c21.8,5.9,43.6,16.4,65.4,20.9s43.6,2.3,65.4,6.8c21.8,4.5,43.6,22.9,65.4,23.2
					s43.6,0.5,65.4,0.5c21.8,0,43.6-29.8,65.4-42.4c21.8-12.6,43.6-33.1,65.4-33.1s43.6,6.8,65.4,11c21.8,4.3,43.6,14.5,65.4,14.5
					s43.6-0.2,65.4-0.5c21.8-0.3,43.6-2.2,65.4-4.2"/>
				
					<path id="SLOVAKIA" style="clip-path:url(#SVGID_00000017502960243465640880000007111087807937559688_);fill:none;stroke:#C4C4C4;stroke-linecap:round;stroke-linejoin:round;" d="
					M29.5,255.6c21.8,9.1,43.6,18.1,65.4,30.4s43.6,28.9,65.4,42.9s43.6,21.5,65.4,41.1s43.6,63.8,65.4,76.5
					c21.8,12.7,43.6,19,65.4,19c21.8,0,43.6-8.1,65.4-16.4c21.8-8.4,43.6-21.7,65.4-33.8c21.8-12.2,43.6-25.5,65.4-39.1
					c21.8-13.6,43.6-29.2,65.4-42.5c21.8-13.4,43.6-28.9,65.4-37.6c21.8-8.8,43.6-11.8,65.4-14.9"/>
				
					<path id="SLOVENIA" style="clip-path:url(#SVGID_00000017502960243465640880000007111087807937559688_);fill:none;stroke:#C4C4C4;stroke-linecap:round;stroke-linejoin:round;" d="
					M29.5,230.5c21.8,12.4,43.6,24.8,65.4,43s43.6,45.3,65.4,66.1c21.8,20.7,43.6,38,65.4,58.2c21.8,20.2,43.6,48.5,65.4,62.8
					c21.8,14.3,43.6,23.1,65.4,23.1c21.8,0,43.6-3.6,65.4-10.7c21.8-7.1,43.6-36.7,65.4-51.4c21.8-14.7,43.6-23.5,65.4-36.8
					c21.8-13.3,43.6-28.1,65.4-43c21.8-14.9,43.6-35.2,65.4-46.3c21.8-11.1,43.6-15.6,65.4-20.2"/>
				
					<path id="SOUTH_AFRICA" style="clip-path:url(#SVGID_00000017502960243465640880000007111087807937559688_);fill:none;stroke:#C4C4C4;stroke-linecap:round;stroke-linejoin:round;" d="
					M29.5,266.3c21.8-0.6,43.6-1.2,65.4-1.3c21.8-0.1,43.6,0,65.4-0.1c21.8-0.1,43.6-3.8,65.4-7.7s43.6-11.3,65.4-16
					s43.6-11.9,65.4-11.9c21.8,0,43.6,5.9,65.4,9.6c21.8,3.7,43.6,6.8,65.4,12.4c21.8,5.5,43.6,16.5,65.4,20.8
					c21.8,4.3,43.6,6.4,65.4,6.4s43.6-3.8,65.4-3.8c21.8,0,43.6,4.8,65.4,9.6"/>
				
					<path id="SPAIN" style="clip-path:url(#SVGID_00000017502960243465640880000007111087807937559688_);fill:none;stroke:#C4C4C4;stroke-linecap:round;stroke-linejoin:round;" d="
					M29.5,164.3c21.8,10.3,43.6,20.6,65.4,38s43.6,47.2,65.4,66.4s43.6,33.8,65.4,48.8s43.6,30.3,65.4,41
					c21.8,10.7,43.6,23.1,65.4,23.1c21.8,0,43.6-3.6,65.4-9.7c21.8-6.1,43.6-18,65.4-26.8s43.6-17.5,65.4-25.9
					c21.8-8.4,43.6-12.3,65.4-24.5c21.8-12.2,43.6-34.3,65.4-48.7c21.8-14.4,43.6-26.1,65.4-37.9"/>
				
					<path id="SPAIN__x28_CANARY_ISLANDS_x2C__CEUTA_AND_MELILLA_x29_" style="clip-path:url(#SVGID_00000017502960243465640880000007111087807937559688_);fill:none;stroke:#C4C4C4;stroke-linecap:round;stroke-linejoin:round;" d="
					M29.5,191.4c21.8,6.4,43.6,12.8,65.4,26.2c21.8,13.5,43.6,41.8,65.4,54.5c21.8,12.7,43.6,14.1,65.4,21.9
					c21.8,7.8,43.6,18.4,65.4,25c21.8,6.7,43.6,14.9,65.4,14.9c21.8,0,43.6-6.2,65.4-11.2c21.8-5,43.6-13.9,65.4-18.8
					c21.8-4.9,43.6-4.6,65.4-10.5c21.8-5.9,43.6-15.4,65.4-25c21.8-9.7,43.6-23.9,65.4-33c21.8-9.1,43.6-15.4,65.4-21.6"/>
				
					<path id="SRI_LANKA" style="clip-path:url(#SVGID_00000017502960243465640880000007111087807937559688_);fill:none;stroke:#C4C4C4;stroke-linecap:round;stroke-linejoin:round;" d="
					M29.5,296.7c21.8,2.5,43.6,5,65.4,7.3c21.8,2.3,43.6,6.8,65.4,6.8s43.6-2.8,65.4-6.8c21.8-3.9,43.6-16.9,65.4-16.9
					s43.6,0,65.4,0c21.8,0,43.6-23.6,65.4-33.8c21.8-10.1,43.6-24.8,65.4-27c21.8-2.3,43.6-3.4,65.4-3.4c21.8,0,43.6,23.6,65.4,37.1
					c21.8,13.5,43.6,43.9,65.4,43.9c21.8,0,43.6,0,65.4,0"/>
				
					<path id="SWEDEN" style="clip-path:url(#SVGID_00000017502960243465640880000007111087807937559688_);fill:none;stroke:#C4C4C4;stroke-linecap:round;stroke-linejoin:round;" d="
					M29.5,235.2c21.8,19.4,43.6,38.9,65.4,61.1c21.8,22.2,43.6,50.3,65.4,72.2c21.8,21.9,43.6,41.9,65.4,59.3
					c21.8,17.4,43.6,33.7,65.4,45.1s43.6,23.1,65.4,23.1c21.8,0,43.6-2.3,65.4-7c21.8-4.7,43.6-31.5,65.4-49.4
					c21.8-17.9,43.6-38,65.4-57.9c21.8-19.9,43.6-39.8,65.4-61.8c21.8-22,43.6-52.2,65.4-70.1c21.8-18,43.6-27.9,65.4-37.8"/>
				
					<path id="SWITZERLAND" style="clip-path:url(#SVGID_00000017502960243465640880000007111087807937559688_);fill:none;stroke:#C4C4C4;stroke-linecap:round;stroke-linejoin:round;" d="
					M29.5,274.3c21.8,9.7,43.6,19.5,65.4,27.8s43.6,10.5,65.4,22c21.8,11.5,43.6,30.7,65.4,47c21.8,16.3,43.6,40.9,65.4,50.9
					c21.8,10,43.6,14.9,65.4,14.9c21.8,0,43.6-0.7,65.4-2c21.8-1.3,43.6-24.2,65.4-34.9c21.8-10.7,43.6-21.1,65.4-29.5
					c21.8-8.4,43.6-15.5,65.4-21s43.6-5.4,65.4-11.7c21.8-6.3,43.6-16.3,65.4-26.3"/>
				
					<path id="SYRIAN_ARAB_REPUBLIC" style="clip-path:url(#SVGID_00000017502960243465640880000007111087807937559688_);fill:none;stroke:#C4C4C4;stroke-linecap:round;stroke-linejoin:round;" d="
					M29.5,104.1c21.8,10.7,43.6,21.5,65.4,34.2c21.8,12.7,43.6,24.5,65.4,42s43.6,43.3,65.4,63s43.6,35.8,65.4,55.1
					s43.6,59.4,65.4,61.1c21.8,1.7,43.6,2.6,65.4,2.6c21.8,0,43.6-25.1,65.4-37.5c21.8-12.4,43.6-24.4,65.4-36.8
					c21.8-12.4,43.6-20,65.4-37.5s43.6-46.6,65.4-67.5c21.8-20.9,43.6-39.3,65.4-57.8"/>
				
					<path id="TAJIKISTAN" style="clip-path:url(#SVGID_00000017502960243465640880000007111087807937559688_);fill:none;stroke:#C4C4C4;stroke-linecap:round;stroke-linejoin:round;" d="
					M29.5,127.4c21.8,8.1,43.6,16.2,65.4,28c21.8,11.8,43.6,22.2,65.4,42.9s43.6,57.8,65.4,81.3s43.6,40.3,65.4,59.4
					c21.8,19.1,43.6,55,65.4,55c21.8,0,43.6-0.4,65.4-1.1c21.8-0.7,43.6-8.7,65.4-15.2c21.8-6.5,43.6-11.2,65.4-24
					c21.8-12.8,43.6-30.2,65.4-52.9c21.8-22.7,43.6-57.1,65.4-83.2c21.8-26.1,43.6-49.6,65.4-73.2"/>
				
					<path id="THAILAND" style="clip-path:url(#SVGID_00000017502960243465640880000007111087807937559688_);fill:none;stroke:#C4C4C4;stroke-linecap:round;stroke-linejoin:round;" d="
					M29.5,324.3c21.8,10.5,43.6,21,65.4,21s43.6-2.5,65.4-7.5c21.8-5,43.6-31.8,65.4-44s43.6-20.7,65.4-29.1
					c21.8-8.3,43.6-14.2,65.4-20.8c21.8-6.6,43.6-14,65.4-19c21.8-5,43.6-11.1,65.4-11.1s43.6,27.5,65.4,27.5
					c21.8,0,43.6-0.7,65.4-0.7s43.6,23.5,65.4,38.1c21.8,14.6,43.6,32,65.4,49.5"/>
				
					<path id="THE_FORMER_YUGOSLAV_REPUBLIC_OF_MACEDONIA" style="clip-path:url(#SVGID_00000017502960243465640880000007111087807937559688_);fill:none;stroke:#C4C4C4;stroke-linecap:round;stroke-linejoin:round;" d="
					M29.5,176.6c21.8,7,43.6,14.1,65.4,28.7s43.6,37.9,65.4,59.2s43.6,46.6,65.4,68.8c21.8,22.2,43.6,47.1,65.4,64.3
					c21.8,17.2,43.6,39.1,65.4,39.1c21.8,0,43.6-0.6,65.4-1.9c21.8-1.2,43.6-24.1,65.4-36.2s43.6-23.2,65.4-36.5
					c21.8-13.3,43.6-28.1,65.4-43.2s43.6-32.2,65.4-47.3c21.8-15.1,43.6-29.1,65.4-43.1"/>
				
					<path id="TOGO" style="clip-path:url(#SVGID_00000017502960243465640880000007111087807937559688_);fill:none;stroke:#C4C4C4;stroke-linecap:round;stroke-linejoin:round;" d="
					M29.5,370.6c21.8,7.9,43.6,15.7,65.4,15.7s43.6-14,65.4-31.6c21.8-17.6,43.6-54.5,65.4-73.9s43.6-42.9,65.4-42.9
					s43.6,17.1,65.4,17.1c21.8,0,43.6-0.1,65.4-0.2c21.8-0.1,43.6-10,65.4-10s43.6,20,65.4,25.5c21.8,5.5,43.6,8.2,65.4,8.2
					s43.6-1.8,65.4-1.8c21.8,0,43.6,24.7,65.4,49.4"/>
				
					<path id="TRINIDAD_AND_TOBAGO" style="clip-path:url(#SVGID_00000017502960243465640880000007111087807937559688_);fill:none;stroke:#C4C4C4;stroke-linecap:round;stroke-linejoin:round;" d="
					M29.5,291.8c21.8,0,43.6,0.1,65.4,0.3s43.6,9.6,65.4,9.6s43.6-4.1,65.4-4.1s43.6,3.4,65.4,3.4s43.6-4.4,65.4-11.1
					c21.8-6.7,43.6-21.6,65.4-29.2c21.8-7.5,43.6-16.1,65.4-16.1s43.6,6.5,65.4,8.5c21.8,1.9,43.6,1,65.4,3.1s43.6,4.4,65.4,13.3
					c21.8,8.9,43.6,28.1,65.4,47.2"/>
				
					<path id="TUNISIA" style="clip-path:url(#SVGID_00000017502960243465640880000007111087807937559688_);fill:none;stroke:#C4C4C4;stroke-linecap:round;stroke-linejoin:round;" d="
					M29.5,113.8c21.8,11.9,43.6,23.7,65.4,41.2s43.6,45.4,65.4,63.7s43.6,33.1,65.4,45.8c21.8,12.7,43.6,21,65.4,30.4
					s43.6,26,65.4,26c21.8,0,43.6-0.2,65.4-0.5c21.8-0.3,43.6-20.4,65.4-28c21.8-7.6,43.6-8.9,65.4-17.4
					c21.8-8.4,43.6-20.3,65.4-33.3c21.8-13,43.6-31.8,65.4-44.8c21.8-13,43.6-23.1,65.4-33.3"/>
				
					<path id="TURKMENISTAN" style="clip-path:url(#SVGID_00000017502960243465640880000007111087807937559688_);fill:none;stroke:#C4C4C4;stroke-linecap:round;stroke-linejoin:round;" d="
					M29.5,114.2c21.8,8.4,43.6,16.7,65.4,28.5c21.8,11.7,43.6,22.7,65.4,42s43.6,51.1,65.4,73.7c21.8,22.5,43.6,40.8,65.4,61.6
					c21.8,20.8,43.6,63.3,65.4,63.3c21.8,0,43.6-1.8,65.4-5.5c21.8-3.7,43.6-19.3,65.4-27.3s43.6-8.2,65.4-20.8
					c21.8-12.6,43.6-32.5,65.4-54.8s43.6-54.1,65.4-79c21.8-24.9,43.6-47.6,65.4-70.4"/>
				
					<path id="UKRAINE" style="clip-path:url(#SVGID_00000017502960243465640880000007111087807937559688_);fill:none;stroke:#C4C4C4;stroke-linecap:round;stroke-linejoin:round;" d="
					M29.5,191.9c21.8,8.3,43.6,16.5,65.4,30.8c21.8,14.3,43.6,33.5,65.4,55.1s43.6,47.1,65.4,74.4s43.6,71.7,65.4,89.9
					c21.8,18.2,43.6,27.3,65.4,27.3c21.8,0,43.6-11.7,65.4-18.4c21.8-6.7,43.6-10.3,65.4-21.7c21.8-11.5,43.6-28.3,65.4-47
					c21.8-18.7,43.6-43.1,65.4-65.2s43.6-50.1,65.4-67.4c21.8-17.3,43.6-26.9,65.4-36.4"/>
				
					<path id="UNITED_ARAB_EMIRATES" style="clip-path:url(#SVGID_00000017502960243465640880000007111087807937559688_);fill:none;stroke:#C4C4C4;stroke-linecap:round;stroke-linejoin:round;" d="
					M29.5,162.7c21.8,8.4,43.6,16.8,65.4,16.8s43.6-1.2,65.4-1.2s43.6,8.4,65.4,12.6s43.6,4.2,65.4,12.7
					c21.8,8.5,43.6,48.9,65.4,48.9c21.8,0,43.6-0.6,65.4-1.9c21.8-1.2,43.6-5.5,65.4-5.5s43.6,0.4,65.4,0.4
					c21.8,0,43.6-32,65.4-48.6c21.8-16.7,43.6-49,65.4-51.3c21.8-2.3,43.6-2.8,65.4-3.4"/>
				
					<path id="UNITED_KINGDOM_OF_GREAT_BRITAIN__x26__NORTHERN_IRELAND" style="clip-path:url(#SVGID_00000017502960243465640880000007111087807937559688_);fill:none;stroke:#C4C4C4;stroke-linecap:round;stroke-linejoin:round;" d="
					M29.5,324.6c21.8,4.2,43.6,8.4,65.4,17.8c21.8,9.3,43.6,25,65.4,38.2c21.8,13.2,43.6,28.6,65.4,40.9s43.6,23.6,65.4,32.8
					c21.8,9.2,43.6,22.7,65.4,22.7c21.8,0,43.6-1.9,65.4-5.8c21.8-3.9,43.6-20.7,65.4-31.7c21.8-11,43.6-19.6,65.4-34.1
					c21.8-14.4,43.6-37.5,65.4-52.5s43.6-34.7,65.4-37.2c21.8-2.4,43.6-3,65.4-3.6"/>
				
					<path id="UNITED_STATES_OF_AMERICA__x28_PACIFIC_ISLANDS_x29_" style="clip-path:url(#SVGID_00000017502960243465640880000007111087807937559688_);fill:none;stroke:#C4C4C4;stroke-linecap:round;stroke-linejoin:round;" d="
					M29.5,274c21.8,5.2,43.6,10.4,65.4,11.2s43.6,0.4,65.4,1.3s43.6,22.7,65.4,29.5c21.8,6.8,43.6,10.4,65.4,11.3
					c21.8,1,43.6,1.4,65.4,1.4c21.8,0,43.6-14.1,65.4-20.4c21.8-6.4,43.6-12.4,65.4-17.9c21.8-5.5,43.6-14.9,65.4-14.9
					c21.8,0,43.6,7.7,65.4,7.7s43.6-3.9,65.4-3.9c21.8,0,43.6,0,65.4,0"/>
				
					<path id="URUGUAY" style="clip-path:url(#SVGID_00000017502960243465640880000007111087807937559688_);fill:none;stroke:#C4C4C4;stroke-linecap:round;stroke-linejoin:round;" d="
					M29.5,359.4c21.8-5.4,43.6-10.9,65.4-18.1s43.6-13,65.4-25s43.6-35.9,65.4-46.8s43.6-9.3,65.4-18.2s43.6-35.6,65.4-35.6
					c21.8,0,43.6,1.8,65.4,5.5c21.8,3.7,43.6,35.8,65.4,41.2s43.6,2.7,65.4,8c21.8,5.3,43.6,32.9,65.4,44.4
					c21.8,11.5,43.6,15.3,65.4,24.9c21.8,9.6,43.6,21,65.4,32.5"/>
				
					<path id="UZBEKISTAN" style="clip-path:url(#SVGID_00000017502960243465640880000007111087807937559688_);fill:none;stroke:#C4C4C4;stroke-linecap:round;stroke-linejoin:round;" d="
					M29.5,95.5c21.8,8.9,43.6,17.8,65.4,32.9s43.6,33.5,65.4,58.1s43.6,61.9,65.4,89.3s43.6,52.5,65.4,74.8
					c21.8,22.3,43.6,59,65.4,59c21.8,0,43.6-5.9,65.4-13.5c21.8-7.5,43.6-22.2,65.4-31.7c21.8-9.5,43.6-10.4,65.4-25.4
					c21.8-15,43.6-39.2,65.4-64.8s43.6-62.5,65.4-88.7c21.8-26.2,43.6-47.3,65.4-68.4"/>
				
					<path id="VENEZUELA" style="clip-path:url(#SVGID_00000017502960243465640880000007111087807937559688_);fill:none;stroke:#C4C4C4;stroke-linecap:round;stroke-linejoin:round;" d="
					M29.5,292c21.8-1.1,43.6-2.2,65.4-3.7s43.6-5.1,65.4-5.1s43.6,1.3,65.4,1.3s43.6-5.6,65.4-8.6s43.6-5,65.4-9.6
					c21.8-4.6,43.6-15.2,65.4-17.9c21.8-2.7,43.6-4.1,65.4-4.1s43.6,8.6,65.4,19.1c21.8,10.5,43.6,38.4,65.4,44.1
					c21.8,5.6,43.6,5.8,65.4,8.4c21.8,2.6,43.6,4.8,65.4,7.1"/>
				
					<path id="YUGOSLAVIA" style="clip-path:url(#SVGID_00000017502960243465640880000007111087807937559688_);fill:none;stroke:#C4C4C4;stroke-linecap:round;stroke-linejoin:round;" d="
					M29.5,172.1c21.8,9.6,43.6,19.2,65.4,35.3s43.6,42.5,65.4,61.5s43.6,30.6,65.4,52.5c21.8,22,43.6,61.1,65.4,79.4
					c21.8,18.3,43.6,30.1,65.4,30.1c21.8,0,43.6-6.1,65.4-12.1c21.8-6,43.6-12.7,65.4-23.7c21.8-11,43.6-28.6,65.4-42
					c21.8-13.4,43.6-23.6,65.4-38.4s43.6-36.1,65.4-50.5c21.8-14.4,43.6-25.2,65.4-35.9"/>
				
					<path id="ZAMBIA" style="clip-path:url(#SVGID_00000017502960243465640880000007111087807937559688_);fill:none;stroke:#C4C4C4;stroke-linecap:round;stroke-linejoin:round;" d="
					M29.5,191c21.8-0.4,43.6-0.8,65.4-0.8s43.6,6.5,65.4,14.7c21.8,8.3,43.6,20.9,65.4,34.8c21.8,14,43.6,32.1,65.4,49
					c21.8,16.9,43.6,50.9,65.4,52.4c21.8,1.5,43.6,2.3,65.4,2.3c21.8,0,43.6-4,65.4-10.7s43.6-15.6,65.4-29.6
					c21.8-14,43.6-39.1,65.4-54.2c21.8-15,43.6-35,65.4-36.1c21.8-1.1,43.6-1.3,65.4-1.6"/>
				
					<path id="ZIMBABWE" style="clip-path:url(#SVGID_00000017502960243465640880000007111087807937559688_);fill:none;stroke:#C4C4C4;stroke-linecap:round;stroke-linejoin:round;" d="
					M29.5,256.4c21.8-3.8,43.6-7.5,65.4-7.8s43.6-0.5,65.4-0.5s43.6,14.2,65.4,22.8s43.6,19.7,65.4,29c21.8,9.4,43.6,27.1,65.4,27.1
					c21.8,0,43.6-18.4,65.4-18.4c21.8,0,43.6,9.6,65.4,9.6s43.6-10.9,65.4-16.3c21.8-5.4,43.6-10.8,65.4-16s43.6-15,65.4-15
					c21.8,0,43.6,1.9,65.4,3.8"/>
				
					<path id="DENMARK" style="clip-path:url(#SVGID_00000017502960243465640880000007111087807937559688_);fill:none;stroke:#FA8C00;stroke-width:4;stroke-linecap:round;stroke-linejoin:round;" d="
					M29.5,265.6c21.8,4.8,43.6,9.5,65.4,25.9c21.8,16.3,43.6,50.6,65.4,72.2c21.8,21.5,43.6,40.8,65.4,57s43.6,29,65.4,39.9
					c21.8,11,43.6,25.9,65.4,25.9c21.8,0,43.6-1.4,65.4-4.1c21.8-2.8,43.6-25.9,65.4-39.2c21.8-13.4,43.6-21.5,65.4-40.9
					c21.8-19.4,43.6-52.3,65.4-75.5s43.6-63.8,65.4-63.8c21.8,0,43.6,2.9,65.4,5.8"/>
				
					<path id="UNITED_STATES_OF_AMERICA" style="clip-path:url(#SVGID_00000017502960243465640880000007111087807937559688_);fill:none;stroke:#18A1CD;stroke-width:4;stroke-linecap:round;stroke-linejoin:round;" d="
					M29.5,168.6c21.8,13.5,43.6,27,65.4,40.9s43.6,28.7,65.4,42.1c21.8,13.4,43.6,21.7,65.4,38.4c21.8,16.7,43.6,48.9,65.4,61.6
					c21.8,12.7,43.6,19,65.4,19c21.8,0,43.6-10.5,65.4-18.8c21.8-8.3,43.6-19.7,65.4-31.1s43.6-24.4,65.4-37.2
					c21.8-12.8,43.6-27.9,65.4-39.6c21.8-11.7,43.6-20.7,65.4-30.6c21.8-9.9,43.6-19.3,65.4-28.7"/>
				<g style="clip-path:url(#SVGID_00000017502960243465640880000007111087807937559688_);enable-background:new    ;">
					<text transform="matrix(0.9723 0 0 1 23.4722 540.9756)" class="st12 st13 st14">jul</text>
				</g>
				<g style="clip-path:url(#SVGID_00000017502960243465640880000007111087807937559688_);enable-background:new    ;">
					<text transform="matrix(0.9723 0 0 1 84.8994 540.9756)" class="st12 st13 st14">aug</text>
				</g>
				<g style="clip-path:url(#SVGID_00000017502960243465640880000007111087807937559688_);enable-background:new    ;">
					<text transform="matrix(0.9723 0 0 1 150.6719 540.9756)" class="st12 st13 st14">sep</text>
				</g>
				<g style="clip-path:url(#SVGID_00000017502960243465640880000007111087807937559688_);enable-background:new    ;">
					<text transform="matrix(0.9723 0 0 1 217.7769 540.9756)" class="st12 st13 st14">oct</text>
				</g>
				<g style="clip-path:url(#SVGID_00000017502960243465640880000007111087807937559688_);enable-background:new    ;">
					<text transform="matrix(0.9723 0 0 1 281.5425 540.9756)" class="st12 st13 st14">nov</text>
				</g>
				<g style="clip-path:url(#SVGID_00000017502960243465640880000007111087807937559688_);enable-background:new    ;">
					<text transform="matrix(0.9723 0 0 1 346.9775 540.9756)" class="st12 st13 st14">dec</text>
				</g>
				<g style="clip-path:url(#SVGID_00000017502960243465640880000007111087807937559688_);enable-background:new    ;">
					<text transform="matrix(0.9723 0 0 1 414.0801 540.9756)" class="st12 st13 st14">jan</text>
				</g>
				<g style="clip-path:url(#SVGID_00000017502960243465640880000007111087807937559688_);enable-background:new    ;">
					<text transform="matrix(0.9723 0 0 1 479.1816 540.9756)" class="st12 st13 st14">feb</text>
				</g>
				<g style="clip-path:url(#SVGID_00000017502960243465640880000007111087807937559688_);enable-background:new    ;">
					<text transform="matrix(0.9723 0 0 1 542.624 540.9756)" class="st12 st13 st14">mar</text>
				</g>
				<g style="clip-path:url(#SVGID_00000017502960243465640880000007111087807937559688_);enable-background:new    ;">
					<text transform="matrix(0.9723 0 0 1 609.7207 540.9756)" class="st12 st13 st14">apr</text>
				</g>
				<g style="clip-path:url(#SVGID_00000017502960243465640880000007111087807937559688_);enable-background:new    ;">
					<text transform="matrix(0.9723 0 0 1 672.4932 540.9756)" class="st12 st13 st14">may</text>
				</g>
				<g style="clip-path:url(#SVGID_00000017502960243465640880000007111087807937559688_);enable-background:new    ;">
					<text transform="matrix(0.9723 0 0 1 741.2568 540.9756)" class="st12 st13 st14">jun</text>
				</g>
				<g style="clip-path:url(#SVGID_00000017502960243465640880000007111087807937559688_);enable-background:new    ;">
					<text transform="matrix(0.9723 0 0 1 8.0645 527.6055)" class="st15 st13 st14">0</text>
				</g>
				<g style="clip-path:url(#SVGID_00000017502960243465640880000007111087807937559688_);enable-background:new    ;">
					<text transform="matrix(0.9723 0 0 1 8.0645 493.8447)" class="st15 st13 st14">1</text>
				</g>
				<g style="clip-path:url(#SVGID_00000017502960243465640880000007111087807937559688_);enable-background:new    ;">
					<text transform="matrix(0.9723 0 0 1 8.0645 460.085)" class="st15 st13 st14">2</text>
				</g>
				<g style="clip-path:url(#SVGID_00000017502960243465640880000007111087807937559688_);enable-background:new    ;">
					<text transform="matrix(0.9723 0 0 1 8.0645 426.3242)" class="st15 st13 st14">3</text>
				</g>
				<g style="clip-path:url(#SVGID_00000017502960243465640880000007111087807937559688_);enable-background:new    ;">
					<text transform="matrix(0.9723 0 0 1 8.0645 392.5635)" class="st15 st13 st14">4</text>
				</g>
				<g style="clip-path:url(#SVGID_00000017502960243465640880000007111087807937559688_);enable-background:new    ;">
					<text transform="matrix(0.9723 0 0 1 8.0645 358.8037)" class="st15 st13 st14">5</text>
				</g>
				<g style="clip-path:url(#SVGID_00000017502960243465640880000007111087807937559688_);enable-background:new    ;">
					<text transform="matrix(0.9723 0 0 1 8.0645 325.043)" class="st15 st13 st14">6</text>
				</g>
				<g style="clip-path:url(#SVGID_00000017502960243465640880000007111087807937559688_);enable-background:new    ;">
					<text transform="matrix(0.9723 0 0 1 8.0645 291.2832)" class="st15 st13 st14">7</text>
				</g>
				<g style="clip-path:url(#SVGID_00000017502960243465640880000007111087807937559688_);enable-background:new    ;">
					<text transform="matrix(0.9723 0 0 1 8.0645 257.5225)" class="st15 st13 st14">8</text>
				</g>
				<g style="clip-path:url(#SVGID_00000017502960243465640880000007111087807937559688_);enable-background:new    ;">
					<text transform="matrix(0.9723 0 0 1 8.0645 223.7622)" class="st15 st13 st14">9</text>
				</g>
				<g style="clip-path:url(#SVGID_00000017502960243465640880000007111087807937559688_);enable-background:new    ;">
					<text transform="matrix(0.9723 0 0 1 1.3906 190.002)" class="st15 st13 st14">10</text>
				</g>
				<g style="clip-path:url(#SVGID_00000017502960243465640880000007111087807937559688_);enable-background:new    ;">
					<text transform="matrix(0.9723 0 0 1 2.2812 156.2412)" class="st15 st13 st14">11</text>
				</g>
				<g style="clip-path:url(#SVGID_00000017502960243465640880000007111087807937559688_);enable-background:new    ;">
					<text transform="matrix(0.9723 0 0 1 1.3906 122.481)" class="st15 st13 st14">12</text>
				</g>
				
					<line style="clip-path:url(#SVGID_00000017502960243465640880000007111087807937559688_);fill:none;stroke:#181818;stroke-linecap:square;" x1="759" y1="523.5" x2="19.7" y2="523.5"/>
			</g>
			<path style="clip-path:url(#SVGID_00000111181242180137778930000001194452240646029201_);fill:none;stroke:#181818;" d="
				M379.8,316.8c15.1,15.1,33.7,21.8,56,20.1"/>
			<path style="clip-path:url(#SVGID_00000111181242180137778930000001194452240646029201_);fill:none;stroke:#181818;" d="
				M431,333.1l4.8,3.8l-4.7,4"/>
			<g style="clip-path:url(#SVGID_00000111181242180137778930000001194452240646029201_);enable-background:new    ;">
				<text transform="matrix(0.9723 0 0 1 326.7344 309.5693)" class="st4 st6">United States</text>
			</g>
			<g style="clip-path:url(#SVGID_00000111181242180137778930000001194452240646029201_);enable-background:new    ;">
				<text transform="matrix(0.9723 0 0 1 326.7344 309.5693)" class="st18 st4 st6">United States</text>
			</g>
			<g style="clip-path:url(#SVGID_00000111181242180137778930000001194452240646029201_);enable-background:new    ;">
				<text transform="matrix(0.9723 0 0 1 326.7344 309.5693)" class="st4 st6">United States</text>
			</g>
			<g style="clip-path:url(#SVGID_00000111181242180137778930000001194452240646029201_);enable-background:new    ;">
				<text transform="matrix(0.9723 0 0 1 326.7344 309.5693)" class="st19 st4 st6">United States</text>
			</g>
			<path style="clip-path:url(#SVGID_00000111181242180137778930000001194452240646029201_);fill:none;stroke:#181818;" d="
				M414.6,435c14.7,12.3,32.2,17,52.3,14.2"/>
			<path style="clip-path:url(#SVGID_00000111181242180137778930000001194452240646029201_);fill:none;stroke:#181818;" d="
				M461.8,445.8l5,3.5l-4.4,4.2"/>
			<g style="clip-path:url(#SVGID_00000111181242180137778930000001194452240646029201_);enable-background:new    ;">
				<text transform="matrix(0.9723 0 0 1 373.7344 427.8438)" class="st4 st6">Denmark</text>
			</g>
			<g style="clip-path:url(#SVGID_00000111181242180137778930000001194452240646029201_);enable-background:new    ;">
				<text transform="matrix(0.9723 0 0 1 373.7344 427.8438)" class="st18 st4 st6">Denmark</text>
			</g>
			<g style="clip-path:url(#SVGID_00000111181242180137778930000001194452240646029201_);enable-background:new    ;">
				<text transform="matrix(0.9723 0 0 1 373.7344 427.8438)" class="st4 st6">Denmark</text>
			</g>
			<g style="clip-path:url(#SVGID_00000111181242180137778930000001194452240646029201_);enable-background:new    ;">
				<text transform="matrix(0.9723 0 0 1 373.7344 427.8438)" class="st19 st4 st6">Denmark</text>
			</g>
			<g style="clip-path:url(#SVGID_00000111181242180137778930000001194452240646029201_);">
				<defs>
					<rect id="SVGID_00000175318296276788036330000012769607455784572841_" y="81.2" width="761" height="462.8"/>
				</defs>
				<clipPath id="SVGID_00000164472482235560216110000015231386838007330445_">
					<use xlink:href="#SVGID_00000175318296276788036330000012769607455784572841_"  style="overflow:visible;"/>
				</clipPath>
			</g>
			<g style="clip-path:url(#SVGID_00000111181242180137778930000001194452240646029201_);enable-background:new    ;">
				<text transform="matrix(0.9723 0 0 1 0 575.9434)" class="st13" style="fill:#545454; font-size:11.3132px;">Source</text>
			</g>
			<g style="clip-path:url(#SVGID_00000111181242180137778930000001194452240646029201_);enable-background:new    ;">
				<text transform="matrix(0.9723 0 0 1 34.853 575.9434)" class="st13" style="fill:#545454; font-size:11.3132px;">:</text>
			</g>
			<g style="clip-path:url(#SVGID_00000111181242180137778930000001194452240646029201_);enable-background:new    ;">
				<text transform="matrix(0.9723 0 0 1 40.6436 575.9434)" class="st13" style="fill:#545454; font-size:11.3132px;">UN Climate Data</text>
			</g>
			<g style="clip-path:url(#SVGID_00000111181242180137778930000001194452240646029201_);enable-background:new    ;">
				<text transform="matrix(0.9723 0 0 1 125.8994 575.9434)" class="st13" style="fill:#545454; font-size:11.3132px;"></text>
			</g>
			<g style="clip-path:url(#SVGID_00000111181242180137778930000001194452240646029201_);enable-background:new    ;">
				<text transform="matrix(0.9723 0 0 1 132.4849 575.9434)" class="st13" style="fill:#545454; font-size:11.3132px;">Created with</text>
			</g>
			<g style="clip-path:url(#SVGID_00000111181242180137778930000001194452240646029201_);enable-background:new    ;">
				<text transform="matrix(0.9723 0 0 1 196.9707 575.9434)" class="st13" style="fill:#545454; font-size:11.3132px;">Datawrapper</text>
			</g>
		</g>
	</g>
</g>
<g id="ai2html-settings">
	<rect x="-450" style="fill:none;" width="400" height="418"/>
	<text id="ai2html-settings_00000131367777540884855100000007004176583580168633_" transform="matrix(1 0 0 1 -450 10.6499)"><tspan x="0" y="0" style="font-family:'MyriadPro-Regular'; font-size:15px;">ai2html-settings</tspan><tspan x="0" y="19" style="font-family:'MyriadPro-Regular'; font-size:15px;">settings_version: 0.106.0</tspan><tspan x="0" y="38" style="font-family:'MyriadPro-Regular'; font-size:15px;">image_format: auto</tspan><tspan x="0" y="57" style="font-family:'MyriadPro-Regular'; font-size:15px;">responsiveness: fixed</tspan><tspan x="0" y="76" style="font-family:'MyriadPro-Regular'; font-size:15px;">output: one-file</tspan><tspan x="0" y="95" style="font-family:'MyriadPro-Regular'; font-size:15px;">html_output_path: /ai2html-output/</tspan><tspan x="0" y="114" style="font-family:'MyriadPro-Regular'; font-size:15px;">html_output_extension: .html</tspan><tspan x="0" y="133" style="font-family:'MyriadPro-Regular'; font-size:15px;">image_output_path: </tspan><tspan x="0" y="152" style="font-family:'MyriadPro-Regular'; font-size:15px;">local_preview_template: </tspan><tspan x="0" y="171" style="font-family:'MyriadPro-Regular'; font-size:15px;">png_number_of_colors: 128</tspan><tspan x="0" y="190" style="font-family:'MyriadPro-Regular'; font-size:15px;">jpg_quality: 60</tspan><tspan x="0" y="209" style="font-family:'MyriadPro-Regular'; font-size:15px;">headline: </tspan><tspan x="0" y="228" style="font-family:'MyriadPro-Regular'; font-size:15px;">leadin: </tspan><tspan x="0" y="247" style="font-family:'MyriadPro-Regular'; font-size:15px;">notes: </tspan><tspan x="0" y="266" style="font-family:'MyriadPro-Regular'; font-size:15px;">sources: </tspan><tspan x="0" y="285" style="font-family:'MyriadPro-Regular'; font-size:15px;">credit: </tspan></text>
</g>
</svg>
