<?xml version="1.0" encoding="utf-8"?>
<!-- Generator: Adobe Illustrator 27.6.1, SVG Export Plug-In . SVG Version: 6.00 Build 0)  -->
<svg version="1.1" xmlns="http://www.w3.org/2000/svg" xmlns:xlink="http://www.w3.org/1999/xlink" x="0px" y="0px"
	 viewBox="0 0 744 542" style="enable-background:new 0 0 744 542;" xml:space="preserve">
<style type="text/css">
	.st0{fill:#FFFFFF;}
	.st1{clip-path:url(#SVGID_00000079463661750500118090000003510431975599996036_);}
	.st2{clip-path:url(#SVGID_00000167392539935949875780000003368533084689337516_);fill:#1D263B;}
	.st3{clip-path:url(#SVGID_00000167392539935949875780000003368533084689337516_);}
	
		.st4{clip-path:url(#SVGID_00000052065263117948005840000014683001832170101940_);fill:none;stroke:#E5E5E5;stroke-linecap:round;stroke-linejoin:round;}
	
		.st5{clip-path:url(#SVGID_00000052065263117948005840000014683001832170101940_);fill:none;stroke:#DFDFDF;stroke-linecap:round;stroke-linejoin:round;}
	
		.st6{clip-path:url(#SVGID_00000052065263117948005840000014683001832170101940_);fill:none;stroke:#DADADA;stroke-linecap:round;stroke-linejoin:round;}
	
		.st7{clip-path:url(#SVGID_00000052065263117948005840000014683001832170101940_);fill:none;stroke:#D4D4D4;stroke-linecap:round;stroke-linejoin:round;}
	
		.st8{clip-path:url(#SVGID_00000052065263117948005840000014683001832170101940_);fill:none;stroke:#CFCFCF;stroke-linecap:round;stroke-linejoin:round;}
	
		.st9{clip-path:url(#SVGID_00000052065263117948005840000014683001832170101940_);fill:none;stroke:#C9C9C9;stroke-linecap:round;stroke-linejoin:round;}
	
		.st10{clip-path:url(#SVGID_00000052065263117948005840000014683001832170101940_);fill:none;stroke:#C4C4C4;stroke-linecap:round;stroke-linejoin:round;}
	
		.st11{clip-path:url(#SVGID_00000052065263117948005840000014683001832170101940_);fill:none;stroke:#BFBFBF;stroke-linecap:round;stroke-linejoin:round;}
	
		.st12{clip-path:url(#SVGID_00000052065263117948005840000014683001832170101940_);fill:none;stroke:#B9B9B9;stroke-linecap:round;stroke-linejoin:round;}
	
		.st13{clip-path:url(#SVGID_00000052065263117948005840000014683001832170101940_);fill:none;stroke:#B4B4B4;stroke-linecap:round;stroke-linejoin:round;}
	
		.st14{clip-path:url(#SVGID_00000052065263117948005840000014683001832170101940_);fill:none;stroke:#AFAFAF;stroke-linecap:round;stroke-linejoin:round;}
	
		.st15{clip-path:url(#SVGID_00000052065263117948005840000014683001832170101940_);fill:none;stroke:#AAAAAA;stroke-linecap:round;stroke-linejoin:round;}
	
		.st16{clip-path:url(#SVGID_00000052065263117948005840000014683001832170101940_);fill:none;stroke:#FA8C00;stroke-width:4;stroke-linecap:round;stroke-linejoin:round;}
	
		.st17{clip-path:url(#SVGID_00000052065263117948005840000014683001832170101940_);fill:none;stroke:#A4A4A4;stroke-linecap:round;stroke-linejoin:round;}
	
		.st18{clip-path:url(#SVGID_00000052065263117948005840000014683001832170101940_);fill:none;stroke:#9F9F9F;stroke-linecap:round;stroke-linejoin:round;}
	
		.st19{clip-path:url(#SVGID_00000052065263117948005840000014683001832170101940_);fill:none;stroke:#9A9A9A;stroke-linecap:round;stroke-linejoin:round;}
	
		.st20{clip-path:url(#SVGID_00000052065263117948005840000014683001832170101940_);fill:none;stroke:#959595;stroke-linecap:round;stroke-linejoin:round;}
	
		.st21{clip-path:url(#SVGID_00000052065263117948005840000014683001832170101940_);fill:none;stroke:#18A1CD;stroke-width:4;stroke-linecap:round;stroke-linejoin:round;}
	
		.st22{clip-path:url(#SVGID_00000052065263117948005840000014683001832170101940_);fill:none;stroke:#909090;stroke-linecap:round;stroke-linejoin:round;}
	
		.st23{clip-path:url(#SVGID_00000052065263117948005840000014683001832170101940_);fill:none;stroke:#8B8B8B;stroke-linecap:round;stroke-linejoin:round;}
	
		.st24{clip-path:url(#SVGID_00000052065263117948005840000014683001832170101940_);fill:none;stroke:#868686;stroke-linecap:round;stroke-linejoin:round;}
	
		.st25{clip-path:url(#SVGID_00000052065263117948005840000014683001832170101940_);fill:none;stroke:#818181;stroke-linecap:round;stroke-linejoin:round;}
	
		.st26{clip-path:url(#SVGID_00000052065263117948005840000014683001832170101940_);fill:none;stroke:#7C7C7C;stroke-linecap:round;stroke-linejoin:round;}
	
		.st27{clip-path:url(#SVGID_00000052065263117948005840000014683001832170101940_);fill:none;stroke:#777777;stroke-linecap:round;stroke-linejoin:round;}
	
		.st28{clip-path:url(#SVGID_00000052065263117948005840000014683001832170101940_);fill:none;stroke:#727272;stroke-linecap:round;stroke-linejoin:round;}
	
		.st29{clip-path:url(#SVGID_00000052065263117948005840000014683001832170101940_);fill:none;stroke:#6E6E6E;stroke-linecap:round;stroke-linejoin:round;}
	
		.st30{clip-path:url(#SVGID_00000052065263117948005840000014683001832170101940_);fill:none;stroke:#696969;stroke-linecap:round;stroke-linejoin:round;}
	
		.st31{clip-path:url(#SVGID_00000052065263117948005840000014683001832170101940_);fill:none;stroke:#646464;stroke-linecap:round;stroke-linejoin:round;}
	
		.st32{clip-path:url(#SVGID_00000052065263117948005840000014683001832170101940_);fill:none;stroke:#5F5F5F;stroke-linecap:round;stroke-linejoin:round;}
	
		.st33{clip-path:url(#SVGID_00000052065263117948005840000014683001832170101940_);fill:none;stroke:#5B5B5B;stroke-linecap:round;stroke-linejoin:round;}
	
		.st34{clip-path:url(#SVGID_00000052065263117948005840000014683001832170101940_);fill:none;stroke:#565656;stroke-linecap:round;stroke-linejoin:round;}
	
		.st35{clip-path:url(#SVGID_00000052065263117948005840000014683001832170101940_);fill:none;stroke:#515151;stroke-linecap:round;stroke-linejoin:round;}
	
		.st36{clip-path:url(#SVGID_00000052065263117948005840000014683001832170101940_);fill:none;stroke:#4D4D4D;stroke-linecap:round;stroke-linejoin:round;}
	
		.st37{clip-path:url(#SVGID_00000052065263117948005840000014683001832170101940_);fill:none;stroke:#484848;stroke-linecap:round;stroke-linejoin:round;}
	.st38{clip-path:url(#SVGID_00000052065263117948005840000014683001832170101940_);enable-background:new    ;}
	.st39{fill:#747474;}
	.st40{font-family:'ArialMT';}
	.st41{font-size:12px;}
	.st42{fill:#A2A2A2;}
	
		.st43{clip-path:url(#SVGID_00000052065263117948005840000014683001832170101940_);fill:none;stroke:#181818;stroke-linecap:square;}
	.st44{clip-path:url(#SVGID_00000167392539935949875780000003368533084689337516_);fill:none;stroke:#181818;}
	.st45{clip-path:url(#SVGID_00000167392539935949875780000003368533084689337516_);enable-background:new    ;}
	.st46{font-family:'Arial-BoldMT';}
	.st47{font-size:14px;}
	.st48{fill:none;stroke:#FFFFFF;stroke-width:4;stroke-linecap:round;stroke-linejoin:round;}
	.st49{fill:#181818;}
	.st50{fill:#888888;}
	.st51{font-size:11px;}
</style>
<g id="exportSvg">
	<rect class="st0" width="744" height="542"/>
	<g>
		<defs>
			<rect id="SVGID_1_" width="744" height="542"/>
		</defs>
		<clipPath id="SVGID_00000079453335766589793560000010137417533517732279_">
			<use xlink:href="#SVGID_1_"  style="overflow:visible;"/>
		</clipPath>
		<g style="clip-path:url(#SVGID_00000079453335766589793560000010137417533517732279_);">
			<defs>
				<rect id="SVGID_00000063609924080755651280000015401515664636770199_" width="744" height="542"/>
			</defs>
			<clipPath id="SVGID_00000180350522650559603750000013418242807711160466_">
				<use xlink:href="#SVGID_00000063609924080755651280000015401515664636770199_"  style="overflow:visible;"/>
			</clipPath>
			
				<rect style="clip-path:url(#SVGID_00000180350522650559603750000013418242807711160466_);fill:#1D263B;" width="775.6" height="542"/>
			<g style="clip-path:url(#SVGID_00000180350522650559603750000013418242807711160466_);">
				<defs>
					<rect id="SVGID_00000048490483460775767440000010358494904091318939_" x="-6.9" y="80.8" width="744" height="430"/>
				</defs>
				<clipPath id="SVGID_00000140737314711246008360000004620377234259431349_">
					<use xlink:href="#SVGID_00000048490483460775767440000010358494904091318939_"  style="overflow:visible;"/>
				</clipPath>
				
					<path id="ARGENTINA" style="clip-path:url(#SVGID_00000140737314711246008360000004620377234259431349_);fill:none;stroke:#E5E5E5;stroke-linecap:round;stroke-linejoin:round;" d="
					M29.4,321.6c0,0,42.2-26,63.3-36.8c21.1-10.8,42.2-16.5,63.3-28.1c21.1-11.5,42.2-26.9,63.3-41.2c21.1-14.3,42.2-30.9,63.3-44.6
					s42.2-28.9,63.3-38c21.1-9.1,42.2-15.7,63.3-16.7c21.1-1,42.2,1.1,63.3,10.7c21.1,9.6,42.2,30.5,63.3,46.9s42.2,34.5,63.3,51.5
					c21.1,17,42.2,35.4,63.3,50.5s63.3,40.1,63.3,40.1"/>
				
					<path id="COLOMBIA" style="clip-path:url(#SVGID_00000140737314711246008360000004620377234259431349_);fill:none;stroke:#DFDFDF;stroke-linecap:round;stroke-linejoin:round;" d="
					M29.4,132.2c0,0,42.2,1.1,63.3,3.9s42.2,6.1,63.3,12.9s42.2,19.4,63.3,28.1s42.2,16.8,63.3,24.3s42.2,16.7,63.3,21
					c21.1,4.3,42.2,4.5,63.3,4.6c21.1,0.1,42.2,2,63.3-3.9s42.2-21.6,63.3-31.4c21.1-9.9,42.2-21.6,63.3-27.8
					c21.1-6.2,42.2-6,63.3-9.5c21.1-3.5,63.3-11.3,63.3-11.3"/>
				
					<path id="GUYANA" style="clip-path:url(#SVGID_00000140737314711246008360000004620377234259431349_);fill:none;stroke:#DADADA;stroke-linecap:round;stroke-linejoin:round;" d="
					M29.4,210.1c0,0,42.2-0.1,63.3,0c21.1,0.1,42.2,4.5,63.3,0.5c21.1-4,42.2-15,63.3-24.4c21.1-9.4,42.2-23.5,63.3-31.9
					c21.1-8.4,42.2-11.3,63.3-18.3c21.1-7,42.2-17.9,63.3-23.7c21.1-5.8,42.2-12.8,63.3-11s42.2,12.1,63.3,21.5
					c21.1,9.4,42.2,26.2,63.3,35c21.1,8.8,42.2,9.6,63.3,17.6c21.1,7.9,63.3,30.1,63.3,30.1"/>
				
					<path id="ISRAEL" style="clip-path:url(#SVGID_00000140737314711246008360000004620377234259431349_);fill:none;stroke:#D4D4D4;stroke-linecap:round;stroke-linejoin:round;" d="
					M29.4,328.5c0,0,42.2,7.5,63.3,8.9s42.2,4.3,63.3-0.3c21.1-4.7,42.2-19.9,63.3-27.6s42.2-10.6,63.3-18.5s42.2-22.8,63.3-28.9
					c21.1-6.1,42.2-6.2,63.3-7.5c21.1-1.4,42.2-6,63.3-0.7s42.2,24.9,63.3,32.7c21.1,7.8,42.2,7.2,63.3,13.9
					c21.1,6.7,42.2,21.1,63.3,26.4s63.3,5.1,63.3,5.1"/>
				
					<path id="NETHERLANDS" style="clip-path:url(#SVGID_00000140737314711246008360000004620377234259431349_);fill:none;stroke:#CFCFCF;stroke-linecap:round;stroke-linejoin:round;" d="
					M29.4,471.8c0,0,42.2-5.9,63.3-18.3s42.2-35.2,63.3-55.7s42.2-46.1,63.3-67.6s42.2-42.7,63.3-61.4s42.2-38.4,63.3-50.9
					c21.1-12.5,42.2-23.7,63.3-24.2c21.1-0.5,42.2,10.9,63.3,21.1s42.2,20.5,63.3,39.9s42.2,51.7,63.3,76.7
					c21.1,25,42.2,46.7,63.3,73.2c21.1,26.6,63.3,86.3,63.3,86.3"/>
				
					<path id="SWITZERLAND" style="clip-path:url(#SVGID_00000140737314711246008360000004620377234259431349_);fill:none;stroke:#C9C9C9;stroke-linecap:round;stroke-linejoin:round;" d="
					M29.4,281.3c0,0,42.2,2.6,63.3,3.4s42.2,6,63.3,1.6s42.2-20.6,63.3-28.1c21.1-7.5,42.2-6.2,63.3-17.1s42.2-41.7,63.3-48.1
					c21.1-6.4,42.2,12.5,63.3,9.8c21.1-2.7,42.2-27.3,63.3-26s42.2,23.6,63.3,33.9c21.1,10.3,42.2,19.7,63.3,28.1
					c21.1,8.4,42.2,14.1,63.3,22.3c21.1,8.2,63.3,27.1,63.3,27.1"/>
				
					<path id="ZAMBIA" style="clip-path:url(#SVGID_00000140737314711246008360000004620377234259431349_);fill:none;stroke:#C4C4C4;stroke-linecap:round;stroke-linejoin:round;" d="
					M29.4,307.9c0,0,42.2,4.6,63.3-0.3c21.1-4.9,42.2-20.3,63.3-28.9c21.1-8.6,42.2-10.5,63.3-22.9c21.1-12.5,42.2-37.3,63.3-51.8
					c21.1-14.4,42.2-26.9,63.3-34.8c21.1-8,42.2-6,63.3-12.9c21.1-6.9,42.2-29.1,63.3-28.4c21.1,0.7,42.2,18.2,63.3,32.4
					s42.2,37.5,63.3,52.7c21.1,15.2,42.2,23.1,63.3,38.6s63.3,54.4,63.3,54.4"/>
				
					<path id="BAHAMAS" style="clip-path:url(#SVGID_00000140737314711246008360000004620377234259431349_);fill:none;stroke:#BFBFBF;stroke-linecap:round;stroke-linejoin:round;" d="
					M29.4,281.3c0,0,42.2,2.6,63.3,3.4s42.2,6,63.3,1.6s42.2-20.6,63.3-28.1c21.1-7.5,42.2-6.2,63.3-17.1s42.2-41.7,63.3-48.1
					c21.1-6.4,42.2,12.5,63.3,9.8c21.1-2.7,42.2-27.3,63.3-26s42.2,23.6,63.3,33.9c21.1,10.3,42.2,19.7,63.3,28.1
					c21.1,8.4,42.2,14.1,63.3,22.3c21.1,8.2,63.3,27.1,63.3,27.1"/>
				
					<path id="EGYPT" style="clip-path:url(#SVGID_00000140737314711246008360000004620377234259431349_);fill:none;stroke:#B9B9B9;stroke-linecap:round;stroke-linejoin:round;" d="
					M29.4,307.9c0,0,42.2,4.6,63.3-0.3c21.1-4.9,42.2-20.3,63.3-28.9c21.1-8.6,42.2-10.5,63.3-22.9c21.1-12.5,42.2-37.3,63.3-51.8
					c21.1-14.4,42.2-26.9,63.3-34.8c21.1-8,42.2-6,63.3-12.9c21.1-6.9,42.2-29.1,63.3-28.4c21.1,0.7,42.2,18.2,63.3,32.4
					s42.2,37.5,63.3,52.7c21.1,15.2,42.2,23.1,63.3,38.6s63.3,54.4,63.3,54.4"/>
				
					<path id="HUNGARY" style="clip-path:url(#SVGID_00000140737314711246008360000004620377234259431349_);fill:none;stroke:#B4B4B4;stroke-linecap:round;stroke-linejoin:round;" d="
					M29.4,350.2c0,0,42.2,7.9,63.3,6.9c21.1-1,42.2-6.1,63.3-12.7s42.2-17.2,63.3-26.7c21.1-9.5,42.2-14.1,63.3-30.2
					c21.1-16.2,42.2-57.3,63.3-66.9c21.1-9.6,42.2,8.4,63.3,9.5c21.1,1.1,42.2-7.7,63.3-3.1s42.2,19.6,63.3,30.8
					s42.2,26.7,63.3,36.2c21.1,9.6,42.2,13.5,63.3,21.2s63.3,25.3,63.3,25.3"/>
				
					<path id="LUXEMBOURG" style="clip-path:url(#SVGID_00000140737314711246008360000004620377234259431349_);fill:none;stroke:#AFAFAF;stroke-linecap:round;stroke-linejoin:round;" d="
					M29.4,292.4c0,0,42.2-10.1,63.3-12.7c21.1-2.5,42.2,4.8,63.3-2.6c21.1-7.4,42.2-33.1,63.3-41.8s42.2-2.3,63.3-10.4
					c21.1-8.1,42.2-30.5,63.3-38c21.1-7.5,42.2-2.7,63.3-7c21.1-4.3,42.2-22,63.3-18.7s42.2,24.9,63.3,38s42.2,29.4,63.3,40.9
					c21.1,11.5,42.2,18.5,63.3,27.9c21.1,9.4,63.3,28.6,63.3,28.6"/>
				
					<path id="SIERRA_LEONE" style="clip-path:url(#SVGID_00000140737314711246008360000004620377234259431349_);fill:none;stroke:#AAAAAA;stroke-linecap:round;stroke-linejoin:round;" d="
					M29.4,350.2c0,0,42.2,7.9,63.3,6.9c21.1-1,42.2-6.1,63.3-12.7s42.2-17.2,63.3-26.7c21.1-9.5,42.2-14.1,63.3-30.2
					c21.1-16.2,42.2-57.3,63.3-66.9c21.1-9.6,42.2,8.4,63.3,9.5c21.1,1.1,42.2-7.7,63.3-3.1s42.2,19.6,63.3,30.8
					s42.2,26.7,63.3,36.2c21.1,9.6,42.2,13.5,63.3,21.2s63.3,25.3,63.3,25.3"/>
				
					<path id="IRAN_x2C__ISLAMIC_REPUBLIC_OF" style="clip-path:url(#SVGID_00000140737314711246008360000004620377234259431349_);fill:none;stroke:#FA8C00;stroke-width:4;stroke-linecap:round;stroke-linejoin:round;" d="
					M29.4,281.3c0,0,42.2,2.6,63.3,3.4s42.2,6,63.3,1.6s42.2-20.6,63.3-28.1c21.1-7.5,42.2-6.2,63.3-17.1s42.2-41.7,63.3-48.1
					c21.1-6.4,42.2,12.5,63.3,9.8c21.1-2.7,42.2-27.3,63.3-26s42.2,23.6,63.3,33.9c21.1,10.3,42.2,19.7,63.3,28.1
					c21.1,8.4,42.2,14.1,63.3,22.3c21.1,8.2,63.3,27.1,63.3,27.1"/>
				
					<path id="UNITED_STATES_OF_AMERICA" style="clip-path:url(#SVGID_00000140737314711246008360000004620377234259431349_);fill:none;stroke:#A4A4A4;stroke-linecap:round;stroke-linejoin:round;" d="
					M29.4,114.3c0,0,42.2,1,63.3,0.9c21.1-0.1,42.2-2.2,63.3-1.5c21.1,0.8,42.2,3.8,63.3,6.1c21.1,2.3,42.2,6.2,63.3,7.7
					s42.2,0.9,63.3,1.5c21.1,0.6,42.2,3.4,63.3,2.3c21.1-1.1,42.2-5.8,63.3-8.9c21.1-3.1,42.2-7.6,63.3-9.7
					c21.1-2.2,42.2-3.4,63.3-3.3c21.1,0.1,42.2,3.1,63.3,3.9s63.3,1.1,63.3,1.1"/>
				
					<path id="AUSTRALIA" style="clip-path:url(#SVGID_00000140737314711246008360000004620377234259431349_);fill:none;stroke:#9F9F9F;stroke-linecap:round;stroke-linejoin:round;" d="
					M29.4,350.2c0,0,42.2,7.9,63.3,6.9c21.1-1,42.2-6.1,63.3-12.7s42.2-17.2,63.3-26.7c21.1-9.5,42.2-14.1,63.3-30.2
					c21.1-16.2,42.2-57.3,63.3-66.9c21.1-9.6,42.2,8.4,63.3,9.5c21.1,1.1,42.2-7.7,63.3-3.1s42.2,19.6,63.3,30.8
					s42.2,26.7,63.3,36.2c21.1,9.6,42.2,13.5,63.3,21.2s63.3,25.3,63.3,25.3"/>
				
					<path id="COLOMBIA__x28_SAN_ANDRES_AND_PROVIDENCIA_ISLANDS_x29_" style="clip-path:url(#SVGID_00000140737314711246008360000004620377234259431349_);fill:none;stroke:#9A9A9A;stroke-linecap:round;stroke-linejoin:round;" d="
					M29.4,114.3c0,0,42.2,1,63.3,0.9c21.1-0.1,42.2-2.2,63.3-1.5c21.1,0.8,42.2,3.8,63.3,6.1c21.1,2.3,42.2,6.2,63.3,7.7
					s42.2,0.9,63.3,1.5c21.1,0.6,42.2,3.4,63.3,2.3c21.1-1.1,42.2-5.8,63.3-8.9c21.1-3.1,42.2-7.6,63.3-9.7
					c21.1-2.2,42.2-3.4,63.3-3.3c21.1,0.1,42.2,3.1,63.3,3.9s63.3,1.1,63.3,1.1"/>
				
					<path id="HONDURAS" style="clip-path:url(#SVGID_00000140737314711246008360000004620377234259431349_);fill:none;stroke:#959595;stroke-linecap:round;stroke-linejoin:round;" d="
					M29.4,334.6c0,0,42.2,1.4,63.3-6.8c21.1-8.2,42.2-30.3,63.3-42.2s42.2-16.3,63.3-29.4c21.1-13.1,42.2-34.3,63.3-49
					s42.2-29.1,63.3-39.3c21.1-10.2,42.2-19.2,63.3-21.9c21.1-2.7,42.2-1.8,63.3,5.5c21.1,7.3,42.2,23.4,63.3,38.6
					s42.2,37.1,63.3,52.5c21.1,15.4,42.2,26.5,63.3,40s63.3,40.6,63.3,40.6"/>
				
					<path id="QATAR" style="clip-path:url(#SVGID_00000140737314711246008360000004620377234259431349_);fill:none;stroke:#18A1CD;stroke-width:4;stroke-linecap:round;stroke-linejoin:round;" d="
					M29.4,334.6c0,0,42.2,1.4,63.3-6.8c21.1-8.2,42.2-30.3,63.3-42.2s42.2-16.3,63.3-29.4c21.1-13.1,42.2-34.3,63.3-49
					s42.2-29.1,63.3-39.3c21.1-10.2,42.2-19.2,63.3-21.9c21.1-2.7,42.2-1.8,63.3,5.5c21.1,7.3,42.2,23.4,63.3,38.6
					s42.2,37.1,63.3,52.5c21.1,15.4,42.2,26.5,63.3,40s63.3,40.6,63.3,40.6"/>
				
					<path id="JORDAN" style="clip-path:url(#SVGID_00000140737314711246008360000004620377234259431349_);fill:none;stroke:#909090;stroke-linecap:round;stroke-linejoin:round;" d="
					M29.4,132.2c0,0,42.2,1.1,63.3,3.9s42.2,6.1,63.3,12.9s42.2,19.4,63.3,28.1s42.2,16.8,63.3,24.3s42.2,16.7,63.3,21
					c21.1,4.3,42.2,4.5,63.3,4.6c21.1,0.1,42.2,2,63.3-3.9s42.2-21.6,63.3-31.4c21.1-9.9,42.2-21.6,63.3-27.8
					c21.1-6.2,42.2-6,63.3-9.5c21.1-3.5,63.3-11.3,63.3-11.3"/>
				
					<path id="PHILIPPINES" style="clip-path:url(#SVGID_00000140737314711246008360000004620377234259431349_);fill:none;stroke:#8B8B8B;stroke-linecap:round;stroke-linejoin:round;" d="
					M29.4,210.1c0,0,42.2-0.1,63.3,0c21.1,0.1,42.2,4.5,63.3,0.5c21.1-4,42.2-15,63.3-24.4c21.1-9.4,42.2-23.5,63.3-31.9
					c21.1-8.4,42.2-11.3,63.3-18.3c21.1-7,42.2-17.9,63.3-23.7c21.1-5.8,42.2-12.8,63.3-11s42.2,12.1,63.3,21.5
					c21.1,9.4,42.2,26.2,63.3,35c21.1,8.8,42.2,9.6,63.3,17.6c21.1,7.9,63.3,30.1,63.3,30.1"/>
				
					<path id="THAILAND" style="clip-path:url(#SVGID_00000140737314711246008360000004620377234259431349_);fill:none;stroke:#868686;stroke-linecap:round;stroke-linejoin:round;" d="
					M29.4,328.5c0,0,42.2,7.5,63.3,8.9s42.2,4.3,63.3-0.3c21.1-4.7,42.2-19.9,63.3-27.6s42.2-10.6,63.3-18.5s42.2-22.8,63.3-28.9
					c21.1-6.1,42.2-6.2,63.3-7.5c21.1-1.4,42.2-6,63.3-0.7s42.2,24.9,63.3,32.7c21.1,7.8,42.2,7.2,63.3,13.9
					c21.1,6.7,42.2,21.1,63.3,26.4s63.3,5.1,63.3,5.1"/>
				
					<path id="DENMARK" style="clip-path:url(#SVGID_00000140737314711246008360000004620377234259431349_);fill:none;stroke:#818181;stroke-linecap:round;stroke-linejoin:round;" d="
					M29.4,471.8c0,0,42.2-5.9,63.3-18.3s42.2-35.2,63.3-55.7s42.2-46.1,63.3-67.6s42.2-42.7,63.3-61.4s42.2-38.4,63.3-50.9
					c21.1-12.5,42.2-23.7,63.3-24.2c21.1-0.5,42.2,10.9,63.3,21.1s42.2,20.5,63.3,39.9s42.2,51.7,63.3,76.7
					c21.1,25,42.2,46.7,63.3,73.2c21.1,26.6,63.3,86.3,63.3,86.3"/>
				
					<path id="CANADA" style="clip-path:url(#SVGID_00000140737314711246008360000004620377234259431349_);fill:none;stroke:#7C7C7C;stroke-linecap:round;stroke-linejoin:round;" d="
					M29.4,328.5c0,0,42.2,7.5,63.3,8.9s42.2,4.3,63.3-0.3c21.1-4.7,42.2-19.9,63.3-27.6s42.2-10.6,63.3-18.5s42.2-22.8,63.3-28.9
					c21.1-6.1,42.2-6.2,63.3-7.5c21.1-1.4,42.2-6,63.3-0.7s42.2,24.9,63.3,32.7c21.1,7.8,42.2,7.2,63.3,13.9
					c21.1,6.7,42.2,21.1,63.3,26.4s63.3,5.1,63.3,5.1"/>
				
					<path id="GREECE" style="clip-path:url(#SVGID_00000140737314711246008360000004620377234259431349_);fill:none;stroke:#777777;stroke-linecap:round;stroke-linejoin:round;" d="
					M29.4,471.8c0,0,42.2-5.9,63.3-18.3s42.2-35.2,63.3-55.7s42.2-46.1,63.3-67.6s42.2-42.7,63.3-61.4s42.2-38.4,63.3-50.9
					c21.1-12.5,42.2-23.7,63.3-24.2c21.1-0.5,42.2,10.9,63.3,21.1s42.2,20.5,63.3,39.9s42.2,51.7,63.3,76.7
					c21.1,25,42.2,46.7,63.3,73.2c21.1,26.6,63.3,86.3,63.3,86.3"/>
				
					<path id="ICELAND" style="clip-path:url(#SVGID_00000140737314711246008360000004620377234259431349_);fill:none;stroke:#727272;stroke-linecap:round;stroke-linejoin:round;" d="
					M29.4,211.1c0,0,42.2,6.3,63.3,7.5s42.2-4.1,63.3-0.3c21.1,3.8,42.2,15.6,63.3,23.2c21.1,7.6,42.2,16.1,63.3,22.5
					s42.2,11.4,63.3,15.9c21.1,4.5,42.2,11.1,63.3,11.1c21.1,0,42.2-6.6,63.3-11.3c21.1-4.7,42.2-11.8,63.3-17
					c21.1-5.1,42.2-8.7,63.3-13.9c21.1-5.2,42.2-13.1,63.3-17.4s63.3-8.6,63.3-8.6"/>
				
					<path id="MALDIVES" style="clip-path:url(#SVGID_00000140737314711246008360000004620377234259431349_);fill:none;stroke:#6E6E6E;stroke-linecap:round;stroke-linejoin:round;" d="
					M29.4,307.9c0,0,42.2,4.6,63.3-0.3c21.1-4.9,42.2-20.3,63.3-28.9c21.1-8.6,42.2-10.5,63.3-22.9c21.1-12.5,42.2-37.3,63.3-51.8
					c21.1-14.4,42.2-26.9,63.3-34.8c21.1-8,42.2-6,63.3-12.9c21.1-6.9,42.2-29.1,63.3-28.4c21.1,0.7,42.2,18.2,63.3,32.4
					s42.2,37.5,63.3,52.7c21.1,15.2,42.2,23.1,63.3,38.6s63.3,54.4,63.3,54.4"/>
				
					<path id="SRI_LANKA" style="clip-path:url(#SVGID_00000140737314711246008360000004620377234259431349_);fill:none;stroke:#696969;stroke-linecap:round;stroke-linejoin:round;" d="
					M29.4,211.1c0,0,42.2,6.3,63.3,7.5s42.2-4.1,63.3-0.3c21.1,3.8,42.2,15.6,63.3,23.2c21.1,7.6,42.2,16.1,63.3,22.5
					s42.2,11.4,63.3,15.9c21.1,4.5,42.2,11.1,63.3,11.1c21.1,0,42.2-6.6,63.3-11.3c21.1-4.7,42.2-11.8,63.3-17
					c21.1-5.1,42.2-8.7,63.3-13.9c21.1-5.2,42.2-13.1,63.3-17.4s63.3-8.6,63.3-8.6"/>
				
					<path id="UNITED_STATES_OF_AMERICA__x28_PACIFIC_ISLANDS_x29_" style="clip-path:url(#SVGID_00000140737314711246008360000004620377234259431349_);fill:none;stroke:#646464;stroke-linecap:round;stroke-linejoin:round;" d="
					M29.4,292.4c0,0,42.2-10.1,63.3-12.7c21.1-2.5,42.2,4.8,63.3-2.6c21.1-7.4,42.2-33.1,63.3-41.8s42.2-2.3,63.3-10.4
					c21.1-8.1,42.2-30.5,63.3-38c21.1-7.5,42.2-2.7,63.3-7c21.1-4.3,42.2-22,63.3-18.7s42.2,24.9,63.3,38s42.2,29.4,63.3,40.9
					c21.1,11.5,42.2,18.5,63.3,27.9c21.1,9.4,63.3,28.6,63.3,28.6"/>
				
					<path id="AUSTRIA" style="clip-path:url(#SVGID_00000140737314711246008360000004620377234259431349_);fill:none;stroke:#5F5F5F;stroke-linecap:round;stroke-linejoin:round;" d="
					M29.4,211.1c0,0,42.2,6.3,63.3,7.5s42.2-4.1,63.3-0.3c21.1,3.8,42.2,15.6,63.3,23.2c21.1,7.6,42.2,16.1,63.3,22.5
					s42.2,11.4,63.3,15.9c21.1,4.5,42.2,11.1,63.3,11.1c21.1,0,42.2-6.6,63.3-11.3c21.1-4.7,42.2-11.8,63.3-17
					c21.1-5.1,42.2-8.7,63.3-13.9c21.1-5.2,42.2-13.1,63.3-17.4s63.3-8.6,63.3-8.6"/>
				
					<path id="CZECH_REPUBLIC" style="clip-path:url(#SVGID_00000140737314711246008360000004620377234259431349_);fill:none;stroke:#5B5B5B;stroke-linecap:round;stroke-linejoin:round;" d="
					M29.4,292.4c0,0,42.2-10.1,63.3-12.7c21.1-2.5,42.2,4.8,63.3-2.6c21.1-7.4,42.2-33.1,63.3-41.8s42.2-2.3,63.3-10.4
					c21.1-8.1,42.2-30.5,63.3-38c21.1-7.5,42.2-2.7,63.3-7c21.1-4.3,42.2-22,63.3-18.7s42.2,24.9,63.3,38s42.2,29.4,63.3,40.9
					c21.1,11.5,42.2,18.5,63.3,27.9c21.1,9.4,63.3,28.6,63.3,28.6"/>
				
					<path id="HONG_KONG" style="clip-path:url(#SVGID_00000140737314711246008360000004620377234259431349_);fill:none;stroke:#565656;stroke-linecap:round;stroke-linejoin:round;" d="
					M29.4,321.6c0,0,42.2-26,63.3-36.8c21.1-10.8,42.2-16.5,63.3-28.1c21.1-11.5,42.2-26.9,63.3-41.2c21.1-14.3,42.2-30.9,63.3-44.6
					s42.2-28.9,63.3-38c21.1-9.1,42.2-15.7,63.3-16.7c21.1-1,42.2,1.1,63.3,10.7c21.1,9.6,42.2,30.5,63.3,46.9s42.2,34.5,63.3,51.5
					c21.1,17,42.2,35.4,63.3,50.5s63.3,40.1,63.3,40.1"/>
				
					<path id="LAO_PEOPLE_x27_S_DEMOCRATIC_REPUBLIC" style="clip-path:url(#SVGID_00000140737314711246008360000004620377234259431349_);fill:none;stroke:#515151;stroke-linecap:round;stroke-linejoin:round;" d="
					M29.4,114.3c0,0,42.2,1,63.3,0.9c21.1-0.1,42.2-2.2,63.3-1.5c21.1,0.8,42.2,3.8,63.3,6.1c21.1,2.3,42.2,6.2,63.3,7.7
					s42.2,0.9,63.3,1.5c21.1,0.6,42.2,3.4,63.3,2.3c21.1-1.1,42.2-5.8,63.3-8.9c21.1-3.1,42.2-7.6,63.3-9.7
					c21.1-2.2,42.2-3.4,63.3-3.3c21.1,0.1,42.2,3.1,63.3,3.9s63.3,1.1,63.3,1.1"/>
				
					<path id="ROMANIA" style="clip-path:url(#SVGID_00000140737314711246008360000004620377234259431349_);fill:none;stroke:#4D4D4D;stroke-linecap:round;stroke-linejoin:round;" d="
					M29.4,321.6c0,0,42.2-26,63.3-36.8c21.1-10.8,42.2-16.5,63.3-28.1c21.1-11.5,42.2-26.9,63.3-41.2c21.1-14.3,42.2-30.9,63.3-44.6
					s42.2-28.9,63.3-38c21.1-9.1,42.2-15.7,63.3-16.7c21.1-1,42.2,1.1,63.3,10.7c21.1,9.6,42.2,30.5,63.3,46.9s42.2,34.5,63.3,51.5
					c21.1,17,42.2,35.4,63.3,50.5s63.3,40.1,63.3,40.1"/>
				
					<path id="TURKMENISTAN" style="clip-path:url(#SVGID_00000140737314711246008360000004620377234259431349_);fill:none;stroke:#484848;stroke-linecap:round;stroke-linejoin:round;" d="
					M29.4,132.2c0,0,42.2,1.1,63.3,3.9s42.2,6.1,63.3,12.9s42.2,19.4,63.3,28.1s42.2,16.8,63.3,24.3s42.2,16.7,63.3,21
					c21.1,4.3,42.2,4.5,63.3,4.6c21.1,0.1,42.2,2,63.3-3.9s42.2-21.6,63.3-31.4c21.1-9.9,42.2-21.6,63.3-27.8
					c21.1-6.2,42.2-6,63.3-9.5c21.1-3.5,63.3-11.3,63.3-11.3"/>
				<g style="clip-path:url(#SVGID_00000140737314711246008360000004620377234259431349_);enable-background:new    ;">
					<text transform="matrix(1 0 0 1 21.3868 507.8145)" class="st39 st40 st41">jan</text>
				</g>
				<g style="clip-path:url(#SVGID_00000140737314711246008360000004620377234259431349_);enable-background:new    ;">
					<text transform="matrix(1 0 0 1 84.3199 507.8145)" class="st39 st40 st41">feb</text>
				</g>
				<g style="clip-path:url(#SVGID_00000140737314711246008360000004620377234259431349_);enable-background:new    ;">
					<text transform="matrix(1 0 0 1 145.5949 507.8145)" class="st39 st40 st41">mar</text>
				</g>
				<g style="clip-path:url(#SVGID_00000140737314711246008360000004620377234259431349_);enable-background:new    ;">
					<text transform="matrix(1 0 0 1 210.5232 507.8145)" class="st39 st40 st41">apr</text>
				</g>
				<g style="clip-path:url(#SVGID_00000140737314711246008360000004620377234259431349_);enable-background:new    ;">
					<text transform="matrix(1 0 0 1 271.1272 507.8145)" class="st39 st40 st41">may</text>
				</g>
				<g style="clip-path:url(#SVGID_00000140737314711246008360000004620377234259431349_);enable-background:new    ;">
					<text transform="matrix(1 0 0 1 337.7225 507.8145)" class="st39 st40 st41">jun</text>
				</g>
				<g style="clip-path:url(#SVGID_00000140737314711246008360000004620377234259431349_);enable-background:new    ;">
					<text transform="matrix(1 0 0 1 402.9935 507.8145)" class="st39 st40 st41">jul</text>
				</g>
				<g style="clip-path:url(#SVGID_00000140737314711246008360000004620377234259431349_);enable-background:new    ;">
					<text transform="matrix(1 0 0 1 462.2528 507.8145)" class="st39 st40 st41">aug</text>
				</g>
				<g style="clip-path:url(#SVGID_00000140737314711246008360000004620377234259431349_);enable-background:new    ;">
					<text transform="matrix(1 0 0 1 525.8569 507.8145)" class="st39 st40 st41">sep</text>
				</g>
				<g style="clip-path:url(#SVGID_00000140737314711246008360000004620377234259431349_);enable-background:new    ;">
					<text transform="matrix(1 0 0 1 590.7939 507.8145)" class="st39 st40 st41">oct</text>
				</g>
				<g style="clip-path:url(#SVGID_00000140737314711246008360000004620377234259431349_);enable-background:new    ;">
					<text transform="matrix(1 0 0 1 652.3911 507.8145)" class="st39 st40 st41">nov</text>
				</g>
				<g style="clip-path:url(#SVGID_00000140737314711246008360000004620377234259431349_);enable-background:new    ;">
					<text transform="matrix(1 0 0 1 715.6583 507.8145)" class="st39 st40 st41">dec</text>
				</g>
				<g style="clip-path:url(#SVGID_00000140737314711246008360000004620377234259431349_);enable-background:new    ;">
					<text transform="matrix(1 0 0 1 -5.6899 480.5854)" class="st42 st40 st41">−20</text>
				</g>
				<g style="clip-path:url(#SVGID_00000140737314711246008360000004620377234259431349_);enable-background:new    ;">
					<text transform="matrix(1 0 0 1 -5.6899 441.7083)" class="st42 st40 st41">−15</text>
				</g>
				<g style="clip-path:url(#SVGID_00000140737314711246008360000004620377234259431349_);enable-background:new    ;">
					<text transform="matrix(1 0 0 1 -5.6899 402.8312)" class="st42 st40 st41">−10</text>
				</g>
				<g style="clip-path:url(#SVGID_00000140737314711246008360000004620377234259431349_);enable-background:new    ;">
					<text transform="matrix(1 0 0 1 0.984 363.9541)" class="st42 st40 st41">−5</text>
				</g>
				<g style="clip-path:url(#SVGID_00000140737314711246008360000004620377234259431349_);enable-background:new    ;">
					<text transform="matrix(1 0 0 1 7.9918 325.077)" class="st42 st40 st41">0</text>
				</g>
				<g style="clip-path:url(#SVGID_00000140737314711246008360000004620377234259431349_);enable-background:new    ;">
					<text transform="matrix(1 0 0 1 7.9918 286.2)" class="st42 st40 st41">5</text>
				</g>
				<g style="clip-path:url(#SVGID_00000140737314711246008360000004620377234259431349_);enable-background:new    ;">
					<text transform="matrix(1 0 0 1 1.318 247.3228)" class="st42 st40 st41">10</text>
				</g>
				<g style="clip-path:url(#SVGID_00000140737314711246008360000004620377234259431349_);enable-background:new    ;">
					<text transform="matrix(1 0 0 1 1.318 208.4457)" class="st42 st40 st41">15</text>
				</g>
				<g style="clip-path:url(#SVGID_00000140737314711246008360000004620377234259431349_);enable-background:new    ;">
					<text transform="matrix(1 0 0 1 1.318 169.5687)" class="st42 st40 st41">20</text>
				</g>
				<g style="clip-path:url(#SVGID_00000140737314711246008360000004620377234259431349_);enable-background:new    ;">
					<text transform="matrix(1 0 0 1 1.318 130.6916)" class="st42 st40 st41">25</text>
				</g>
				<g style="clip-path:url(#SVGID_00000140737314711246008360000004620377234259431349_);enable-background:new    ;">
					<text transform="matrix(1 0 0 1 1.318 91.8145)" class="st42 st40 st41">30</text>
				</g>
				
					<line style="clip-path:url(#SVGID_00000140737314711246008360000004620377234259431349_);fill:none;stroke:#181818;stroke-linecap:square;" x1="735.1" y1="321.1" x2="19.7" y2="321.1"/>
			</g>
			<path style="clip-path:url(#SVGID_00000180350522650559603750000013418242807711160466_);fill:none;stroke:#181818;" d="M233,199
				c10.1,8.7,22.3,12.9,36.6,12.3"/>
			<path style="clip-path:url(#SVGID_00000180350522650559603750000013418242807711160466_);fill:none;stroke:#181818;" d="
				M265.1,207.4l4.6,4l-4.9,3.5"/>
			<g style="clip-path:url(#SVGID_00000180350522650559603750000013418242807711160466_);enable-background:new    ;">
				<text transform="matrix(1 0 0 1 179.5938 192)" class="st46 st47">United States</text>
			</g>
			<g style="clip-path:url(#SVGID_00000180350522650559603750000013418242807711160466_);enable-background:new    ;">
				<text transform="matrix(1 0 0 1 179.5938 192)" class="st48 st46 st47">United States</text>
			</g>
			<g style="clip-path:url(#SVGID_00000180350522650559603750000013418242807711160466_);enable-background:new    ;">
				<text transform="matrix(1 0 0 1 179.5938 192)" class="st46 st47">United States</text>
			</g>
			<g style="clip-path:url(#SVGID_00000180350522650559603750000013418242807711160466_);enable-background:new    ;">
				<text transform="matrix(1 0 0 1 179.5938 192)" class="st49 st46 st47">United States</text>
			</g>
			<path style="clip-path:url(#SVGID_00000180350522650559603750000013418242807711160466_);fill:none;stroke:#181818;" d="
				M361.8,236c-5.9-12.3-15.7-20.8-29.4-25.5"/>
			<path style="clip-path:url(#SVGID_00000180350522650559603750000013418242807711160466_);fill:none;stroke:#181818;" d="
				M335.2,215.8l-2.8-5.3l5.9-1.5"/>
			<g style="clip-path:url(#SVGID_00000180350522650559603750000013418242807711160466_);enable-background:new    ;">
				<text transform="matrix(1 0 0 1 337.5938 254)" class="st46 st47">Denmark</text>
			</g>
			<g style="clip-path:url(#SVGID_00000180350522650559603750000013418242807711160466_);enable-background:new    ;">
				<text transform="matrix(1 0 0 1 337.5938 254)" class="st48 st46 st47">Denmark</text>
			</g>
			<g style="clip-path:url(#SVGID_00000180350522650559603750000013418242807711160466_);enable-background:new    ;">
				<text transform="matrix(1 0 0 1 337.5938 254)" class="st46 st47">Denmark</text>
			</g>
			<g style="clip-path:url(#SVGID_00000180350522650559603750000013418242807711160466_);enable-background:new    ;">
				<text transform="matrix(1 0 0 1 337.5938 254)" class="st49 st46 st47">Denmark</text>
			</g>
			<g style="clip-path:url(#SVGID_00000180350522650559603750000013418242807711160466_);">
				<defs>
					<rect id="SVGID_00000052817509981274600890000017917397214743576468_" y="79" width="744" height="430"/>
				</defs>
				<clipPath id="SVGID_00000086678282010394004330000016377552014102979248_">
					<use xlink:href="#SVGID_00000052817509981274600890000017917397214743576468_"  style="overflow:visible;"/>
				</clipPath>
			</g>
			<g style="clip-path:url(#SVGID_00000180350522650559603750000013418242807711160466_);enable-background:new    ;">
				<text transform="matrix(1 0 0 1 34.853 540)" class="st50 st40 st51">:</text>
			</g>
			<g style="clip-path:url(#SVGID_00000180350522650559603750000013418242807711160466_);enable-background:new    ;">
				<text transform="matrix(1 0 0 1 125.8994 540)" class="st50 st40 st51">•</text>
			</g>
			<g style="clip-path:url(#SVGID_00000180350522650559603750000013418242807711160466_);">
			</g>
			<g style="clip-path:url(#SVGID_00000180350522650559603750000013418242807711160466_);">
				<g>
					<path class="st0" d="M38.2,8.3h6.3c6.4,0,9,3.1,9,8.9c0,6.3-2.4,9.8-9.3,9.8h-6V8.3z M42.2,24.6h1.9c4,0,5.3-2.2,5.3-7.4
						c0-4.5-1.3-6.5-5.2-6.5h-1.9V24.6z"/>
					<path class="st0" d="M69.2,24.1c0,0.8,0.1,2.3,0.2,2.9h-3.6c-0.1-0.3-0.2-1-0.2-1.4c-0.7,1-2.1,1.7-4.5,1.7
						c-3.7,0-5.1-2.2-5.1-4.2c0-2.8,2.6-4.6,7.6-4.6c0.7,0,1.3,0,1.7,0v-1.7c0-0.9-0.2-2-2.4-2c-2.2,0-2.4,1.1-2.5,2h-3.7
						c0.1-2.1,1.4-4.3,6.4-4.3c4,0,6.1,1.4,6.1,4.1V24.1z M65.5,20.6c-0.5-0.1-0.9-0.1-1.6-0.1c-2.9,0-4,1-4,2.3
						c0,1,0.7,2.1,2.5,2.1c2.5,0,3.1-1.3,3.1-3.7V20.6z"/>
					<path class="st0" d="M73.4,17.2c0-2.9,0-3.7,0-4.4h3.8c0.1,0.4,0.1,0.9,0.1,1.6c0.6-0.9,1.8-1.9,4.4-1.9c3.1,0,5,1.4,5,4.3V27
						h-3.9v-9.5c0-1.5-0.5-2.5-2.5-2.5c-2,0-2.9,0.9-2.9,3.3V27h-3.9V17.2z"/>
					<path class="st0" d="M93.9,20.6c0,2.1,0.4,4.3,3.1,4.3c2.5,0,2.8-1.6,2.9-2.1h3.8c-0.1,0.4-0.5,4.5-6.7,4.5c-6.1,0-7-3.9-7-7.4
						c0-4.5,2.3-7.3,7.1-7.3c5.5,0,6.8,3.1,6.8,6.7c0,0.4,0,1-0.1,1.3H93.9z M100,18.5c0-1.7-0.4-3.5-2.9-3.5
						c-2.9,0-3.1,2.5-3.1,3.5H100z"/>
					<path class="st0" d="M109.6,22.8c0.1,1.2,0.9,2.3,2.8,2.3c1.7,0,2.5-0.7,2.5-1.8c0-1.2-0.8-1.8-3.1-2.4
						c-4.4-1.2-5.5-2.3-5.5-4.4c0-1.9,1.6-4,6.1-4c4.8,0,6.1,2.4,6.1,4.3h-3.8c0-0.6-0.1-2.1-2.4-2.1c-1.4,0-2.1,0.6-2.1,1.5
						c0,1,0.7,1.4,3.1,2.1c4,1.1,5.6,2.2,5.6,4.5c0,2.7-2.3,4.3-6.6,4.3c-4.4,0-6.5-1.9-6.5-4.5H109.6z"/>
					<path class="st0" d="M141.5,18.4h-8.3v6h9.3L142,27h-12.8V8.3h12.7v2.6h-8.7v5.1h8.3V18.4z"/>
					<path class="st0" d="M145.3,17.2c0-2.9,0-3.7,0-4.4h3.8c0.1,0.4,0.1,0.9,0.1,1.6c0.6-0.9,1.8-1.9,4.4-1.9c3.1,0,5,1.4,5,4.3V27
						h-3.9v-9.5c0-1.5-0.5-2.5-2.5-2.5c-2,0-2.9,0.9-2.9,3.3V27h-3.9V17.2z"/>
					<path class="st0" d="M175.8,7.3v15.8c0,1.6,0,3,0,3.9H172c-0.1-0.4-0.1-1.2-0.1-1.6c-0.6,1.1-1.8,1.9-4.4,1.9
						c-4.1,0-5.7-2.6-5.7-7.5c0-4.4,2.1-7.2,6.4-7.2c2.2,0,3.2,0.6,3.6,1.2V7.3H175.8z M165.8,19.8c0,3.6,1,5,3,5
						c2.6,0,3.2-1.5,3.2-5.1c0-3.6-0.5-4.7-3-4.7C167,15,165.8,16.2,165.8,19.8z"/>
					<path class="st0" d="M193,22.9c0,2,0,3.4,0,4.1h-3.7c-0.1-0.4-0.1-1-0.2-1.7c-0.8,1.3-2.3,1.9-4.4,1.9c-2.6,0-4.9-0.9-4.9-4.3
						V12.8h3.9v9.6c0,1.5,0.5,2.4,2.3,2.4c1.9,0,3-0.8,3-3.3v-8.7h3.9V22.9z"/>
					<path class="st0" d="M197.2,17.6c0-2.3,0-3.8,0-4.8h3.8c0,0.3,0.1,0.9,0.1,2.4c0.8-1.6,2.5-2.6,5.1-2.6v3.2c-3.2,0-5,1-5,3.6
						V27h-3.9V17.6z"/>
					<path class="st0" d="M211.6,20.6c0,2.1,0.4,4.3,3.1,4.3c2.5,0,2.8-1.6,2.9-2.1h3.8c-0.1,0.4-0.5,4.5-6.7,4.5
						c-6.1,0-7-3.9-7-7.4c0-4.5,2.3-7.3,7.1-7.3c5.5,0,6.8,3.1,6.8,6.7c0,0.4,0,1-0.1,1.3H211.6z M217.6,18.5c0-1.7-0.4-3.5-2.9-3.5
						c-2.9,0-3.1,2.5-3.1,3.5H217.6z"/>
					<path class="st0" d="M232.1,8.3h4v16.2h8.9l-0.4,2.5h-12.5V8.3z"/>
					<path class="st0" d="M260.3,19.8c0,5.1-2.5,7.5-7.1,7.5c-4.6,0-7.1-2.3-7.1-7.4c0-5,2.8-7.3,7.3-7.3
						C257.9,12.5,260.3,15,260.3,19.8z M250.1,19.8c0,3.3,0.9,5,3.2,5c2.2,0,3.1-1.7,3.1-5c0-3.3-0.9-4.9-3.1-4.9
						C251.1,15,250.1,16.5,250.1,19.8z"/>
					<path class="st0" d="M263.6,17.2c0-2.9,0-3.7,0-4.4h3.8c0.1,0.4,0.1,0.9,0.1,1.6c0.6-0.9,1.8-1.9,4.4-1.9c3.1,0,5,1.4,5,4.3V27
						h-3.9v-9.5c0-1.5-0.5-2.5-2.5-2.5c-2,0-2.9,0.9-2.9,3.3V27h-3.9V17.2z"/>
					<path class="st0" d="M294.2,25.9c0,3.9-1.5,6.5-7.3,6.5c-5.4,0-6.5-2.4-6.6-4h3.9c0.1,0.5,0.4,1.7,2.8,1.7
						c2.7,0,3.2-1.5,3.2-4.1v-0.9c-0.7,1.3-2.3,1.9-4.3,1.9c-4.1,0-5.9-2.6-5.9-6.9c0-5,2.5-7.5,6.3-7.5c2.6,0,3.5,0.9,3.9,1.6
						c0-0.5,0.1-1.1,0.2-1.4h3.8c0,0.8-0.1,2.3-0.1,4.2V25.9z M284.1,20c0,3.1,1.1,4.5,3.1,4.5c2.5,0,3.1-1.8,3.1-4.9
						c0-2.8-0.3-4.6-2.9-4.6C285.3,15,284.1,16.6,284.1,20z"/>
					<path class="st0" d="M296.4,30c1.3-2.5,2.1-5.3,2.2-7h3.7c-0.3,2.6-1.5,5.4-2.8,7H296.4z"/>
					<path class="st0" d="M312.7,8.3h6.3c6.4,0,9,3.1,9,8.9c0,6.3-2.4,9.8-9.3,9.8h-6V8.3z M316.7,24.6h1.9c4,0,5.3-2.2,5.3-7.4
						c0-4.5-1.3-6.5-5.2-6.5h-1.9V24.6z"/>
					<path class="st0" d="M343.7,24.1c0,0.8,0.1,2.3,0.2,2.9h-3.6c-0.1-0.3-0.2-1-0.2-1.4c-0.7,1-2.1,1.7-4.5,1.7
						c-3.7,0-5.1-2.2-5.1-4.2c0-2.8,2.6-4.6,7.6-4.6c0.7,0,1.3,0,1.7,0v-1.7c0-0.9-0.2-2-2.4-2c-2.2,0-2.4,1.1-2.5,2h-3.7
						c0.1-2.1,1.4-4.3,6.4-4.3c4,0,6.1,1.4,6.1,4.1V24.1z M339.9,20.6c-0.5-0.1-0.9-0.1-1.6-0.1c-2.9,0-4,1-4,2.3
						c0,1,0.7,2.1,2.5,2.1c2.5,0,3.1-1.3,3.1-3.7V20.6z"/>
					<path class="st0" d="M347.9,17.6c0-2.3,0-3.8,0-4.8h3.8c0,0.3,0.1,0.9,0.1,2.4c0.8-1.6,2.5-2.6,5.1-2.6v3.2c-3.2,0-5,1-5,3.6
						V27h-3.9V17.6z"/>
					<path class="st0" d="M363.3,19.1c1.3-1.7,3.6-4.3,5.3-6.3h4.3c-1.6,1.8-3.2,3.5-4.9,5.3c0,0,5.3,8.9,5.3,8.9h-4.5l-3.5-6.6
						c-0.5,0.5-1.5,1.6-2,2.1V27h-3.9V7.3h3.9V19.1z"/>
					<path class="st0" d="M385.4,27l-4.9-18.7h4.2c1.2,5.2,2.6,11.5,2.9,14.7h0c0.7-3.3,2.8-10.5,3.9-14.7h3.6
						c1,3.9,3.2,11.4,3.7,14.5h0.1c0.6-3.7,2.4-10.7,3.2-14.5h4L400.8,27h-4c-1-4-3-10.7-3.6-14h-0.1c-0.7,3.5-2.7,10.2-3.7,14
						H385.4z"/>
					<path class="st0" d="M408.6,12.8h3.9V27h-3.9V12.8z M408.7,7.3h3.9v3.1h-3.9V7.3z"/>
					<path class="st0" d="M416.8,17.2c0-2.9,0-3.7,0-4.4h3.8c0.1,0.4,0.1,0.9,0.1,1.6c0.6-0.9,1.8-1.9,4.4-1.9c3.1,0,5,1.4,5,4.3V27
						h-3.9v-9.5c0-1.5-0.5-2.5-2.5-2.5c-2,0-2.9,0.9-2.9,3.3V27h-3.9V17.2z"/>
					<path class="st0" d="M432,12.8h2.6V9.1h3.9v3.6h3.1v2.4h-3.1v8.3c0,0.9,0.2,1.4,1.7,1.4c0.5,0,0.8,0,1.2-0.1v2.1
						c-0.8,0.2-1.9,0.3-2.6,0.3c-2.8,0-4.2-0.8-4.2-3.2v-8.8H432V12.8z"/>
					<path class="st0" d="M447.1,20.6c0,2.1,0.4,4.3,3.1,4.3c2.5,0,2.8-1.6,2.9-2.1h3.8c-0.1,0.4-0.5,4.5-6.7,4.5
						c-6.1,0-7-3.9-7-7.4c0-4.5,2.3-7.3,7.1-7.3c5.5,0,6.8,3.1,6.8,6.7c0,0.4,0,1-0.1,1.3H447.1z M453.2,18.5c0-1.7-0.4-3.5-2.9-3.5
						c-2.9,0-3.1,2.5-3.1,3.5H453.2z"/>
					<path class="st0" d="M460.3,17.6c0-2.3,0-3.8,0-4.8h3.8c0,0.3,0.1,0.9,0.1,2.4c0.8-1.6,2.5-2.6,5.1-2.6v3.2c-3.2,0-5,1-5,3.6
						V27h-3.9V17.6z"/>
					<path class="st0" d="M474.2,22.8c0.1,1.2,0.9,2.3,2.8,2.3c1.7,0,2.5-0.7,2.5-1.8c0-1.2-0.8-1.8-3.1-2.4
						c-4.4-1.2-5.5-2.3-5.5-4.4c0-1.9,1.6-4,6.1-4c4.8,0,6.1,2.4,6.1,4.3h-3.8c0-0.6-0.1-2.1-2.4-2.1c-1.4,0-2.1,0.6-2.1,1.5
						c0,1,0.7,1.4,3.1,2.1c4,1.1,5.6,2.2,5.6,4.5c0,2.7-2.3,4.3-6.6,4.3c-4.4,0-6.5-1.9-6.5-4.5H474.2z"/>
				</g>
			</g>
			<g style="clip-path:url(#SVGID_00000180350522650559603750000013418242807711160466_);">
				<g>
					<path class="st0" d="M39.8,49.7L39.1,53h-1.9c0,0,2.9-12.2,2.9-12.2h2.5L45.4,53h-2l-0.7-3.3H39.8z M42.4,48
						c-0.5-2.6-0.9-4.3-1.1-5.4h0c-0.2,1.1-0.6,3.1-1.1,5.4H42.4z"/>
					<path class="st0" d="M47.6,43.8c0.6,2.8,1.4,5.9,1.6,7.3h0c0.2-1.3,1.1-4.9,1.7-7.3h1.9L50.1,53h-2l-2.5-9.3H47.6z"/>
					<path class="st0" d="M55.3,48.8c0,1.4,0.2,2.8,1.5,2.8c1.2,0,1.3-1.1,1.4-1.4h1.8c0,0.3-0.3,2.9-3.2,2.9
						c-2.9,0-3.3-2.5-3.3-4.8c0-2.9,1.1-4.7,3.4-4.7c2.6,0,3.2,2,3.2,4.4c0,0.3,0,0.7,0,0.8H55.3z M58.2,47.5c0-1.1-0.2-2.3-1.4-2.3
						c-1.4,0-1.5,1.7-1.5,2.3H58.2z"/>
					<path class="st0" d="M61.5,46.9c0-1.5,0-2.5,0-3.1h1.8c0,0.2,0,0.6,0,1.6c0.4-1.1,1.2-1.7,2.4-1.7v2.1c-1.5,0-2.4,0.6-2.4,2.4
						v5h-1.9V46.9z"/>
					<path class="st0" d="M72.8,51.1c0,0.5,0,1.5,0.1,1.9h-1.7c0-0.2-0.1-0.6-0.1-0.9c-0.3,0.6-1,1.1-2.1,1.1
						c-1.8,0-2.4-1.4-2.4-2.7c0-1.8,1.2-3,3.6-3c0.4,0,0.6,0,0.8,0v-1.1c0-0.6-0.1-1.3-1.1-1.3c-1,0-1.1,0.7-1.2,1.3h-1.8
						c0-1.3,0.7-2.8,3-2.8c1.9,0,2.9,0.9,2.9,2.6V51.1z M71,48.8c-0.2,0-0.4,0-0.8,0c-1.4,0-1.9,0.6-1.9,1.5c0,0.7,0.3,1.3,1.2,1.3
						c1.2,0,1.5-0.9,1.5-2.4V48.8z"/>
					<path class="st0" d="M81.1,52.3c0,2.6-0.7,4.2-3.5,4.2c-2.6,0-3.1-1.6-3.1-2.6h1.9c0,0.4,0.2,1.1,1.4,1.1c1.3,0,1.5-1,1.5-2.7
						v-0.6c-0.3,0.8-1.1,1.2-2,1.2c-1.9,0-2.8-1.7-2.8-4.5c0-3.2,1.2-4.9,3-4.9c1.2,0,1.7,0.6,1.8,1.1c0-0.3,0-0.7,0.1-0.9h1.8
						c0,0.5,0,1.5,0,2.7V52.3z M76.3,48.4c0,2,0.5,2.9,1.5,2.9c1.2,0,1.5-1.2,1.5-3.2c0-1.8-0.2-3-1.4-3
						C76.8,45.2,76.3,46.2,76.3,48.4z"/>
					<path class="st0" d="M84.5,48.8c0,1.4,0.2,2.8,1.5,2.8c1.2,0,1.3-1.1,1.4-1.4h1.8c0,0.3-0.3,2.9-3.2,2.9
						c-2.9,0-3.3-2.5-3.3-4.8c0-2.9,1.1-4.7,3.4-4.7c2.6,0,3.2,2,3.2,4.4c0,0.3,0,0.7,0,0.8H84.5z M87.4,47.5c0-1.1-0.2-2.3-1.4-2.3
						c-1.4,0-1.5,1.7-1.5,2.3H87.4z"/>
					<path class="st0" d="M94.1,46.6c0-1.9,0-2.4,0-2.9h1.8c0,0.2,0.1,0.6,0.1,1c0.3-0.6,0.9-1.2,2.1-1.2c1.5,0,2.4,0.9,2.4,2.8V53
						h-1.9v-6.2c0-1-0.2-1.6-1.2-1.6c-1,0-1.4,0.6-1.4,2.2V53h-1.9V46.6z"/>
					<path class="st0" d="M108.7,50.4c0,1.3,0,2.2,0,2.7h-1.8c0-0.3-0.1-0.7-0.1-1.1c-0.4,0.9-1.1,1.2-2.1,1.2
						c-1.2,0-2.3-0.6-2.3-2.8v-6.6h1.9V50c0,1,0.2,1.6,1.1,1.6c0.9,0,1.4-0.5,1.4-2.1v-5.7h1.9V50.4z"/>
					<path class="st0" d="M110.6,46.5c0-1.8,0-2.4,0-2.8h1.8c0,0.2,0.1,0.7,0.1,1c0.4-0.7,1.1-1.2,2-1.2c1,0,1.6,0.4,1.9,1.3
						c0.4-0.7,1-1.3,2.3-1.3c1.3,0,2.3,0.6,2.3,2.7V53h-1.8v-6.4c0-0.8-0.3-1.4-1.1-1.4c-1,0-1.3,0.8-1.3,2V53h-1.9v-6.3
						c0-0.9-0.3-1.5-1.1-1.5c-0.9,0-1.3,0.7-1.3,2V53h-1.9V46.5z"/>
					<path class="st0" d="M123,40.2h1.9v4.6c0.3-0.6,0.9-1.2,2.1-1.2c1.9,0,2.7,1.6,2.7,4.5c0,2.9-0.7,5-3,5c-1.2,0-1.6-0.6-1.9-1.1
						c0,0.2,0,0.7,0,1h-1.8c0-0.6,0-1.6,0-2.6V40.2z M127.8,48.2c0-2-0.4-3-1.4-3c-1.2,0-1.6,0.9-1.6,3.2c0,2.2,0.3,3.2,1.5,3.2
						C127.3,51.6,127.8,50.5,127.8,48.2z"/>
					<path class="st0" d="M132.6,48.8c0,1.4,0.2,2.8,1.5,2.8c1.2,0,1.3-1.1,1.4-1.4h1.8c0,0.3-0.3,2.9-3.2,2.9
						c-2.9,0-3.3-2.5-3.3-4.8c0-2.9,1.1-4.7,3.4-4.7c2.6,0,3.2,2,3.2,4.4c0,0.3,0,0.7,0,0.8H132.6z M135.5,47.5
						c0-1.1-0.2-2.3-1.4-2.3c-1.4,0-1.5,1.7-1.5,2.3H135.5z"/>
					<path class="st0" d="M138.9,46.9c0-1.5,0-2.5,0-3.1h1.8c0,0.2,0,0.6,0,1.6c0.4-1.1,1.2-1.7,2.4-1.7v2.1c-1.5,0-2.4,0.6-2.4,2.4
						v5h-1.9V46.9z"/>
					<path class="st0" d="M154,48.3c0,3.3-1.2,4.9-3.4,4.9c-2.2,0-3.4-1.5-3.4-4.8c0-3.3,1.3-4.7,3.5-4.7
						C152.8,43.6,154,45.2,154,48.3z M149.1,48.3c0,2.2,0.4,3.3,1.5,3.3c1,0,1.5-1.1,1.5-3.3c0-2.2-0.4-3.2-1.5-3.2
						C149.6,45.2,149.1,46.2,149.1,48.3z"/>
					<path class="st0" d="M155.7,53v-7.7h-1.1v-1.5h1.1v-1c0-1.5,0.6-2.6,2.4-2.6c0.3,0,0.7,0,0.8,0.1v1.6c-0.2,0-0.3-0.1-0.5-0.1
						c-0.7,0-0.8,0.4-0.8,1.1v0.9h1.4v1.5h-1.4V53H155.7z"/>
					<path class="st0" d="M169.4,40.2v10.3c0,1,0,2,0,2.5h-1.8c0-0.2-0.1-0.8-0.1-1.1c-0.3,0.7-0.8,1.2-2.1,1.2
						c-1.9,0-2.7-1.7-2.7-4.9c0-2.9,1-4.7,3.1-4.7c1.1,0,1.5,0.4,1.7,0.8v-4.2H169.4z M164.6,48.3c0,2.3,0.5,3.3,1.4,3.3
						c1.2,0,1.5-1,1.5-3.3c0-2.3-0.2-3.1-1.4-3.1C165.2,45.2,164.6,46,164.6,48.3z"/>
					<path class="st0" d="M177.2,51.1c0,0.5,0,1.5,0.1,1.9h-1.7c0-0.2-0.1-0.6-0.1-0.9c-0.3,0.6-1,1.1-2.1,1.1
						c-1.8,0-2.4-1.4-2.4-2.7c0-1.8,1.2-3,3.6-3c0.4,0,0.6,0,0.8,0v-1.1c0-0.6-0.1-1.3-1.1-1.3c-1,0-1.1,0.7-1.2,1.3h-1.8
						c0-1.3,0.7-2.8,3-2.8c1.9,0,2.9,0.9,2.9,2.6V51.1z M175.4,48.8c-0.2,0-0.4,0-0.8,0c-1.4,0-1.9,0.6-1.9,1.5
						c0,0.7,0.3,1.3,1.2,1.3c1.2,0,1.5-0.9,1.5-2.4V48.8z"/>
					<path class="st0" d="M179.2,43.8h1.9V53h-1.9V43.8z M179.2,40.2h1.9v2h-1.9V40.2z"/>
					<path class="st0" d="M183.1,53V40.2h1.9V53H183.1z"/>
					<path class="st0" d="M188.1,43.8c0.8,3.3,1.5,5.9,1.6,7h0c0.2-1.2,0.9-4.1,1.6-7h1.9l-2.7,9.7c-0.8,2.8-1.7,3.1-3,3.1
						c-0.2,0-0.5,0-0.8-0.1v-1.6c0.1,0,0.4,0,0.6,0c0.9,0,1.1-0.5,1.4-1.7l-2.8-9.4H188.1z"/>
					<path class="st0" d="M198.9,50.3c0,0.8,0.4,1.5,1.3,1.5c0.8,0,1.2-0.5,1.2-1.1c0-0.8-0.4-1.1-1.5-1.6c-2.1-0.8-2.6-1.5-2.6-2.8
						c0-1.3,0.8-2.6,2.9-2.6c2.3,0,2.9,1.6,2.9,2.8h-1.8c0-0.4-0.1-1.4-1.2-1.4c-0.7,0-1,0.4-1,1c0,0.6,0.3,0.9,1.5,1.4
						c1.9,0.7,2.7,1.4,2.7,3c0,1.8-1.1,2.8-3.1,2.8c-2.1,0-3.1-1.3-3.1-2.9H198.9z"/>
					<path class="st0" d="M211,50.4c0,1.3,0,2.2,0,2.7h-1.8c0-0.3-0.1-0.7-0.1-1.1c-0.4,0.9-1.1,1.2-2.1,1.2c-1.2,0-2.3-0.6-2.3-2.8
						v-6.6h1.9V50c0,1,0.2,1.6,1.1,1.6c0.9,0,1.4-0.5,1.4-2.1v-5.7h1.9V50.4z"/>
					<path class="st0" d="M213,46.6c0-1.9,0-2.4,0-2.9h1.8c0,0.2,0.1,0.6,0.1,1c0.3-0.6,0.9-1.2,2.1-1.2c1.5,0,2.4,0.9,2.4,2.8V53
						h-1.9v-6.2c0-1-0.2-1.6-1.2-1.6c-1,0-1.4,0.6-1.4,2.2V53H213V46.6z"/>
					<path class="st0" d="M222.5,50.3c0,0.8,0.4,1.5,1.3,1.5c0.8,0,1.2-0.5,1.2-1.1c0-0.8-0.4-1.1-1.5-1.6c-2.1-0.8-2.6-1.5-2.6-2.8
						c0-1.3,0.8-2.6,2.9-2.6c2.3,0,2.9,1.6,2.9,2.8h-1.8c0-0.4-0.1-1.4-1.2-1.4c-0.7,0-1,0.4-1,1c0,0.6,0.3,0.9,1.5,1.4
						c1.9,0.7,2.7,1.4,2.7,3c0,1.8-1.1,2.8-3.1,2.8c-2.1,0-3.1-1.3-3.1-2.9H222.5z"/>
					<path class="st0" d="M230.2,40.2v4.5c0.3-0.6,1-1.1,2.1-1.1c1.5,0,2.3,0.9,2.3,2.9V53h-1.9v-6.2c0-1-0.2-1.6-1.2-1.6
						c-1.1,0-1.4,0.8-1.4,2.2V53h-1.9V40.2H230.2z"/>
					<path class="st0" d="M236.6,43.8h1.9V53h-1.9V43.8z M236.6,40.2h1.9v2h-1.9V40.2z"/>
					<path class="st0" d="M240.5,46.6c0-1.9,0-2.4,0-2.9h1.8c0,0.2,0.1,0.6,0.1,1c0.3-0.6,0.9-1.2,2.1-1.2c1.5,0,2.4,0.9,2.4,2.8V53
						h-1.9v-6.2c0-1-0.2-1.6-1.2-1.6c-1,0-1.4,0.6-1.4,2.2V53h-1.9V46.6z"/>
					<path class="st0" d="M250.2,48.8c0,1.4,0.2,2.8,1.5,2.8c1.2,0,1.3-1.1,1.4-1.4h1.8c0,0.3-0.3,2.9-3.2,2.9
						c-2.9,0-3.3-2.5-3.3-4.8c0-2.9,1.1-4.7,3.4-4.7c2.6,0,3.2,2,3.2,4.4c0,0.3,0,0.7,0,0.8H250.2z M253.1,47.5
						c0-1.1-0.2-2.3-1.4-2.3c-1.4,0-1.5,1.7-1.5,2.3H253.1z"/>
					<path class="st0" d="M261.3,48.8c0,1.4,0.2,2.8,1.5,2.8c1.2,0,1.3-1.1,1.4-1.4h1.8c0,0.3-0.3,2.9-3.2,2.9
						c-2.9,0-3.3-2.5-3.3-4.8c0-2.9,1.1-4.7,3.4-4.7c2.6,0,3.2,2,3.2,4.4c0,0.3,0,0.7,0,0.8H261.3z M264.2,47.5
						c0-1.1-0.2-2.3-1.4-2.3c-1.4,0-1.5,1.7-1.5,2.3H264.2z"/>
					<path class="st0" d="M273.4,51.1c0,0.5,0,1.5,0.1,1.9h-1.7c0-0.2-0.1-0.6-0.1-0.9c-0.3,0.6-1,1.1-2.1,1.1
						c-1.8,0-2.4-1.4-2.4-2.7c0-1.8,1.2-3,3.6-3c0.4,0,0.6,0,0.8,0v-1.1c0-0.6-0.1-1.3-1.1-1.3c-1,0-1.1,0.7-1.2,1.3h-1.8
						c0-1.3,0.7-2.8,3-2.8c1.9,0,2.9,0.9,2.9,2.6V51.1z M271.6,48.8c-0.2,0-0.4,0-0.8,0c-1.4,0-1.9,0.6-1.9,1.5
						c0,0.7,0.3,1.3,1.2,1.3c1.2,0,1.5-0.9,1.5-2.4V48.8z"/>
					<path class="st0" d="M281.4,50c0,0.7-0.2,3.2-3.2,3.2c-2.6,0-3.2-2.1-3.2-4.9c0-2.5,0.8-4.7,3.3-4.7c2.9,0,3,2.6,3,3.1h-1.9
						c0-0.4-0.1-1.5-1.2-1.5c-1.1,0-1.4,1.2-1.4,3.2c0,2.1,0.4,3.3,1.4,3.3c1.1,0,1.2-1.1,1.3-1.6H281.4z"/>
					<path class="st0" d="M284.6,40.2v4.5c0.3-0.6,1-1.1,2.1-1.1c1.5,0,2.3,0.9,2.3,2.9V53h-1.9v-6.2c0-1-0.2-1.6-1.2-1.6
						c-1.1,0-1.4,0.8-1.4,2.2V53h-1.9V40.2H284.6z"/>
					<path class="st0" d="M294.4,46.5c0-1.8,0-2.4,0-2.8h1.8c0,0.2,0.1,0.7,0.1,1c0.4-0.7,1.1-1.2,2-1.2c1,0,1.6,0.4,1.9,1.3
						c0.4-0.7,1-1.3,2.3-1.3c1.3,0,2.3,0.6,2.3,2.7V53h-1.8v-6.4c0-0.8-0.3-1.4-1.1-1.4c-1,0-1.3,0.8-1.3,2V53h-1.9v-6.3
						c0-0.9-0.3-1.5-1.1-1.5c-0.9,0-1.3,0.7-1.3,2V53h-1.9V46.5z"/>
					<path class="st0" d="M313.1,48.3c0,3.3-1.2,4.9-3.4,4.9c-2.2,0-3.4-1.5-3.4-4.8c0-3.3,1.3-4.7,3.5-4.7
						C311.9,43.6,313.1,45.2,313.1,48.3z M308.2,48.3c0,2.2,0.4,3.3,1.5,3.3c1,0,1.5-1.1,1.5-3.3c0-2.2-0.4-3.2-1.5-3.2
						C308.7,45.2,308.2,46.2,308.2,48.3z"/>
					<path class="st0" d="M314.6,46.6c0-1.9,0-2.4,0-2.9h1.8c0,0.2,0.1,0.6,0.1,1c0.3-0.6,0.9-1.2,2.1-1.2c1.5,0,2.4,0.9,2.4,2.8V53
						h-1.9v-6.2c0-1-0.2-1.6-1.2-1.6c-1,0-1.4,0.6-1.4,2.2V53h-1.9V46.6z"/>
					<path class="st0" d="M321.9,43.8h1.2v-2.4h1.9v2.4h1.5v1.5H325v5.4c0,0.6,0.1,0.9,0.8,0.9c0.2,0,0.4,0,0.6,0V53
						c-0.4,0.2-0.9,0.2-1.2,0.2c-1.3,0-2-0.5-2-2.1v-5.7h-1.2V43.8z"/>
					<path class="st0" d="M329.5,40.2v4.5c0.3-0.6,1-1.1,2.1-1.1c1.5,0,2.3,0.9,2.3,2.9V53h-1.9v-6.2c0-1-0.2-1.6-1.2-1.6
						c-1.1,0-1.4,0.8-1.4,2.2V53h-1.9V40.2H329.5z"/>
					<path class="st0" d="M339.3,40.2h1.9v4.6c0.3-0.6,0.9-1.2,2.1-1.2c1.9,0,2.7,1.6,2.7,4.5c0,2.9-0.7,5-3,5
						c-1.2,0-1.6-0.6-1.9-1.1c0,0.2,0,0.7,0,1h-1.8c0-0.6,0-1.6,0-2.6V40.2z M344.1,48.2c0-2-0.4-3-1.4-3c-1.2,0-1.6,0.9-1.6,3.2
						c0,2.2,0.3,3.2,1.5,3.2C343.7,51.6,344.1,50.5,344.1,48.2z"/>
					<path class="st0" d="M348.7,43.8c0.8,3.3,1.5,5.9,1.6,7h0c0.2-1.2,0.9-4.1,1.6-7h1.9l-2.7,9.7c-0.8,2.8-1.7,3.1-3,3.1
						c-0.2,0-0.5,0-0.8-0.1v-1.6c0.1,0,0.4,0,0.6,0c0.9,0,1.1-0.5,1.4-1.7l-2.8-9.4H348.7z"/>
					<path class="st0" d="M364.2,50c0,0.7-0.2,3.2-3.2,3.2c-2.6,0-3.2-2.1-3.2-4.9c0-2.5,0.8-4.7,3.3-4.7c2.9,0,3,2.6,3,3.1h-1.9
						c0-0.4-0.1-1.5-1.2-1.5c-1.1,0-1.4,1.2-1.4,3.2c0,2.1,0.4,3.3,1.4,3.3c1.1,0,1.2-1.1,1.3-1.6H364.2z"/>
					<path class="st0" d="M371.9,48.3c0,3.3-1.2,4.9-3.4,4.9c-2.2,0-3.4-1.5-3.4-4.8c0-3.3,1.3-4.7,3.5-4.7
						C370.8,43.6,371.9,45.2,371.9,48.3z M367.1,48.3c0,2.2,0.4,3.3,1.5,3.3c1,0,1.5-1.1,1.5-3.3c0-2.2-0.4-3.2-1.5-3.2
						C367.5,45.2,367.1,46.2,367.1,48.3z"/>
					<path class="st0" d="M379.7,50.4c0,1.3,0,2.2,0,2.7H378c0-0.3-0.1-0.7-0.1-1.1c-0.4,0.9-1.1,1.2-2.1,1.2
						c-1.2,0-2.3-0.6-2.3-2.8v-6.6h1.9V50c0,1,0.2,1.6,1.1,1.6c0.9,0,1.4-0.5,1.4-2.1v-5.7h1.9V50.4z"/>
					<path class="st0" d="M381.7,46.6c0-1.9,0-2.4,0-2.9h1.8c0,0.2,0.1,0.6,0.1,1c0.3-0.6,0.9-1.2,2.1-1.2c1.5,0,2.4,0.9,2.4,2.8V53
						h-1.9v-6.2c0-1-0.2-1.6-1.2-1.6c-1,0-1.4,0.6-1.4,2.2V53h-1.9V46.6z"/>
					<path class="st0" d="M388.9,43.8h1.2v-2.4h1.9v2.4h1.5v1.5h-1.5v5.4c0,0.6,0.1,0.9,0.8,0.9c0.2,0,0.4,0,0.6,0V53
						c-0.4,0.2-0.9,0.2-1.2,0.2c-1.3,0-2-0.5-2-2.1v-5.7h-1.2V43.8z"/>
					<path class="st0" d="M394.7,53v-6.1c0-1.5,0-2.5,0-3.1h1.8c0,0.2,0,0.6,0,1.6c0.4-1.1,1.2-1.7,2.4-1.7v2.1
						c-1.5,0-2.4,0.6-2.4,2.4v5H394.7L394.7,53z"/>
					<path class="st0" d="M401.3,43.8c0.8,3.3,1.5,5.9,1.6,7h0c0.2-1.2,0.9-4.1,1.6-7h1.9l-2.7,9.7c-0.8,2.8-1.7,3.1-3,3.1
						c-0.2,0-0.5,0-0.8-0.1v-1.6c0.1,0,0.4,0,0.6,0c0.9,0,1.1-0.5,1.4-1.7l-2.8-9.4H401.3z"/>
					<path class="st0" d="M407.2,53v-2.7h1.9V53H407.2z"/>
					<path class="st0" d="M414.2,40.8h3c3,0,4.3,2,4.3,5.8c0,4.1-1.2,6.4-4.4,6.4h-2.8V40.8z M416.1,51.4h0.9c1.9,0,2.5-1.5,2.5-4.8
						c0-3-0.6-4.3-2.5-4.3h-0.9V51.4z"/>
					<path class="st0" d="M424.6,48.8c0,1.4,0.2,2.8,1.5,2.8c1.2,0,1.3-1.1,1.4-1.4h1.8c0,0.3-0.3,2.9-3.2,2.9
						c-2.9,0-3.3-2.5-3.3-4.8c0-2.9,1.1-4.7,3.4-4.7c2.6,0,3.2,2,3.2,4.4c0,0.3,0,0.7,0,0.8H424.6z M427.4,47.5
						c0-1.1-0.2-2.3-1.4-2.3c-1.4,0-1.5,1.7-1.5,2.3H427.4z"/>
					<path class="st0" d="M430.8,46.6c0-1.9,0-2.4,0-2.9h1.8c0,0.2,0.1,0.6,0.1,1c0.3-0.6,0.9-1.2,2.1-1.2c1.5,0,2.4,0.9,2.4,2.8V53
						h-1.9v-6.2c0-1-0.2-1.6-1.2-1.6c-1,0-1.4,0.6-1.4,2.2V53h-1.9V46.6z"/>
					<path class="st0" d="M439.1,46.5c0-1.8,0-2.4,0-2.8h1.8c0,0.2,0.1,0.7,0.1,1c0.4-0.7,1.1-1.2,2-1.2c1,0,1.6,0.4,1.9,1.3
						c0.4-0.7,1-1.3,2.3-1.3c1.3,0,2.3,0.6,2.3,2.7V53h-1.8v-6.4c0-0.8-0.2-1.4-1.1-1.4c-1,0-1.3,0.8-1.3,2V53h-1.9v-6.3
						c0-0.9-0.3-1.5-1.1-1.5c-0.9,0-1.3,0.7-1.3,2V53h-1.9V46.5z"/>
					<path class="st0" d="M457.3,51.1c0,0.5,0,1.5,0.1,1.9h-1.7c0-0.2-0.1-0.6-0.1-0.9c-0.3,0.6-1,1.1-2.1,1.1
						c-1.8,0-2.4-1.4-2.4-2.7c0-1.8,1.2-3,3.6-3c0.4,0,0.6,0,0.8,0v-1.1c0-0.6-0.1-1.3-1.1-1.3c-1,0-1.1,0.7-1.2,1.3h-1.8
						c0-1.3,0.7-2.8,3-2.8c1.9,0,2.9,0.9,2.9,2.6V51.1z M455.5,48.8c-0.2,0-0.4,0-0.8,0c-1.4,0-1.9,0.6-1.9,1.5
						c0,0.7,0.3,1.3,1.2,1.3c1.2,0,1.5-0.9,1.5-2.4V48.8z"/>
					<path class="st0" d="M459.3,53v-6.1c0-1.5,0-2.5,0-3.1h1.8c0,0.2,0,0.6,0,1.6c0.4-1.1,1.2-1.7,2.4-1.7v2.1
						c-1.5,0-2.4,0.6-2.4,2.4v5H459.3L459.3,53z"/>
					<path class="st0" d="M466.6,47.8c0.6-1.1,1.7-2.8,2.5-4.1h2.1c-0.8,1.2-1.5,2.3-2.4,3.4l2.5,5.8h-2.1l-1.7-4.3
						c-0.3,0.3-0.7,1-1,1.4v3h-1.9V40.2h1.9V47.8z"/>
					<path class="st0" d="M481.8,52.3c0,2.6-0.7,4.2-3.5,4.2c-2.6,0-3.1-1.6-3.1-2.6h1.9c0,0.4,0.2,1.1,1.4,1.1c1.3,0,1.5-1,1.5-2.7
						v-0.6c-0.3,0.8-1.1,1.2-2,1.2c-1.9,0-2.8-1.7-2.8-4.5c0-3.2,1.2-4.9,3-4.9c1.2,0,1.7,0.6,1.8,1.1c0-0.3,0-0.7,0.1-0.9h1.8
						c0,0.5,0,1.5,0,2.7V52.3z M477,48.4c0,2,0.5,2.9,1.5,2.9c1.2,0,1.5-1.2,1.5-3.2c0-1.8-0.2-3-1.4-3
						C477.5,45.2,477,46.2,477,48.4z"/>
					<path class="st0" d="M485.2,48.8c0,1.4,0.2,2.8,1.5,2.8c1.2,0,1.3-1.1,1.4-1.4h1.8c0,0.3-0.3,2.9-3.2,2.9
						c-2.9,0-3.3-2.5-3.3-4.8c0-2.9,1.1-4.7,3.4-4.7c2.6,0,3.2,2,3.2,4.4c0,0.3,0,0.7,0,0.8H485.2z M488.1,47.5
						c0-1.1-0.2-2.3-1.4-2.3c-1.4,0-1.5,1.7-1.5,2.3H488.1z"/>
					<path class="st0" d="M490.4,43.8h1.2v-2.4h1.9v2.4h1.5v1.5h-1.5v5.4c0,0.6,0.1,0.9,0.8,0.9c0.2,0,0.4,0,0.6,0V53
						c-0.4,0.2-0.9,0.2-1.2,0.2c-1.3,0-2-0.5-2-2.1v-5.7h-1.2V43.8z"/>
					<path class="st0" d="M497.4,50.3c0,0.8,0.4,1.5,1.3,1.5c0.8,0,1.2-0.5,1.2-1.1c0-0.8-0.4-1.1-1.5-1.6c-2.1-0.8-2.6-1.5-2.6-2.8
						c0-1.3,0.8-2.6,2.9-2.6c2.3,0,2.9,1.6,2.9,2.8h-1.8c0-0.4-0.1-1.4-1.2-1.4c-0.7,0-1,0.4-1,1c0,0.6,0.3,0.9,1.5,1.4
						c1.9,0.7,2.7,1.4,2.7,3c0,1.8-1.1,2.8-3.1,2.8c-2.1,0-3.1-1.3-3.1-2.9H497.4z"/>
					<path class="st0" d="M512.5,51.1c0,0.5,0,1.5,0.1,1.9h-1.7c0-0.2-0.1-0.6-0.1-0.9c-0.3,0.6-1,1.1-2.1,1.1
						c-1.8,0-2.4-1.4-2.4-2.7c0-1.8,1.2-3,3.6-3c0.4,0,0.6,0,0.8,0v-1.1c0-0.6-0.1-1.3-1.1-1.3c-1,0-1.1,0.7-1.2,1.3h-1.8
						c0-1.3,0.7-2.8,3-2.8c1.9,0,2.9,0.9,2.9,2.6V51.1z M510.7,48.8c-0.2,0-0.4,0-0.8,0c-1.4,0-1.9,0.6-1.9,1.5
						c0,0.7,0.3,1.3,1.2,1.3c1.2,0,1.5-0.9,1.5-2.4V48.8z"/>
					<path class="st0" d="M515.7,50.3c0,0.8,0.4,1.5,1.3,1.5c0.8,0,1.2-0.5,1.2-1.1c0-0.8-0.4-1.1-1.5-1.6c-2.1-0.8-2.6-1.5-2.6-2.8
						c0-1.3,0.8-2.6,2.9-2.6c2.3,0,2.9,1.6,2.9,2.8h-1.8c0-0.4-0.1-1.4-1.2-1.4c-0.7,0-1,0.4-1,1c0,0.6,0.3,0.9,1.5,1.4
						c1.9,0.7,2.7,1.4,2.7,3c0,1.8-1.1,2.8-3.1,2.8c-2.1,0-3.1-1.3-3.1-2.9H515.7z"/>
					<path class="st0" d="M524.9,46.5c0-1.8,0-2.4,0-2.8h1.8c0,0.2,0.1,0.7,0.1,1c0.4-0.7,1.1-1.2,2-1.2c1,0,1.6,0.4,1.9,1.3
						c0.4-0.7,1-1.3,2.3-1.3c1.3,0,2.3,0.6,2.3,2.7V53h-1.8v-6.4c0-0.8-0.2-1.4-1.1-1.4c-1,0-1.3,0.8-1.3,2V53h-1.9v-6.3
						c0-0.9-0.3-1.5-1.1-1.5c-0.9,0-1.3,0.7-1.3,2V53h-1.9V46.5z"/>
					<path class="st0" d="M543.5,50.4c0,1.3,0,2.2,0,2.7h-1.8c0-0.3-0.1-0.7-0.1-1.1c-0.4,0.9-1.1,1.2-2.1,1.2
						c-1.2,0-2.3-0.6-2.3-2.8v-6.6h1.9V50c0,1,0.2,1.6,1.1,1.6c0.9,0,1.4-0.5,1.4-2.1v-5.7h1.9V50.4z"/>
					<path class="st0" d="M551.4,50c0,0.7-0.2,3.2-3.2,3.2c-2.6,0-3.2-2.1-3.2-4.9c0-2.5,0.8-4.7,3.3-4.7c2.9,0,3,2.6,3,3.1h-1.9
						c0-0.4-0.1-1.5-1.2-1.5c-1.1,0-1.4,1.2-1.4,3.2c0,2.1,0.4,3.3,1.4,3.3c1.1,0,1.2-1.1,1.3-1.6H551.4z"/>
					<path class="st0" d="M554.7,40.2v4.5c0.3-0.6,1-1.1,2.1-1.1c1.5,0,2.3,0.9,2.3,2.9V53h-1.9v-6.2c0-1-0.2-1.6-1.2-1.6
						c-1.1,0-1.4,0.8-1.4,2.2V53h-1.9V40.2H554.7z"/>
					<path class="st0" d="M570.3,51.1c0,0.5,0,1.5,0.1,1.9h-1.7c0-0.2-0.1-0.6-0.1-0.9c-0.3,0.6-1,1.1-2.1,1.1
						c-1.8,0-2.4-1.4-2.4-2.7c0-1.8,1.2-3,3.6-3c0.4,0,0.6,0,0.8,0v-1.1c0-0.6-0.1-1.3-1.1-1.3c-1,0-1.1,0.7-1.2,1.3h-1.8
						c0-1.3,0.7-2.8,3-2.8c1.9,0,2.9,0.9,2.9,2.6V51.1z M568.5,48.8c-0.2,0-0.4,0-0.8,0c-1.4,0-1.9,0.6-1.9,1.5
						c0,0.7,0.3,1.3,1.2,1.3c1.2,0,1.5-0.9,1.5-2.4V48.8z"/>
					<path class="st0" d="M573.6,50.3c0,0.8,0.4,1.5,1.3,1.5c0.8,0,1.2-0.5,1.2-1.1c0-0.8-0.4-1.1-1.5-1.6c-2.1-0.8-2.6-1.5-2.6-2.8
						c0-1.3,0.8-2.6,2.9-2.6c2.3,0,2.9,1.6,2.9,2.8H576c0-0.4-0.1-1.4-1.2-1.4c-0.7,0-1,0.4-1,1c0,0.6,0.3,0.9,1.5,1.4
						c1.9,0.7,2.7,1.4,2.7,3c0,1.8-1.1,2.8-3.1,2.8c-2.1,0-3.1-1.3-3.1-2.9H573.6z"/>
					<path class="st0" d="M582.4,44.2c0-1.4,0.7-3.2,3.1-3.2c2.1,0,3,1.2,3,3c0,1.5-0.6,2.2-1.4,2.5v0c1,0.3,1.8,1.1,1.8,2.9
						c0,2-0.8,3.7-3.4,3.7c-2.2,0-3.2-1.4-3.2-3.2h1.8c0,0.8,0.4,1.7,1.5,1.7c1.2,0,1.5-0.9,1.5-2.2c0-1.5-0.6-2.1-1.9-2.1h-0.5
						v-1.5h0.5c1.1,0,1.6-0.4,1.6-1.7c0-1-0.2-1.6-1.2-1.6c-1.1,0-1.2,1.1-1.3,1.7H582.4z"/>
					<path class="st0" d="M595.7,40.2v4.5c0.3-0.6,1-1.1,2.1-1.1c1.5,0,2.3,0.9,2.3,2.9V53h-1.9v-6.2c0-1-0.2-1.6-1.2-1.6
						c-1.1,0-1.4,0.8-1.4,2.2V53h-1.9V40.2H595.7z"/>
					<path class="st0" d="M608.4,48.3c0,3.3-1.2,4.9-3.4,4.9c-2.2,0-3.4-1.5-3.4-4.8c0-3.3,1.3-4.7,3.5-4.7
						C607.2,43.6,608.4,45.2,608.4,48.3z M603.5,48.3c0,2.2,0.4,3.3,1.5,3.3c1,0,1.5-1.1,1.5-3.3c0-2.2-0.4-3.2-1.5-3.2
						C604,45.2,603.5,46.2,603.5,48.3z"/>
					<path class="st0" d="M616.2,50.4c0,1.3,0,2.2,0,2.7h-1.8c0-0.3-0.1-0.7-0.1-1.1c-0.4,0.9-1.1,1.2-2.1,1.2
						c-1.2,0-2.3-0.6-2.3-2.8v-6.6h1.9V50c0,1,0.2,1.6,1.1,1.6c0.9,0,1.4-0.5,1.4-2.1v-5.7h1.9V50.4z"/>
					<path class="st0" d="M618.2,46.9c0-1.5,0-2.5,0-3.1h1.8c0,0.2,0,0.6,0,1.6c0.4-1.1,1.2-1.7,2.4-1.7v2.1c-1.5,0-2.4,0.6-2.4,2.4
						v5h-1.9V46.9z"/>
					<path class="st0" d="M624.8,50.3c0,0.8,0.4,1.5,1.3,1.5c0.8,0,1.2-0.5,1.2-1.1c0-0.8-0.4-1.1-1.5-1.6c-2.1-0.8-2.6-1.5-2.6-2.8
						c0-1.3,0.8-2.6,2.9-2.6c2.3,0,2.9,1.6,2.9,2.8h-1.8c0-0.4-0.1-1.4-1.2-1.4c-0.7,0-1,0.4-1,1c0,0.6,0.3,0.9,1.5,1.4
						c1.9,0.7,2.7,1.4,2.7,3c0,1.8-1.1,2.8-3.1,2.8c-2.1,0-3.1-1.3-3.1-2.9H624.8z"/>
					<path class="st0" d="M38.1,74.6V61.8h1.9v12.8H38.1z"/>
					<path class="st0" d="M43.4,70.4c0,1.4,0.2,2.8,1.5,2.8c1.2,0,1.3-1.1,1.4-1.4H48c0,0.3-0.3,2.9-3.2,2.9c-2.9,0-3.3-2.5-3.3-4.8
						c0-2.9,1.1-4.7,3.4-4.7c2.6,0,3.2,2,3.2,4.4c0,0.3,0,0.7,0,0.8H43.4z M46.2,69.1c0-1.1-0.2-2.3-1.4-2.3c-1.4,0-1.5,1.7-1.5,2.3
						H46.2z"/>
					<path class="st0" d="M50.8,71.9c0,0.8,0.4,1.5,1.3,1.5c0.8,0,1.2-0.5,1.2-1.1c0-0.8-0.4-1.1-1.5-1.6c-2.1-0.8-2.6-1.5-2.6-2.8
						c0-1.3,0.8-2.6,2.9-2.6c2.3,0,2.9,1.6,2.9,2.8h-1.8c0-0.4-0.1-1.4-1.2-1.4c-0.7,0-1,0.4-1,1c0,0.6,0.3,0.9,1.5,1.4
						c1.9,0.7,2.7,1.4,2.7,3c0,1.8-1.1,2.8-3.1,2.8c-2.1,0-3.1-1.3-3.1-2.9H50.8z"/>
					<path class="st0" d="M57.9,71.9c0,0.8,0.4,1.5,1.3,1.5c0.8,0,1.2-0.5,1.2-1.1c0-0.8-0.4-1.1-1.5-1.6c-2.1-0.8-2.6-1.5-2.6-2.8
						c0-1.3,0.8-2.6,2.9-2.6c2.3,0,2.9,1.6,2.9,2.8h-1.8c0-0.4-0.1-1.4-1.2-1.4c-0.7,0-1,0.4-1,1c0,0.6,0.3,0.9,1.5,1.4
						c1.9,0.7,2.7,1.4,2.7,3c0,1.8-1.1,2.8-3.1,2.8c-2.1,0-3.1-1.3-3.1-2.9H57.9z"/>
					<path class="st0" d="M73.5,69.9c0,3.3-1.2,4.9-3.4,4.9c-2.2,0-3.4-1.5-3.4-4.8c0-3.3,1.3-4.7,3.5-4.7
						C72.3,65.2,73.5,66.8,73.5,69.9z M68.6,69.9c0,2.2,0.4,3.3,1.5,3.3c1,0,1.5-1.1,1.5-3.3c0-2.2-0.4-3.2-1.5-3.2
						C69.1,66.8,68.6,67.8,68.6,69.9z"/>
					<path class="st0" d="M75.2,74.6v-7.7h-1.1v-1.5h1.1v-1c0-1.5,0.6-2.6,2.4-2.6c0.3,0,0.7,0,0.8,0.1v1.6c-0.2,0-0.3-0.1-0.5-0.1
						c-0.7,0-0.8,0.4-0.8,1.1v0.9h1.4v1.5h-1.4v7.7H75.2z"/>
					<path class="st0" d="M83.9,71.9c0,0.8,0.4,1.5,1.3,1.5c0.8,0,1.2-0.5,1.2-1.1c0-0.8-0.4-1.1-1.5-1.6c-2.1-0.8-2.6-1.5-2.6-2.8
						c0-1.3,0.8-2.6,2.9-2.6c2.3,0,2.9,1.6,2.9,2.8h-1.8c0-0.4-0.1-1.4-1.2-1.4c-0.7,0-1,0.4-1,1c0,0.6,0.3,0.9,1.5,1.4
						c1.9,0.7,2.7,1.4,2.7,3c0,1.8-1.1,2.8-3.1,2.8c-2.1,0-3.1-1.3-3.1-2.9H83.9z"/>
					<path class="st0" d="M96,72c0,1.3,0,2.2,0,2.7h-1.8c0-0.3-0.1-0.7-0.1-1.1c-0.4,0.9-1.1,1.2-2.1,1.2c-1.2,0-2.3-0.6-2.3-2.8
						v-6.6h1.9v6.2c0,1,0.2,1.6,1.1,1.6c0.9,0,1.4-0.5,1.4-2.1v-5.7H96V72z"/>
					<path class="st0" d="M97.9,68.2c0-1.9,0-2.4,0-2.9h1.8c0,0.2,0.1,0.6,0.1,1c0.3-0.6,0.9-1.2,2.1-1.2c1.5,0,2.4,0.9,2.4,2.8v6.6
						h-1.9v-6.2c0-1-0.2-1.6-1.2-1.6c-1,0-1.4,0.6-1.4,2.2v5.7h-1.9V68.2z"/>
					<path class="st0" d="M108.5,65.4h1.2V63h1.9v2.4h1.5v1.5h-1.5v5.4c0,0.6,0.1,0.9,0.8,0.9c0.2,0,0.4,0,0.6,0v1.4
						c-0.4,0.2-0.9,0.2-1.2,0.2c-1.3,0-2-0.5-2-2.1v-5.7h-1.2V65.4z"/>
					<path class="st0" d="M116.2,61.8v4.5c0.3-0.6,1-1.1,2.1-1.1c1.5,0,2.3,0.9,2.3,2.9v6.6h-1.9v-6.2c0-1-0.2-1.6-1.2-1.6
						c-1.1,0-1.4,0.8-1.4,2.2v5.6h-1.9V61.8H116.2z"/>
					<path class="st0" d="M128.5,72.7c0,0.5,0,1.5,0.1,1.9h-1.7c0-0.2-0.1-0.6-0.1-0.9c-0.3,0.6-1,1.1-2.1,1.1
						c-1.8,0-2.4-1.4-2.4-2.7c0-1.8,1.2-3,3.6-3c0.4,0,0.6,0,0.8,0V68c0-0.6-0.1-1.3-1.1-1.3c-1,0-1.1,0.7-1.2,1.3h-1.8
						c0-1.3,0.7-2.8,3-2.8c1.9,0,2.9,0.9,2.9,2.6V72.7z M126.7,70.4c-0.2,0-0.4,0-0.8,0c-1.4,0-1.9,0.6-1.9,1.5
						c0,0.7,0.3,1.3,1.2,1.3c1.2,0,1.5-0.9,1.5-2.4V70.4z"/>
					<path class="st0" d="M130.5,68.2c0-1.9,0-2.4,0-2.9h1.8c0,0.2,0.1,0.6,0.1,1c0.3-0.6,0.9-1.2,2.1-1.2c1.5,0,2.4,0.9,2.4,2.8
						v6.6h-1.9v-6.2c0-1-0.2-1.6-1.2-1.6c-1,0-1.4,0.6-1.4,2.2v5.7h-1.9V68.2z"/>
					<path class="st0" d="M141.1,65.4h1.2V63h1.9v2.4h1.5v1.5h-1.5v5.4c0,0.6,0.1,0.9,0.8,0.9c0.2,0,0.4,0,0.6,0v1.4
						c-0.4,0.2-0.9,0.2-1.2,0.2c-1.3,0-2-0.5-2-2.1v-5.7h-1.2V65.4z"/>
					<path class="st0" d="M148.7,61.8v4.5c0.3-0.6,1-1.1,2.1-1.1c1.5,0,2.3,0.9,2.3,2.9v6.6h-1.9v-6.2c0-1-0.2-1.6-1.2-1.6
						c-1.1,0-1.4,0.8-1.4,2.2v5.6h-1.9V61.8H148.7z"/>
					<path class="st0" d="M156.6,70.4c0,1.4,0.2,2.8,1.5,2.8c1.2,0,1.3-1.1,1.4-1.4h1.8c0,0.3-0.3,2.9-3.2,2.9
						c-2.9,0-3.3-2.5-3.3-4.8c0-2.9,1.1-4.7,3.4-4.7c2.6,0,3.2,2,3.2,4.4c0,0.3,0,0.7,0,0.8H156.6z M159.5,69.1
						c0-1.1-0.2-2.3-1.4-2.3c-1.4,0-1.5,1.7-1.5,2.3H159.5z"/>
					<path class="st0" d="M168.1,62.4v8.4c0,1.1,0.3,2.4,1.7,2.4c1.4,0,1.7-1,1.7-2.3v-8.5h1.9v8.5c0,2.2-0.8,3.9-3.7,3.9
						c-2.8,0-3.6-1.6-3.6-3.9v-8.5H168.1z"/>
					<path class="st0" d="M175.5,68.2c0-1.9,0-2.4,0-2.9h1.8c0,0.2,0.1,0.6,0.1,1c0.3-0.6,0.9-1.2,2.1-1.2c1.5,0,2.4,0.9,2.4,2.8
						v6.6h-1.9v-6.2c0-1-0.2-1.6-1.2-1.6c-1,0-1.4,0.6-1.4,2.2v5.7h-1.9V68.2z"/>
					<path class="st0" d="M183.8,65.4h1.9v9.3h-1.9V65.4z M183.8,61.8h1.9v2h-1.9V61.8z"/>
					<path class="st0" d="M186.6,65.4h1.2V63h1.9v2.4h1.5v1.5h-1.5v5.4c0,0.6,0.1,0.9,0.8,0.9c0.2,0,0.4,0,0.6,0v1.4
						c-0.4,0.2-0.9,0.2-1.2,0.2c-1.3,0-2-0.5-2-2.1v-5.7h-1.2V65.4z"/>
					<path class="st0" d="M193.8,70.4c0,1.4,0.2,2.8,1.5,2.8c1.2,0,1.3-1.1,1.4-1.4h1.8c0,0.3-0.3,2.9-3.2,2.9
						c-2.9,0-3.3-2.5-3.3-4.8c0-2.9,1.1-4.7,3.4-4.7c2.6,0,3.2,2,3.2,4.4c0,0.3,0,0.7,0,0.8H193.8z M196.7,69.1
						c0-1.1-0.2-2.3-1.4-2.3c-1.4,0-1.5,1.7-1.5,2.3H196.7z"/>
					<path class="st0" d="M206.3,61.8v10.3c0,1,0,2,0,2.5h-1.8c0-0.2-0.1-0.8-0.1-1.1c-0.3,0.7-0.8,1.2-2.1,1.2
						c-1.9,0-2.7-1.7-2.7-4.9c0-2.9,1-4.7,3.1-4.7c1.1,0,1.5,0.4,1.7,0.8v-4.2H206.3z M201.5,69.9c0,2.3,0.5,3.3,1.4,3.3
						c1.2,0,1.5-1,1.5-3.3c0-2.3-0.2-3.1-1.4-3.1C202.1,66.8,201.5,67.6,201.5,69.9z"/>
					<path class="st0" d="M212.9,71.3c0.1,1.1,0.6,2,1.8,2c1.1,0,1.6-0.7,1.6-1.8c0-1.1-0.5-1.7-2.1-2.5c-2-1-2.9-1.8-2.9-3.6
						c0-1.9,1.2-3.2,3.3-3.2c2.6,0,3.3,1.8,3.3,3.3h-1.9c-0.1-0.7-0.2-1.8-1.5-1.8c-1,0-1.4,0.6-1.4,1.5c0,1,0.4,1.4,1.9,2.1
						c2.2,1,3.1,2,3.1,4c0,1.9-1.2,3.4-3.6,3.4c-2.7,0-3.5-1.7-3.6-3.5H212.9z"/>
					<path class="st0" d="M218.7,65.4h1.2V63h1.9v2.4h1.5v1.5h-1.5v5.4c0,0.6,0.1,0.9,0.8,0.9c0.2,0,0.4,0,0.6,0v1.4
						c-0.4,0.2-0.9,0.2-1.2,0.2c-1.3,0-2-0.5-2-2.1v-5.7h-1.2V65.4z"/>
					<path class="st0" d="M230.3,72.7c0,0.5,0,1.5,0.1,1.9h-1.7c0-0.2-0.1-0.6-0.1-0.9c-0.3,0.6-1,1.1-2.1,1.1
						c-1.8,0-2.4-1.4-2.4-2.7c0-1.8,1.2-3,3.6-3c0.4,0,0.6,0,0.8,0V68c0-0.6-0.1-1.3-1.1-1.3c-1,0-1.1,0.7-1.2,1.3h-1.8
						c0-1.3,0.7-2.8,3-2.8c1.9,0,2.9,0.9,2.9,2.6V72.7z M228.5,70.4c-0.2,0-0.4,0-0.8,0c-1.4,0-1.9,0.6-1.9,1.5
						c0,0.7,0.3,1.3,1.2,1.3c1.2,0,1.5-0.9,1.5-2.4V70.4z"/>
					<path class="st0" d="M231.3,65.4h1.2V63h1.9v2.4h1.5v1.5h-1.5v5.4c0,0.6,0.1,0.9,0.8,0.9c0.2,0,0.4,0,0.6,0v1.4
						c-0.4,0.2-0.9,0.2-1.2,0.2c-1.3,0-2-0.5-2-2.1v-5.7h-1.2V65.4z"/>
					<path class="st0" d="M238.5,70.4c0,1.4,0.2,2.8,1.5,2.8c1.2,0,1.3-1.1,1.4-1.4h1.8c0,0.3-0.3,2.9-3.2,2.9
						c-2.9,0-3.3-2.5-3.3-4.8c0-2.9,1.1-4.7,3.4-4.7c2.6,0,3.2,2,3.2,4.4c0,0.3,0,0.7,0,0.8H238.5z M241.4,69.1
						c0-1.1-0.2-2.3-1.4-2.3c-1.4,0-1.5,1.7-1.5,2.3H241.4z"/>
					<path class="st0" d="M246,71.9c0,0.8,0.4,1.5,1.3,1.5c0.8,0,1.2-0.5,1.2-1.1c0-0.8-0.4-1.1-1.5-1.6c-2.1-0.8-2.6-1.5-2.6-2.8
						c0-1.3,0.8-2.6,2.9-2.6c2.3,0,2.9,1.6,2.9,2.8h-1.8c0-0.4-0.1-1.4-1.2-1.4c-0.7,0-1,0.4-1,1c0,0.6,0.3,0.9,1.5,1.4
						c1.9,0.7,2.7,1.4,2.7,3c0,1.8-1.1,2.8-3.1,2.8c-2.1,0-3.1-1.3-3.1-2.9H246z"/>
					<path class="st0" d="M261.4,61.8v10.3c0,1,0,2,0,2.5h-1.8c0-0.2-0.1-0.8-0.1-1.1c-0.3,0.7-0.8,1.2-2.1,1.2
						c-1.9,0-2.7-1.7-2.7-4.9c0-2.9,1-4.7,3.1-4.7c1.1,0,1.5,0.4,1.7,0.8v-4.2H261.4z M256.7,69.9c0,2.3,0.5,3.3,1.4,3.3
						c1.2,0,1.5-1,1.5-3.3c0-2.3-0.2-3.1-1.4-3.1C257.3,66.8,256.7,67.6,256.7,69.9z"/>
					<path class="st0" d="M269.6,72c0,1.3,0,2.2,0,2.7h-1.8c0-0.3-0.1-0.7-0.1-1.1c-0.4,0.9-1.1,1.2-2.1,1.2c-1.2,0-2.3-0.6-2.3-2.8
						v-6.6h1.9v6.2c0,1,0.2,1.6,1.1,1.6c0.9,0,1.4-0.5,1.4-2.1v-5.7h1.9V72z"/>
					<path class="st0" d="M271.6,68.5c0-1.5,0-2.5,0-3.1h1.8c0,0.2,0,0.6,0,1.6c0.4-1.1,1.2-1.7,2.4-1.7v2.1c-1.5,0-2.4,0.6-2.4,2.4
						v5h-1.9V68.5z"/>
					<path class="st0" d="M277,65.4h1.9v9.3H277V65.4z M277,61.8h1.9v2H277V61.8z"/>
					<path class="st0" d="M280.9,68.2c0-1.9,0-2.4,0-2.9h1.8c0,0.2,0.1,0.6,0.1,1c0.3-0.6,0.9-1.2,2.1-1.2c1.5,0,2.4,0.9,2.4,2.8
						v6.6h-1.9v-6.2c0-1-0.2-1.6-1.2-1.6c-1,0-1.4,0.6-1.4,2.2v5.7h-1.9V68.2z"/>
					<path class="st0" d="M295.5,73.9c0,2.6-0.7,4.2-3.5,4.2c-2.6,0-3.1-1.6-3.1-2.6h1.9c0,0.4,0.2,1.1,1.4,1.1c1.3,0,1.5-1,1.5-2.7
						v-0.6c-0.3,0.8-1.1,1.2-2,1.2c-1.9,0-2.8-1.7-2.8-4.5c0-3.2,1.2-4.9,3-4.9c1.2,0,1.7,0.6,1.8,1.1c0-0.3,0-0.7,0.1-0.9h1.8
						c0,0.5,0,1.5,0,2.7V73.9z M290.7,70c0,2,0.5,2.9,1.5,2.9c1.2,0,1.5-1.2,1.5-3.2c0-1.8-0.2-3-1.4-3
						C291.2,66.8,290.7,67.8,290.7,70z"/>
					<path class="st0" d="M299.8,65.4h1.2V63h1.9v2.4h1.5v1.5h-1.5v5.4c0,0.6,0.1,0.9,0.8,0.9c0.2,0,0.4,0,0.6,0v1.4
						c-0.4,0.2-0.9,0.2-1.2,0.2c-1.3,0-2-0.5-2-2.1v-5.7h-1.2V65.4z"/>
					<path class="st0" d="M307.4,61.8v4.5c0.3-0.6,1-1.1,2.1-1.1c1.5,0,2.3,0.9,2.3,2.9v6.6H310v-6.2c0-1-0.2-1.6-1.2-1.6
						c-1.1,0-1.4,0.8-1.4,2.2v5.6h-1.9V61.8H307.4z"/>
					<path class="st0" d="M315.3,70.4c0,1.4,0.2,2.8,1.5,2.8c1.2,0,1.3-1.1,1.4-1.4h1.8c0,0.3-0.3,2.9-3.2,2.9
						c-2.9,0-3.3-2.5-3.3-4.8c0-2.9,1.1-4.7,3.4-4.7c2.6,0,3.2,2,3.2,4.4c0,0.3,0,0.7,0,0.8H315.3z M318.2,69.1
						c0-1.1-0.2-2.3-1.4-2.3c-1.4,0-1.5,1.7-1.5,2.3H318.2z"/>
					<path class="st0" d="M326.1,65.4c0.7,4.2,1.1,6,1.2,7.2h0c0.2-1.2,0.5-2.6,1.5-7.2h1.7c0.8,3.9,1.3,6.1,1.4,7.2h0
						c0.1-1,0.4-2.4,1.3-7.2h1.9l-2.3,9.3h-1.9c-0.6-2.9-1.1-5.3-1.3-6.7h0c-0.2,1.3-0.8,3.8-1.4,6.7h-2l-2.1-9.3H326.1z"/>
					<path class="st0" d="M336.3,65.4h1.9v9.3h-1.9V65.4z M336.3,61.8h1.9v2h-1.9V61.8z"/>
					<path class="st0" d="M340.1,68.2c0-1.9,0-2.4,0-2.9h1.8c0,0.2,0.1,0.6,0.1,1c0.3-0.6,0.9-1.2,2.1-1.2c1.5,0,2.4,0.9,2.4,2.8
						v6.6h-1.9v-6.2c0-1-0.2-1.6-1.2-1.6c-1,0-1.4,0.6-1.4,2.2v5.7h-1.9V68.2z"/>
					<path class="st0" d="M347.4,65.4h1.2V63h1.9v2.4h1.5v1.5h-1.5v5.4c0,0.6,0.1,0.9,0.8,0.9c0.2,0,0.4,0,0.6,0v1.4
						c-0.4,0.2-0.9,0.2-1.2,0.2c-1.3,0-2-0.5-2-2.1v-5.7h-1.2V65.4z"/>
					<path class="st0" d="M354.6,70.4c0,1.4,0.2,2.8,1.5,2.8c1.2,0,1.3-1.1,1.4-1.4h1.8c0,0.3-0.3,2.9-3.2,2.9
						c-2.9,0-3.3-2.5-3.3-4.8c0-2.9,1.1-4.7,3.4-4.7c2.6,0,3.2,2,3.2,4.4c0,0.3,0,0.7,0,0.8H354.6z M357.5,69.1
						c0-1.1-0.2-2.3-1.4-2.3c-1.4,0-1.5,1.7-1.5,2.3H357.5z"/>
					<path class="st0" d="M360.8,68.5c0-1.5,0-2.5,0-3.1h1.8c0,0.2,0,0.6,0,1.6c0.4-1.1,1.2-1.7,2.4-1.7v2.1c-1.5,0-2.4,0.6-2.4,2.4
						v5h-1.9V68.5z"/>
				</g>
			</g>
			<g style="clip-path:url(#SVGID_00000180350522650559603750000013418242807711160466_);">
				<g>
				</g>
			</g>
		</g>
	</g>
</g>
<g id="ai2html-settings">
	<rect x="-450" style="fill:none;" width="400" height="418"/>
	<text id="ai2html-settings_00000075137201309177920320000009635136195592748708_" transform="matrix(1 0 0 1 -450 10.6499)"><tspan x="0" y="0" style="font-family:'MyriadPro-Regular'; font-size:15px;">ai2html-settings</tspan><tspan x="0" y="19" style="font-family:'MyriadPro-Regular'; font-size:15px;">settings_version: 0.106.0</tspan><tspan x="0" y="38" style="font-family:'MyriadPro-Regular'; font-size:15px;">image_format: auto</tspan><tspan x="0" y="57" style="font-family:'MyriadPro-Regular'; font-size:15px;">responsiveness: fixed</tspan><tspan x="0" y="76" style="font-family:'MyriadPro-Regular'; font-size:15px;">output: one-file</tspan><tspan x="0" y="95" style="font-family:'MyriadPro-Regular'; font-size:15px;">html_output_path: /ai2html-output/</tspan><tspan x="0" y="114" style="font-family:'MyriadPro-Regular'; font-size:15px;">html_output_extension: .html</tspan><tspan x="0" y="133" style="font-family:'MyriadPro-Regular'; font-size:15px;">image_output_path: </tspan><tspan x="0" y="152" style="font-family:'MyriadPro-Regular'; font-size:15px;">local_preview_template: </tspan><tspan x="0" y="171" style="font-family:'MyriadPro-Regular'; font-size:15px;">png_number_of_colors: 128</tspan><tspan x="0" y="190" style="font-family:'MyriadPro-Regular'; font-size:15px;">jpg_quality: 60</tspan><tspan x="0" y="209" style="font-family:'MyriadPro-Regular'; font-size:15px;">headline: </tspan><tspan x="0" y="228" style="font-family:'MyriadPro-Regular'; font-size:15px;">leadin: </tspan><tspan x="0" y="247" style="font-family:'MyriadPro-Regular'; font-size:15px;">notes: </tspan><tspan x="0" y="266" style="font-family:'MyriadPro-Regular'; font-size:15px;">sources: </tspan><tspan x="0" y="285" style="font-family:'MyriadPro-Regular'; font-size:15px;">credit: </tspan></text>
</g>
</svg>
