<?xml version="1.0" encoding="utf-8"?>
<!-- Generator: Adobe Illustrator 26.0.3, SVG Export Plug-In . SVG Version: 6.00 Build 0)  -->
<svg version="1.1" xmlns="http://www.w3.org/2000/svg" xmlns:xlink="http://www.w3.org/1999/xlink" x="0px" y="0px"
	 viewBox="0 0 786 691" style="enable-background:new 0 0 786 691;" xml:space="preserve">
<style type="text/css">
	.st0{clip-path:url(#SVGID_00000029737427162061720010000009359111724143957131_);}
	.st1{display:none;clip-path:url(#SVGID_00000154400974192133399150000008627150894369368990_);fill:none;}
	.st2{fill:none;}
	.st3{fill:#EEEEEE;fill-opacity:0;}
	.st4{display:none;fill:none;stroke:#FF0000;}
	.st5{fill-opacity:0;}
	.st6{fill:none;stroke:#EEEEEE;stroke-width:1.5;}
	.st7{stroke:#EEEEEE;stroke-width:1.5;stroke-linecap:square;}
	.st8{stroke:#EEEEEE;stroke-width:1.5;}
	.st9{font-family:'ArialMT';}
	.st10{font-size:12.6px;}
	.st11{opacity:0.9;fill:#FCCC9C;enable-background:new    ;}
	.st12{opacity:0.9;fill:#FC9444;enable-background:new    ;}
	.st13{font-family:'Arial-BoldMT';}
	.st14{font-size:15.939px;}
	.st15{fill:none;stroke:#FCCC9C;stroke-width:4.7817;}
	.st16{font-family:'MyriadPro-Regular';}
	.st17{font-size:24px;}
	.st18{font-size:18px;}
</style>
<g id="graphic">
	<g>
		<defs>
			<polygon id="SVGID_1_" points="1,-36 2,-36 1,-35 			"/>
		</defs>
		<defs>
			<polygon id="SVGID_00000048471472714791335430000003635373517516006559_" points="-1,-38 -2,-38 -1,-39 			"/>
		</defs>
		<clipPath id="SVGID_00000150085551008696445250000014293236406909649824_">
			<use xlink:href="#SVGID_1_"  style="overflow:visible;"/>
		</clipPath>
		
			<clipPath id="SVGID_00000029736334547011463260000004767728504705227440_" style="clip-path:url(#SVGID_00000150085551008696445250000014293236406909649824_);">
			<use xlink:href="#SVGID_00000048471472714791335430000003635373517516006559_"  style="overflow:visible;"/>
		</clipPath>
		<path style="display:none;clip-path:url(#SVGID_00000029736334547011463260000004767728504705227440_);fill:none;" d="M-1-39"/>
	</g>
	<rect x="30.9" y="100.1" class="st2" width="754.6" height="590"/>
	<rect x="30.9" y="100.1" class="st2" width="754.6" height="590"/>
	<polygon class="st3" points="30.9,100.1 30.9,100.1 30.9,100.1 	"/>
	<rect x="30.9" y="100.1" class="st4" width="754.6" height="590"/>
	<rect x="30.9" y="107.3" class="st2" width="751.1" height="575.6"/>
	<rect x="30.9" y="107.3" class="st5" width="751.1" height="575.6"/>
	<rect x="30.9" y="107.3" class="st2" width="751.1" height="575.6"/>
	<rect x="29.4" y="105.8" class="st2" width="754.1" height="578.6"/>
	<line class="st6" x1="30.9" y1="671.8" x2="782" y2="671.8"/>
	<line class="st6" x1="30.9" y1="649.7" x2="782" y2="649.7"/>
	<line class="st6" x1="30.9" y1="627.6" x2="782" y2="627.6"/>
	<line class="st6" x1="30.9" y1="605.4" x2="782" y2="605.4"/>
	<line class="st6" x1="30.9" y1="583.3" x2="782" y2="583.3"/>
	<line class="st6" x1="30.9" y1="561.1" x2="782" y2="561.1"/>
	<line class="st6" x1="30.9" y1="539" x2="782" y2="539"/>
	<line class="st6" x1="30.9" y1="516.9" x2="782" y2="516.9"/>
	<line class="st6" x1="30.9" y1="494.7" x2="782" y2="494.7"/>
	<line class="st6" x1="30.9" y1="472.6" x2="782" y2="472.6"/>
	<line class="st6" x1="30.9" y1="450.5" x2="782" y2="450.5"/>
	<line class="st6" x1="30.9" y1="428.3" x2="782" y2="428.3"/>
	<line class="st6" x1="30.9" y1="406.2" x2="782" y2="406.2"/>
	<line class="st6" x1="30.9" y1="384" x2="782" y2="384"/>
	<line class="st6" x1="30.9" y1="361.9" x2="782" y2="361.9"/>
	<line class="st6" x1="30.9" y1="339.8" x2="782" y2="339.8"/>
	<line class="st6" x1="30.9" y1="317.6" x2="782" y2="317.6"/>
	<line class="st6" x1="30.9" y1="295.5" x2="782" y2="295.5"/>
	<line class="st6" x1="30.9" y1="273.4" x2="782" y2="273.4"/>
	<line class="st6" x1="30.9" y1="251.2" x2="782" y2="251.2"/>
	<line class="st6" x1="30.9" y1="229.1" x2="782" y2="229.1"/>
	<line class="st6" x1="30.9" y1="206.9" x2="782" y2="206.9"/>
	<line class="st6" x1="30.9" y1="184.8" x2="782" y2="184.8"/>
	<line class="st6" x1="30.9" y1="162.7" x2="782" y2="162.7"/>
	<line class="st6" x1="30.9" y1="140.5" x2="782" y2="140.5"/>
	<line class="st6" x1="30.9" y1="118.4" x2="782" y2="118.4"/>
	<g>
		<g>
			<line class="st7" x1="30.9" y1="682.9" x2="30.9" y2="107.3"/>
		</g>
		<g>
			<g transform="translate(0, 571.7062377929688)">
				<line class="st8" x1="30.9" y1="100.1" x2="23.9" y2="100.1"/>
				<text transform="matrix(1 0 0 1 14.1036 104.283)" class="st9 st10">J</text>
			</g>
			<g transform="translate(0, 549.5687255859375)">
				<line class="st8" x1="30.9" y1="100.1" x2="23.9" y2="100.1"/>
				<text transform="matrix(1 0 0 1 10.6029 104.283)" class="st9 st10">Q</text>
			</g>
			<g transform="translate(0, 527.4312744140625)">
				<line class="st8" x1="30.9" y1="100.1" x2="23.9" y2="100.1"/>
				<text transform="matrix(1 0 0 1 11.9995 104.283)" class="st9 st10">X</text>
			</g>
			<g transform="translate(0, 505.29376220703125)">
				<line class="st8" x1="30.9" y1="100.1" x2="23.9" y2="100.1"/>
				<text transform="matrix(1 0 0 1 12.707 104.283)" class="st9 st10">Z</text>
			</g>
			<g transform="translate(0, 483.15625)">
				<line class="st8" x1="30.9" y1="100.1" x2="23.9" y2="100.1"/>
				<text transform="matrix(1 0 0 1 11.9995 104.283)" class="st9 st10">V</text>
			</g>
			<g transform="translate(0, 461.01873779296875)">
				<line class="st8" x1="30.9" y1="100.1" x2="23.9" y2="100.1"/>
				<text transform="matrix(1 0 0 1 8.5111 104.283)" class="st9 st10">W</text>
			</g>
			<g transform="translate(0, 438.8812561035156)">
				<line class="st8" x1="30.9" y1="100.1" x2="23.9" y2="100.1"/>
				<text transform="matrix(1 0 0 1 11.9995 104.283)" class="st9 st10">K</text>
			</g>
			<g transform="translate(0, 416.7437438964844)">
				<line class="st8" x1="30.9" y1="100.1" x2="23.9" y2="100.1"/>
				<text transform="matrix(1 0 0 1 12.707 104.283)" class="st9 st10">F</text>
			</g>
			<g transform="translate(0, 394.60626220703125)">
				<line class="st8" x1="30.9" y1="100.1" x2="23.9" y2="100.1"/>
				<text transform="matrix(1 0 0 1 11.9995 104.283)" class="st9 st10">B</text>
			</g>
			<g transform="translate(0, 372.46875)">
				<line class="st8" x1="30.9" y1="100.1" x2="23.9" y2="100.1"/>
				<text transform="matrix(1 0 0 1 10.6029 104.283)" class="st9 st10">G</text>
			</g>
			<g transform="translate(0, 350.33123779296875)">
				<line class="st8" x1="30.9" y1="100.1" x2="23.9" y2="100.1"/>
				<text transform="matrix(1 0 0 1 9.9077 104.283)" class="st9 st10">M</text>
			</g>
			<g transform="translate(0, 328.1937561035156)">
				<line class="st8" x1="30.9" y1="100.1" x2="23.9" y2="100.1"/>
				<text transform="matrix(1 0 0 1 11.9995 104.283)" class="st9 st10">P</text>
			</g>
			<g transform="translate(0, 306.0562438964844)">
				<line class="st8" x1="30.9" y1="100.1" x2="23.9" y2="100.1"/>
				<text transform="matrix(1 0 0 1 11.3043 104.283)" class="st9 st10">H</text>
			</g>
			<g transform="translate(0, 283.91876220703125)">
				<line class="st8" x1="30.9" y1="100.1" x2="23.9" y2="100.1"/>
				<text transform="matrix(1 0 0 1 11.3043 104.283)" class="st9 st10">D</text>
			</g>
			<g transform="translate(0, 261.78125)">
				<line class="st8" x1="30.9" y1="100.1" x2="23.9" y2="100.1"/>
				<text transform="matrix(1 0 0 1 11.9995 104.283)" class="st9 st10">Y</text>
			</g>
			<g transform="translate(0, 239.6437530517578)">
				<line class="st8" x1="30.9" y1="100.1" x2="23.9" y2="100.1"/>
				<text transform="matrix(1 0 0 1 11.3043 104.283)" class="st9 st10">U</text>
			</g>
			<g transform="translate(0, 217.50625610351562)">
				<line class="st8" x1="30.9" y1="100.1" x2="23.9" y2="100.1"/>
				<text transform="matrix(1 0 0 1 11.3043 104.283)" class="st9 st10">C</text>
			</g>
			<g transform="translate(0, 195.36874389648438)">
				<line class="st8" x1="30.9" y1="100.1" x2="23.9" y2="100.1"/>
				<text transform="matrix(1 0 0 1 11.3043 104.283)" class="st9 st10">N</text>
			</g>
			<g transform="translate(0, 173.2312469482422)">
				<line class="st8" x1="30.9" y1="100.1" x2="23.9" y2="100.1"/>
				<text transform="matrix(1 0 0 1 11.9995 104.283)" class="st9 st10">S</text>
			</g>
			<g transform="translate(0, 151.09375)">
				<line class="st8" x1="30.9" y1="100.1" x2="23.9" y2="100.1"/>
				<text transform="matrix(1 0 0 1 16.9029 104.283)" class="st9 st10">I</text>
			</g>
			<g transform="translate(0, 128.9562530517578)">
				<line class="st8" x1="30.9" y1="100.1" x2="23.9" y2="100.1"/>
				<text transform="matrix(1 0 0 1 13.3961 104.283)" class="st9 st10">L</text>
			</g>
			<g transform="translate(0, 106.8187484741211)">
				<line class="st8" x1="30.9" y1="100.1" x2="23.9" y2="100.1"/>
				<text transform="matrix(1 0 0 1 12.707 104.283)" class="st9 st10">T</text>
			</g>
			<g transform="translate(0, 84.6812515258789)">
				<line class="st8" x1="30.9" y1="100.1" x2="23.9" y2="100.1"/>
				<text transform="matrix(1 0 0 1 10.6029 104.283)" class="st9 st10">O</text>
			</g>
			<g transform="translate(0, 62.54375076293945)">
				<line class="st8" x1="30.9" y1="100.1" x2="23.9" y2="100.1"/>
				<text transform="matrix(1 0 0 1 11.3043 104.283)" class="st9 st10">R</text>
			</g>
			<g transform="translate(0, 40.40625)">
				<line class="st8" x1="30.9" y1="100.1" x2="23.9" y2="100.1"/>
				<text transform="matrix(1 0 0 1 11.9995 104.283)" class="st9 st10">A</text>
			</g>
			<g transform="translate(0, 18.268749237060547)">
				<line class="st8" x1="30.9" y1="100.1" x2="23.9" y2="100.1"/>
				<text transform="matrix(1 0 0 1 11.9995 104.283)" class="st9 st10">E</text>
			</g>
		</g>
	</g>
	<rect x="30.9" y="107.3" class="st2" width="751.1" height="575.6"/>
	<g id="areas">
	</g>
	<g id="lines">
	</g>
	<rect x="30.9" y="107.3" class="st2" width="751.1" height="575.6"/>
	<path id="point-0-0" class="st11" d="M30.9,661.9h15.9v19.9H30.9V661.9z"/>
	<path id="point-0-1" class="st11" d="M30.9,639.7H48v19.9H30.9V639.7z"/>
	<path id="point-0-2" class="st11" d="M30.9,617.6h21.8v19.9H30.9V617.6z"/>
	<path id="point-0-3" class="st11" d="M30.9,595.5h23.6v19.9H30.9V595.5z"/>
	<path id="point-0-4" class="st11" d="M30.9,573.3h90.3v19.9H30.9V573.3z"/>
	<path id="point-0-5" class="st11" d="M30.9,551.2h115v19.9h-115V551.2z"/>
	<path id="point-0-6" class="st11" d="M30.9,529h123.9V549H30.9V529z"/>
	<path id="point-0-7" class="st11" d="M30.9,506.9h135.7v19.9H30.9V506.9z"/>
	<path id="point-0-8" class="st11" d="M30.9,484.8h165.8v19.9H30.9V484.8z"/>
	<path id="point-0-9" class="st11" d="M30.9,462.6h183.5v19.9H30.9V462.6z"/>
	<path id="point-0-10" class="st11" d="M30.9,440.5h186.4v19.9H30.9V440.5z"/>
	<path id="point-0-11" class="st11" d="M30.9,418.4h216.5v19.9H30.9V418.4z"/>
	<path id="point-0-12" class="st12" d="M30.9,396.2h229.5v19.9H30.9V396.2z"/>
	<path id="point-0-13" class="st11" d="M30.9,374.1h231.8V394H30.9V374.1z"/>
	<path id="point-0-14" class="st11" d="M30.9,351.9h250.7v19.9H30.9V351.9z"/>
	<path id="point-0-15" class="st11" d="M30.9,329.8h275.5v19.9H30.9V329.8z"/>
	<path id="point-0-16" class="st11" d="M30.9,307.7h281.4v19.9H30.9V307.7z"/>
	<path id="point-0-17" class="st11" d="M30.9,285.5h339.2v19.9H30.9V285.5z"/>
	<path id="point-0-18" class="st11" d="M30.9,263.4h394.6v19.9H30.9V263.4z"/>
	<path id="point-0-19" class="st11" d="M30.9,241.3h395.8v19.9H30.9V241.3z"/>
	<path id="point-0-20" class="st11" d="M30.9,219.1H455V239H30.9V219.1z"/>
	<path id="point-0-21" class="st12" d="M30.9,197h430v19.9h-430V197z"/>
	<path id="point-0-22" class="st12" d="M30.9,174.8h444.8v19.9H30.9V174.8z"/>
	<path id="point-0-23" class="st12" d="M30.9,152.7h530.3v19.9H30.9V152.7z"/>
	<path id="point-0-24" class="st11" d="M30.9,130.6h577.5v19.9H30.9V130.6z"/>
	<path id="point-0-25" class="st12" d="M30.9,108.4h727.4v19.9H30.9V108.4z"/>
	<g id="lines-secondary">
	</g>
	<g id="data-points-secondary">
	</g>
	<g id="axes-highlights">
		<g>
			<g transform="translate(20.403594970703125, 0)">
			</g>
		</g>
	</g>
	<rect x="30.9" y="107.3" class="st2" width="751.1" height="575.6"/>
	<text transform="matrix(1 0 0 1 86.6516 588.5411)" class="st13 st14">1.32</text>
	<text transform="matrix(1 0 0 1 86.6516 588.5411)" class="st15 st13 st14">1.32</text>
	<text transform="matrix(1 0 0 1 86.6516 588.5411)" class="st13 st14">1.32</text>
	<text transform="matrix(1 0 0 1 111.4276 566.4036)" class="st13 st14">1.68</text>
	<text transform="matrix(1 0 0 1 111.4276 566.4036)" class="st15 st13 st14">1.68</text>
	<text transform="matrix(1 0 0 1 111.4276 566.4036)" class="st13 st14">1.68</text>
	<text transform="matrix(1 0 0 1 120.2762 544.2661)" class="st13 st14">1.81</text>
	<text transform="matrix(1 0 0 1 120.2762 544.2661)" class="st15 st13 st14">1.81</text>
	<text transform="matrix(1 0 0 1 120.2762 544.2661)" class="st13 st14">1.81</text>
	<text transform="matrix(1 0 0 1 132.0743 522.1287)" class="st13 st14">1.99</text>
	<text transform="matrix(1 0 0 1 132.0743 522.1287)" class="st15 st13 st14">1.99</text>
	<text transform="matrix(1 0 0 1 132.0743 522.1287)" class="st13 st14">1.99</text>
	<text transform="matrix(1 0 0 1 162.1594 499.9911)" class="st13 st14">2.43</text>
	<text transform="matrix(1 0 0 1 162.1594 499.9911)" class="st15 st13 st14">2.43</text>
	<text transform="matrix(1 0 0 1 162.1594 499.9911)" class="st13 st14">2.43</text>
	<text transform="matrix(1 0 0 1 179.8566 477.8536)" class="st13 st14">2.69</text>
	<text transform="matrix(1 0 0 1 179.8566 477.8536)" class="st15 st13 st14">2.69</text>
	<text transform="matrix(1 0 0 1 179.8566 477.8536)" class="st13 st14">2.69</text>
	<text transform="matrix(1 0 0 1 182.8062 455.7161)" class="st13 st14">2.73</text>
	<text transform="matrix(1 0 0 1 182.8062 455.7161)" class="st15 st13 st14">2.73</text>
	<text transform="matrix(1 0 0 1 182.8062 455.7161)" class="st13 st14">2.73</text>
	<text transform="matrix(1 0 0 1 212.8912 433.5786)" class="st13 st14">3.17</text>
	<text transform="matrix(1 0 0 1 212.8912 433.5786)" class="st15 st13 st14">3.17</text>
	<text transform="matrix(1 0 0 1 212.8912 433.5786)" class="st13 st14">3.17</text>
	<text transform="matrix(1 0 0 1 225.8691 411.4412)" class="st13 st14">3.36</text>
	<text transform="matrix(1 0 0 1 225.8691 411.4412)" class="st15 st13 st14">3.36</text>
	<text transform="matrix(1 0 0 1 225.8691 411.4412)" class="st13 st14">3.36</text>
	<text transform="matrix(1 0 0 1 236.868 389.3036)" class="st13 st14">3.4</text>
	<text transform="matrix(1 0 0 1 236.868 389.3036)" class="st15 st13 st14">3.4</text>
	<text transform="matrix(1 0 0 1 236.868 389.3036)" class="st13 st14">3.4</text>
	<text transform="matrix(1 0 0 1 247.1057 367.1661)" class="st13 st14">3.67</text>
	<text transform="matrix(1 0 0 1 247.1057 367.1661)" class="st15 st13 st14">3.67</text>
	<text transform="matrix(1 0 0 1 247.1057 367.1661)" class="st13 st14">3.67</text>
	<text transform="matrix(1 0 0 1 271.8817 345.0286)" class="st13 st14">4.03</text>
	<text transform="matrix(1 0 0 1 271.8817 345.0286)" class="st15 st13 st14">4.03</text>
	<text transform="matrix(1 0 0 1 271.8817 345.0286)" class="st13 st14">4.03</text>
	<text transform="matrix(1 0 0 1 277.7808 322.8911)" class="st13 st14">4.12</text>
	<text transform="matrix(1 0 0 1 277.7808 322.8911)" class="st15 st13 st14">4.12</text>
	<text transform="matrix(1 0 0 1 277.7808 322.8911)" class="st13 st14">4.12</text>
	<text transform="matrix(1 0 0 1 335.5916 300.7536)" class="st13 st14">4.97</text>
	<text transform="matrix(1 0 0 1 335.5916 300.7536)" class="st15 st13 st14">4.97</text>
	<text transform="matrix(1 0 0 1 335.5916 300.7536)" class="st13 st14">4.97</text>
	<text transform="matrix(1 0 0 1 391.0426 278.6161)" class="st13 st14">5.78</text>
	<text transform="matrix(1 0 0 1 391.0426 278.6161)" class="st15 st13 st14">5.78</text>
	<text transform="matrix(1 0 0 1 391.0426 278.6161)" class="st13 st14">5.78</text>
	<text transform="matrix(1 0 0 1 400.8616 256.4786)" class="st13 st14">5.8</text>
	<text transform="matrix(1 0 0 1 400.8616 256.4786)" class="st15 st13 st14">5.8</text>
	<text transform="matrix(1 0 0 1 400.8616 256.4786)" class="st13 st14">5.8</text>
	<text transform="matrix(1 0 0 1 420.5378 234.3411)" class="st13 st14">6.21</text>
	<text transform="matrix(1 0 0 1 420.5378 234.3411)" class="st15 st13 st14">6.21</text>
	<text transform="matrix(1 0 0 1 420.5378 234.3411)" class="st13 st14">6.21</text>
	<text transform="matrix(1 0 0 1 435.0761 212.2036)" class="st13 st14">6.3</text>
	<text transform="matrix(1 0 0 1 435.0761 212.2036)" class="st15 st13 st14">6.3</text>
	<text transform="matrix(1 0 0 1 435.0761 212.2036)" class="st13 st14">6.3</text>
	<text transform="matrix(1 0 0 1 441.1844 190.0661)" class="st13 st14">6.51</text>
	<text transform="matrix(1 0 0 1 441.1844 190.0661)" class="st15 st13 st14">6.51</text>
	<text transform="matrix(1 0 0 1 441.1844 190.0661)" class="st13 st14">6.51</text>
	<text transform="matrix(1 0 0 1 526.7207 167.9286)" class="st13 st14">7.77</text>
	<text transform="matrix(1 0 0 1 526.7207 167.9286)" class="st15 st13 st14">7.77</text>
	<text transform="matrix(1 0 0 1 526.7207 167.9286)" class="st13 st14">7.77</text>
	<text transform="matrix(1 0 0 1 573.9131 145.7911)" class="st13 st14">8.46</text>
	<text transform="matrix(1 0 0 1 573.9131 145.7911)" class="st15 st13 st14">8.46</text>
	<text transform="matrix(1 0 0 1 573.9131 145.7911)" class="st13 st14">8.46</text>
	<text transform="matrix(1 0 0 1 715.1096 123.6536)" class="st13 st14">10.65</text>
	<text transform="matrix(1 0 0 1 715.1096 123.6536)" class="st15 st13 st14">10.65</text>
	<text transform="matrix(1 0 0 1 715.1096 123.6536)" class="st13 st14">10.65</text>
	<g id="stack-labels">
	</g>
	<rect x="28.5" y="8.3" class="st2" width="756" height="43"/>
	<text transform="matrix(1 0 0 1 28.4518 25.3838)" class="st16 st17">E, A, and R: Most Frequent letters in Wordle </text>
	<text transform="matrix(1 0 0 1 27.4037 60.6001)"><tspan x="0" y="0" class="st16 st18">To enhance your chances of guessing the correct word, use frequently used letters</tspan><tspan x="0" y="21.6" class="st16 st18">such as E and A while avoiding rare letters such as Q and J </tspan></text>
</g>
<g id="ai2html-settings">
	<rect x="-450" class="st2" width="400" height="418"/>
	<text id="ai2html-settings_00000057835413677396584680000001455238508474830003_" transform="matrix(1 0 0 1 -450 10.6499)"><tspan x="0" y="0" class="st16" style="font-size:15px;">ai2html-settings</tspan><tspan x="0" y="19" class="st16" style="font-size:15px;">settings_version: 0.106.0</tspan><tspan x="0" y="38" class="st16" style="font-size:15px;">image_format: auto</tspan><tspan x="0" y="57" class="st16" style="font-size:15px;">responsiveness: fixed</tspan><tspan x="0" y="76" class="st16" style="font-size:15px;">output: one-file</tspan><tspan x="0" y="95" class="st16" style="font-size:15px;">html_output_path: /ai2html-output/</tspan><tspan x="0" y="114" class="st16" style="font-size:15px;">html_output_extension: .html</tspan><tspan x="0" y="133" class="st16" style="font-size:15px;">image_output_path: </tspan><tspan x="0" y="152" class="st16" style="font-size:15px;">local_preview_template: </tspan><tspan x="0" y="171" class="st16" style="font-size:15px;">png_number_of_colors: 128</tspan><tspan x="0" y="190" class="st16" style="font-size:15px;">jpg_quality: 60</tspan><tspan x="0" y="209" class="st16" style="font-size:15px;">headline: </tspan><tspan x="0" y="228" class="st16" style="font-size:15px;">leadin: </tspan><tspan x="0" y="247" class="st16" style="font-size:15px;">notes: </tspan><tspan x="0" y="266" class="st16" style="font-size:15px;">sources: </tspan><tspan x="0" y="285" class="st16" style="font-size:15px;">credit: </tspan></text>
</g>
</svg>
