<svg xmlns="http://www.w3.org/2000/svg" id="chart" font-family="Source Sans Pro" height="486.25" width="775"><g class="fl-chart"><clipPath class="fl-data-clip-path" id="fl-chart-layout-0-clip-path"><rect x="76.78851318359375" y="7.2" width="688.0291491673199" height="414.4333923391061"/></clipPath><clipPath class="fl-grid-clip-path" id="fl-chart-layout-0-grid-clip-path"><rect x="75.28851318359375" y="5.7" width="691.0291491673199" height="417.4333923391061"/></clipPath><g class="fl-chart-background"><rect class="fl-chart-fill" x="76.78851318359375" y="7.2" width="688.0291491673199" height="414.4333923391061" fill="none"/><image class="fl-chart-image" x="76.78851318359375" y="7.2" width="688.0291491673199" height="414.4333923391061" preserveAspectRatio="none"/><rect class="fl-chart-interaction" style="opacity: 0;" x="76.78851318359375" y="7.2" width="688.0291491673199" height="414.4333923391061"/></g><g class="fl-data-background" clip-path="url(#fl-chart-layout-0-clip-path)"/><g class="fl-gridlines" style="pointer-events: none;" clip-path="url(#fl-chart-layout-0-grid-clip-path)"><g class="fl-gridlines-vertical"/><g class="fl-gridlines-horizontal"><line x1="76.78851318359375" x2="764.8176623509137" y1="380.1900531051955" y2="380.1900531051955" style="shape-rendering: crispedges; opacity: 1; stroke: rgb(238, 238, 238); stroke-width: 1.5;"/><line x1="76.78851318359375" x2="764.8176623509137" y1="297.30337463737425" y2="297.30337463737425" style="shape-rendering: crispedges; opacity: 1; stroke: rgb(238, 238, 238); stroke-width: 1.5;"/><line x1="76.78851318359375" x2="764.8176623509137" y1="214.41669616955306" y2="214.41669616955306" style="shape-rendering: crispedges; opacity: 1; stroke: rgb(238, 238, 238); stroke-width: 1.5;"/><line x1="76.78851318359375" x2="764.8176623509137" y1="131.53001770173182" y2="131.53001770173182" style="shape-rendering: crispedges; opacity: 1; stroke: rgb(238, 238, 238); stroke-width: 1.5;"/><line x1="76.78851318359375" x2="764.8176623509137" y1="48.64333923391062" y2="48.64333923391062" style="shape-rendering: crispedges; opacity: 1; stroke: rgb(238, 238, 238); stroke-width: 1.5;"/></g></g><g class="fl-axes"><g class="fl-x-axes"><g class="fl-axis fl-x-axis fl-bottom-axis"><g class="fl-axis-line"><line x1="76.78851318359375" y1="421.6333923391061" y2="421.6333923391061" style="shape-rendering: crispedges; stroke-linecap: square; stroke-width: 1.5; opacity: 1; stroke: rgb(255, 255, 255);" x2="764.8176623509137"/></g><g class="fl-axis-ticks"><g transform="translate(90.01984405517578, 421.6333923339844)" style="opacity: 1;"><line y2="7" style="stroke: rgb(255, 255, 255); stroke-width: 1.5;"/><text text-anchor="end" transform="translate(0,10.5) rotate(-45,0,0) translate(0,8.316)" style="user-select: none; cursor: default; fill: rgb(255, 255, 255); font-size: 12.6px; font-weight: normal;"><tspan x="0" dy="0">A</tspan></text></g><g transform="translate(116.48250579833984, 421.6333923339844)" style="opacity: 1;"><line y2="7" style="stroke: rgb(255, 255, 255); stroke-width: 1.5;"/><text text-anchor="end" transform="translate(0,10.5) rotate(-45,0,0) translate(0,8.316)" style="user-select: none; cursor: default; fill: rgb(255, 255, 255); font-size: 12.6px; font-weight: normal;"><tspan x="0" dy="0">B</tspan></text></g><g transform="translate(142.94515991210938, 421.6333923339844)" style="opacity: 1;"><line y2="7" style="stroke: rgb(255, 255, 255); stroke-width: 1.5;"/><text text-anchor="end" transform="translate(0,10.5) rotate(-45,0,0) translate(0,8.316)" style="user-select: none; cursor: default; fill: rgb(255, 255, 255); font-size: 12.6px; font-weight: normal;"><tspan x="0" dy="0">C</tspan></text></g><g transform="translate(169.40782165527344, 421.6333923339844)" style="opacity: 1;"><line y2="7" style="stroke: rgb(255, 255, 255); stroke-width: 1.5;"/><text text-anchor="end" transform="translate(0,10.5) rotate(-45,0,0) translate(0,8.316)" style="user-select: none; cursor: default; fill: rgb(255, 255, 255); font-size: 12.6px; font-weight: normal;"><tspan x="0" dy="0">D</tspan></text></g><g transform="translate(195.8704833984375, 421.6333923339844)" style="opacity: 1;"><line y2="7" style="stroke: rgb(255, 255, 255); stroke-width: 1.5;"/><text text-anchor="end" transform="translate(0,10.5) rotate(-45,0,0) translate(0,8.316)" style="user-select: none; cursor: default; fill: rgb(255, 255, 255); font-size: 12.6px; font-weight: normal;"><tspan x="0" dy="0">E</tspan></text></g><g transform="translate(222.33314514160156, 421.6333923339844)" style="opacity: 1;"><line y2="7" style="stroke: rgb(255, 255, 255); stroke-width: 1.5;"/><text text-anchor="end" transform="translate(0,10.5) rotate(-45,0,0) translate(0,8.316)" style="user-select: none; cursor: default; fill: rgb(255, 255, 255); font-size: 12.6px; font-weight: normal;"><tspan x="0" dy="0">F</tspan></text></g><g transform="translate(248.79580688476562, 421.6333923339844)" style="opacity: 1;"><line y2="7" style="stroke: rgb(255, 255, 255); stroke-width: 1.5;"/><text text-anchor="end" transform="translate(0,10.5) rotate(-45,0,0) translate(0,8.316)" style="user-select: none; cursor: default; fill: rgb(255, 255, 255); font-size: 12.6px; font-weight: normal;"><tspan x="0" dy="0">G</tspan></text></g><g transform="translate(275.2584533691406, 421.6333923339844)" style="opacity: 1;"><line y2="7" style="stroke: rgb(255, 255, 255); stroke-width: 1.5;"/><text text-anchor="end" transform="translate(0,10.5) rotate(-45,0,0) translate(0,8.316)" style="user-select: none; cursor: default; fill: rgb(255, 255, 255); font-size: 12.6px; font-weight: normal;"><tspan x="0" dy="0">H</tspan></text></g><g transform="translate(301.72113037109375, 421.6333923339844)" style="opacity: 1;"><line y2="7" style="stroke: rgb(255, 255, 255); stroke-width: 1.5;"/><text text-anchor="end" transform="translate(0,10.5) rotate(-45,0,0) translate(0,8.316)" style="user-select: none; cursor: default; fill: rgb(255, 255, 255); font-size: 12.6px; font-weight: normal;"><tspan x="0" dy="0">I</tspan></text></g><g transform="translate(328.18377685546875, 421.6333923339844)" style="opacity: 1;"><line y2="7" style="stroke: rgb(255, 255, 255); stroke-width: 1.5;"/><text text-anchor="end" transform="translate(0,10.5) rotate(-45,0,0) translate(0,8.316)" style="user-select: none; cursor: default; fill: rgb(255, 255, 255); font-size: 12.6px; font-weight: normal;"><tspan x="0" dy="0">J</tspan></text></g><g transform="translate(354.6464538574219, 421.6333923339844)" style="opacity: 1;"><line y2="7" style="stroke: rgb(255, 255, 255); stroke-width: 1.5;"/><text text-anchor="end" transform="translate(0,10.5) rotate(-45,0,0) translate(0,8.316)" style="user-select: none; cursor: default; fill: rgb(255, 255, 255); font-size: 12.6px; font-weight: normal;"><tspan x="0" dy="0">K</tspan></text></g><g transform="translate(381.1091003417969, 421.6333923339844)" style="opacity: 1;"><line y2="7" style="stroke: rgb(255, 255, 255); stroke-width: 1.5;"/><text text-anchor="end" transform="translate(0,10.5) rotate(-45,0,0) translate(0,8.316)" style="user-select: none; cursor: default; fill: rgb(255, 255, 255); font-size: 12.6px; font-weight: normal;"><tspan x="0" dy="0">L</tspan></text></g><g transform="translate(407.5717468261719, 421.6333923339844)" style="opacity: 1;"><line y2="7" style="stroke: rgb(255, 255, 255); stroke-width: 1.5;"/><text text-anchor="end" transform="translate(0,10.5) rotate(-45,0,0) translate(0,8.316)" style="user-select: none; cursor: default; fill: rgb(255, 255, 255); font-size: 12.6px; font-weight: normal;"><tspan x="0" dy="0">M</tspan></text></g><g transform="translate(434.034423828125, 421.6333923339844)" style="opacity: 1;"><line y2="7" style="stroke: rgb(255, 255, 255); stroke-width: 1.5;"/><text text-anchor="end" transform="translate(0,10.5) rotate(-45,0,0) translate(0,8.316)" style="user-select: none; cursor: default; fill: rgb(255, 255, 255); font-size: 12.6px; font-weight: normal;"><tspan x="0" dy="0">N</tspan></text></g><g transform="translate(460.4970703125, 421.6333923339844)" style="opacity: 1;"><line y2="7" style="stroke: rgb(255, 255, 255); stroke-width: 1.5;"/><text text-anchor="end" transform="translate(0,10.5) rotate(-45,0,0) translate(0,8.316)" style="user-select: none; cursor: default; fill: rgb(255, 255, 255); font-size: 12.6px; font-weight: normal;"><tspan x="0" dy="0">O</tspan></text></g><g transform="translate(486.9597473144531, 421.6333923339844)" style="opacity: 1;"><line y2="7" style="stroke: rgb(255, 255, 255); stroke-width: 1.5;"/><text text-anchor="end" transform="translate(0,10.5) rotate(-45,0,0) translate(0,8.316)" style="user-select: none; cursor: default; fill: rgb(255, 255, 255); font-size: 12.6px; font-weight: normal;"><tspan x="0" dy="0">P</tspan></text></g><g transform="translate(513.4224243164062, 421.6333923339844)" style="opacity: 1;"><line y2="7" style="stroke: rgb(255, 255, 255); stroke-width: 1.5;"/><text text-anchor="end" transform="translate(0,10.5) rotate(-45,0,0) translate(0,8.316)" style="user-select: none; cursor: default; fill: rgb(255, 255, 255); font-size: 12.6px; font-weight: normal;"><tspan x="0" dy="0">Q</tspan></text></g><g transform="translate(539.8850708007812, 421.6333923339844)" style="opacity: 1;"><line y2="7" style="stroke: rgb(255, 255, 255); stroke-width: 1.5;"/><text text-anchor="end" transform="translate(0,10.5) rotate(-45,0,0) translate(0,8.316)" style="user-select: none; cursor: default; fill: rgb(255, 255, 255); font-size: 12.6px; font-weight: normal;"><tspan x="0" dy="0">R</tspan></text></g><g transform="translate(566.3477172851562, 421.6333923339844)" style="opacity: 1;"><line y2="7" style="stroke: rgb(255, 255, 255); stroke-width: 1.5;"/><text text-anchor="end" transform="translate(0,10.5) rotate(-45,0,0) translate(0,8.316)" style="user-select: none; cursor: default; fill: rgb(255, 255, 255); font-size: 12.6px; font-weight: normal;"><tspan x="0" dy="0">S</tspan></text></g><g transform="translate(592.8103637695312, 421.6333923339844)" style="opacity: 1;"><line y2="7" style="stroke: rgb(255, 255, 255); stroke-width: 1.5;"/><text text-anchor="end" transform="translate(0,10.5) rotate(-45,0,0) translate(0,8.316)" style="user-select: none; cursor: default; fill: rgb(255, 255, 255); font-size: 12.6px; font-weight: normal;"><tspan x="0" dy="0">T</tspan></text></g><g transform="translate(619.2730102539062, 421.6333923339844)" style="opacity: 1;"><line y2="7" style="stroke: rgb(255, 255, 255); stroke-width: 1.5;"/><text text-anchor="end" transform="translate(0,10.5) rotate(-45,0,0) translate(0,8.316)" style="user-select: none; cursor: default; fill: rgb(255, 255, 255); font-size: 12.6px; font-weight: normal;"><tspan x="0" dy="0">U</tspan></text></g><g transform="translate(645.7357177734375, 421.6333923339844)" style="opacity: 1;"><line y2="7" style="stroke: rgb(255, 255, 255); stroke-width: 1.5;"/><text text-anchor="end" transform="translate(0,10.5) rotate(-45,0,0) translate(0,8.316)" style="user-select: none; cursor: default; fill: rgb(255, 255, 255); font-size: 12.6px; font-weight: normal;"><tspan x="0" dy="0">V</tspan></text></g><g transform="translate(672.1983642578125, 421.6333923339844)" style="opacity: 1;"><line y2="7" style="stroke: rgb(255, 255, 255); stroke-width: 1.5;"/><text text-anchor="end" transform="translate(0,10.5) rotate(-45,0,0) translate(0,8.316)" style="user-select: none; cursor: default; fill: rgb(255, 255, 255); font-size: 12.6px; font-weight: normal;"><tspan x="0" dy="0">W</tspan></text></g><g transform="translate(698.6610107421875, 421.6333923339844)" style="opacity: 1;"><line y2="7" style="stroke: rgb(255, 255, 255); stroke-width: 1.5;"/><text text-anchor="end" transform="translate(0,10.5) rotate(-45,0,0) translate(0,8.316)" style="user-select: none; cursor: default; fill: rgb(255, 255, 255); font-size: 12.6px; font-weight: normal;"><tspan x="0" dy="0">X</tspan></text></g><g transform="translate(725.1236572265625, 421.6333923339844)" style="opacity: 1;"><line y2="7" style="stroke: rgb(255, 255, 255); stroke-width: 1.5;"/><text text-anchor="end" transform="translate(0,10.5) rotate(-45,0,0) translate(0,8.316)" style="user-select: none; cursor: default; fill: rgb(255, 255, 255); font-size: 12.6px; font-weight: normal;"><tspan x="0" dy="0">Y</tspan></text></g><g transform="translate(751.5863037109375, 421.6333923339844)" style="opacity: 1;"><line y2="7" style="stroke: rgb(255, 255, 255); stroke-width: 1.5;"/><text text-anchor="end" transform="translate(0,10.5) rotate(-45,0,0) translate(0,8.316)" style="user-select: none; cursor: default; fill: rgb(255, 255, 255); font-size: 12.6px; font-weight: normal;"><tspan x="0" dy="0">Z</tspan></text></g></g><g class="fl-axis-title"><text text-anchor="middle" style="font-size: 15.4px; fill: rgb(255, 255, 255); font-weight: normal; user-select: none; cursor: default;" x="420.8030877672537" y="458.84999999999997" dy="15.400000000000002">LETTER</text></g></g><g class="fl-axis fl-x-axis fl-top-axis"><g class="fl-axis-line"/><g class="fl-axis-ticks"/><g class="fl-axis-title"/></g></g><g class="fl-y-axes"><g class="fl-axis fl-y-axis fl-left-axis"><g class="fl-axis-line"/><g class="fl-axis-ticks"><g transform="translate(76.78851318359375, 380.1900634765625)" style="opacity: 1;"><line x2="-7" style="stroke: rgb(255, 255, 255); stroke-width: 1.5;"/><text text-anchor="end" transform="translate(-10.5,4.158)" style="user-select: none; cursor: default; fill: rgb(255, 255, 255); font-size: 12.6px; font-weight: normal;"><tspan x="0" dy="0">Fifth Spot</tspan></text></g><g transform="translate(76.78851318359375, 297.3033752441406)" style="opacity: 1;"><line x2="-7" style="stroke: rgb(255, 255, 255); stroke-width: 1.5;"/><text text-anchor="end" transform="translate(-10.5,4.158)" style="user-select: none; cursor: default; fill: rgb(255, 255, 255); font-size: 12.6px; font-weight: normal;"><tspan x="0" dy="0">Fourth Spot</tspan></text></g><g transform="translate(76.78851318359375, 214.4167022705078)" style="opacity: 1;"><line x2="-7" style="stroke: rgb(255, 255, 255); stroke-width: 1.5;"/><text text-anchor="end" transform="translate(-10.5,4.158)" style="user-select: none; cursor: default; fill: rgb(255, 255, 255); font-size: 12.6px; font-weight: normal;"><tspan x="0" dy="0">Third Spot</tspan></text></g><g transform="translate(76.78851318359375, 131.53001403808594)" style="opacity: 1;"><line x2="-7" style="stroke: rgb(255, 255, 255); stroke-width: 1.5;"/><text text-anchor="end" transform="translate(-10.5,4.158)" style="user-select: none; cursor: default; fill: rgb(255, 255, 255); font-size: 12.6px; font-weight: normal;"><tspan x="0" dy="0">Second Spot</tspan></text></g><g transform="translate(76.78851318359375, 48.643341064453125)" style="opacity: 1;"><line x2="-7" style="stroke: rgb(255, 255, 255); stroke-width: 1.5;"/><text text-anchor="end" transform="translate(-10.5,4.158)" style="user-select: none; cursor: default; fill: rgb(255, 255, 255); font-size: 12.6px; font-weight: normal;"><tspan x="0" dy="0">First Spot</tspan></text></g></g><g class="fl-axis-title"/></g><g class="fl-axis fl-y-axis fl-right-axis"><g class="fl-axis-line"/><g class="fl-axis-ticks"/><g class="fl-axis-title"/></g></g></g><g class="fl-data-foreground" clip-path="url(#fl-chart-layout-0-clip-path)"><g class="cells"><rect class="cell" transform="translate(76.78851318359375,7.200000000000017) scale(1, 1)" fill="rgb(253, 186, 126)" height="82.88667846782121" width="26.46265958335846"/><rect class="cell" transform="translate(76.78851318359375,90.08667846782122) scale(1, 1)" fill="rgb(222, 82, 7)" height="82.88667846782121" width="26.46265958335846"/><rect class="cell" transform="translate(76.78851318359375,172.97335693564247) scale(1, 1)" fill="rgb(220, 80, 6)" height="82.88667846782121" width="26.46265958335846"/><rect class="cell" transform="translate(76.78851318359375,255.86003540346366) scale(1, 1)" fill="rgb(253, 172, 105)" height="82.88667846782121" width="26.46265958335846"/><rect class="cell" transform="translate(76.78851318359375,338.7467138712849) scale(1, 1)" fill="rgb(254, 225, 196)" height="82.88667846782121" width="26.46265958335846"/><rect class="cell" transform="translate(103.25117276695221,7.200000000000017) scale(1, 1)" fill="rgb(253, 165, 95)" height="82.88667846782121" width="26.46265958335846"/><rect class="cell" transform="translate(103.25117276695221,90.08667846782122) scale(1, 1)" fill="rgb(255, 240, 226)" height="82.88667846782121" width="26.46265958335846"/><rect class="cell" transform="translate(103.25117276695221,172.97335693564247) scale(1, 1)" fill="rgb(254, 227, 201)" height="82.88667846782121" width="26.46265958335846"/><rect class="cell" transform="translate(103.25117276695221,255.86003540346366) scale(1, 1)" fill="rgb(255, 238, 222)" height="82.88667846782121" width="26.46265958335846"/><rect class="cell" transform="translate(103.25117276695221,338.7467138712849) scale(1, 1)" fill="rgb(255, 242, 229)" height="82.88667846782121" width="26.46265958335846"/><rect class="cell" transform="translate(129.71383235031067,7.200000000000017) scale(1, 1)" fill="rgb(252, 150, 73)" height="82.88667846782121" width="26.46265958335846"/><rect class="cell" transform="translate(129.71383235031067,90.08667846782122) scale(1, 1)" fill="rgb(254, 233, 212)" height="82.88667846782121" width="26.46265958335846"/><rect class="cell" transform="translate(129.71383235031067,172.97335693564247) scale(1, 1)" fill="rgb(254, 228, 201)" height="82.88667846782121" width="26.46265958335846"/><rect class="cell" transform="translate(129.71383235031067,255.86003540346366) scale(1, 1)" fill="rgb(253, 179, 115)" height="82.88667846782121" width="26.46265958335846"/><rect class="cell" transform="translate(129.71383235031067,338.7467138712849) scale(1, 1)" fill="rgb(254, 236, 218)" height="82.88667846782121" width="26.46265958335846"/><rect class="cell" transform="translate(156.17649193366913,7.200000000000017) scale(1, 1)" fill="rgb(253, 203, 155)" height="82.88667846782121" width="26.46265958335846"/><rect class="cell" transform="translate(156.17649193366913,90.08667846782122) scale(1, 1)" fill="rgb(255, 239, 224)" height="82.88667846782121" width="26.46265958335846"/><rect class="cell" transform="translate(156.17649193366913,172.97335693564247) scale(1, 1)" fill="rgb(254, 220, 187)" height="82.88667846782121" width="26.46265958335846"/><rect class="cell" transform="translate(156.17649193366913,255.86003540346366) scale(1, 1)" fill="rgb(254, 223, 192)" height="82.88667846782121" width="26.46265958335846"/><rect class="cell" transform="translate(156.17649193366913,338.7467138712849) scale(1, 1)" fill="rgb(253, 199, 149)" height="82.88667846782121" width="26.46265958335846"/><rect class="cell" transform="translate(182.63915151702759,7.200000000000017) scale(1, 1)" fill="rgb(254, 222, 189)" height="82.88667846782121" width="26.46265958335846"/><rect class="cell" transform="translate(182.63915151702759,90.08667846782122) scale(1, 1)" fill="rgb(246, 121, 38)" height="82.88667846782121" width="26.46265958335846"/><rect class="cell" transform="translate(182.63915151702759,172.97335693564247) scale(1, 1)" fill="rgb(253, 163, 91)" height="82.88667846782121" width="26.46265958335846"/><rect class="cell" transform="translate(182.63915151702759,255.86003540346366) scale(1, 1)" fill="rgb(213, 75, 4)" height="82.88667846782121" width="26.46265958335846"/><rect class="cell" transform="translate(182.63915151702759,338.7467138712849) scale(1, 1)" fill="rgb(127, 39, 4)" height="82.88667846782121" width="26.46265958335846"/><rect class="cell" transform="translate(209.10181110038604,7.200000000000017) scale(1, 1)" fill="rgb(253, 189, 131)" height="82.88667846782121" width="26.46265958335846"/><rect class="cell" transform="translate(209.10181110038604,90.08667846782122) scale(1, 1)" fill="rgb(255, 243, 231)" height="82.88667846782121" width="26.46265958335846"/><rect class="cell" transform="translate(209.10181110038604,172.97335693564247) scale(1, 1)" fill="rgb(255, 238, 221)" height="82.88667846782121" width="26.46265958335846"/><rect class="cell" transform="translate(209.10181110038604,255.86003540346366) scale(1, 1)" fill="rgb(254, 235, 215)" height="82.88667846782121" width="26.46265958335846"/><rect class="cell" transform="translate(209.10181110038604,338.7467138712849) scale(1, 1)" fill="rgb(255, 238, 220)" height="82.88667846782121" width="26.46265958335846"/><rect class="cell" transform="translate(235.5644706837445,7.200000000000017) scale(1, 1)" fill="rgb(253, 201, 152)" height="82.88667846782121" width="26.46265958335846"/><rect class="cell" transform="translate(235.5644706837445,90.08667846782122) scale(1, 1)" fill="rgb(255, 242, 228)" height="82.88667846782121" width="26.46265958335846"/><rect class="cell" transform="translate(235.5644706837445,172.97335693564247) scale(1, 1)" fill="rgb(254, 224, 193)" height="82.88667846782121" width="26.46265958335846"/><rect class="cell" transform="translate(235.5644706837445,255.86003540346366) scale(1, 1)" fill="rgb(254, 220, 186)" height="82.88667846782121" width="26.46265958335846"/><rect class="cell" transform="translate(235.5644706837445,338.7467138712849) scale(1, 1)" fill="rgb(254, 233, 211)" height="82.88667846782121" width="26.46265958335846"/><rect class="cell" transform="translate(262.02713026710296,7.200000000000017) scale(1, 1)" fill="rgb(254, 223, 192)" height="82.88667846782121" width="26.46265958335846"/><rect class="cell" transform="translate(262.02713026710296,90.08667846782122) scale(1, 1)" fill="rgb(253, 184, 123)" height="82.88667846782121" width="26.46265958335846"/><rect class="cell" transform="translate(262.02713026710296,172.97335693564247) scale(1, 1)" fill="rgb(255, 242, 230)" height="82.88667846782121" width="26.46265958335846"/><rect class="cell" transform="translate(262.02713026710296,255.86003540346366) scale(1, 1)" fill="rgb(254, 237, 219)" height="82.88667846782121" width="26.46265958335846"/><rect class="cell" transform="translate(262.02713026710296,338.7467138712849) scale(1, 1)" fill="rgb(253, 187, 128)" height="82.88667846782121" width="26.46265958335846"/><rect class="cell" transform="translate(288.4897898504614,7.200000000000017) scale(1, 1)" fill="rgb(254, 235, 216)" height="82.88667846782121" width="26.46265958335846"/><rect class="cell" transform="translate(288.4897898504614,90.08667846782122) scale(1, 1)" fill="rgb(252, 147, 69)" height="82.88667846782121" width="26.46265958335846"/><rect class="cell" transform="translate(288.4897898504614,172.97335693564247) scale(1, 1)" fill="rgb(239, 105, 22)" height="82.88667846782121" width="26.46265958335846"/><rect class="cell" transform="translate(288.4897898504614,255.86003540346366) scale(1, 1)" fill="rgb(253, 175, 109)" height="82.88667846782121" width="26.46265958335846"/><rect class="cell" transform="translate(288.4897898504614,338.7467138712849) scale(1, 1)" fill="rgb(255, 242, 229)" height="82.88667846782121" width="26.46265958335846"/><rect class="cell" transform="translate(314.9524494338199,7.200000000000017) scale(1, 1)" fill="rgb(255, 239, 224)" height="82.88667846782121" width="26.46265958335846"/><rect class="cell" transform="translate(314.9524494338199,90.08667846782122) scale(1, 1)" fill="rgb(255, 244, 234)" height="82.88667846782121" width="26.46265958335846"/><rect class="cell" transform="translate(314.9524494338199,172.97335693564247) scale(1, 1)" fill="rgb(255, 244, 233)" height="82.88667846782121" width="26.46265958335846"/><rect class="cell" transform="translate(314.9524494338199,255.86003540346366) scale(1, 1)" fill="rgb(255, 244, 234)" height="82.88667846782121" width="26.46265958335846"/><rect class="cell" transform="translate(314.9524494338199,338.7467138712849) scale(1, 1)" fill="rgb(255, 245, 235)" height="82.88667846782121" width="26.46265958335846"/><rect class="cell" transform="translate(341.41510901717834,7.200000000000017) scale(1, 1)" fill="rgb(255, 239, 224)" height="82.88667846782121" width="26.46265958335846"/><rect class="cell" transform="translate(341.41510901717834,90.08667846782122) scale(1, 1)" fill="rgb(255, 242, 230)" height="82.88667846782121" width="26.46265958335846"/><rect class="cell" transform="translate(341.41510901717834,172.97335693564247) scale(1, 1)" fill="rgb(255, 242, 228)" height="82.88667846782121" width="26.46265958335846"/><rect class="cell" transform="translate(341.41510901717834,255.86003540346366) scale(1, 1)" fill="rgb(254, 228, 202)" height="82.88667846782121" width="26.46265958335846"/><rect class="cell" transform="translate(341.41510901717834,338.7467138712849) scale(1, 1)" fill="rgb(253, 202, 154)" height="82.88667846782121" width="26.46265958335846"/><rect class="cell" transform="translate(367.8777686005368,7.200000000000017) scale(1, 1)" fill="rgb(253, 215, 176)" height="82.88667846782121" width="26.46265958335846"/><rect class="cell" transform="translate(367.8777686005368,90.08667846782122) scale(1, 1)" fill="rgb(252, 148, 70)" height="82.88667846782121" width="26.46265958335846"/><rect class="cell" transform="translate(367.8777686005368,172.97335693564247) scale(1, 1)" fill="rgb(253, 203, 154)" height="82.88667846782121" width="26.46265958335846"/><rect class="cell" transform="translate(367.8777686005368,255.86003540346366) scale(1, 1)" fill="rgb(253, 172, 105)" height="82.88667846782121" width="26.46265958335846"/><rect class="cell" transform="translate(367.8777686005368,338.7467138712849) scale(1, 1)" fill="rgb(253, 176, 111)" height="82.88667846782121" width="26.46265958335846"/><rect class="cell" transform="translate(394.34042818389526,7.200000000000017) scale(1, 1)" fill="rgb(253, 205, 159)" height="82.88667846782121" width="26.46265958335846"/><rect class="cell" transform="translate(394.34042818389526,90.08667846782122) scale(1, 1)" fill="rgb(254, 234, 213)" height="82.88667846782121" width="26.46265958335846"/><rect class="cell" transform="translate(394.34042818389526,172.97335693564247) scale(1, 1)" fill="rgb(254, 226, 198)" height="82.88667846782121" width="26.46265958335846"/><rect class="cell" transform="translate(394.34042818389526,255.86003540346366) scale(1, 1)" fill="rgb(254, 223, 193)" height="82.88667846782121" width="26.46265958335846"/><rect class="cell" transform="translate(394.34042818389526,338.7467138712849) scale(1, 1)" fill="rgb(254, 233, 211)" height="82.88667846782121" width="26.46265958335846"/><rect class="cell" transform="translate(420.8030877672537,7.200000000000017) scale(1, 1)" fill="rgb(254, 234, 214)" height="82.88667846782121" width="26.46265958335846"/><rect class="cell" transform="translate(420.8030877672537,90.08667846782122) scale(1, 1)" fill="rgb(253, 215, 177)" height="82.88667846782121" width="26.46265958335846"/><rect class="cell" transform="translate(420.8030877672537,172.97335693564247) scale(1, 1)" fill="rgb(253, 187, 128)" height="82.88667846782121" width="26.46265958335846"/><rect class="cell" transform="translate(420.8030877672537,255.86003540346366) scale(1, 1)" fill="rgb(253, 160, 87)" height="82.88667846782121" width="26.46265958335846"/><rect class="cell" transform="translate(420.8030877672537,338.7467138712849) scale(1, 1)" fill="rgb(253, 192, 137)" height="82.88667846782121" width="26.46265958335846"/><rect class="cell" transform="translate(447.2657473506122,7.200000000000017) scale(1, 1)" fill="rgb(254, 233, 211)" height="82.88667846782121" width="26.46265958335846"/><rect class="cell" transform="translate(447.2657473506122,90.08667846782122) scale(1, 1)" fill="rgb(234, 97, 16)" height="82.88667846782121" width="26.46265958335846"/><rect class="cell" transform="translate(447.2657473506122,172.97335693564247) scale(1, 1)" fill="rgb(245, 119, 36)" height="82.88667846782121" width="26.46265958335846"/><rect class="cell" transform="translate(447.2657473506122,255.86003540346366) scale(1, 1)" fill="rgb(253, 191, 135)" height="82.88667846782121" width="26.46265958335846"/><rect class="cell" transform="translate(447.2657473506122,338.7467138712849) scale(1, 1)" fill="rgb(254, 227, 200)" height="82.88667846782121" width="26.46265958335846"/><rect class="cell" transform="translate(473.72840693397063,7.200000000000017) scale(1, 1)" fill="rgb(253, 185, 125)" height="82.88667846782121" width="26.46265958335846"/><rect class="cell" transform="translate(473.72840693397063,90.08667846782122) scale(1, 1)" fill="rgb(254, 226, 198)" height="82.88667846782121" width="26.46265958335846"/><rect class="cell" transform="translate(473.72840693397063,172.97335693564247) scale(1, 1)" fill="rgb(254, 227, 200)" height="82.88667846782121" width="26.46265958335846"/><rect class="cell" transform="translate(473.72840693397063,255.86003540346366) scale(1, 1)" fill="rgb(254, 230, 206)" height="82.88667846782121" width="26.46265958335846"/><rect class="cell" transform="translate(473.72840693397063,338.7467138712849) scale(1, 1)" fill="rgb(254, 228, 201)" height="82.88667846782121" width="26.46265958335846"/><rect class="cell" transform="translate(500.19106651732903,7.200000000000017) scale(1, 1)" fill="rgb(255, 238, 222)" height="82.88667846782121" width="26.46265958335846"/><rect class="cell" transform="translate(500.19106651732903,90.08667846782122) scale(1, 1)" fill="rgb(255, 244, 232)" height="82.88667846782121" width="26.46265958335846"/><rect class="cell" transform="translate(500.19106651732903,172.97335693564247) scale(1, 1)" fill="rgb(255, 245, 234)" height="82.88667846782121" width="26.46265958335846"/><rect class="cell" transform="translate(500.19106651732903,255.86003540346366) scale(1, 1)" fill="rgb(255, 245, 235)" height="82.88667846782121" width="26.46265958335846"/><rect class="cell" transform="translate(500.19106651732903,338.7467138712849) scale(1, 1)" fill="rgb(255, 245, 235)" height="82.88667846782121" width="26.46265958335846"/><rect class="cell" transform="translate(526.6537261006877,7.200000000000017) scale(1, 1)" fill="rgb(253, 207, 161)" height="82.88667846782121" width="26.46265958335846"/><rect class="cell" transform="translate(526.6537261006877,90.08667846782122) scale(1, 1)" fill="rgb(238, 104, 22)" height="82.88667846782121" width="26.46265958335846"/><rect class="cell" transform="translate(526.6537261006877,172.97335693564247) scale(1, 1)" fill="rgb(253, 172, 105)" height="82.88667846782121" width="26.46265958335846"/><rect class="cell" transform="translate(526.6537261006877,255.86003540346366) scale(1, 1)" fill="rgb(253, 179, 115)" height="82.88667846782121" width="26.46265958335846"/><rect class="cell" transform="translate(526.6537261006877,338.7467138712849) scale(1, 1)" fill="rgb(251, 141, 61)" height="82.88667846782121" width="26.46265958335846"/><rect class="cell" transform="translate(553.116385684046,7.200000000000017) scale(1, 1)" fill="rgb(172, 56, 3)" height="82.88667846782121" width="26.46265958335846"/><rect class="cell" transform="translate(553.116385684046,90.08667846782122) scale(1, 1)" fill="rgb(255, 240, 226)" height="82.88667846782121" width="26.46265958335846"/><rect class="cell" transform="translate(553.116385684046,172.97335693564247) scale(1, 1)" fill="rgb(254, 218, 183)" height="82.88667846782121" width="26.46265958335846"/><rect class="cell" transform="translate(553.116385684046,255.86003540346366) scale(1, 1)" fill="rgb(253, 167, 97)" height="82.88667846782121" width="26.46265958335846"/><rect class="cell" transform="translate(553.116385684046,338.7467138712849) scale(1, 1)" fill="rgb(254, 234, 215)" height="82.88667846782121" width="26.46265958335846"/><rect class="cell" transform="translate(579.5790452674046,7.200000000000017) scale(1, 1)" fill="rgb(253, 180, 118)" height="82.88667846782121" width="26.46265958335846"/><rect class="cell" transform="translate(579.5790452674046,90.08667846782122) scale(1, 1)" fill="rgb(254, 220, 185)" height="82.88667846782121" width="26.46265958335846"/><rect class="cell" transform="translate(579.5790452674046,172.97335693564247) scale(1, 1)" fill="rgb(253, 203, 155)" height="82.88667846782121" width="26.46265958335846"/><rect class="cell" transform="translate(579.5790452674046,255.86003540346366) scale(1, 1)" fill="rgb(253, 187, 128)" height="82.88667846782121" width="26.46265958335846"/><rect class="cell" transform="translate(579.5790452674046,338.7467138712849) scale(1, 1)" fill="rgb(243, 113, 30)" height="82.88667846782121" width="26.46265958335846"/><rect class="cell" transform="translate(606.0417048507629,7.200000000000017) scale(1, 1)" fill="rgb(254, 235, 216)" height="82.88667846782121" width="26.46265958335846"/><rect class="cell" transform="translate(606.0417048507629,90.08667846782122) scale(1, 1)" fill="rgb(253, 157, 83)" height="82.88667846782121" width="26.46265958335846"/><rect class="cell" transform="translate(606.0417048507629,172.97335693564247) scale(1, 1)" fill="rgb(253, 170, 103)" height="82.88667846782121" width="26.46265958335846"/><rect class="cell" transform="translate(606.0417048507629,255.86003540346366) scale(1, 1)" fill="rgb(253, 218, 181)" height="82.88667846782121" width="26.46265958335846"/><rect class="cell" transform="translate(606.0417048507629,338.7467138712849) scale(1, 1)" fill="rgb(255, 245, 234)" height="82.88667846782121" width="26.46265958335846"/><rect class="cell" transform="translate(632.5043644341215,7.200000000000017) scale(1, 1)" fill="rgb(254, 232, 210)" height="82.88667846782121" width="26.46265958335846"/><rect class="cell" transform="translate(632.5043644341215,90.08667846782122) scale(1, 1)" fill="rgb(255, 241, 227)" height="82.88667846782121" width="26.46265958335846"/><rect class="cell" transform="translate(632.5043644341215,172.97335693564247) scale(1, 1)" fill="rgb(254, 230, 206)" height="82.88667846782121" width="26.46265958335846"/><rect class="cell" transform="translate(632.5043644341215,255.86003540346366) scale(1, 1)" fill="rgb(254, 231, 208)" height="82.88667846782121" width="26.46265958335846"/><rect class="cell" transform="translate(632.5043644341215,338.7467138712849) scale(1, 1)" fill="rgb(255, 245, 235)" height="82.88667846782121" width="26.46265958335846"/><rect class="cell" transform="translate(658.9670240174798,7.200000000000017) scale(1, 1)" fill="rgb(253, 217, 181)" height="82.88667846782121" width="26.46265958335846"/><rect class="cell" transform="translate(658.9670240174798,90.08667846782122) scale(1, 1)" fill="rgb(254, 232, 209)" height="82.88667846782121" width="26.46265958335846"/><rect class="cell" transform="translate(658.9670240174798,172.97335693564247) scale(1, 1)" fill="rgb(255, 238, 220)" height="82.88667846782121" width="26.46265958335846"/><rect class="cell" transform="translate(658.9670240174798,255.86003540346366) scale(1, 1)" fill="rgb(255, 238, 221)" height="82.88667846782121" width="26.46265958335846"/><rect class="cell" transform="translate(658.9670240174798,338.7467138712849) scale(1, 1)" fill="rgb(255, 240, 226)" height="82.88667846782121" width="26.46265958335846"/><rect class="cell" transform="translate(685.4296836008384,7.200000000000017) scale(1, 1)" fill="rgb(255, 245, 235)" height="82.88667846782121" width="26.46265958335846"/><rect class="cell" transform="translate(685.4296836008384,90.08667846782122) scale(1, 1)" fill="rgb(255, 241, 227)" height="82.88667846782121" width="26.46265958335846"/><rect class="cell" transform="translate(685.4296836008384,172.97335693564247) scale(1, 1)" fill="rgb(255, 242, 228)" height="82.88667846782121" width="26.46265958335846"/><rect class="cell" transform="translate(685.4296836008384,255.86003540346366) scale(1, 1)" fill="rgb(255, 244, 233)" height="82.88667846782121" width="26.46265958335846"/><rect class="cell" transform="translate(685.4296836008384,338.7467138712849) scale(1, 1)" fill="rgb(255, 243, 231)" height="82.88667846782121" width="26.46265958335846"/><rect class="cell" transform="translate(711.8923431841968,7.200000000000017) scale(1, 1)" fill="rgb(255, 243, 232)" height="82.88667846782121" width="26.46265958335846"/><rect class="cell" transform="translate(711.8923431841968,90.08667846782122) scale(1, 1)" fill="rgb(255, 238, 222)" height="82.88667846782121" width="26.46265958335846"/><rect class="cell" transform="translate(711.8923431841968,172.97335693564247) scale(1, 1)" fill="rgb(254, 237, 219)" height="82.88667846782121" width="26.46265958335846"/><rect class="cell" transform="translate(711.8923431841968,255.86003540346366) scale(1, 1)" fill="rgb(255, 244, 233)" height="82.88667846782121" width="26.46265958335846"/><rect class="cell" transform="translate(711.8923431841968,338.7467138712849) scale(1, 1)" fill="rgb(174, 57, 3)" height="82.88667846782121" width="26.46265958335846"/><rect class="cell" transform="translate(738.3550027675553,7.200000000000017) scale(1, 1)" fill="rgb(255, 244, 233)" height="82.88667846782121" width="26.46265958335846"/><rect class="cell" transform="translate(738.3550027675553,90.08667846782122) scale(1, 1)" fill="rgb(255, 244, 234)" height="82.88667846782121" width="26.46265958335846"/><rect class="cell" transform="translate(738.3550027675553,172.97335693564247) scale(1, 1)" fill="rgb(255, 242, 229)" height="82.88667846782121" width="26.46265958335846"/><rect class="cell" transform="translate(738.3550027675553,255.86003540346366) scale(1, 1)" fill="rgb(255, 239, 224)" height="82.88667846782121" width="26.46265958335846"/><rect class="cell" transform="translate(738.3550027675553,338.7467138712849) scale(1, 1)" fill="rgb(255, 244, 233)" height="82.88667846782121" width="26.46265958335846"/></g><g class="axis-highlights" style="opacity: 1;"/></g></g></svg>