<?xml version="1.0" encoding="utf-8"?>
<!-- Generator: Adobe Illustrator 26.0.3, SVG Export Plug-In . SVG Version: 6.00 Build 0)  -->
<svg version="1.1" id="chart" xmlns="http://www.w3.org/2000/svg" xmlns:xlink="http://www.w3.org/1999/xlink" x="0px" y="0px"
	 viewBox="0 0 775 593.2" style="enable-background:new 0 0 775 593.2;" xml:space="preserve">
<style type="text/css">
	.st0{fill:none;}
	.st1{fill-opacity:0;}
	.st2{clip-path:url(#SVGID_00000010269446160946608260000003460790052223139495_);}
	.st3{fill:none;stroke:#EEEEEE;stroke-width:1.5;}
	.st4{fill:none;stroke:#FFFFFF;stroke-width:1.5;stroke-linecap:square;}
	.st5{fill:none;stroke:#FFFFFF;stroke-width:1.5;}
	.st6{fill:#FFFFFF;}
	.st7{font-family:'ArialMT';}
	.st8{font-size:12.6px;}
	.st9{font-size:15.4px;}
	.st10{clip-path:url(#SVGID_00000165916859463408815530000011800042004364392345_);}
	.st11{fill:#FDBA7E;}
	.st12{fill:#DE5207;}
	.st13{fill:#DC5006;}
	.st14{fill:#FDAC69;}
	.st15{fill:#FEE1C4;}
	.st16{fill:#FDA55F;}
	.st17{fill:#FFF0E2;}
	.st18{fill:#FEE3C9;}
	.st19{fill:#FFEEDE;}
	.st20{fill:#FFF2E5;}
	.st21{fill:#FC9649;}
	.st22{fill:#FEE9D4;}
	.st23{fill:#FEE4C9;}
	.st24{fill:#FDB373;}
	.st25{fill:#FEECDA;}
	.st26{fill:#FDCB9B;}
	.st27{fill:#FFEFE0;}
	.st28{fill:#FEDCBB;}
	.st29{fill:#FEDFC0;}
	.st30{fill:#FDC795;}
	.st31{fill:#FEDEBD;}
	.st32{fill:#F67926;}
	.st33{fill:#FDA35B;}
	.st34{fill:#D54B04;}
	.st35{fill:#7F2704;}
	.st36{fill:#FDBD83;}
	.st37{fill:#FFF3E7;}
	.st38{fill:#FFEEDD;}
	.st39{fill:#FEEBD7;}
	.st40{fill:#FFEEDC;}
	.st41{fill:#FDC998;}
	.st42{fill:#FFF2E4;}
	.st43{fill:#FEE0C1;}
	.st44{fill:#FEDCBA;}
	.st45{fill:#FEE9D3;}
	.st46{fill:#FDB87B;}
	.st47{fill:#FFF2E6;}
	.st48{fill:#FEEDDB;}
	.st49{fill:#FDBB80;}
	.st50{fill:#FEEBD8;}
	.st51{fill:#FC9345;}
	.st52{fill:#EF6916;}
	.st53{fill:#FDAF6D;}
	.st54{fill:#FFF4EA;}
	.st55{fill:#FFF4E9;}
	.st56{fill:#FFF5EB;}
	.st57{fill:#FEE4CA;}
	.st58{fill:#FDCA9A;}
	.st59{fill:#FDD7B0;}
	.st60{fill:#FC9446;}
	.st61{fill:#FDCB9A;}
	.st62{fill:#FDB06F;}
	.st63{fill:#FDCD9F;}
	.st64{fill:#FEEAD5;}
	.st65{fill:#FEE2C6;}
	.st66{fill:#FEDFC1;}
	.st67{fill:#FEEAD6;}
	.st68{fill:#FDD7B1;}
	.st69{fill:#FDA057;}
	.st70{fill:#FDC089;}
	.st71{fill:#EA6110;}
	.st72{fill:#F57724;}
	.st73{fill:#FDBF87;}
	.st74{fill:#FEE3C8;}
	.st75{fill:#FDB97D;}
	.st76{fill:#FEE6CE;}
	.st77{fill:#FFF4E8;}
	.st78{fill:#FFF5EA;}
	.st79{fill:#FDCFA1;}
	.st80{fill:#EE6816;}
	.st81{fill:#FB8D3D;}
	.st82{fill:#AC3803;}
	.st83{fill:#FEDAB7;}
	.st84{fill:#FDA761;}
	.st85{fill:#FEEAD7;}
	.st86{fill:#FDB476;}
	.st87{fill:#FEDCB9;}
	.st88{fill:#F3711E;}
	.st89{fill:#FD9D53;}
	.st90{fill:#FDAA67;}
	.st91{fill:#FDDAB5;}
	.st92{fill:#FEE8D2;}
	.st93{fill:#FFF1E3;}
	.st94{fill:#FEE7D0;}
	.st95{fill:#FDD9B5;}
	.st96{fill:#FEE8D1;}
	.st97{fill:#FFF3E8;}
	.st98{fill:#AE3903;}
	.st99{font-family:'MyriadPro-Regular';}
	.st100{font-size:24px;}
	.st101{font-size:18px;}
</style>
<g>
	<g>
		<rect x="76.8" y="114.2" class="st0" width="688" height="414.4"/>
		<rect x="76.8" y="114.2" class="st1" width="688" height="414.4"/>
	</g>
	<g>
		<defs>
			<rect id="SVGID_1_" x="76.8" y="114.2" width="688" height="414.4"/>
		</defs>
		<clipPath id="SVGID_00000059285021065039004320000015957629933570576795_">
			<use xlink:href="#SVGID_1_"  style="overflow:visible;"/>
		</clipPath>
	</g>
	<g>
		<defs>
			<rect id="SVGID_00000042700738740485561250000010355518668135719553_" x="75.3" y="112.7" width="691" height="417.4"/>
		</defs>
		<clipPath id="SVGID_00000111156396187846064230000007582941548422651551_">
			<use xlink:href="#SVGID_00000042700738740485561250000010355518668135719553_"  style="overflow:visible;"/>
		</clipPath>
		<g style="clip-path:url(#SVGID_00000111156396187846064230000007582941548422651551_);">
			<g>
				<line class="st3" x1="76.8" y1="487.2" x2="764.8" y2="487.2"/>
				<line class="st3" x1="76.8" y1="404.3" x2="764.8" y2="404.3"/>
				<line class="st3" x1="76.8" y1="321.4" x2="764.8" y2="321.4"/>
				<line class="st3" x1="76.8" y1="238.5" x2="764.8" y2="238.5"/>
				<line class="st3" x1="76.8" y1="155.6" x2="764.8" y2="155.6"/>
			</g>
		</g>
	</g>
	<g>
		<g>
			<g>
				<g>
					<line class="st4" x1="76.8" y1="528.6" x2="764.8" y2="528.6"/>
				</g>
				<g>
					<g transform="translate(90.01984405517578, 421.6333923339844)">
						<line class="st5" x1="0" y1="107" x2="0" y2="114"/>
						<text transform="matrix(0.7071 -0.7071 0.7071 0.7071 -6.230420e-02 129.3227)" class="st6 st7 st8">A</text>
					</g>
					<g transform="translate(116.48250579833984, 421.6333923339844)">
						<line class="st5" x1="0" y1="107" x2="0" y2="114"/>
						<text transform="matrix(0.7071 -0.7071 0.7071 0.7071 -6.231972e-02 129.3227)" class="st6 st7 st8">B</text>
					</g>
					<g transform="translate(142.94515991210938, 421.6333923339844)">
						<line class="st5" x1="0" y1="107" x2="0" y2="114"/>
						<text transform="matrix(0.7071 -0.7071 0.7071 0.7071 -0.5538 129.8144)" class="st6 st7 st8">C</text>
					</g>
					<g transform="translate(169.40782165527344, 421.6333923339844)">
						<line class="st5" x1="0" y1="107" x2="0" y2="114"/>
						<text transform="matrix(0.7071 -0.7071 0.7071 0.7071 -0.5538 129.8144)" class="st6 st7 st8">D</text>
					</g>
					<g transform="translate(195.8704833984375, 421.6333923339844)">
						<line class="st5" x1="0" y1="107" x2="0" y2="114"/>
						<text transform="matrix(0.7071 -0.7071 0.7071 0.7071 -6.235727e-02 129.3227)" class="st6 st7 st8">E</text>
					</g>
					<g transform="translate(222.33314514160156, 421.6333923339844)">
						<line class="st5" x1="0" y1="107" x2="0" y2="114"/>
						<text transform="matrix(0.7071 -0.7071 0.7071 0.7071 0.4381 128.8227)" class="st6 st7 st8">F</text>
					</g>
					<g transform="translate(248.79580688476562, 421.6333923339844)">
						<line class="st5" x1="0" y1="107" x2="0" y2="114"/>
						<text transform="matrix(0.7071 -0.7071 0.7071 0.7071 -1.0499 130.3105)" class="st6 st7 st8">G</text>
					</g>
					<g transform="translate(275.2584533691406, 421.6333923339844)">
						<line class="st5" x1="0" y1="107" x2="0" y2="114"/>
						<text transform="matrix(0.7071 -0.7071 0.7071 0.7071 -0.5538 129.8144)" class="st6 st7 st8">H</text>
					</g>
					<g transform="translate(301.72113037109375, 421.6333923339844)">
						<line class="st5" x1="0" y1="107" x2="0" y2="114"/>
						<text transform="matrix(0.7071 -0.7071 0.7071 0.7071 3.4049 125.8559)" class="st6 st7 st8">I</text>
					</g>
					<g transform="translate(328.18377685546875, 421.6333923339844)">
						<line class="st5" x1="0" y1="107" x2="0" y2="114"/>
						<text transform="matrix(0.7071 -0.7071 0.7071 0.7071 1.4256 127.8349)" class="st6 st7 st8">J</text>
					</g>
					<g transform="translate(354.6464538574219, 421.6333923339844)">
						<line class="st5" x1="0" y1="107" x2="0" y2="114"/>
						<text transform="matrix(0.7071 -0.7071 0.7071 0.7071 -6.220522e-02 129.3227)" class="st6 st7 st8">K</text>
					</g>
					<g transform="translate(381.1091003417969, 421.6333923339844)">
						<line class="st5" x1="0" y1="107" x2="0" y2="114"/>
						<text transform="matrix(0.7071 -0.7071 0.7071 0.7071 0.9253 128.3354)" class="st6 st7 st8">L</text>
					</g>
					<g transform="translate(407.5717468261719, 421.6333923339844)">
						<line class="st5" x1="0" y1="107" x2="0" y2="114"/>
						<text transform="matrix(0.7071 -0.7071 0.7071 0.7071 -1.5415 130.8022)" class="st6 st7 st8">M</text>
					</g>
					<g transform="translate(434.034423828125, 421.6333923339844)">
						<line class="st5" x1="0" y1="107" x2="0" y2="114"/>
						<text transform="matrix(0.7071 -0.7071 0.7071 0.7071 -0.5539 129.8144)" class="st6 st7 st8">N</text>
					</g>
					<g transform="translate(460.4970703125, 421.6333923339844)">
						<line class="st5" x1="0" y1="107" x2="0" y2="114"/>
						<text transform="matrix(0.7071 -0.7071 0.7071 0.7071 -1.0498 130.3105)" class="st6 st7 st8">O</text>
					</g>
					<g transform="translate(486.9597473144531, 421.6333923339844)">
						<line class="st5" x1="0" y1="107" x2="0" y2="114"/>
						<text transform="matrix(0.7071 -0.7071 0.7071 0.7071 -6.226580e-02 129.3227)" class="st6 st7 st8">P</text>
					</g>
					<g transform="translate(513.4224243164062, 421.6333923339844)">
						<line class="st5" x1="0" y1="107" x2="0" y2="114"/>
						<text transform="matrix(0.7071 -0.7071 0.7071 0.7071 -1.0498 130.3105)" class="st6 st7 st8">Q</text>
					</g>
					<g transform="translate(539.8850708007812, 421.6333923339844)">
						<line class="st5" x1="0" y1="107" x2="0" y2="114"/>
						<text transform="matrix(0.7071 -0.7071 0.7071 0.7071 -0.554 129.8144)" class="st6 st7 st8">R</text>
					</g>
					<g transform="translate(566.3477172851562, 421.6333923339844)">
						<line class="st5" x1="0" y1="107" x2="0" y2="114"/>
						<text transform="matrix(0.7071 -0.7071 0.7071 0.7071 -6.229634e-02 129.3227)" class="st6 st7 st8">S</text>
					</g>
					<g transform="translate(592.8103637695312, 421.6333923339844)">
						<line class="st5" x1="0" y1="107" x2="0" y2="114"/>
						<text transform="matrix(0.7071 -0.7071 0.7071 0.7071 0.4379 128.8227)" class="st6 st7 st8">T</text>
					</g>
					<g transform="translate(619.2730102539062, 421.6333923339844)">
						<line class="st5" x1="0" y1="107" x2="0" y2="114"/>
						<text transform="matrix(0.7071 -0.7071 0.7071 0.7071 -0.554 129.8144)" class="st6 st7 st8">U</text>
					</g>
					<g transform="translate(645.7357177734375, 421.6333923339844)">
						<line class="st5" x1="0" y1="107" x2="0" y2="114"/>
						<text transform="matrix(0.7071 -0.7071 0.7071 0.7071 -6.235789e-02 129.3227)" class="st6 st7 st8">V</text>
					</g>
					<g transform="translate(672.1983642578125, 421.6333923339844)">
						<line class="st5" x1="0" y1="107" x2="0" y2="114"/>
						<text transform="matrix(0.7071 -0.7071 0.7071 0.7071 -2.5289 131.7895)" class="st6 st7 st8">W</text>
					</g>
					<g transform="translate(698.6610107421875, 421.6333923339844)">
						<line class="st5" x1="0" y1="107" x2="0" y2="114"/>
						<text transform="matrix(0.7071 -0.7071 0.7071 0.7071 -6.235792e-02 129.3227)" class="st6 st7 st8">X</text>
					</g>
					<g transform="translate(725.1236572265625, 421.6333923339844)">
						<line class="st5" x1="0" y1="107" x2="0" y2="114"/>
						<text transform="matrix(0.7071 -0.7071 0.7071 0.7071 -6.235744e-02 129.3227)" class="st6 st7 st8">Y</text>
					</g>
					<g transform="translate(751.5863037109375, 421.6333923339844)">
						<line class="st5" x1="0" y1="107" x2="0" y2="114"/>
						<text transform="matrix(0.7071 -0.7071 0.7071 0.7071 0.4379 128.8227)" class="st6 st7 st8">Z</text>
					</g>
				</g>
				<g>
					<text transform="matrix(1 0 0 1 391.2814 581.25)" class="st6 st7 st9">LETTER</text>
				</g>
			</g>
		</g>
		<g>
			<g>
				<g>
					<g transform="translate(76.78851318359375, 380.1900634765625)">
						<line class="st5" x1="0" y1="107" x2="-7" y2="107"/>
						<text transform="matrix(1 0 0 1 -64.4253 111.158)" class="st6 st7 st8">Fifth Spot</text>
					</g>
					<g transform="translate(76.78851318359375, 297.3033752441406)">
						<line class="st5" x1="0" y1="107" x2="-7" y2="107"/>
						<text transform="matrix(1 0 0 1 -76.3362 111.158)" class="st6 st7 st8">Fourth Spot</text>
					</g>
					<g transform="translate(76.78851318359375, 214.4167022705078)">
						<line class="st5" x1="0" y1="107" x2="-7" y2="107"/>
						<text transform="matrix(1 0 0 1 -68.6273 111.158)" class="st6 st7 st8">Third Spot</text>
					</g>
					<g transform="translate(76.78851318359375, 131.53001403808594)">
						<line class="st5" x1="0" y1="107" x2="-7" y2="107"/>
						<text transform="matrix(1 0 0 1 -82.6547 111.158)" class="st6 st7 st8">Second Spot</text>
					</g>
					<g transform="translate(76.78851318359375, 48.643341064453125)">
						<line class="st5" x1="0" y1="107" x2="-7" y2="107"/>
						<text transform="matrix(1 0 0 1 -64.413 111.1581)" class="st6 st7 st8">First Spot</text>
					</g>
				</g>
			</g>
		</g>
	</g>
	<g>
		<defs>
			<rect id="SVGID_00000103944130651195192890000012995735349758405531_" x="76.8" y="114.2" width="688" height="414.4"/>
		</defs>
		<clipPath id="SVGID_00000151511300091808562600000005724465440332338856_">
			<use xlink:href="#SVGID_00000103944130651195192890000012995735349758405531_"  style="overflow:visible;"/>
		</clipPath>
		<g style="clip-path:url(#SVGID_00000151511300091808562600000005724465440332338856_);">
			<g>
				<rect x="76.8" y="114.2" class="st11" width="26.5" height="82.9"/>
				<rect x="76.8" y="197.1" class="st12" width="26.5" height="82.9"/>
				<rect x="76.8" y="280" class="st13" width="26.5" height="82.9"/>
				<rect x="76.8" y="362.9" class="st14" width="26.5" height="82.9"/>
				<rect x="76.8" y="445.7" class="st15" width="26.5" height="82.9"/>
				<rect x="103.3" y="114.2" class="st16" width="26.5" height="82.9"/>
				<rect x="103.3" y="197.1" class="st17" width="26.5" height="82.9"/>
				<rect x="103.3" y="280" class="st18" width="26.5" height="82.9"/>
				<rect x="103.3" y="362.9" class="st19" width="26.5" height="82.9"/>
				<rect x="103.3" y="445.7" class="st20" width="26.5" height="82.9"/>
				<rect x="129.7" y="114.2" class="st21" width="26.5" height="82.9"/>
				<rect x="129.7" y="197.1" class="st22" width="26.5" height="82.9"/>
				<rect x="129.7" y="280" class="st23" width="26.5" height="82.9"/>
				<rect x="129.7" y="362.9" class="st24" width="26.5" height="82.9"/>
				<rect x="129.7" y="445.7" class="st25" width="26.5" height="82.9"/>
				<rect x="156.2" y="114.2" class="st26" width="26.5" height="82.9"/>
				<rect x="156.2" y="197.1" class="st27" width="26.5" height="82.9"/>
				<rect x="156.2" y="280" class="st28" width="26.5" height="82.9"/>
				<rect x="156.2" y="362.9" class="st29" width="26.5" height="82.9"/>
				<rect x="156.2" y="445.7" class="st30" width="26.5" height="82.9"/>
				<rect x="182.6" y="114.2" class="st31" width="26.5" height="82.9"/>
				<rect x="182.6" y="197.1" class="st32" width="26.5" height="82.9"/>
				<rect x="182.6" y="280" class="st33" width="26.5" height="82.9"/>
				<rect x="182.6" y="362.9" class="st34" width="26.5" height="82.9"/>
				<rect x="182.6" y="445.7" class="st35" width="26.5" height="82.9"/>
				<rect x="209.1" y="114.2" class="st36" width="26.5" height="82.9"/>
				<rect x="209.1" y="197.1" class="st37" width="26.5" height="82.9"/>
				<rect x="209.1" y="280" class="st38" width="26.5" height="82.9"/>
				<rect x="209.1" y="362.9" class="st39" width="26.5" height="82.9"/>
				<rect x="209.1" y="445.7" class="st40" width="26.5" height="82.9"/>
				<rect x="235.6" y="114.2" class="st41" width="26.5" height="82.9"/>
				<rect x="235.6" y="197.1" class="st42" width="26.5" height="82.9"/>
				<rect x="235.6" y="280" class="st43" width="26.5" height="82.9"/>
				<rect x="235.6" y="362.9" class="st44" width="26.5" height="82.9"/>
				<rect x="235.6" y="445.7" class="st45" width="26.5" height="82.9"/>
				<rect x="262" y="114.2" class="st29" width="26.5" height="82.9"/>
				<rect x="262" y="197.1" class="st46" width="26.5" height="82.9"/>
				<rect x="262" y="280" class="st47" width="26.5" height="82.9"/>
				<rect x="262" y="362.9" class="st48" width="26.5" height="82.9"/>
				<rect x="262" y="445.7" class="st49" width="26.5" height="82.9"/>
				<rect x="288.5" y="114.2" class="st50" width="26.5" height="82.9"/>
				<rect x="288.5" y="197.1" class="st51" width="26.5" height="82.9"/>
				<rect x="288.5" y="280" class="st52" width="26.5" height="82.9"/>
				<rect x="288.5" y="362.9" class="st53" width="26.5" height="82.9"/>
				<rect x="288.5" y="445.7" class="st20" width="26.5" height="82.9"/>
				<rect x="315" y="114.2" class="st27" width="26.5" height="82.9"/>
				<rect x="315" y="197.1" class="st54" width="26.5" height="82.9"/>
				<rect x="315" y="280" class="st55" width="26.5" height="82.9"/>
				<rect x="315" y="362.9" class="st54" width="26.5" height="82.9"/>
				<rect x="315" y="445.7" class="st56" width="26.5" height="82.9"/>
				<rect x="341.4" y="114.2" class="st27" width="26.5" height="82.9"/>
				<rect x="341.4" y="197.1" class="st47" width="26.5" height="82.9"/>
				<rect x="341.4" y="280" class="st42" width="26.5" height="82.9"/>
				<rect x="341.4" y="362.9" class="st57" width="26.5" height="82.9"/>
				<rect x="341.4" y="445.7" class="st58" width="26.5" height="82.9"/>
				<rect x="367.9" y="114.2" class="st59" width="26.5" height="82.9"/>
				<rect x="367.9" y="197.1" class="st60" width="26.5" height="82.9"/>
				<rect x="367.9" y="280" class="st61" width="26.5" height="82.9"/>
				<rect x="367.9" y="362.9" class="st14" width="26.5" height="82.9"/>
				<rect x="367.9" y="445.7" class="st62" width="26.5" height="82.9"/>
				<rect x="394.3" y="114.2" class="st63" width="26.5" height="82.9"/>
				<rect x="394.3" y="197.1" class="st64" width="26.5" height="82.9"/>
				<rect x="394.3" y="280" class="st65" width="26.5" height="82.9"/>
				<rect x="394.3" y="362.9" class="st66" width="26.5" height="82.9"/>
				<rect x="394.3" y="445.7" class="st45" width="26.5" height="82.9"/>
				<rect x="420.8" y="114.2" class="st67" width="26.5" height="82.9"/>
				<rect x="420.8" y="197.1" class="st68" width="26.5" height="82.9"/>
				<rect x="420.8" y="280" class="st49" width="26.5" height="82.9"/>
				<rect x="420.8" y="362.9" class="st69" width="26.5" height="82.9"/>
				<rect x="420.8" y="445.7" class="st70" width="26.5" height="82.9"/>
				<rect x="447.3" y="114.2" class="st45" width="26.5" height="82.9"/>
				<rect x="447.3" y="197.1" class="st71" width="26.5" height="82.9"/>
				<rect x="447.3" y="280" class="st72" width="26.5" height="82.9"/>
				<rect x="447.3" y="362.9" class="st73" width="26.5" height="82.9"/>
				<rect x="447.3" y="445.7" class="st74" width="26.5" height="82.9"/>
				<rect x="473.7" y="114.2" class="st75" width="26.5" height="82.9"/>
				<rect x="473.7" y="197.1" class="st65" width="26.5" height="82.9"/>
				<rect x="473.7" y="280" class="st74" width="26.5" height="82.9"/>
				<rect x="473.7" y="362.9" class="st76" width="26.5" height="82.9"/>
				<rect x="473.7" y="445.7" class="st23" width="26.5" height="82.9"/>
				<rect x="500.2" y="114.2" class="st19" width="26.5" height="82.9"/>
				<rect x="500.2" y="197.1" class="st77" width="26.5" height="82.9"/>
				<rect x="500.2" y="280" class="st78" width="26.5" height="82.9"/>
				<rect x="500.2" y="362.9" class="st56" width="26.5" height="82.9"/>
				<rect x="500.2" y="445.7" class="st56" width="26.5" height="82.9"/>
				<rect x="526.7" y="114.2" class="st79" width="26.5" height="82.9"/>
				<rect x="526.7" y="197.1" class="st80" width="26.5" height="82.9"/>
				<rect x="526.7" y="280" class="st14" width="26.5" height="82.9"/>
				<rect x="526.7" y="362.9" class="st24" width="26.5" height="82.9"/>
				<rect x="526.7" y="445.7" class="st81" width="26.5" height="82.9"/>
				<rect x="553.1" y="114.2" class="st82" width="26.5" height="82.9"/>
				<rect x="553.1" y="197.1" class="st17" width="26.5" height="82.9"/>
				<rect x="553.1" y="280" class="st83" width="26.5" height="82.9"/>
				<rect x="553.1" y="362.9" class="st84" width="26.5" height="82.9"/>
				<rect x="553.1" y="445.7" class="st85" width="26.5" height="82.9"/>
				<rect x="579.6" y="114.2" class="st86" width="26.5" height="82.9"/>
				<rect x="579.6" y="197.1" class="st87" width="26.5" height="82.9"/>
				<rect x="579.6" y="280" class="st26" width="26.5" height="82.9"/>
				<rect x="579.6" y="362.9" class="st49" width="26.5" height="82.9"/>
				<rect x="579.6" y="445.7" class="st88" width="26.5" height="82.9"/>
				<rect x="606" y="114.2" class="st50" width="26.5" height="82.9"/>
				<rect x="606" y="197.1" class="st89" width="26.5" height="82.9"/>
				<rect x="606" y="280" class="st90" width="26.5" height="82.9"/>
				<rect x="606" y="362.9" class="st91" width="26.5" height="82.9"/>
				<rect x="606" y="445.7" class="st78" width="26.5" height="82.9"/>
				<rect x="632.5" y="114.2" class="st92" width="26.5" height="82.9"/>
				<rect x="632.5" y="197.1" class="st93" width="26.5" height="82.9"/>
				<rect x="632.5" y="280" class="st76" width="26.5" height="82.9"/>
				<rect x="632.5" y="362.9" class="st94" width="26.5" height="82.9"/>
				<rect x="632.5" y="445.7" class="st56" width="26.5" height="82.9"/>
				<rect x="659" y="114.2" class="st95" width="26.5" height="82.9"/>
				<rect x="659" y="197.1" class="st96" width="26.5" height="82.9"/>
				<rect x="659" y="280" class="st40" width="26.5" height="82.9"/>
				<rect x="659" y="362.9" class="st38" width="26.5" height="82.9"/>
				<rect x="659" y="445.7" class="st17" width="26.5" height="82.9"/>
				<rect x="685.4" y="114.2" class="st56" width="26.5" height="82.9"/>
				<rect x="685.4" y="197.1" class="st93" width="26.5" height="82.9"/>
				<rect x="685.4" y="280" class="st42" width="26.5" height="82.9"/>
				<rect x="685.4" y="362.9" class="st55" width="26.5" height="82.9"/>
				<rect x="685.4" y="445.7" class="st37" width="26.5" height="82.9"/>
				<rect x="711.9" y="114.2" class="st97" width="26.5" height="82.9"/>
				<rect x="711.9" y="197.1" class="st19" width="26.5" height="82.9"/>
				<rect x="711.9" y="280" class="st48" width="26.5" height="82.9"/>
				<rect x="711.9" y="362.9" class="st55" width="26.5" height="82.9"/>
				<rect x="711.9" y="445.7" class="st98" width="26.5" height="82.9"/>
				<rect x="738.4" y="114.2" class="st55" width="26.5" height="82.9"/>
				<rect x="738.4" y="197.1" class="st54" width="26.5" height="82.9"/>
				<rect x="738.4" y="280" class="st20" width="26.5" height="82.9"/>
				<rect x="738.4" y="362.9" class="st27" width="26.5" height="82.9"/>
				<rect x="738.4" y="445.7" class="st55" width="26.5" height="82.9"/>
			</g>
		</g>
	</g>
</g>
<text transform="matrix(1 0 0 1 76.6803 63.9365)" class="st6 st99 st100">Most Wordle Words Start with an S and ends with a Y</text>
<text transform="matrix(1 0 0 1 78.1805 91.9126)" class="st6 st99 st101">... sadly? shady? shaky?</text>
</svg>
